<svg width="64" height="64" viewBox="0 0 64 64" fill="none" xmlns="http://www.w3.org/2000/svg">
<rect x="1" y="1" width="30" height="30" rx="5" fill="#E7EBF4"/>
<rect x="1" y="33" width="30" height="30" rx="5" fill="#E7EBF4"/>
<rect x="33" y="1" width="30" height="30" rx="5" fill="#E7EBF4"/>
<rect x="33" y="33" width="30" height="30" rx="5" fill="#E7EBF4"/>
<rect x="33" y="33" width="16" height="16" rx="5" fill="#E7EBF4"/>
<path d="M17 33.3394C17 26.9783 22.1567 21.8215 28.5179 21.8215H30.6607C37.0219 21.8215 42.1786 26.9783 42.1786 33.3394C42.1786 39.7005 37.0219 44.8572 30.6607 44.8572H28.5179C22.1567 44.8572 17 39.7005 17 33.3394Z" fill="#E7EBF4"/>
<path d="M47 32C47 40.2843 40.2843 47 32 47C23.7157 47 17 40.2843 17 32C17 23.7157 23.7157 17 32 17C40.2843 17 47 23.7157 47 32Z" fill="#18DCA6"/>
<path fill-rule="evenodd" clip-rule="evenodd" d="M29.3211 25.8395C29.3211 25.3957 29.6809 25.0359 30.1247 25.0359C30.5685 25.0359 30.9283 25.3957 30.9283 25.8395V26.643H32.5355V25.8395C32.5355 25.3957 32.8952 25.0359 33.339 25.0359C33.7828 25.0359 34.1426 25.3957 34.1426 25.8395V26.7531C34.7938 26.8713 35.333 27.0846 35.7601 27.393C36.4525 27.8828 36.7988 28.5614 36.7988 29.4287C36.7988 29.9593 36.6747 30.4287 36.4267 30.8369C36.1786 31.245 35.8376 31.5614 35.4035 31.7858C36.0029 31.9797 36.4784 32.3063 36.8298 32.7654C37.1812 33.2144 37.3569 33.7756 37.3569 34.4491C37.3569 35.3777 36.9951 36.0971 36.2717 36.6073C35.7403 36.9745 35.0307 37.2068 34.1426 37.3044V38.1609C34.1426 38.6047 33.7828 38.9645 33.339 38.9645C32.8952 38.9645 32.5355 38.6047 32.5355 38.1609V37.3573H30.9283V38.1609C30.9283 38.6047 30.5685 38.9645 30.1247 38.9645C29.6809 38.9645 29.3211 38.6047 29.3211 38.1609V37.3573H28.5374L28.5176 37.3575H27.4461C27.0023 37.3575 26.6426 36.9977 26.6426 36.5539C26.6426 36.1101 27.0023 35.7504 27.4461 35.7504H27.714V28.2501H27.4461C27.0023 28.2501 26.6426 27.8904 26.6426 27.4466C26.6426 27.0028 27.0023 26.643 27.4461 26.643L27.714 26.643H28.5176H29.3211V25.8395ZM29.7294 28.2042V31.1583H32.582C33.2848 31.1583 33.8222 31.0358 34.1943 30.791C34.5767 30.5358 34.7679 30.1685 34.7679 29.6889C34.7679 29.1991 34.5767 28.8318 34.1943 28.5869C33.8222 28.3318 33.2848 28.2042 32.582 28.2042H29.7294ZM32.985 35.7961C34.5457 35.7961 35.326 35.2807 35.326 34.2501C35.326 33.2195 34.5457 32.7042 32.985 32.7042H29.7294V35.7961H32.985Z" fill="white"/>
<circle cx="46.5" cy="17.5" r="2.5" fill="#18DCA6"/>
<circle cx="17.5" cy="17.5" r="2.5" fill="#18DCA6"/>
<path d="M18.5 18.5L23.5 23.5" stroke="#18DCA6"/>
<path d="M46.5 17.5C40.935 23.1626 43.065 21.3374 37.5 27" stroke="#18DCA6"/>
<path d="M41 41L46 46" stroke="#18DCA6"/>
<path d="M22.5 42L17.5 47" stroke="#18DCA6"/>
<circle cx="46.5" cy="46.5" r="2.5" fill="#18DCA6"/>
<circle cx="17.5" cy="46.5" r="2.5" fill="#18DCA6"/>
</svg>
