<svg fill="none" viewBox="0 0 16 16"
  xmlns="http://www.w3.org/2000/svg">
  <mask id="c" x="0" y="0" width="16" height="16" mask-type="alpha" maskUnits="userSpaceOnUse">
    <circle cx="8" cy="8" r="8" fill="#C4C4C4"/>
  </mask>
  <g mask="url(#c)">
    <rect width="16" height="16" fill="#0E1F50"/>
    <mask id="b" x="-0.227112" y="-0.52002" width="17" height="17" fill="black" maskUnits="userSpaceOnUse">
      <rect x="-.22711" y="-.52002" width="17" height="17" fill="#fff"/>
      <path d="m8.1569 7.1569-5.6769-5.6769-0.70711 0.70711 5.6769 5.6769-5.4498 5.4497 0.70711 0.7071 5.4498-5.4497 5.9825 5.9825 0.7071-0.7071-5.9825-5.9825 5.1568-5.1568-0.7071-0.70711-5.1568 5.1568z" clip-rule="evenodd" fill-rule="evenodd"/>
    </mask>
    <path d="m8.1569 7.1569-5.6769-5.6769-0.70711 0.70711 5.6769 5.6769-5.4498 5.4497 0.70711 0.7071 5.4498-5.4497 5.9825 5.9825 0.7071-0.7071-5.9825-5.9825 5.1568-5.1568-0.7071-0.70711-5.1568 5.1568z" clip-rule="evenodd" fill="#CB2D48" fill-rule="evenodd"/>
    <path d="m2.48 1.48 0.7071-0.70711-0.7071-0.70711-0.70711 0.70711 0.70711 0.70711zm5.6769 5.6769-0.7071 0.70711 0.7071 0.7071 0.70711-0.7071-0.70711-0.70711zm-6.384-4.9698-0.70711-0.70711-0.7071 0.70711 0.7071 0.7071 0.70711-0.7071zm5.6769 5.6769 0.7071 0.7071 0.70711-0.7071-0.70711-0.70711-0.7071 0.70711zm-5.4498 5.4497-0.7071-0.7071-0.70711 0.7071 0.70711 0.7071 0.7071-0.7071zm0.70711 0.7071-0.70711 0.7071 0.70711 0.7071 0.70711-0.7071-0.70711-0.7071zm5.4498-5.4497 0.70711-0.7071-0.70711-0.70711-0.7071 0.70711 0.7071 0.7071zm5.9825 5.9825-0.7071 0.7071 0.7071 0.7072 0.7071-0.7072-0.7071-0.7071zm0.7071-0.7071 0.7072 0.7071 0.7071-0.7071-0.7071-0.7071-0.7072 0.7071zm-5.9825-5.9825-0.70711-0.70711-0.7071 0.70711 0.7071 0.7071 0.70711-0.7071zm5.1568-5.1568 0.7071 0.70711 0.7071-0.70711-0.7071-0.70711-0.7071 0.70711zm-0.7071-0.70711 0.7071-0.7071-0.7071-0.70711-0.7071 0.70711 0.7071 0.7071zm-11.541 0.18708 5.6769 5.6769 1.4142-1.4142-5.6769-5.6769-1.4142 1.4142zm0.7071 0.7071 0.70711-0.7071-1.4142-1.4142-0.70711 0.70711 1.4142 1.4142zm5.6769 4.2627-5.6769-5.6769-1.4142 1.4142 5.6769 5.6769 1.4142-1.4142zm-5.4498 6.8639 5.4498-5.4497-1.4142-1.4142-5.4498 5.4497 1.4142 1.4142zm0.70711-0.7071-0.70711-0.7071-1.4142 1.4142 0.7071 0.7071 1.4142-1.4142zm4.0355-5.4497-5.4498 5.4497 1.4142 1.4142 5.4498-5.4497-1.4142-1.4142zm7.3967 5.9825-5.9825-5.9825-1.4142 1.4142 5.9825 5.9825 1.4142-1.4142zm-0.7071-0.7071-0.7071 0.7071 1.4142 1.4142 0.7072-0.7071-1.4143-1.4142zm-5.9825-4.5683 5.9825 5.9825 1.4143-1.4142-5.9826-5.9825-1.4142 1.4142zm5.1568-6.5711-5.1568 5.1568 1.4142 1.4142 5.1568-5.1568-1.4142-1.4142zm-0.7071 0.70711 0.7071 0.70711 1.4142-1.4142-0.7071-0.7071-1.4142 1.4142zm-3.7426 5.1568 5.1568-5.1568-1.4142-1.4142-5.1568 5.1568 1.4142 1.4142z" fill="#fff" mask="url(#b)"/>
    <mask id="a" x="-1" y="-1" width="18" height="18" fill="black" maskUnits="userSpaceOnUse">
      <rect x="-1" y="-1" width="18" height="18" fill="#fff"/>
      <path d="M9 7V0H7V7H0V9H7V16H9V9H16V7H9Z" clip-rule="evenodd" fill-rule="evenodd"/>
    </mask>
    <path d="M9 7V0H7V7H0V9H7V16H9V9H16V7H9Z" clip-rule="evenodd" fill="#CB2D48" fill-rule="evenodd"/>
    <path d="M9 0H10V-1H9V0ZM9 7H8V8H9V7ZM7 0V-1H6V0H7ZM7 7V8H8V7H7ZM0 7V6H-1V7H0ZM0 9H-1V10H0V9ZM7 9H8V8H7V9ZM7 16H6V17H7V16ZM9 16V17H10V16H9ZM9 9V8H8V9H9ZM16 9V10H17V9H16ZM16 7H17V6H16V7ZM8 0V7H10V0H8ZM7 1H9V-1H7V1ZM8 7V0H6V7H8ZM0 8H7V6H0V8ZM1 9V7H-1V9H1ZM7 8H0V10H7V8ZM8 16V9H6V16H8ZM9 15H7V17H9V15ZM8 9V16H10V9H8ZM16 8H9V10H16V8ZM15 7V9H17V7H15ZM9 8H16V6H9V8Z" fill="#fff" mask="url(#a)"/>
  </g>
</svg>
