<svg width="161" height="28" viewBox="0 0 161 28" fill="none" xmlns="http://www.w3.org/2000/svg">
<path d="M25.6763 20.2908C23.3612 23.5772 19.5372 25.7241 15.2118 25.7241C8.14715 25.7241 2.42017 19.9971 2.42017 12.9325C2.42017 5.86792 8.14715 0.14093 15.2118 0.14093C18.5742 0.14093 21.6336 1.43828 23.9167 3.55972C24.3105 3.92555 24.2962 4.54131 23.9162 4.92136L20.519 8.31889C20.1056 8.7323 19.4305 8.69697 18.9781 8.32662C17.9523 7.48682 16.6409 6.98294 15.2118 6.98294C11.9259 6.98294 9.26218 9.64666 9.26218 12.9325C9.26218 16.2184 11.9259 18.8821 15.2118 18.8821C17.1519 18.8821 18.8751 17.9534 19.9612 16.5164L25.6763 20.2908Z" fill="#13265C"/>
<path d="M17.8526 23.3203L25.3314 14.9258L22.1477 12.0895L16.2904 18.664L9.32085 12.3416L9.28724 12.3807C9.27052 12.5624 9.26198 12.7465 9.26198 12.9325C9.26198 14.5203 9.88392 15.9628 10.8975 17.0296L10.8981 17.0477L11.0521 17.1865C11.1671 17.299 11.2867 17.4069 11.4106 17.5099L17.8526 23.3203Z" fill="#0BAC80"/>
<path d="M3.81444 18.7463C4.48458 20.0574 5.37432 21.2376 6.43514 22.2385L3.23321 25.9628L0 23.183L3.81444 18.7463Z" fill="#0BAC80"/>
<path d="M11.4105 17.5099L19.6433 24.9355C19.6387 24.9372 19.6341 24.9389 19.6295 24.9406L20.885 26.0759L29.7255 16.4036L26.5782 13.527L20.599 20.0688L13.6799 13.8125L10.898 17.0464L10.8981 17.0477L11.052 17.1865C11.1671 17.299 11.2867 17.4069 11.4105 17.5099Z" fill="#23FFC2"/>
<path d="M6.43325 22.2367L4.37341 24.6313L7.60586 27.4119L10.0068 24.6209C8.68121 24.0297 7.47473 23.2197 6.43325 22.2367Z" fill="#23FFC2"/>
<path d="M38.9953 20C37.8669 20 36.8439 19.7505 35.9265 19.2516C35.0195 18.7418 34.3024 18.0421 33.7751 17.1527C33.2584 16.2524 33 15.2382 33 14.1101C33 12.9821 33.2584 11.9733 33.7751 11.0839C34.3024 10.1836 35.0195 9.48394 35.9265 8.98498C36.8439 8.47518 37.8721 8.22028 39.0111 8.22028C39.9708 8.22028 40.8355 8.39383 41.6054 8.74093C42.3857 9.08803 43.0396 9.58698 43.5669 10.2378L41.9217 11.7998C41.173 10.9103 40.2449 10.4656 39.1376 10.4656C38.4522 10.4656 37.8405 10.6229 37.3027 10.9374C36.7648 11.2411 36.343 11.6696 36.0372 12.2228C35.7419 12.776 35.5943 13.4051 35.5943 14.1101C35.5943 14.8152 35.7419 15.4443 36.0372 15.9975C36.343 16.5507 36.7648 16.9846 37.3027 17.2991C37.8405 17.6028 38.4522 17.7547 39.1376 17.7547C40.2449 17.7547 41.173 17.3045 41.9217 16.4043L43.5669 17.9662C43.0396 18.6279 42.3857 19.1322 41.6054 19.4793C40.825 19.8264 39.9549 20 38.9953 20Z" fill="#13265C"/>
<path d="M48.8795 19.9349C47.9831 19.9349 47.1763 19.7451 46.4592 19.3655C45.7526 18.975 45.199 18.438 44.7982 17.7547C44.3975 17.0713 44.1971 16.2958 44.1971 15.428C44.1971 14.5603 44.3975 13.7847 44.7982 13.1014C45.199 12.418 45.7526 11.8865 46.4592 11.5069C47.1763 11.1164 47.9831 10.9212 48.8795 10.9212C49.7759 10.9212 50.5773 11.1164 51.2839 11.5069C51.9905 11.8865 52.5441 12.418 52.9449 13.1014C53.3456 13.7847 53.546 14.5603 53.546 15.428C53.546 16.2958 53.3456 17.0713 52.9449 17.7547C52.5441 18.438 51.9905 18.975 51.2839 19.3655C50.5773 19.7451 49.7759 19.9349 48.8795 19.9349ZM48.8795 17.8523C49.5122 17.8523 50.029 17.6354 50.4297 17.2015C50.841 16.7568 51.0466 16.1656 51.0466 15.428C51.0466 14.6904 50.841 14.1047 50.4297 13.6708C50.029 13.2261 49.5122 13.0038 48.8795 13.0038C48.2467 13.0038 47.7247 13.2261 47.3134 13.6708C46.9021 14.1047 46.6965 14.6904 46.6965 15.428C46.6965 16.1656 46.9021 16.7568 47.3134 17.2015C47.7247 17.6354 48.2467 17.8523 48.8795 17.8523Z" fill="#13265C"/>
<path d="M55.1954 11.0513H57.6631V19.8048H55.1954V11.0513ZM56.4293 9.83104C55.9758 9.83104 55.6067 9.69545 55.322 9.42428C55.0372 9.15311 54.8949 8.81685 54.8949 8.41552C54.8949 8.01418 55.0372 7.67793 55.322 7.40676C55.6067 7.13559 55.9758 7 56.4293 7C56.8828 7 57.2519 7.13016 57.5366 7.39049C57.8213 7.65081 57.9637 7.97622 57.9637 8.36671C57.9637 8.78974 57.8213 9.14226 57.5366 9.42428C57.2519 9.69545 56.8828 9.83104 56.4293 9.83104Z" fill="#13265C"/>
<path d="M65.1261 10.9212C66.1807 10.9212 67.0296 11.2466 67.6729 11.8974C68.3267 12.5482 68.6537 13.5136 68.6537 14.7935V19.8048H66.1859V15.184C66.1859 14.4898 66.0383 13.9746 65.743 13.6383C65.4477 13.2912 65.0206 13.1176 64.4617 13.1176C63.8395 13.1176 63.3439 13.3183 62.9748 13.7196C62.6057 14.1101 62.4211 14.6959 62.4211 15.4768V19.8048H59.9534V11.0513H62.3104V12.0763C62.6373 11.7076 63.0433 11.4255 63.5284 11.2303C64.0135 11.0242 64.5461 10.9212 65.1261 10.9212Z" fill="#13265C"/>
<path d="M81.8991 10.9212C82.9642 10.9212 83.8078 11.2466 84.43 11.8974C85.0628 12.5373 85.3792 13.5027 85.3792 14.7935V19.8048H82.9114V15.184C82.9114 14.4898 82.7691 13.9746 82.4843 13.6383C82.2102 13.2912 81.8147 13.1176 81.298 13.1176C80.7179 13.1176 80.2592 13.3129 79.9217 13.7034C79.5843 14.083 79.4155 14.6525 79.4155 15.4118V19.8048H76.9478V15.184C76.9478 13.8064 76.41 13.1176 75.3343 13.1176C74.7648 13.1176 74.3114 13.3129 73.9739 13.7034C73.6364 14.083 73.4677 14.6525 73.4677 15.4118V19.8048H71V11.0513H73.357V12.0601C73.6734 11.6913 74.0583 11.4093 74.5117 11.214C74.9758 11.0188 75.4819 10.9212 76.0303 10.9212C76.6314 10.9212 77.1745 11.0459 77.6597 11.2954C78.1448 11.534 78.5349 11.8865 78.8302 12.3529C79.1782 11.8974 79.6159 11.5448 80.1432 11.2954C80.681 11.0459 81.2663 10.9212 81.8991 10.9212Z" fill="#18DCA6"/>
<path d="M96.3207 11.0513V19.8048H93.9637V18.796C93.3521 19.5553 92.4662 19.9349 91.3062 19.9349C90.5047 19.9349 89.7771 19.7505 89.1232 19.3817C88.4799 19.0129 87.9737 18.4869 87.6046 17.8035C87.2355 17.1202 87.051 16.3283 87.051 15.428C87.051 14.5277 87.2355 13.7359 87.6046 13.0526C87.9737 12.3692 88.4799 11.8431 89.1232 11.4743C89.7771 11.1055 90.5047 10.9212 91.3062 10.9212C92.3924 10.9212 93.2414 11.2737 93.853 11.9787V11.0513H96.3207ZM91.7333 17.8523C92.3555 17.8523 92.8723 17.6354 93.2835 17.2015C93.6948 16.7568 93.9005 16.1656 93.9005 15.428C93.9005 14.6904 93.6948 14.1047 93.2835 13.6708C92.8723 13.2261 92.3555 13.0038 91.7333 13.0038C91.1006 13.0038 90.5786 13.2261 90.1673 13.6708C89.756 14.1047 89.5503 14.6904 89.5503 15.428C89.5503 16.1656 89.756 16.7568 90.1673 17.2015C90.5786 17.6354 91.1006 17.8523 91.7333 17.8523Z" fill="#18DCA6"/>
<path d="M103.731 19.3817C103.488 19.5661 103.188 19.7071 102.829 19.8048C102.481 19.8915 102.117 19.9349 101.737 19.9349C100.715 19.9349 99.9289 19.6692 99.3805 19.1377C98.8321 18.6062 98.558 17.8252 98.558 16.7947V9.11514H101.026V11.2466H103.13V13.199H101.026V16.7622C101.026 17.131 101.115 17.4184 101.295 17.6245C101.474 17.8198 101.732 17.9174 102.07 17.9174C102.449 17.9174 102.787 17.8089 103.082 17.592L103.731 19.3817Z" fill="#18DCA6"/>
<path d="M105.124 11.0513H107.592V19.8048H105.124V11.0513ZM106.358 9.83104C105.905 9.83104 105.536 9.69545 105.251 9.42428C104.966 9.15311 104.824 8.81685 104.824 8.41552C104.824 8.01418 104.966 7.67793 105.251 7.40676C105.536 7.13559 105.905 7 106.358 7C106.812 7 107.181 7.13016 107.466 7.39049C107.75 7.65081 107.893 7.97622 107.893 8.36671C107.893 8.78974 107.75 9.14226 107.466 9.42428C107.181 9.69545 106.812 9.83104 106.358 9.83104Z" fill="#18DCA6"/>
<path d="M113.995 19.9349C113.088 19.9349 112.271 19.7451 111.543 19.3655C110.826 18.975 110.262 18.438 109.851 17.7547C109.45 17.0713 109.25 16.2958 109.25 15.428C109.25 14.5603 109.45 13.7847 109.851 13.1014C110.262 12.418 110.826 11.8865 111.543 11.5069C112.271 11.1164 113.088 10.9212 113.995 10.9212C114.892 10.9212 115.672 11.1164 116.336 11.5069C117.011 11.8865 117.502 12.4343 117.808 13.1502L115.893 14.2078C115.451 13.4051 114.813 13.0038 113.979 13.0038C113.336 13.0038 112.804 13.2207 112.382 13.6546C111.96 14.0884 111.749 14.6796 111.749 15.428C111.749 16.1765 111.96 16.7676 112.382 17.2015C112.804 17.6354 113.336 17.8523 113.979 17.8523C114.823 17.8523 115.461 17.451 115.893 16.6483L117.808 17.7222C117.502 18.4164 117.011 18.9587 116.336 19.3492C115.672 19.7397 114.892 19.9349 113.995 19.9349Z" fill="#18DCA6"/>
<path d="M122.092 19.9349C121.385 19.9349 120.694 19.8481 120.019 19.6746C119.344 19.4902 118.807 19.2624 118.406 18.9912L119.228 17.169C119.608 17.4184 120.067 17.6245 120.605 17.7872C121.142 17.9391 121.67 18.015 122.186 18.015C123.23 18.015 123.753 17.7493 123.753 17.2178C123.753 16.9683 123.61 16.7893 123.325 16.6809C123.041 16.5724 122.603 16.4802 122.012 16.4043C121.316 16.2958 120.742 16.171 120.288 16.03C119.835 15.889 119.439 15.6396 119.102 15.2816C118.775 14.9237 118.611 14.4139 118.611 13.7522C118.611 13.199 118.764 12.7109 119.07 12.2879C119.387 11.854 119.84 11.5177 120.431 11.2791C121.032 11.0405 121.738 10.9212 122.55 10.9212C123.151 10.9212 123.747 10.9917 124.338 11.1327C124.939 11.2628 125.435 11.4472 125.825 11.6859L125.002 13.4919C124.253 13.058 123.436 12.8411 122.55 12.8411C122.023 12.8411 121.628 12.917 121.364 13.0688C121.1 13.2207 120.968 13.4159 120.968 13.6546C120.968 13.9257 121.111 14.1156 121.396 14.224C121.68 14.3325 122.134 14.4355 122.756 14.5332C123.452 14.6525 124.021 14.7826 124.464 14.9237C124.907 15.0538 125.292 15.2979 125.619 15.6558C125.946 16.0138 126.109 16.5127 126.109 17.1527C126.109 17.695 125.951 18.1777 125.635 18.6008C125.319 19.0238 124.855 19.3546 124.243 19.5932C123.642 19.821 122.925 19.9349 122.092 19.9349Z" fill="#18DCA6"/>
<path d="M130 4C130 1.79086 131.791 0 134 0H157C159.209 0 161 1.79086 161 4V13C161 15.2091 159.209 17 157 17H134.751C134.267 17 133.799 17.1758 133.434 17.4948L133.317 17.5976C132.024 18.7291 130 17.8108 130 16.0925V4Z" fill="#18DCA6"/>
<path d="M138.97 8.36C139.37 8.48667 139.683 8.7 139.91 9C140.137 9.29333 140.25 9.65667 140.25 10.09C140.25 10.7033 140.01 11.1767 139.53 11.51C139.057 11.8367 138.363 12 137.45 12H133.83V5H137.25C138.103 5 138.757 5.16333 139.21 5.49C139.67 5.81667 139.9 6.26 139.9 6.82C139.9 7.16 139.817 7.46333 139.65 7.73C139.49 7.99667 139.263 8.20667 138.97 8.36ZM135.44 6.22V7.87H137.05C137.45 7.87 137.753 7.8 137.96 7.66C138.167 7.52 138.27 7.31333 138.27 7.04C138.27 6.76667 138.167 6.56333 137.96 6.43C137.753 6.29 137.45 6.22 137.05 6.22H135.44ZM137.33 10.78C137.757 10.78 138.077 10.71 138.29 10.57C138.51 10.43 138.62 10.2133 138.62 9.92C138.62 9.34 138.19 9.05 137.33 9.05H135.44V10.78H137.33Z" fill="white"/>
<path d="M144.077 10.83C144.357 10.83 144.603 10.79 144.817 10.71C145.037 10.6233 145.24 10.49 145.427 10.31L146.257 11.21C145.75 11.79 145.01 12.08 144.037 12.08C143.43 12.08 142.893 11.9633 142.427 11.73C141.96 11.49 141.6 11.16 141.347 10.74C141.093 10.32 140.967 9.84333 140.967 9.31C140.967 8.78333 141.09 8.31 141.337 7.89C141.59 7.46333 141.933 7.13333 142.367 6.9C142.807 6.66 143.3 6.54 143.847 6.54C144.36 6.54 144.827 6.65 145.247 6.87C145.667 7.08333 146 7.39667 146.247 7.81C146.5 8.21667 146.627 8.7 146.627 9.26L142.647 10.03C142.76 10.2967 142.937 10.4967 143.177 10.63C143.423 10.7633 143.723 10.83 144.077 10.83ZM143.847 7.72C143.453 7.72 143.133 7.84667 142.887 8.1C142.64 8.35333 142.51 8.70333 142.497 9.15L145.117 8.64C145.043 8.36 144.893 8.13667 144.667 7.97C144.44 7.80333 144.167 7.72 143.847 7.72Z" fill="white"/>
<path d="M150.915 11.74C150.762 11.8533 150.572 11.94 150.345 12C150.125 12.0533 149.895 12.08 149.655 12.08C149.008 12.08 148.512 11.9167 148.165 11.59C147.818 11.2633 147.645 10.7833 147.645 10.15V5.43H149.205V6.74H150.535V7.94H149.205V10.13C149.205 10.3567 149.262 10.5333 149.375 10.66C149.488 10.78 149.652 10.84 149.865 10.84C150.105 10.84 150.318 10.7733 150.505 10.64L150.915 11.74Z" fill="white"/>
<path d="M157.09 6.62V12H155.6V11.38C155.214 11.8467 154.654 12.08 153.92 12.08C153.414 12.08 152.954 11.9667 152.54 11.74C152.134 11.5133 151.814 11.19 151.58 10.77C151.347 10.35 151.23 9.86333 151.23 9.31C151.23 8.75667 151.347 8.27 151.58 7.85C151.814 7.43 152.134 7.10667 152.54 6.88C152.954 6.65333 153.414 6.54 153.92 6.54C154.607 6.54 155.144 6.75667 155.53 7.19V6.62H157.09ZM154.19 10.8C154.584 10.8 154.91 10.6667 155.17 10.4C155.43 10.1267 155.56 9.76333 155.56 9.31C155.56 8.85667 155.43 8.49667 155.17 8.23C154.91 7.95667 154.584 7.82 154.19 7.82C153.79 7.82 153.46 7.95667 153.2 8.23C152.94 8.49667 152.81 8.85667 152.81 9.31C152.81 9.76333 152.94 10.1267 153.2 10.4C153.46 10.6667 153.79 10.8 154.19 10.8Z" fill="white"/>
</svg>
