<svg width="161" height="28" viewBox="0 0 161 28" fill="none" xmlns="http://www.w3.org/2000/svg">
<path d="M23.7636 19.1385C21.858 21.8436 18.7104 23.6108 15.15 23.6108C9.33507 23.6108 4.62109 18.8968 4.62109 13.0818C4.62109 7.26683 9.33507 2.55286 15.15 2.55286C17.9177 2.55286 20.436 3.62072 22.3152 5.36691C22.6393 5.66804 22.6276 6.17487 22.3148 6.4877L19.5185 9.28426C19.1783 9.62455 18.6225 9.59546 18.2502 9.29063C17.4058 8.59937 16.3264 8.18462 15.15 8.18462C12.4454 8.18462 10.2529 10.3772 10.2529 13.0818C10.2529 15.7864 12.4454 17.979 15.15 17.979C16.747 17.979 18.1654 17.2146 19.0594 16.0317L23.7636 19.1385Z" fill="#13265C"/>
<path d="M17.3238 21.6321L23.4796 14.7225L20.8591 12.3879L16.0379 17.7994L10.3012 12.5954L10.2735 12.6276C10.2597 12.7772 10.2527 12.9287 10.2527 13.0818C10.2527 14.3887 10.7646 15.576 11.5989 16.4542L11.5995 16.469L11.7261 16.5833C11.8209 16.6759 11.9193 16.7647 12.0213 16.8495L17.3238 21.6321Z" fill="#0BAC80"/>
<path d="M5.76875 17.8672C6.32036 18.9464 7.05271 19.9179 7.92589 20.7417L5.29033 23.8072L2.62903 21.5191L5.76875 17.8672Z" fill="#0BAC80"/>
<path d="M12.0212 16.8495L18.7978 22.9617C18.794 22.9631 18.7902 22.9645 18.7864 22.9659L19.8198 23.9003L27.0966 15.9389L24.506 13.5711L19.5844 18.9557L13.8892 13.8061L11.5994 16.468L11.5994 16.469L11.7261 16.5833C11.8208 16.6759 11.9193 16.7647 12.0212 16.8495Z" fill="#23FFC2"/>
<path d="M7.92437 20.7402L6.22888 22.7112L8.88956 25L10.8658 22.7026C9.7747 22.2161 8.78163 21.5493 7.92437 20.7402Z" fill="#23FFC2"/>
<path d="M37.9953 20C36.8669 20 35.8439 19.7505 34.9265 19.2516C34.0195 18.7418 33.3024 18.0421 32.7751 17.1527C32.2584 16.2524 32 15.2382 32 14.1101C32 12.9821 32.2584 11.9733 32.7751 11.0839C33.3024 10.1836 34.0195 9.48394 34.9265 8.98498C35.8439 8.47518 36.8721 8.22028 38.0111 8.22028C38.9708 8.22028 39.8355 8.39383 40.6054 8.74093C41.3857 9.08803 42.0396 9.58698 42.5669 10.2378L40.9217 11.7998C40.173 10.9103 39.2449 10.4656 38.1376 10.4656C37.4522 10.4656 36.8405 10.6229 36.3027 10.9374C35.7648 11.2411 35.343 11.6696 35.0372 12.2228C34.7419 12.776 34.5943 13.4051 34.5943 14.1101C34.5943 14.8152 34.7419 15.4443 35.0372 15.9975C35.343 16.5507 35.7648 16.9846 36.3027 17.2991C36.8405 17.6028 37.4522 17.7547 38.1376 17.7547C39.2449 17.7547 40.173 17.3045 40.9217 16.4043L42.5669 17.9662C42.0396 18.6279 41.3857 19.1322 40.6054 19.4793C39.825 19.8264 38.9549 20 37.9953 20Z" fill="#13265C"/>
<path d="M47.8795 19.9349C46.9831 19.9349 46.1763 19.7451 45.4592 19.3655C44.7526 18.975 44.199 18.438 43.7982 17.7547C43.3975 17.0713 43.1971 16.2958 43.1971 15.428C43.1971 14.5603 43.3975 13.7847 43.7982 13.1014C44.199 12.418 44.7526 11.8865 45.4592 11.5069C46.1763 11.1164 46.9831 10.9212 47.8795 10.9212C48.7759 10.9212 49.5773 11.1164 50.2839 11.5069C50.9905 11.8865 51.5441 12.418 51.9449 13.1014C52.3456 13.7847 52.546 14.5603 52.546 15.428C52.546 16.2958 52.3456 17.0713 51.9449 17.7547C51.5441 18.438 50.9905 18.975 50.2839 19.3655C49.5773 19.7451 48.7759 19.9349 47.8795 19.9349ZM47.8795 17.8523C48.5122 17.8523 49.029 17.6354 49.4297 17.2015C49.841 16.7568 50.0466 16.1656 50.0466 15.428C50.0466 14.6904 49.841 14.1047 49.4297 13.6708C49.029 13.2261 48.5122 13.0038 47.8795 13.0038C47.2467 13.0038 46.7247 13.2261 46.3134 13.6708C45.9021 14.1047 45.6965 14.6904 45.6965 15.428C45.6965 16.1656 45.9021 16.7568 46.3134 17.2015C46.7247 17.6354 47.2467 17.8523 47.8795 17.8523Z" fill="#13265C"/>
<path d="M54.1954 11.0513H56.6631V19.8048H54.1954V11.0513ZM55.4293 9.83104C54.9758 9.83104 54.6067 9.69545 54.322 9.42428C54.0372 9.15311 53.8949 8.81685 53.8949 8.41552C53.8949 8.01418 54.0372 7.67793 54.322 7.40676C54.6067 7.13559 54.9758 7 55.4293 7C55.8828 7 56.2519 7.13016 56.5366 7.39049C56.8213 7.65081 56.9637 7.97622 56.9637 8.36671C56.9637 8.78974 56.8213 9.14226 56.5366 9.42428C56.2519 9.69545 55.8828 9.83104 55.4293 9.83104Z" fill="#13265C"/>
<path d="M64.1261 10.9212C65.1807 10.9212 66.0296 11.2466 66.6729 11.8974C67.3267 12.5482 67.6537 13.5136 67.6537 14.7935V19.8048H65.1859V15.184C65.1859 14.4898 65.0383 13.9746 64.743 13.6383C64.4477 13.2912 64.0206 13.1176 63.4617 13.1176C62.8395 13.1176 62.3439 13.3183 61.9748 13.7196C61.6057 14.1101 61.4211 14.6959 61.4211 15.4768V19.8048H58.9534V11.0513H61.3104V12.0763C61.6373 11.7076 62.0433 11.4255 62.5284 11.2303C63.0135 11.0242 63.5461 10.9212 64.1261 10.9212Z" fill="#13265C"/>
<path d="M80.8991 10.9212C81.9642 10.9212 82.8078 11.2466 83.43 11.8974C84.0628 12.5373 84.3792 13.5027 84.3792 14.7935V19.8048H81.9114V15.184C81.9114 14.4898 81.7691 13.9746 81.4843 13.6383C81.2102 13.2912 80.8147 13.1176 80.298 13.1176C79.7179 13.1176 79.2592 13.3129 78.9217 13.7034C78.5843 14.083 78.4155 14.6525 78.4155 15.4118V19.8048H75.9478V15.184C75.9478 13.8064 75.41 13.1176 74.3343 13.1176C73.7648 13.1176 73.3114 13.3129 72.9739 13.7034C72.6364 14.083 72.4677 14.6525 72.4677 15.4118V19.8048H70V11.0513H72.357V12.0601C72.6734 11.6913 73.0583 11.4093 73.5117 11.214C73.9758 11.0188 74.4819 10.9212 75.0303 10.9212C75.6314 10.9212 76.1745 11.0459 76.6597 11.2954C77.1448 11.534 77.5349 11.8865 77.8302 12.3529C78.1782 11.8974 78.6159 11.5448 79.1432 11.2954C79.681 11.0459 80.2663 10.9212 80.8991 10.9212Z" fill="#18DCA6"/>
<path d="M95.3207 11.0513V19.8048H92.9637V18.796C92.3521 19.5553 91.4662 19.9349 90.3062 19.9349C89.5047 19.9349 88.7771 19.7505 88.1232 19.3817C87.4799 19.0129 86.9737 18.4869 86.6046 17.8035C86.2355 17.1202 86.051 16.3283 86.051 15.428C86.051 14.5277 86.2355 13.7359 86.6046 13.0526C86.9737 12.3692 87.4799 11.8431 88.1232 11.4743C88.7771 11.1055 89.5047 10.9212 90.3062 10.9212C91.3924 10.9212 92.2414 11.2737 92.853 11.9787V11.0513H95.3207ZM90.7333 17.8523C91.3555 17.8523 91.8723 17.6354 92.2835 17.2015C92.6948 16.7568 92.9005 16.1656 92.9005 15.428C92.9005 14.6904 92.6948 14.1047 92.2835 13.6708C91.8723 13.2261 91.3555 13.0038 90.7333 13.0038C90.1006 13.0038 89.5786 13.2261 89.1673 13.6708C88.756 14.1047 88.5503 14.6904 88.5503 15.428C88.5503 16.1656 88.756 16.7568 89.1673 17.2015C89.5786 17.6354 90.1006 17.8523 90.7333 17.8523Z" fill="#18DCA6"/>
<path d="M102.731 19.3817C102.488 19.5661 102.188 19.7071 101.829 19.8048C101.481 19.8915 101.117 19.9349 100.737 19.9349C99.7146 19.9349 98.9289 19.6692 98.3805 19.1377C97.8321 18.6062 97.558 17.8252 97.558 16.7947V9.11514H100.026V11.2466H102.13V13.199H100.026V16.7622C100.026 17.131 100.115 17.4184 100.295 17.6245C100.474 17.8198 100.732 17.9174 101.07 17.9174C101.449 17.9174 101.787 17.8089 102.082 17.592L102.731 19.3817Z" fill="#18DCA6"/>
<path d="M104.124 11.0513H106.592V19.8048H104.124V11.0513ZM105.358 9.83104C104.905 9.83104 104.536 9.69545 104.251 9.42428C103.966 9.15311 103.824 8.81685 103.824 8.41552C103.824 8.01418 103.966 7.67793 104.251 7.40676C104.536 7.13559 104.905 7 105.358 7C105.812 7 106.181 7.13016 106.466 7.39049C106.75 7.65081 106.893 7.97622 106.893 8.36671C106.893 8.78974 106.75 9.14226 106.466 9.42428C106.181 9.69545 105.812 9.83104 105.358 9.83104Z" fill="#18DCA6"/>
<path d="M112.995 19.9349C112.088 19.9349 111.271 19.7451 110.543 19.3655C109.826 18.975 109.262 18.438 108.851 17.7547C108.45 17.0713 108.25 16.2958 108.25 15.428C108.25 14.5603 108.45 13.7847 108.851 13.1014C109.262 12.418 109.826 11.8865 110.543 11.5069C111.271 11.1164 112.088 10.9212 112.995 10.9212C113.892 10.9212 114.672 11.1164 115.336 11.5069C116.011 11.8865 116.502 12.4343 116.808 13.1502L114.893 14.2078C114.451 13.4051 113.813 13.0038 112.979 13.0038C112.336 13.0038 111.804 13.2207 111.382 13.6546C110.96 14.0884 110.749 14.6796 110.749 15.428C110.749 16.1765 110.96 16.7676 111.382 17.2015C111.804 17.6354 112.336 17.8523 112.979 17.8523C113.823 17.8523 114.461 17.451 114.893 16.6483L116.808 17.7222C116.502 18.4164 116.011 18.9587 115.336 19.3492C114.672 19.7397 113.892 19.9349 112.995 19.9349Z" fill="#18DCA6"/>
<path d="M121.092 19.9349C120.385 19.9349 119.694 19.8481 119.019 19.6746C118.344 19.4902 117.807 19.2624 117.406 18.9912L118.228 17.169C118.608 17.4184 119.067 17.6245 119.605 17.7872C120.142 17.9391 120.67 18.015 121.186 18.015C122.23 18.015 122.753 17.7493 122.753 17.2178C122.753 16.9683 122.61 16.7893 122.325 16.6809C122.041 16.5724 121.603 16.4802 121.012 16.4043C120.316 16.2958 119.742 16.171 119.288 16.03C118.835 15.889 118.439 15.6396 118.102 15.2816C117.775 14.9237 117.611 14.4139 117.611 13.7522C117.611 13.199 117.764 12.7109 118.07 12.2879C118.387 11.854 118.84 11.5177 119.431 11.2791C120.032 11.0405 120.738 10.9212 121.55 10.9212C122.151 10.9212 122.747 10.9917 123.338 11.1327C123.939 11.2628 124.435 11.4472 124.825 11.6859L124.002 13.4919C123.253 13.058 122.436 12.8411 121.55 12.8411C121.023 12.8411 120.628 12.917 120.364 13.0688C120.1 13.2207 119.968 13.4159 119.968 13.6546C119.968 13.9257 120.111 14.1156 120.396 14.224C120.68 14.3325 121.134 14.4355 121.756 14.5332C122.452 14.6525 123.021 14.7826 123.464 14.9237C123.907 15.0538 124.292 15.2979 124.619 15.6558C124.946 16.0138 125.109 16.5127 125.109 17.1527C125.109 17.695 124.951 18.1777 124.635 18.6008C124.319 19.0238 123.855 19.3546 123.243 19.5932C122.642 19.821 121.925 19.9349 121.092 19.9349Z" fill="#18DCA6"/>
<path d="M129 4C129 1.79086 130.791 0 133 0H156C158.209 0 160 1.79086 160 4V13C160 15.2091 158.209 17 156 17H133.751C133.267 17 132.799 17.1758 132.434 17.4948L132.317 17.5976C131.024 18.7291 129 17.8108 129 16.0925V4Z" fill="#18DCA6"/>
<path d="M137.97 8.36C138.37 8.48667 138.683 8.7 138.91 9C139.137 9.29333 139.25 9.65667 139.25 10.09C139.25 10.7033 139.01 11.1767 138.53 11.51C138.057 11.8367 137.363 12 136.45 12H132.83V5H136.25C137.103 5 137.757 5.16333 138.21 5.49C138.67 5.81667 138.9 6.26 138.9 6.82C138.9 7.16 138.817 7.46333 138.65 7.73C138.49 7.99667 138.263 8.20667 137.97 8.36ZM134.44 6.22V7.87H136.05C136.45 7.87 136.753 7.8 136.96 7.66C137.167 7.52 137.27 7.31333 137.27 7.04C137.27 6.76667 137.167 6.56333 136.96 6.43C136.753 6.29 136.45 6.22 136.05 6.22H134.44ZM136.33 10.78C136.757 10.78 137.077 10.71 137.29 10.57C137.51 10.43 137.62 10.2133 137.62 9.92C137.62 9.34 137.19 9.05 136.33 9.05H134.44V10.78H136.33Z" fill="white"/>
<path d="M143.077 10.83C143.357 10.83 143.603 10.79 143.817 10.71C144.037 10.6233 144.24 10.49 144.427 10.31L145.257 11.21C144.75 11.79 144.01 12.08 143.037 12.08C142.43 12.08 141.893 11.9633 141.427 11.73C140.96 11.49 140.6 11.16 140.347 10.74C140.093 10.32 139.967 9.84333 139.967 9.31C139.967 8.78333 140.09 8.31 140.337 7.89C140.59 7.46333 140.933 7.13333 141.367 6.9C141.807 6.66 142.3 6.54 142.847 6.54C143.36 6.54 143.827 6.65 144.247 6.87C144.667 7.08333 145 7.39667 145.247 7.81C145.5 8.21667 145.627 8.7 145.627 9.26L141.647 10.03C141.76 10.2967 141.937 10.4967 142.177 10.63C142.423 10.7633 142.723 10.83 143.077 10.83ZM142.847 7.72C142.453 7.72 142.133 7.84667 141.887 8.1C141.64 8.35333 141.51 8.70333 141.497 9.15L144.117 8.64C144.043 8.36 143.893 8.13667 143.667 7.97C143.44 7.80333 143.167 7.72 142.847 7.72Z" fill="white"/>
<path d="M149.915 11.74C149.762 11.8533 149.572 11.94 149.345 12C149.125 12.0533 148.895 12.08 148.655 12.08C148.008 12.08 147.512 11.9167 147.165 11.59C146.818 11.2633 146.645 10.7833 146.645 10.15V5.43H148.205V6.74H149.535V7.94H148.205V10.13C148.205 10.3567 148.262 10.5333 148.375 10.66C148.488 10.78 148.652 10.84 148.865 10.84C149.105 10.84 149.318 10.7733 149.505 10.64L149.915 11.74Z" fill="white"/>
<path d="M156.09 6.62V12H154.6V11.38C154.214 11.8467 153.654 12.08 152.92 12.08C152.414 12.08 151.954 11.9667 151.54 11.74C151.134 11.5133 150.814 11.19 150.58 10.77C150.347 10.35 150.23 9.86333 150.23 9.31C150.23 8.75667 150.347 8.27 150.58 7.85C150.814 7.43 151.134 7.10667 151.54 6.88C151.954 6.65333 152.414 6.54 152.92 6.54C153.607 6.54 154.144 6.75667 154.53 7.19V6.62H156.09ZM153.19 10.8C153.584 10.8 153.91 10.6667 154.17 10.4C154.43 10.1267 154.56 9.76333 154.56 9.31C154.56 8.85667 154.43 8.49667 154.17 8.23C153.91 7.95667 153.584 7.82 153.19 7.82C152.79 7.82 152.46 7.95667 152.2 8.23C151.94 8.49667 151.81 8.85667 151.81 9.31C151.81 9.76333 151.94 10.1267 152.2 10.4C152.46 10.6667 152.79 10.8 153.19 10.8Z" fill="white"/>
</svg>
