<svg width="56" height="56" viewBox="0 0 56 56" fill="none" xmlns="http://www.w3.org/2000/svg">
<path fill-rule="evenodd" clip-rule="evenodd" d="M11.0245 14H7.28742C5.47183 14 4 15.5173 4 17.389V45.611C4 47.4827 5.47182 49 7.28742 49H48.7126C50.5282 49 52 47.3717 52 45.5V17C52 15.1283 50.5282 14 48.7126 14H44.9757V16H48.1821C49.0899 16 50 17.0642 50 18V46C50 46.4679 49.4578 47 49.0039 47H6.99606C6.54216 47 6.1742 46.6207 6.1742 46.1528V17.6945C6.1742 16.7586 6.91011 16 7.81791 16H11.0245V14ZM15.8746 34C15.8746 33.4477 16.3089 33 16.8446 33H41.0955C41.6312 33 42.0655 33.4477 42.0655 34C42.0655 34.5523 41.6312 35 41.0955 35H16.8446C16.3089 35 15.8746 34.5523 15.8746 34ZM16.8446 37C16.3089 37 15.8746 37.4477 15.8746 38C15.8746 38.5523 16.3089 39 16.8446 39H33.3352C33.8709 39 34.3052 38.5523 34.3052 38C34.3052 37.4477 33.8709 37 33.3352 37H16.8446Z" fill="#E7EBF4"/>
<path d="M0 46.8182C0 46.3663 0.359886 46 0.803828 46H55.1962C55.6401 46 56 46.3663 56 46.8182C56 48.0232 55.0403 49 53.8565 49H2.14354C0.959699 49 0 48.0232 0 46.8182Z" fill="#CFD5E4"/>
<path fill-rule="evenodd" clip-rule="evenodd" d="M29 18.2068V11.7931L35 9.09314V20.9068L29 18.2068ZM28 20C28.0338 20 28.0672 19.9983 28.1002 19.995L35.5896 23.3653C36.2514 23.6631 37 23.179 37 22.4534V7.54655C37 6.8209 36.2514 6.33685 35.5896 6.63463L28.1001 10.0049C28.0672 10.0017 28.0338 10 28 10H19C17.8955 10 17 10.8954 17 12V12.1707C15.8348 12.5825 15 13.6938 15 15C15 16.3062 15.8348 17.4175 17 17.8293V18C17 19.1046 17.8955 20 19 20H20V23C20 24.6569 21.3432 26 23 26H24C25.6569 26 27 24.6569 27 23V20H28ZM27 18V12H19V13.5851L17.6665 14.0564C17.2754 14.1946 17 14.5677 17 15C17 15.4323 17.2754 15.8054 17.6665 15.9436L19 16.4149V18H22V23C22 23.5523 22.4478 24 23 24H24C24.5523 24 25 23.5523 25 23V18H27ZM40 14C39.4477 14 39 14.4477 39 15C39 15.5523 39.4477 16 40 16H41C41.5523 16 42 15.5523 42 15C42 14.4477 41.5523 14 41 14H40ZM39.1095 18.927C39.3167 18.415 39.8996 18.1679 40.4116 18.3751L41.3386 18.7501C41.8506 18.9573 42.0977 19.5402 41.8905 20.0522C41.6834 20.5642 41.1004 20.8113 40.5885 20.6041L39.6615 20.2291C39.1495 20.0219 38.9024 19.439 39.1095 18.927ZM39.7582 9.51755C39.2247 9.66049 38.9081 10.2088 39.0511 10.7423C39.194 11.2758 39.7423 11.5923 40.2758 11.4494L41.2417 11.1906C41.7752 11.0476 42.0918 10.4993 41.9488 9.96584C41.8059 9.43237 41.2576 9.11579 40.7241 9.25873L39.7582 9.51755Z" fill="#18DCA6"/>
</svg>
