<svg width="56" height="56" viewBox="0 0 56 56" fill="none" xmlns="http://www.w3.org/2000/svg">
<rect x="1" y="8" width="54" height="40" rx="4" fill="#E7EBF4"/>
<rect x="3" y="10" width="50" height="36" rx="3" fill="white"/>
<rect x="27" y="11" width="2" height="34" fill="#E7EBF4"/>
<rect x="34" y="21" width="14" height="2" rx="1" fill="#D1D7E4"/>
<rect x="34" y="25" width="14" height="2" rx="1" fill="#D1D7E4"/>
<rect x="34" y="29" width="14" height="2" rx="1" fill="#D1D7E4"/>
<rect x="34" y="33" width="9" height="2" rx="1" fill="#D1D7E4"/>
<path d="M13.906 29.626C13.906 29.002 14.044 28.486 14.32 28.078C14.608 27.67 15.022 27.22 15.562 26.728C15.958 26.368 16.246 26.068 16.426 25.828C16.618 25.576 16.714 25.294 16.714 24.982C16.714 24.538 16.534 24.19 16.174 23.938C15.826 23.674 15.358 23.542 14.77 23.542C14.206 23.542 13.702 23.662 13.258 23.902C12.826 24.13 12.46 24.454 12.16 24.874L9.982 23.596C10.486 22.828 11.164 22.234 12.016 21.814C12.88 21.394 13.9 21.184 15.076 21.184C16.456 21.184 17.56 21.478 18.388 22.066C19.228 22.654 19.648 23.47 19.648 24.514C19.648 25.006 19.564 25.438 19.396 25.81C19.24 26.182 19.042 26.5 18.802 26.764C18.574 27.016 18.274 27.31 17.902 27.646C17.458 28.042 17.134 28.378 16.93 28.654C16.726 28.918 16.624 29.242 16.624 29.626H13.906ZM15.274 34.144C14.782 34.144 14.368 33.988 14.032 33.676C13.708 33.352 13.546 32.962 13.546 32.506C13.546 32.05 13.708 31.672 14.032 31.372C14.356 31.06 14.77 30.904 15.274 30.904C15.778 30.904 16.192 31.06 16.516 31.372C16.84 31.672 17.002 32.05 17.002 32.506C17.002 32.962 16.834 33.352 16.498 33.676C16.174 33.988 15.766 34.144 15.274 34.144Z" fill="#18DCA6"/>
</svg>
