<svg width="56" height="56" viewBox="0 0 56 56" fill="none" xmlns="http://www.w3.org/2000/svg">
<path fill-rule="evenodd" clip-rule="evenodd" d="M0 10.5338C0 7.47758 2.47758 5 5.53383 5H50.4662C53.5224 5 56 7.47758 56 10.5338V40.4662C56 43.5224 53.5224 46 50.4662 46H5.53383C2.47758 46 0 43.5224 0 40.4662V10.5338ZM2 11.1504C2 8.85819 3.85819 7 6.15038 7H49.8496C52.1418 7 54 8.85819 54 11.1504V40.3083C54 40.6903 53.6903 41 53.3083 41H2.69173C2.3097 41 2 40.6903 2 40.3083V11.1504ZM19 49C18.4477 49 18 49.4477 18 50C18 50.5523 18.4477 51 19 51H36C36.5523 51 37 50.5523 37 50C37 49.4477 36.5523 49 36 49H19Z" fill="#E7EBF4"/>
<path fill-rule="evenodd" clip-rule="evenodd" d="M16.4901 25.314C15.9203 24.2411 16.0873 22.8795 16.991 21.9758C17.4177 21.5491 17.9464 21.2867 18.4986 21.1884V16C16.6213 16.1169 14.7773 16.8926 13.3427 18.3272C10.5264 21.1435 10.2493 25.5376 12.5115 28.6644L16.4901 25.314ZM17.108 26.101L13.1472 29.4365C13.2109 29.5048 13.2761 29.5723 13.3427 29.6389C16.4664 32.7625 21.5308 32.7625 24.6544 29.6389C24.8152 29.4781 24.9677 29.3122 25.112 29.1417L20.9926 26.0031C19.9215 27.061 18.2182 27.0936 17.108 26.101ZM21.5703 25.1861L25.7088 28.3392C27.7259 25.2389 27.3745 21.0472 24.6544 18.3272C23.2199 16.8926 21.3759 16.1169 19.4986 16V21.1885C20.0506 21.2868 20.579 21.5493 21.0056 21.9758C21.8738 22.844 22.062 24.1347 21.5703 25.1861Z" fill="#18DCA6"/>
<path fill-rule="evenodd" clip-rule="evenodd" d="M32 19C31.4477 19 31 19.4477 31 20C31 20.5523 31.4477 21 32 21H44C44.5523 21 45 20.5523 45 20C45 19.4477 44.5523 19 44 19H32ZM32 23C31.4477 23 31 23.4477 31 24C31 24.5523 31.4477 25 32 25H44C44.5523 25 45 24.5523 45 24C45 23.4477 44.5523 23 44 23H32ZM31 28C31 27.4477 31.4477 27 32 27H39C39.5523 27 40 27.4477 40 28C40 28.5523 39.5523 29 39 29H32C31.4477 29 31 28.5523 31 28ZM35 46H21V49H35V46Z" fill="#CFD5E4"/>
</svg>
