<svg width="56" height="56" viewBox="0 0 56 56" fill="none" xmlns="http://www.w3.org/2000/svg">
<path fill-rule="evenodd" clip-rule="evenodd" d="M29.8499 14.8769C29.1712 13.222 26.8276 13.222 26.149 14.8769L25.4736 16.5237L23.6987 16.6571C21.9151 16.7912 21.1909 19.0201 22.5551 20.1769L23.9126 21.3281L23.491 23.0573C23.0673 24.795 24.9633 26.1726 26.4851 25.2327L27.9994 24.2973L29.5138 25.2327C31.0355 26.1726 32.9315 24.795 32.5078 23.0573L32.0862 21.3281L33.4438 20.1769C34.8079 19.0201 34.0837 16.7912 32.3001 16.6571L30.5252 16.5237L29.8499 14.8769ZM27.9994 15.6357L28.6748 17.2826C28.962 17.9831 29.6203 18.4613 30.3753 18.5181L32.1502 18.6515L30.7927 19.8027C30.2152 20.2924 29.9638 21.0662 30.1432 21.8018L30.5648 23.5311L29.0504 22.5957C28.4062 22.1978 27.5926 22.1978 26.9484 22.5957L25.4341 23.5311L25.8557 21.8018C26.035 21.0662 25.7836 20.2924 25.2061 19.8027L23.8486 18.6515L25.6235 18.5181C26.3785 18.4613 27.0368 17.9831 27.3241 17.2826L27.9994 15.6357ZM10.149 20.8769C10.8276 19.222 13.1712 19.222 13.8499 20.8769L14.5252 22.5237L16.3001 22.6571C18.0837 22.7912 18.8079 25.0201 17.4438 26.1769L16.0862 27.3281L16.5078 29.0573C16.9315 30.795 15.0355 32.1726 13.5138 31.2327L11.9994 30.2973L10.4851 31.2327C8.96332 32.1726 7.06731 30.795 7.49098 29.0573L7.91259 27.3281L6.55506 26.1769C5.1909 25.0201 5.91512 22.7912 7.6987 22.6571L9.47362 22.5237L10.149 20.8769ZM12.6748 23.2826L11.9994 21.6357L11.3241 23.2826C11.0368 23.9831 10.3785 24.4613 9.62351 24.5181L7.84859 24.6515L9.20612 25.8027C9.7836 26.2924 10.035 27.0662 9.85568 27.8018L9.43406 29.5311L10.9484 28.5957C11.5926 28.1978 12.4062 28.1978 13.0504 28.5957L14.5648 29.5311L14.1432 27.8018C13.9638 27.0662 14.2152 26.2924 14.7927 25.8027L16.1502 24.6515L14.3753 24.5181C13.6203 24.4613 12.962 23.9831 12.6748 23.2826ZM24.9995 31.0002H30.9995C31.5518 31.0002 31.9995 31.448 31.9995 32.0002V49.0002H23.9995V32.0002C23.9995 31.448 24.4472 31.0002 24.9995 31.0002ZM21.9995 32.0002C21.9995 30.3434 23.3427 29.0002 24.9995 29.0002H30.9995C32.6564 29.0002 33.9995 30.3434 33.9995 32.0002V51.0002H21.9995V32.0002ZM8.99951 37.0002H14.9995C15.5518 37.0002 15.9995 37.448 15.9995 38.0002V49.0002H7.99951V38.0002C7.99951 37.448 8.44723 37.0002 8.99951 37.0002ZM5.99951 38.0002C5.99951 36.3434 7.34266 35.0002 8.99951 35.0002H14.9995C16.6564 35.0002 17.9995 36.3434 17.9995 38.0002V51.0002H5.99951V38.0002Z" fill="#E7EBF4"/>
<path fill-rule="evenodd" clip-rule="evenodd" d="M45.8499 6.87689C45.1712 5.22203 42.8276 5.22203 42.149 6.87689L41.4736 8.52372L39.6987 8.65712C37.9151 8.79116 37.1909 11.0201 38.5551 12.1769L39.9126 13.3281L39.491 15.0573C39.0673 16.795 40.9633 18.1726 42.4851 17.2327L43.9994 16.2973L45.5138 17.2327C47.0355 18.1726 48.9315 16.795 48.5078 15.0573L48.0862 13.3281L49.4438 12.1769C50.8079 11.0201 50.0837 8.79116 48.3001 8.65712L46.5252 8.52372L45.8499 6.87689ZM43.9994 7.63574L44.6748 9.28257C44.962 9.9831 45.6203 10.4613 46.3753 10.5181L48.1502 10.6515L46.7927 11.8027C46.2152 12.2924 45.9638 13.0662 46.1431 13.8018L46.5648 15.5311L45.0504 14.5957C44.4062 14.1978 43.5926 14.1978 42.9484 14.5957L41.4341 15.5311L41.8557 13.8018C42.035 13.0662 41.7836 12.2924 41.2061 11.8027L39.8486 10.6515L41.6235 10.5181C42.3785 10.4613 43.0368 9.9831 43.3241 9.28257L43.9994 7.63574ZM40.9995 23.0002H46.9995C47.5518 23.0002 47.9995 23.448 47.9995 24.0002V49.0002H39.9995V24.0002C39.9995 23.448 40.4472 23.0002 40.9995 23.0002ZM37.9995 24.0002C37.9995 22.3434 39.3427 21.0002 40.9995 21.0002H46.9995C48.6564 21.0002 49.9995 22.3434 49.9995 24.0002V51.0002H37.9995V24.0002Z" fill="#18DCA6"/>
<rect x="3" y="49" width="50" height="2" rx="1" fill="#CFD5E4"/>
</svg>
