<svg width="64" height="64" viewBox="0 0 64 64" fill="none" xmlns="http://www.w3.org/2000/svg">
<path fill-rule="evenodd" clip-rule="evenodd" d="M18.5 8C18.5 3.85786 21.8579 0.5 26 0.5H38C42.1421 0.5 45.5 3.85786 45.5 8V10.5H40.5V8C40.5 6.61929 39.3807 5.5 38 5.5H26C24.6193 5.5 23.5 6.61929 23.5 8V10.5H18.5V8Z" fill="#CFD5E4"/>
<path fill-rule="evenodd" clip-rule="evenodd" d="M3 11C3 10.4477 3.44772 10 4 10H60C60.5523 10 61 10.4477 61 11V17C61 17.5523 60.5523 18 60 18H59H58.823H5.17699H5H4C3.44771 18 3 17.5523 3 17V11ZM5.23599 19L7.55777 58.3534C7.74485 61.5243 10.3709 64 13.5474 64H50.4526C53.6291 64 56.2551 61.5243 56.4422 58.3534L58.764 19H5.23599Z" fill="#E7EBF4"/>
<path d="M47 39C47 47.2843 40.2843 54 32 54C23.7157 54 17 47.2843 17 39C17 30.7157 23.7157 24 32 24C40.2843 24 47 30.7157 47 39Z" fill="#18DCA6"/>
<path d="M36.728 37.3202C35.7893 36.7975 34.8347 36.4508 33.864 36.2802V45.0002H30.696V36.2802C29.704 36.4508 28.7493 36.7975 27.832 37.3202L26.776 35.0162C27.5547 34.5468 28.4133 34.1895 29.352 33.9442C30.3013 33.6988 31.2773 33.5762 32.28 33.5762C33.2827 33.5762 34.2533 33.6988 35.192 33.9442C36.1413 34.1895 37.0053 34.5468 37.784 35.0162L36.728 37.3202Z" fill="white"/>
</svg>
