<svg width="64" height="64" viewBox="0 0 64 64" fill="none" xmlns="http://www.w3.org/2000/svg">
<path d="M0 13C0 10.2386 2.23858 8 5 8H53C56.3137 8 59 10.6863 59 14V20H0V13Z" fill="#E7EBF4"/>
<mask id="mask0" mask-type="alpha" maskUnits="userSpaceOnUse" x="0" y="8" width="59" height="12">
<path d="M0 13C0 10.2386 2.23858 8 5 8H53C56.3137 8 59 10.6863 59 14V20H0V13Z" fill="#E7EBF4"/>
</mask>
<g mask="url(#mask0)">
<path d="M3.10547 13.5C3.10547 12.1193 4.22476 11 5.60547 11H59.0002V16H5.60547C4.22476 16 3.10547 14.8807 3.10547 13.5Z" fill="#CFD5E4"/>
</g>
<mask id="mask1" mask-type="alpha" maskUnits="userSpaceOnUse" x="11" y="0" width="40" height="17">
<rect x="11" width="40" height="17" fill="#C4C4C4"/>
</mask>
<g mask="url(#mask1)">
<path d="M46 15C46 23.2843 39.2843 30 31 30C22.7157 30 16 23.2843 16 15C16 6.71573 22.7157 0 31 0C39.2843 0 46 6.71573 46 15Z" fill="#18DCA6"/>
<path fill-rule="evenodd" clip-rule="evenodd" d="M28.3211 8.83946C28.3211 8.39566 28.6809 8.03589 29.1247 8.03589C29.5685 8.03589 29.9283 8.39566 29.9283 8.83946V9.64299H31.5355V8.83946C31.5355 8.39566 31.8952 8.03589 32.339 8.03589C32.7828 8.03589 33.1426 8.39566 33.1426 8.83946V9.75314C33.7938 9.87132 34.333 10.0846 34.7601 10.393C35.4525 10.8828 35.7988 11.5614 35.7988 12.4287C35.7988 12.9593 35.6747 13.4287 35.4267 13.8369C35.1786 14.245 34.8376 14.5614 34.4035 14.7858C35.0029 14.9797 35.4784 15.3063 35.8298 15.7654C36.1812 16.2144 36.3569 16.7756 36.3569 17.4491C36.3569 18.3777 35.9951 19.0971 35.2717 19.6073C34.7403 19.9745 34.0307 20.2068 33.1426 20.3044V21.1609C33.1426 21.6047 32.7828 21.9645 32.339 21.9645C31.8952 21.9645 31.5355 21.6047 31.5355 21.1609V20.3573H29.9283V21.1609C29.9283 21.6047 29.5685 21.9645 29.1247 21.9645C28.6809 21.9645 28.3211 21.6047 28.3211 21.1609V20.3573H27.5374L27.5176 20.3575H26.4461C26.0023 20.3575 25.6426 19.9977 25.6426 19.5539C25.6426 19.1101 26.0023 18.7504 26.4461 18.7504H26.714V11.2501H26.4461C26.0023 11.2501 25.6426 10.8904 25.6426 10.4466C25.6426 10.0028 26.0023 9.64299 26.4461 9.64299L26.714 9.64299H27.5176H28.3211V8.83946ZM28.7294 11.2042V14.1583H31.582C32.2848 14.1583 32.8222 14.0358 33.1943 13.791C33.5767 13.5358 33.7679 13.1685 33.7679 12.6889C33.7679 12.1991 33.5767 11.8318 33.1943 11.5869C32.8222 11.3318 32.2848 11.2042 31.582 11.2042H28.7294ZM31.985 18.7961C33.5457 18.7961 34.326 18.2807 34.326 17.2501C34.326 16.2195 33.5457 15.7042 31.985 15.7042H28.7294V18.7961H31.985Z" fill="white"/>
</g>
<path fill-rule="evenodd" clip-rule="evenodd" d="M0 21C0 18.2386 2.23858 16 5 16H58C60.2091 16 62 17.7909 62 20V30.416C61.3875 30.1484 60.7111 30 60 30H42C39.2386 30 37 32.2386 37 35V45C37 47.7614 39.2386 50 42 50H60C60.7111 50 61.3875 49.8516 62 49.584V59C62 61.7614 59.7614 64 57 64H5C2.23858 64 0 61.7614 0 59V21ZM64 35C64 32.7909 62.2091 31 60 31H42C39.7909 31 38 32.7909 38 35V45C38 47.2091 39.7909 49 42 49H60C62.2091 49 64 47.2091 64 45V35Z" fill="#E7EBF4"/>
<circle cx="47" cy="40" r="3" fill="white"/>
</svg>
