<svg width="64" height="64" viewBox="0 0 64 64" fill="none" xmlns="http://www.w3.org/2000/svg">
<path d="M0 11C0 8.23858 2.23858 6 5 6H39C40.6569 6 42 4.65685 42 3C42 1.34315 43.3431 0 45 0H58C59.6569 0 61 1.34315 61 3V15C62.6569 15 64 16.3431 64 18V59C64 61.7614 61.7614 64 59 64H5C2.23858 64 0 61.7614 0 59V11Z" fill="#E7EBF4"/>
<path d="M4 12.5C4 11.1193 5.11929 10 6.5 10H61V15H6.5C5.11929 15 4 13.8807 4 12.5Z" fill="#D5DBE9"/>
<path d="M17 40.3394C17 33.9783 22.1567 28.8215 28.5179 28.8215H30.6607C37.0219 28.8215 42.1786 33.9783 42.1786 40.3394C42.1786 46.7005 37.0219 51.8572 30.6607 51.8572H28.5179C22.1567 51.8572 17 46.7005 17 40.3394Z" fill="#E7EBF4"/>
<path d="M47 39C47 47.2843 40.2843 54 32 54C23.7157 54 17 47.2843 17 39C17 30.7157 23.7157 24 32 24C40.2843 24 47 30.7157 47 39Z" fill="#18DCA6"/>
<path d="M36.9489 34.0503C34.2152 31.3166 29.783 31.3166 27.0494 34.0503C25.4862 35.6134 24.8169 37.7318 25.0414 39.7705M27.0494 43.9497C29.783 46.6834 34.2152 46.6834 36.9489 43.9497C38.512 42.3866 39.1813 40.2682 38.9568 38.2295" stroke="white" stroke-width="2" stroke-linecap="round"/>
<path d="M35.0938 34.8191L37.7188 34.8191L37.7188 32.1941" stroke="white" stroke-width="2" stroke-linecap="round" stroke-linejoin="round"/>
<path d="M26.4316 45.9561L26.4316 43.3311L29.0566 43.3311" stroke="white" stroke-width="2" stroke-linecap="round" stroke-linejoin="round"/>
<path d="M8 8H57V15H8V8Z" fill="white"/>
<path d="M8 9H57V10H8V9Z" fill="#E7EBF4"/>
<path d="M8 11H57V12H8V11Z" fill="#E7EBF4"/>
<path d="M8 13H57V14H8V13Z" fill="#E7EBF4"/>
</svg>
