<svg width="64" height="64" viewBox="0 0 64 64" fill="none" xmlns="http://www.w3.org/2000/svg">
<path d="M2 5C2 2.23858 4.23858 0 7 0H57C59.7614 0 62 2.23858 62 5V42.4653C62 47.6467 58.9231 52.3333 54.1689 54.3935L33.988 63.1385C32.7197 63.6881 31.2803 63.6881 30.012 63.1385L9.8311 54.3935C5.07688 52.3333 2 47.6467 2 42.4653V5Z" fill="#E7EBF4"/>
<path d="M6.5 7C6.5 5.61929 7.61929 4.5 9 4.5H55C56.3807 4.5 57.5 5.61929 57.5 7V41.577C57.5 45.7728 55.0021 49.5658 51.1474 51.2232L32.9875 59.0312C32.3571 59.3022 31.6429 59.3022 31.0125 59.0312L12.8526 51.2232C8.99791 49.5658 6.5 45.7728 6.5 41.577V7Z" fill="#E7EBF4" stroke="white"/>
<path d="M25.0508 27.15V21.75C25.0508 18.0221 28.0729 15 31.8008 15V15C35.5287 15 38.5508 18.0221 38.5508 21.75V26" stroke="#18DCA6" stroke-width="3.375" stroke-linecap="round"/>
<rect x="21" y="25.125" width="21.6" height="16.875" rx="1.35" fill="#18DCA6"/>
<path fill-rule="evenodd" clip-rule="evenodd" d="M33.1505 34.3477C33.9486 33.9685 34.5004 33.155 34.5004 32.2126C34.5004 30.9078 33.4427 29.8501 32.1379 29.8501C30.8331 29.8501 29.7754 30.9078 29.7754 32.2126C29.7754 33.1551 30.3273 33.9686 31.1255 34.3478V36.2626C31.1255 36.8218 31.5788 37.2751 32.138 37.2751C32.6972 37.2751 33.1505 36.8218 33.1505 36.2626V34.3477Z" fill="white"/>
</svg>
