<svg width="64" height="64" viewBox="0 0 64 64" fill="none" xmlns="http://www.w3.org/2000/svg">
<rect y="60" width="29" height="4" rx="2" fill="#E7EBF4"/>
<rect x="35" y="60" width="29" height="4" rx="2" fill="#E7EBF4"/>
<rect y="40" width="29" height="4" rx="2" fill="#E7EBF4"/>
<rect x="35" y="40" width="29" height="4" rx="2" fill="#E7EBF4"/>
<rect y="20" width="29" height="4" rx="2" fill="#E7EBF4"/>
<rect y="50" width="29" height="4" rx="2" fill="#E7EBF4"/>
<rect x="35" y="50" width="29" height="4" rx="2" fill="#E7EBF4"/>
<rect y="30" width="29" height="4" rx="2" fill="#E7EBF4"/>
<rect x="35" y="30" width="29" height="4" rx="2" fill="#E7EBF4"/>
<rect y="10" width="29" height="4" rx="2" fill="#E7EBF4"/>
<rect y="55" width="29" height="4" rx="2" fill="#E7EBF4"/>
<rect x="35" y="55" width="29" height="4" rx="2" fill="#E7EBF4"/>
<rect y="35" width="29" height="4" rx="2" fill="#E7EBF4"/>
<rect x="35" y="35" width="29" height="4" rx="2" fill="#E7EBF4"/>
<rect y="15" width="29" height="4" rx="2" fill="#E7EBF4"/>
<rect y="45" width="29" height="4" rx="2" fill="#E7EBF4"/>
<rect x="35" y="45" width="29" height="4" rx="2" fill="#E7EBF4"/>
<rect y="25" width="29" height="4" rx="2" fill="#E7EBF4"/>
<rect x="35" y="25" width="29" height="4" rx="2" fill="#E7EBF4"/>
<rect x="35" y="20" width="29" height="4" rx="2" fill="#E7EBF4"/>
<rect y="5" width="29" height="4" rx="2" fill="#E7EBF4"/>
<rect width="29" height="4" rx="2" fill="#E7EBF4"/>
<rect x="17" y="60" width="29" height="4" rx="2" fill="#18DCA6"/>
<path d="M46 44C46 52.2843 39.2843 59 31 59C22.7157 59 16 52.2843 16 44C16 35.7157 22.7157 29 31 29C39.2843 29 46 35.7157 46 44Z" fill="#18DCA6"/>
<path fill-rule="evenodd" clip-rule="evenodd" d="M28.3211 37.8395C28.3211 37.3957 28.6809 37.0359 29.1247 37.0359C29.5685 37.0359 29.9283 37.3957 29.9283 37.8395V38.643H31.5355V37.8395C31.5355 37.3957 31.8952 37.0359 32.339 37.0359C32.7828 37.0359 33.1426 37.3957 33.1426 37.8395V38.7531C33.7938 38.8713 34.333 39.0846 34.7601 39.393C35.4525 39.8828 35.7988 40.5614 35.7988 41.4287C35.7988 41.9593 35.6747 42.4287 35.4267 42.8369C35.1786 43.245 34.8376 43.5614 34.4035 43.7858C35.0029 43.9797 35.4784 44.3063 35.8298 44.7654C36.1812 45.2144 36.3569 45.7756 36.3569 46.4491C36.3569 47.3777 35.9951 48.0971 35.2717 48.6073C34.7403 48.9745 34.0307 49.2068 33.1426 49.3044V50.1609C33.1426 50.6047 32.7828 50.9645 32.339 50.9645C31.8952 50.9645 31.5355 50.6047 31.5355 50.1609V49.3573H29.9283V50.1609C29.9283 50.6047 29.5685 50.9645 29.1247 50.9645C28.6809 50.9645 28.3211 50.6047 28.3211 50.1609V49.3573H27.5374L27.5176 49.3575H26.4461C26.0023 49.3575 25.6426 48.9977 25.6426 48.5539C25.6426 48.1101 26.0023 47.7504 26.4461 47.7504H26.714V40.2501H26.4461C26.0023 40.2501 25.6426 39.8904 25.6426 39.4466C25.6426 39.0028 26.0023 38.643 26.4461 38.643L26.714 38.643H27.5176H28.3211V37.8395ZM28.7294 40.2042V43.1583H31.582C32.2848 43.1583 32.8222 43.0358 33.1943 42.791C33.5767 42.5358 33.7679 42.1685 33.7679 41.6889C33.7679 41.1991 33.5767 40.8318 33.1943 40.5869C32.8222 40.3318 32.2848 40.2042 31.582 40.2042H28.7294ZM31.985 47.7961C33.5457 47.7961 34.326 47.2807 34.326 46.2501C34.326 45.2195 33.5457 44.7042 31.985 44.7042H28.7294V47.7961H31.985Z" fill="white"/>
</svg>
