<svg width="64" height="64" viewBox="0 0 64 64" fill="none" xmlns="http://www.w3.org/2000/svg">
<path fill-rule="evenodd" clip-rule="evenodd" d="M0 5C0 2.23858 2.23858 0 5 0H60C62.2091 0 64 1.79086 64 4V16C64 18.7614 61.7614 21 59 21H60C62.2091 21 64 22.7909 64 25V37C64 39.7614 61.7614 42 59 42H60C62.2091 42 64 43.7909 64 46V58C64 60.7614 61.7614 63 59 63H5C2.23858 63 0 60.7614 0 58V47C0 44.2386 2.23858 42 5 42C2.23858 42 0 39.7614 0 37V26C0 23.2386 2.23858 21 5 21C2.23858 21 0 18.7614 0 16V5Z" fill="#E7EBF4"/>
<path fill-rule="evenodd" clip-rule="evenodd" d="M12 10.5C12 11.8807 10.8807 13 9.5 13C8.11929 13 7 11.8807 7 10.5C7 9.11929 8.11929 8 9.5 8C10.8807 8 12 9.11929 12 10.5ZM12 31.5C12 32.8807 10.8807 34 9.5 34C8.11929 34 7 32.8807 7 31.5C7 30.1193 8.11929 29 9.5 29C10.8807 29 12 30.1193 12 31.5ZM9.5 55C10.8807 55 12 53.8807 12 52.5C12 51.1193 10.8807 50 9.5 50C8.11929 50 7 51.1193 7 52.5C7 53.8807 8.11929 55 9.5 55Z" fill="#18DCA6"/>
<path fill-rule="evenodd" clip-rule="evenodd" d="M35.5 10C36.3284 10 37 9.32843 37 8.5C37 7.67157 36.3284 7 35.5 7C34.6716 7 34 7.67157 34 8.5C34 9.32843 34.6716 10 35.5 10ZM35.5 31C36.3284 31 37 30.3284 37 29.5C37 28.6716 36.3284 28 35.5 28C34.6716 28 34 28.6716 34 29.5C34 30.3284 34.6716 31 35.5 31ZM45 8.5C45 9.32843 44.3284 10 43.5 10C42.6716 10 42 9.32843 42 8.5C42 7.67157 42.6716 7 43.5 7C44.3284 7 45 7.67157 45 8.5ZM43.5 31C44.3284 31 45 30.3284 45 29.5C45 28.6716 44.3284 28 43.5 28C42.6716 28 42 28.6716 42 29.5C42 30.3284 42.6716 31 43.5 31ZM53 8.5C53 9.32843 52.3284 10 51.5 10C50.6716 10 50 9.32843 50 8.5C50 7.67157 50.6716 7 51.5 7C52.3284 7 53 7.67157 53 8.5ZM51.5 31C52.3284 31 53 30.3284 53 29.5C53 28.6716 52.3284 28 51.5 28C50.6716 28 50 28.6716 50 29.5C50 30.3284 50.6716 31 51.5 31ZM41 13.5C41 14.3284 40.3284 15 39.5 15C38.6716 15 38 14.3284 38 13.5C38 12.6716 38.6716 12 39.5 12C40.3284 12 41 12.6716 41 13.5ZM39.5 36C40.3284 36 41 35.3284 41 34.5C41 33.6716 40.3284 33 39.5 33C38.6716 33 38 33.6716 38 34.5C38 35.3284 38.6716 36 39.5 36ZM49 13.5C49 14.3284 48.3284 15 47.5 15C46.6716 15 46 14.3284 46 13.5C46 12.6716 46.6716 12 47.5 12C48.3284 12 49 12.6716 49 13.5ZM47.5 36C48.3284 36 49 35.3284 49 34.5C49 33.6716 48.3284 33 47.5 33C46.6716 33 46 33.6716 46 34.5C46 35.3284 46.6716 36 47.5 36ZM57 13.5C57 14.3284 56.3284 15 55.5 15C54.6716 15 54 14.3284 54 13.5C54 12.6716 54.6716 12 55.5 12C56.3284 12 57 12.6716 57 13.5ZM55.5 36C56.3284 36 57 35.3284 57 34.5C57 33.6716 56.3284 33 55.5 33C54.6716 33 54 33.6716 54 34.5C54 35.3284 54.6716 36 55.5 36Z" fill="white"/>
<path fill-rule="evenodd" clip-rule="evenodd" d="M35.5 52C36.3284 52 37 51.3284 37 50.5C37 49.6716 36.3284 49 35.5 49C34.6716 49 34 49.6716 34 50.5C34 51.3284 34.6716 52 35.5 52ZM43.5 52C44.3284 52 45 51.3284 45 50.5C45 49.6716 44.3284 49 43.5 49C42.6716 49 42 49.6716 42 50.5C42 51.3284 42.6716 52 43.5 52ZM53 50.5C53 51.3284 52.3284 52 51.5 52C50.6716 52 50 51.3284 50 50.5C50 49.6716 50.6716 49 51.5 49C52.3284 49 53 49.6716 53 50.5ZM39.5 57C40.3284 57 41 56.3284 41 55.5C41 54.6716 40.3284 54 39.5 54C38.6716 54 38 54.6716 38 55.5C38 56.3284 38.6716 57 39.5 57ZM49 55.5C49 56.3284 48.3284 57 47.5 57C46.6716 57 46 56.3284 46 55.5C46 54.6716 46.6716 54 47.5 54C48.3284 54 49 54.6716 49 55.5ZM55.5 57C56.3284 57 57 56.3284 57 55.5C57 54.6716 56.3284 54 55.5 54C54.6716 54 54 54.6716 54 55.5C54 56.3284 54.6716 57 55.5 57Z" fill="white"/>
<path fill-rule="evenodd" clip-rule="evenodd" d="M4 21H60V22H4V21ZM4 42H60V43H4V42ZM60 63H4V64H60V63Z" fill="#CFD5E4"/>
</svg>
