<svg width="64" height="64" viewBox="0 0 64 64" fill="none" xmlns="http://www.w3.org/2000/svg">
<path d="M0 5C0 2.23858 2.23858 0 5 0H60C62.2091 0 64 1.79086 64 4V59C64 61.7614 61.7614 64 59 64H5C2.23858 64 0 61.7614 0 59V5Z" fill="#E7EBF4"/>
<path fill-rule="evenodd" clip-rule="evenodd" d="M6 4C5.44772 4 5 4.44771 5 5V5L59 5C59 4.44772 58.5523 4 58 4H6ZM59 6H5V7H59V6ZM59 8H5V57C5 58.1046 5.89543 59 7 59H57C58.1046 59 59 58.1046 59 57V8ZM54 22H39V23H54V22ZM14 42H29V43H14V42ZM54 28H39V29H54V28ZM14 48H29V49H14V48ZM54 25H39V26H54V25ZM14 45H29V46H14V45ZM54 31H39V32H54V31ZM14 51H29V52H14V51Z" fill="white"/>
<path fill-rule="evenodd" clip-rule="evenodd" d="M19.2848 29.054C18.4457 27.6259 18.639 25.7586 19.8647 24.5329C20.465 23.9326 21.219 23.58 22 23.4749V16.6797C19.4818 16.799 16.9984 17.8202 15.0754 19.7432C11.3402 23.4784 11.0074 29.3276 14.077 33.4394L19.2848 29.054ZM19.9031 29.8406L14.7127 34.2115C14.8298 34.3407 14.9507 34.4678 15.0754 34.5925C19.1759 38.693 25.8241 38.693 29.9246 34.5925C30.1733 34.3438 30.4069 34.0858 30.6254 33.8195L25.2275 29.7068C25.1973 29.7392 25.1663 29.7712 25.1347 29.8028C23.6922 31.2454 21.3612 31.258 19.9031 29.8406ZM25.8055 28.89L31.2223 33.0171C33.9662 28.9349 33.5337 23.3523 29.9246 19.7432C28.0016 17.8202 25.5182 16.799 23 16.6797V23.4749C23.7808 23.5801 24.5346 23.9328 25.1347 24.5329C26.3141 25.7122 26.5377 27.4854 25.8055 28.89ZM54 36V52H35.5V51H53V42.7895C52.4612 43.5087 51.3932 43.6003 50.7408 42.9478L50.0353 42.2423C49.8079 42.015 49.4282 42.0582 49.2578 42.3309L47.9444 44.4322C47.511 45.1257 46.602 45.3442 45.9007 44.9234L44.9123 44.3304C44.7155 44.2123 44.4637 44.2433 44.3015 44.4056L44.0606 44.6464C43.4749 45.2322 42.5251 45.2322 41.9393 44.6464L39.41 42.1171C39.2041 41.9111 38.8664 41.9241 38.6768 42.1452L36.3796 44.8253L35.6204 44.1745L37.9176 41.4944C38.4862 40.831 39.4993 40.7921 40.1171 41.41L42.6464 43.9393C42.8417 44.1345 43.1583 44.1345 43.3535 43.9393L43.5943 43.6985C44.081 43.2118 44.8365 43.1188 45.4267 43.4729L46.4152 44.066C46.6489 44.2062 46.952 44.1334 47.0964 43.9022L48.4098 41.8009C48.921 40.9829 50.0603 40.8531 50.7424 41.5352L51.4479 42.2407C51.6779 42.4707 52.0628 42.4233 52.2302 42.1444L53 40.8614V36H54Z" fill="#18DCA6"/>
<rect x="21" width="22" height="10" rx="3" fill="#CFD5E4"/>
</svg>
