<svg width="24" height="24" viewBox="0 0 24 24" fill="none" xmlns="http://www.w3.org/2000/svg">
<path fill-rule="evenodd" clip-rule="evenodd" d="M20.4851 19.0708C20.8757 19.4614 20.8757 20.0945 20.4851 20.4851C20.0946 20.8756 19.4614 20.8756 19.0709 20.4851L12 13.4141L4.9288 20.4853C4.53827 20.8758 3.90511 20.8758 3.51458 20.4853C3.12406 20.0948 3.12406 19.4616 3.51458 19.0711L10.5858 11.9999L3.51457 4.92871C3.12405 4.53819 3.12405 3.90502 3.51457 3.5145C3.9051 3.12397 4.53826 3.12397 4.92879 3.5145L12 10.5857L19.0709 3.51474C19.4615 3.12422 20.0946 3.12422 20.4851 3.51474C20.8757 3.90526 20.8757 4.53843 20.4851 4.92895L13.4142 11.9999L20.4851 19.0708Z" fill="#18DCA6"/>
</svg>
