<?xml version="1.0" encoding="UTF-8"?>
<svg width="30px" height="37px" viewBox="0 0 30 37" version="1.1" xmlns="http://www.w3.org/2000/svg" xmlns:xlink="http://www.w3.org/1999/xlink">
    <!-- Generator: Sketch 63.1 (92452) - https://sketch.com -->
    <title>map-point-big</title>
    <desc>Created with Sketch.</desc>
    <g id="Page-1" stroke="none" stroke-width="1" fill="none" fill-rule="evenodd">
        <g id="map-point-big" fill="#18DCA6">
            <path d="M27,14.2714 C27,16.2793 26.2878,18.5425 25.0099,20.9359 C23.743,23.3085 22.0172,25.6286 20.2298,27.6978 C18.4499,29.7582 16.661,31.5101 15.3135,32.7487 C15.206,32.8475 15.1014,32.943 15,33.035 C14.8986,32.943 14.794,32.8475 14.6865,32.7487 C13.339,31.5101 11.5501,29.7582 9.7702,27.6978 C7.9828,25.6286 6.257,23.3085 4.9901,20.9359 C3.7122,18.5425 3,16.2793 3,14.2714 C3,8.1854 8.2301,3 15,3 C21.7699,3 27,8.1854 27,14.2714 Z M30,14.2714 C30,25 15,37 15,37 C15,37 0,25 0,14.2714 C0,6.3895 6.7157,0 15,0 C23.2843,0 30,6.3895 30,14.2714 Z M15,18 C16.6569,18 18,16.6569 18,15 C18,13.3431 16.6569,12 15,12 C13.3431,12 12,13.3431 12,15 C12,16.6569 13.3431,18 15,18 Z" id="Shape"></path>
        </g>
    </g>
</svg>