<svg width="56" height="56" viewBox="0 0 56 56" fill="none" xmlns="http://www.w3.org/2000/svg">
<rect x="4" y="5" width="41" height="29" rx="3.38897" fill="#18DCA6"/>
<path d="M45 16L48 16C50.7614 16 53 18.2386 53 21L53 35C53 36.6569 51.6569 38 50 38L48.5 38"  stroke="#18DCA6" stroke-width="2"/>
<path d="M7 9.69448C7 8.75865 7.75865 8 8.69449 8H40.3055C41.2414 8 42 8.75865 42 9.69449V30.1528C42 30.6207 41.6207 31 41.1528 31H7.84724C7.37933 31 7 30.6207 7 30.1528V9.69448Z" fill="white"/>
<path d="M2 31.8182C2 31.3663 2.36631 31 2.81818 31H48.1818C48.6337 31 49 31.3663 49 31.8182C49 33.0232 48.0232 34 46.8182 34H4.18182C2.97684 34 2 33.0232 2 31.8182Z" fill="#18DCA6"/>
<rect x="9" y="22" width="41" height="29" rx="3.38897" fill="#E7EBF4"/>
<path d="M12 26.6945C12 25.7586 12.7586 25 13.6945 25H45.3055C46.2414 25 47 25.7586 47 26.6945V47.1528C47 47.6207 46.6207 48 46.1528 48H12.8472C12.3793 48 12 47.6207 12 47.1528V26.6945Z" fill="white"/>
<path d="M7 48.8182C7 48.3663 7.36631 48 7.81818 48H51.1818C51.6337 48 52 48.3663 52 48.8182C52 50.0232 51.0232 51 49.8182 51H9.18182C7.97683 51 7 50.0232 7 48.8182Z" fill="#D1D7E4"/>
</svg>
