<svg width="56" height="56" viewBox="0 0 56 56" fill="none" xmlns="http://www.w3.org/2000/svg">
<rect x="21.1445" y="43.5713" width="13.7143" height="5.71429" fill="#D1D7E4"/>
<rect y="5" width="56" height="41" rx="5.53383" fill="#E7EBF4"/>
<rect x="18.2871" y="49.2856" width="18.8571" height="1.71429" rx="0.857143" fill="#E7EBF4"/>
<path d="M3 12.1504C3 9.85819 4.85819 8 7.15038 8H48.8496C51.1418 8 53 9.85819 53 12.1504V39.3083C53 39.6903 52.6903 40 52.3083 40H3.69173C3.3097 40 3 39.6903 3 39.3083V12.1504Z" fill="white"/>
<path fill-rule="evenodd" clip-rule="evenodd" d="M16.4901 25.314C15.9203 24.2411 16.0873 22.8795 16.991 21.9758C17.4177 21.5491 17.9464 21.2867 18.4986 21.1884V16C16.6213 16.1169 14.7773 16.8926 13.3427 18.3272C10.5264 21.1435 10.2493 25.5376 12.5115 28.6644L16.4901 25.314ZM17.108 26.101L13.1472 29.4365C13.2109 29.5048 13.2761 29.5723 13.3427 29.6389C16.4664 32.7625 21.5308 32.7625 24.6544 29.6389C24.8152 29.4781 24.9677 29.3122 25.112 29.1417L20.9926 26.0031C19.9215 27.061 18.2182 27.0936 17.108 26.101ZM21.5703 25.1861L25.7088 28.3392C27.7259 25.2389 27.3745 21.0472 24.6544 18.3272C23.2199 16.8926 21.3759 16.1169 19.4986 16V21.1885C20.0506 21.2868 20.579 21.5493 21.0056 21.9758C21.8738 22.844 22.062 24.1347 21.5703 25.1861Z" fill="#18DCA6"/>
<rect x="31" y="19" width="14" height="2" rx="1" fill="#D1D7E4"/>
<rect x="31" y="23" width="14" height="2" rx="1" fill="#D1D7E4"/>
<rect x="31" y="27" width="9" height="2" rx="1" fill="#D1D7E4"/>
</svg>
