<svg width="56" height="56" viewBox="0 0 56 56" fill="none" xmlns="http://www.w3.org/2000/svg">
<rect x="3" y="3" width="30" height="49" rx="4" fill="#E7EBF4"/>
<rect x="5" y="5" width="26" height="45" rx="3" fill="white"/>
<path d="M12.1661 27.1864C13.2914 26.574 14.5476 26.0629 15.7213 25.5492C17.7406 24.7078 19.7678 23.881 21.8155 23.1112C22.2139 22.9801 22.9298 22.8519 23 23.4351C22.9616 24.2608 22.8035 25.0816 22.695 25.9024C22.4198 27.7074 22.1015 29.5062 21.7913 31.3052C21.6844 31.9045 20.9245 32.2147 20.4383 31.8312C19.2698 31.0515 18.0923 30.2793 16.9387 29.4815C16.5608 29.1022 16.9113 28.5575 17.2487 28.2866C18.1986 27.524 18.4518 27.3312 19.201 26.4992C19.3857 26.046 18.8491 26.3699 18.4803 26.5585C17.0285 27.3009 16.8203 27.4761 15.4312 28.2644C14.7217 28.6503 13.8947 28.3205 13.1855 28.1052C12.5495 27.8451 11.6178 27.5829 12.1661 27.1864Z" fill="#D1D7E4"/>
<rect x="11" y="3" width="14" height="4" rx="2" fill="#E7EBF4"/>
<path d="M28 10C28 8.34315 29.3431 7 31 7H50C51.6569 7 53 8.34315 53 10V22C53 23.6569 51.6569 25 50 25H32.1703C31.7377 25 31.3195 25.1547 30.9911 25.4362L30.2778 26.0476C29.3827 26.8148 28 26.1788 28 25V10Z" fill="#18DCA6"/>
<rect x="32" y="11" width="13" height="2" rx="1" fill="white"/>
<rect x="32" y="15" width="9" height="2" rx="1" fill="white"/>
<rect x="32" y="19" width="16" height="2" rx="1" fill="white"/>
</svg>
