<svg width="56" height="56" viewBox="0 0 56 56" fill="none" xmlns="http://www.w3.org/2000/svg">
<path d="M12.1661 27.1864C13.2914 26.574 14.5476 26.0629 15.7213 25.5492C17.7406 24.7078 19.7678 23.881 21.8155 23.1112C22.2139 22.9801 22.9298 22.8519 23 23.4351C22.9616 24.2608 22.8035 25.0816 22.695 25.9024C22.4198 27.7074 22.1015 29.5062 21.7913 31.3052C21.6844 31.9045 20.9245 32.2147 20.4383 31.8312C19.2698 31.0515 18.0923 30.2793 16.9387 29.4815C16.5608 29.1022 16.9113 28.5575 17.2487 28.2866C18.1986 27.524 18.4518 27.3312 19.201 26.4992C19.3857 26.046 18.8491 26.3699 18.4803 26.5585C17.0285 27.3009 16.8203 27.4761 15.4312 28.2644C14.7217 28.6503 13.8947 28.3205 13.1855 28.1052C12.5495 27.8451 11.6178 27.5829 12.1661 27.1864Z" fill="#CFD5E4"/>
<path fill-rule="evenodd" clip-rule="evenodd" d="M3 7C3 4.79086 4.79086 3 7 3H13H23H29C31.2091 3 33 4.79086 33 7V48C33 50.2091 31.2091 52 29 52H7C4.79086 52 3 50.2091 3 48V7ZM11 5H8C6.34315 5 5 6.34315 5 8V47C5 48.6569 6.34315 50 8 50H28C29.6569 50 31 48.6569 31 47V8C31 6.34315 29.6569 5 28 5H25C25 6.10457 24.1046 7 23 7H13C11.8954 7 11 6.10457 11 5Z" fill="#E7EBF4"/>
<path fill-rule="evenodd" clip-rule="evenodd" d="M32 7C30.3431 7 29 8.34315 29 10V25C29 26.1788 30.3827 26.8148 31.2778 26.0476L31.9911 25.4362C32.3195 25.1547 32.7377 25 33.1703 25H51C52.6569 25 54 23.6569 54 22V10C54 8.34315 52.6569 7 51 7H32ZM34 11C33.4477 11 33 11.4477 33 12C33 12.5523 33.4477 13 34 13H45C45.5523 13 46 12.5523 46 12C46 11.4477 45.5523 11 45 11H34ZM34 15C33.4477 15 33 15.4477 33 16C33 16.5523 33.4477 17 34 17H41C41.5523 17 42 16.5523 42 16C42 15.4477 41.5523 15 41 15H34ZM33 20C33 19.4477 33.4477 19 34 19H48C48.5523 19 49 19.4477 49 20C49 20.5523 48.5523 21 48 21H34C33.4477 21 33 20.5523 33 20Z" fill="#18DCA6"/>
</svg>
