<svg width="56" height="56" viewBox="0 0 56 56" fill="none" xmlns="http://www.w3.org/2000/svg">
<path fill-rule="evenodd" clip-rule="evenodd" d="M1 12C1 9.79086 2.79086 8 5 8H51C53.2091 8 55 9.79086 55 12V44C55 46.2091 53.2091 48 51 48H5C2.79086 48 1 46.2091 1 44V12ZM3 13C3 11.3431 4.34315 10 6 10H50C51.6569 10 53 11.3431 53 13V43C53 44.6569 51.6569 46 50 46H6C4.34315 46 3 44.6569 3 43V13ZM28 12C27.4477 12 27 12.4477 27 13V43C27 43.5523 27.4477 44 28 44C28.5523 44 29 43.5523 29 43V13C29 12.4477 28.5523 12 28 12Z" fill="#E7EBF4"/>
<path fill-rule="evenodd" clip-rule="evenodd" d="M35 21C34.4477 21 34 21.4477 34 22C34 22.5523 34.4477 23 35 23H47C47.5523 23 48 22.5523 48 22C48 21.4477 47.5523 21 47 21H35ZM35 25C34.4477 25 34 25.4477 34 26C34 26.5523 34.4477 27 35 27H47C47.5523 27 48 26.5523 48 26C48 25.4477 47.5523 25 47 25H35ZM34 30C34 29.4477 34.4477 29 35 29H47C47.5523 29 48 29.4477 48 30C48 30.5523 47.5523 31 47 31H35C34.4477 31 34 30.5523 34 30ZM35 33C34.4477 33 34 33.4477 34 34C34 34.5523 34.4477 35 35 35H42C42.5523 35 43 34.5523 43 34C43 33.4477 42.5523 33 42 33H35Z" fill="#CFD5E4"/>
<path d="M14.9064 29.6261C14.3541 29.6261 13.8778 29.1656 14.0486 28.6403C14.1155 28.4344 14.2062 28.247 14.3204 28.0781C14.6084 27.6701 15.0224 27.2201 15.5624 26.7281C15.9584 26.3681 16.2464 26.0681 16.4264 25.8281C16.6184 25.5761 16.7144 25.2941 16.7144 24.9821C16.7144 24.5381 16.5344 24.1901 16.1744 23.9381C15.8264 23.6741 15.3584 23.5421 14.7704 23.5421C14.2064 23.5421 13.7024 23.6621 13.2584 23.9021C13.0908 23.9906 12.9331 24.0935 12.7853 24.2109C12.38 24.5329 11.8184 24.6734 11.372 24.4114L10.8893 24.1282C10.3959 23.8387 10.2395 23.1854 10.6457 22.7827C11.0372 22.3944 11.4941 22.0716 12.0164 21.8141C12.8804 21.3941 13.9004 21.1841 15.0764 21.1841C16.4564 21.1841 17.5604 21.4781 18.3884 22.0661C19.2284 22.6541 19.6484 23.4701 19.6484 24.5141C19.6484 25.0061 19.5644 25.4381 19.3964 25.8101C19.2404 26.1821 19.0424 26.5001 18.8024 26.7641C18.5744 27.0161 18.2744 27.3101 17.9024 27.6461C17.4584 28.0421 17.1344 28.3781 16.9304 28.6541C16.9226 28.6642 16.9149 28.6744 16.9074 28.6847C16.5817 29.1307 16.1767 29.6261 15.6244 29.6261H14.9064ZM15.2744 34.1441C14.7824 34.1441 14.3684 33.9881 14.0324 33.6761C13.7084 33.3521 13.5464 32.9621 13.5464 32.5061C13.5464 32.0501 13.7084 31.6721 14.0324 31.3721C14.3564 31.0601 14.7704 30.9041 15.2744 30.9041C15.7784 30.9041 16.1924 31.0601 16.5164 31.3721C16.8404 31.6721 17.0024 32.0501 17.0024 32.5061C17.0024 32.9621 16.8344 33.3521 16.4984 33.6761C16.1744 33.9881 15.7664 34.1441 15.2744 34.1441Z" fill="#18DCA6"/>
</svg>
