<svg width="56" height="56" viewBox="0 0 56 56" fill="none" xmlns="http://www.w3.org/2000/svg">
<rect x="2" y="5" width="41" height="28" rx="3.38897" fill="#E7EBF4"/>
<path d="M5 9.69448C5 8.75865 5.75865 8 6.69449 8H38.3055C39.2414 8 40 8.75865 40 9.69449V29.1528C40 29.6207 39.6207 30 39.1528 30H5.84724C5.37933 30 5 29.6207 5 29.1528V9.69448Z" fill="white"/>
<path d="M0 30.8182C0 30.3663 0.366312 30 0.818182 30H44.1818C44.6337 30 45 30.3663 45 30.8182C45 32.0232 44.0232 33 42.8182 33H2.18182C0.976834 33 0 32.0232 0 30.8182Z" fill="#D1D7E4"/>
<rect x="7" y="14" width="41" height="28" rx="3.38897" fill="#E7EBF4"/>
<path d="M10 18.6945C10 17.7586 10.7586 17 11.6945 17H43.3055C44.2414 17 45 17.7586 45 18.6945V38.1528C45 38.6207 44.6207 39 44.1528 39H10.8472C10.3793 39 10 38.6207 10 38.1528V18.6945Z" fill="white"/>
<path d="M5 39.8182C5 39.3663 5.36631 39 5.81818 39H49.1818C49.6337 39 50 39.3663 50 39.8182C50 41.0232 49.0232 42 47.8182 42H7.18182C5.97683 42 5 41.0232 5 39.8182Z" fill="#D1D7E4"/>
<rect x="12" y="23" width="41" height="28" rx="3.38897" fill="#18DCA6"/>
<path d="M15 27.6945C15 26.7586 15.7586 26 16.6945 26H48.3055C49.2414 26 50 26.7586 50 27.6945V47.1528C50 47.6207 49.6207 48 49.1528 48H15.8472C15.3793 48 15 47.6207 15 47.1528V27.6945Z" fill="white"/>
<path d="M10 48.8182C10 48.3663 10.3663 48 10.8182 48H54.1818C54.6337 48 55 48.3663 55 48.8182C55 50.0232 54.0232 51 52.8182 51H12.1818C10.9768 51 10 50.0232 10 48.8182Z" fill="#18DCA6"/>
</svg>
