<svg width="56" height="56" viewBox="0 0 56 56" fill="none" xmlns="http://www.w3.org/2000/svg">
<path d="M7 38C7 36.8954 7.89543 36 9 36H15C16.1046 36 17 36.8954 17 38V50H7V38Z"  stroke="#E7EBF4" stroke-width="2"/>
<path d="M23 32C23 30.8954 23.8954 30 25 30H31C32.1046 30 33 30.8954 33 32V50H23V32Z"  stroke="#E7EBF4" stroke-width="2"/>
<path d="M39 24C39 22.8954 39.8954 22 41 22H47C48.1046 22 49 22.8954 49 24V50H39V24Z"  stroke="#18DCA6" stroke-width="2"/>
<rect x="3" y="49" width="50" height="2" rx="1" fill="#D1D7E4"/>
<path d="M11.0748 21.2561C11.4141 20.4287 12.5859 20.4287 12.9252 21.2561L13.6006 22.903C13.7442 23.2532 14.0733 23.4924 14.4508 23.5207L16.2258 23.6541C17.1176 23.7212 17.4797 24.8356 16.7976 25.414L15.4401 26.5652C15.1513 26.81 15.0256 27.197 15.1153 27.5648L15.5369 29.294C15.7487 30.1629 14.8007 30.8517 14.0398 30.3817L12.5255 29.4463C12.2034 29.2474 11.7966 29.2474 11.4745 29.4463L9.96015 30.3817C9.19928 30.8517 8.25127 30.1629 8.46311 29.294L8.88472 27.5648C8.9744 27.197 8.84868 26.81 8.55995 26.5652L7.20241 25.414C6.52033 24.8356 6.88244 23.7212 7.77423 23.6541L9.54915 23.5207C9.92666 23.4924 10.2558 23.2532 10.3994 22.903L11.0748 21.2561Z"  stroke="#E7EBF4" stroke-width="2"/>
<path d="M27.0748 15.2561C27.4141 14.4287 28.5859 14.4287 28.9252 15.2561L29.6006 16.903C29.7442 17.2532 30.0733 17.4924 30.4508 17.5207L32.2258 17.6541C33.1176 17.7212 33.4797 18.8356 32.7976 19.414L31.4401 20.5652C31.1513 20.81 31.0256 21.197 31.1153 21.5648L31.5369 23.294C31.7487 24.1629 30.8007 24.8517 30.0398 24.3817L28.5255 23.4463C28.2034 23.2474 27.7966 23.2474 27.4745 23.4463L25.9602 24.3817C25.1993 24.8517 24.2513 24.1629 24.4631 23.294L24.8847 21.5648C24.9744 21.197 24.8487 20.81 24.5599 20.5652L23.2024 19.414C22.5203 18.8356 22.8824 17.7212 23.7742 17.6541L25.5492 17.5207C25.9267 17.4924 26.2558 17.2532 26.3994 16.903L27.0748 15.2561Z"  stroke="#E7EBF4" stroke-width="2"/>
<path d="M43.0748 7.25614C43.4141 6.42871 44.5859 6.42871 44.9252 7.25614L45.6006 8.90297C45.7442 9.25324 46.0733 9.49236 46.4508 9.52073L48.2258 9.65413C49.1176 9.72115 49.4797 10.8356 48.7976 11.414L47.4401 12.5652C47.1513 12.81 47.0256 13.197 47.1153 13.5648L47.5369 15.294C47.7487 16.1629 46.8007 16.8517 46.0398 16.3817L44.5255 15.4463C44.2034 15.2474 43.7966 15.2474 43.4745 15.4463L41.9602 16.3817C41.1993 16.8517 40.2513 16.1629 40.4631 15.294L40.8847 13.5648C40.9744 13.197 40.8487 12.81 40.5599 12.5652L39.2024 11.414C38.5203 10.8356 38.8824 9.72115 39.7742 9.65413L41.5492 9.52073C41.9267 9.49236 42.2558 9.25324 42.3994 8.90297L43.0748 7.25614Z"  stroke="#18DCA6" stroke-width="2"/>
</svg>
