<svg width="24" height="24" viewBox="0 0 24 24" fill="none" xmlns="http://www.w3.org/2000/svg">
<path d="M11.108 1.75971C11.4783 1.0292 12.5217 1.0292 12.892 1.75971L15.6499 7.20077C15.7953 7.48761 16.0698 7.68703 16.3875 7.73667L22.4145 8.67826C23.2237 8.80467 23.5461 9.79696 22.9658 10.3749L18.6433 14.6792C18.4154 14.9061 18.3106 15.2288 18.3615 15.5463L19.3285 21.5693C19.4583 22.3779 18.6142 22.9912 17.8853 22.6179L12.4559 19.837C12.1696 19.6904 11.8304 19.6904 11.5441 19.837L6.11474 22.6179C5.38579 22.9912 4.54169 22.3779 4.67151 21.5693L5.63846 15.5463C5.68943 15.2288 5.58459 14.9061 5.35672 14.6792L1.03422 10.3749C0.453885 9.79696 0.776299 8.80467 1.58548 8.67826L7.61248 7.73667C7.93022 7.68703 8.20469 7.48761 8.35009 7.20077L11.108 1.75971Z" fill="#18DCA6"/>
</svg>
