<svg width="16" height="16" viewBox="0 0 16 16" fill="none" xmlns="http://www.w3.org/2000/svg">
<path fill-rule="evenodd" clip-rule="evenodd" d="M0 1C0 0.447715 0.447715 0 1 0H15C15.5523 0 16 0.447715 16 1V3C16 3.55228 15.5523 4 15 4H1C0.447715 4 0 3.55228 0 3V1ZM0 13C0 12.4477 0.447715 12 1 12H15C15.5523 12 16 12.4477 16 13V15C16 15.5523 15.5523 16 15 16H1C0.447715 16 0 15.5523 0 15V13ZM1 6C0.447715 6 0 6.44772 0 7V9C0 9.55229 0.447715 10 1 10H15C15.5523 10 16 9.55229 16 9V7C16 6.44772 15.5523 6 15 6H1Z" fill="#E7EBF4"/>
</svg>
