<svg width="31" height="21" viewBox="0 0 31 21" fill="none" xmlns="http://www.w3.org/2000/svg">
<path d="M0 4C0 1.79086 1.79086 0 4 0H27C29.2091 0 31 1.79086 31 4V13C31 15.2091 29.2091 17 27 17H4.75147C4.26702 17 3.79904 17.1758 3.43446 17.4948L3.31701 17.5976C2.02384 18.7291 0 17.8108 0 16.0925V4Z" fill="#18DCA6"/>
<path d="M8.97008 8.36C9.37008 8.48667 9.68341 8.7 9.91008 9C10.1367 9.29333 10.2501 9.65667 10.2501 10.09C10.2501 10.7033 10.0101 11.1767 9.53008 11.51C9.05675 11.8367 8.36341 12 7.45008 12H3.83008V5H7.25008C8.10341 5 8.75675 5.16333 9.21008 5.49C9.67008 5.81667 9.90008 6.26 9.90008 6.82C9.90008 7.16 9.81675 7.46333 9.65008 7.73C9.49008 7.99667 9.26341 8.20667 8.97008 8.36ZM5.44008 6.22V7.87H7.05008C7.45008 7.87 7.75341 7.8 7.96008 7.66C8.16674 7.52 8.27008 7.31333 8.27008 7.04C8.27008 6.76667 8.16674 6.56333 7.96008 6.43C7.75341 6.29 7.45008 6.22 7.05008 6.22H5.44008ZM7.33008 10.78C7.75675 10.78 8.07675 10.71 8.29008 10.57C8.51008 10.43 8.62008 10.2133 8.62008 9.92C8.62008 9.34 8.19008 9.05 7.33008 9.05H5.44008V10.78H7.33008Z" fill="white"/>
<path d="M14.0766 10.83C14.3566 10.83 14.6032 10.79 14.8166 10.71C15.0366 10.6233 15.2399 10.49 15.4266 10.31L16.2566 11.21C15.7499 11.79 15.0099 12.08 14.0366 12.08C13.4299 12.08 12.8932 11.9633 12.4266 11.73C11.9599 11.49 11.5999 11.16 11.3466 10.74C11.0932 10.32 10.9666 9.84333 10.9666 9.31C10.9666 8.78333 11.0899 8.31 11.3366 7.89C11.5899 7.46333 11.9332 7.13333 12.3666 6.9C12.8066 6.66 13.2999 6.54 13.8466 6.54C14.3599 6.54 14.8266 6.65 15.2466 6.87C15.6666 7.08333 15.9999 7.39667 16.2466 7.81C16.4999 8.21667 16.6266 8.7 16.6266 9.26L12.6466 10.03C12.7599 10.2967 12.9366 10.4967 13.1766 10.63C13.4232 10.7633 13.7232 10.83 14.0766 10.83ZM13.8466 7.72C13.4532 7.72 13.1332 7.84667 12.8866 8.1C12.6399 8.35333 12.5099 8.70333 12.4966 9.15L15.1166 8.64C15.0432 8.36 14.8932 8.13667 14.6666 7.97C14.4399 7.80333 14.1666 7.72 13.8466 7.72Z" fill="white"/>
<path d="M20.9152 11.74C20.7618 11.8533 20.5718 11.94 20.3452 12C20.1252 12.0533 19.8952 12.08 19.6552 12.08C19.0085 12.08 18.5118 11.9167 18.1652 11.59C17.8185 11.2633 17.6452 10.7833 17.6452 10.15V5.43H19.2052V6.74H20.5352V7.94H19.2052V10.13C19.2052 10.3567 19.2618 10.5333 19.3752 10.66C19.4885 10.78 19.6518 10.84 19.8652 10.84C20.1052 10.84 20.3185 10.7733 20.5052 10.64L20.9152 11.74Z" fill="white"/>
<path d="M27.0902 6.62V12H25.6002V11.38C25.2136 11.8467 24.6536 12.08 23.9202 12.08C23.4136 12.08 22.9536 11.9667 22.5402 11.74C22.1336 11.5133 21.8136 11.19 21.5802 10.77C21.3469 10.35 21.2302 9.86333 21.2302 9.31C21.2302 8.75667 21.3469 8.27 21.5802 7.85C21.8136 7.43 22.1336 7.10667 22.5402 6.88C22.9536 6.65333 23.4136 6.54 23.9202 6.54C24.6069 6.54 25.1436 6.75667 25.5302 7.19V6.62H27.0902ZM24.1902 10.8C24.5836 10.8 24.9102 10.6667 25.1702 10.4C25.4302 10.1267 25.5602 9.76333 25.5602 9.31C25.5602 8.85667 25.4302 8.49667 25.1702 8.23C24.9102 7.95667 24.5836 7.82 24.1902 7.82C23.7902 7.82 23.4602 7.95667 23.2002 8.23C22.9402 8.49667 22.8102 8.85667 22.8102 9.31C22.8102 9.76333 22.9402 10.1267 23.2002 10.4C23.4602 10.6667 23.7902 10.8 24.1902 10.8Z" fill="white"/>
</svg>
