<svg width="1367" height="138" viewBox="0 0 1367 138" fill="none" xmlns="http://www.w3.org/2000/svg">
<path opacity="0.1" d="M0 137V20C92.5 17 266.5 57 469 16C672.863 -25.276 777.82 66.5102 978 28C1178.18 -10.5102 1214.94 3.08348 1366 15.3047V137H0Z" fill="#0C2F8B"/>
<path opacity="0.2" d="M1366 39V51.2725V137H0V52.5C54.5 34 262.369 12.011 316 16C445.824 25.6559 608.494 51.1264 697 28.9999C831 -4.50006 985.833 -7.23359 1102 15.9999C1192 34 1244 39 1366 39Z" fill="#17378C"/>
<path d="M1366 76.4999V71.4999C1366 63.9979 1366.17 47.1883 1366 43.9999C1341 43.9999 1222 62.987 1135 37C981.001 -9.00006 865.001 11 697.001 51.2724C564.912 82.9363 433.501 5.99998 249.001 37C169.83 50.3024 113.001 78 0.000732422 70V137.003H1366V76.4999Z" fill="#0E1F50"/>
</svg>
