<?xml version="1.0" encoding="UTF-8"?>
<svg width="1063px" height="587px" viewBox="0 0 1063 587" version="1.1" xmlns="http://www.w3.org/2000/svg" xmlns:xlink="http://www.w3.org/1999/xlink">
    <!-- Generator: Sketch 63.1 (92452) - https://sketch.com -->
    <title>coins-bg-page-title-large</title>
    <desc>Created with Sketch.</desc>
    <g id="Page-1" stroke="none" stroke-width="1" fill="none" fill-rule="evenodd">
        <g id="coins-bg-page-title-large">
            <g id="btc-1" opacity="0.6" transform="translate(1004.000000, 0.000000)">
              <g class="js-rellax" data-rellax-speed="-0.75">
                <g id="Group" fill="#18DCA6" fill-rule="nonzero">
                    <path d="M59,29.5 C59,45.7924 45.79,59 29.5,59 C13.21,59 0,45.7924 0,29.5 C0,13.2076 13.21,0 29.5,0 C45.79,0 59,13.2076 59,29.5 Z" id="Path"></path>
                </g>
                <path d="M24.24,17.1033 C24.24,16.2308 24.94,15.5234 25.82,15.5234 C26.69,15.5234 27.4,16.2308 27.4,17.1033 L27.4,18.6305 L30.56,18.6305 L30.56,17.1033 C30.56,16.2308 31.27,15.5234 32.14,15.5234 C33.01,15.5234 33.72,16.2308 33.72,17.1033 L33.72,18.8438 C35,19.0722 36.06,19.4841 36.9,20.0794 C38.26,21.0256 38.94,22.3365 38.94,24.0121 C38.94,25.0372 38.7,25.944 38.21,26.7325 C37.72,27.5211 37.05,28.1322 36.2,28.5659 C37.37,28.9404 38.31,29.5712 39,30.4583 C39.69,31.3257 40.04,32.4099 40.04,33.711 C40.04,35.5048 39.33,36.8946 37.9,37.8803 C36.86,38.5892 35.46,39.038 33.72,39.2266 L33.72,40.8545 C33.72,41.727 33.01,42.4344 32.14,42.4344 C31.27,42.4344 30.56,41.727 30.56,40.8545 L30.56,39.3292 L27.39,39.3292 L27.39,40.8545 C27.39,41.727 26.69,42.4344 25.81,42.4344 C24.94,42.4344 24.23,41.727 24.23,40.8545 L24.23,39.3292 L22.7,39.3292 L22.68,39.3293 L20.52,39.3293 C19.66,39.3293 18.97,38.6337 18.97,37.7756 C18.97,36.9176 19.66,36.222 20.52,36.222 L21.07,36.222 L21.07,21.7382 L20.52,21.7382 C19.66,21.7382 18.97,21.0426 18.97,20.1844 C18.97,19.3263 19.66,18.6306 20.52,18.6306 L21.07,18.6306 L21.07,18.6305 L24.24,18.6305 L24.24,17.1033 Z M25.04,21.6466 L25.04,27.3535 L30.65,27.3535 C32.03,27.3535 33.09,27.1169 33.82,26.6438 C34.57,26.151 34.95,25.4413 34.95,24.5148 C34.95,23.5686 34.57,22.8589 33.82,22.3858 C33.09,21.893 32.03,21.6466 30.65,21.6466 L25.04,21.6466 Z M31.44,36.3131 C34.51,36.3131 36.04,35.3176 36.04,33.3265 C36.04,31.3355 34.51,30.34 31.44,30.34 L25.04,30.34 L25.04,36.3131 L31.44,36.3131 Z" id="Shape" fill="#FFFFFF"></path>
                <path d="M24.66,18.1834 C24.66,17.3109 25.37,16.6035 26.24,16.6035 C27.11,16.6035 27.82,17.3109 27.82,18.1834 L27.82,19.7111 L30.98,19.7111 L30.98,18.1834 C30.98,17.3109 31.69,16.6035 32.56,16.6035 C33.44,16.6035 34.14,17.3109 34.14,18.1834 L34.14,19.9244 C35.42,20.1528 36.48,20.5647 37.32,21.16 C38.68,22.1062 39.36,23.4172 39.36,25.0928 C39.36,26.1178 39.12,27.0246 38.63,27.8131 C38.15,28.6017 37.47,29.2128 36.62,29.6465 C37.8,30.021 38.73,30.6518 39.43,31.5389 C40.12,32.4063 40.46,33.4905 40.46,34.7915 C40.46,36.5854 39.75,37.9752 38.33,38.9608 C37.28,39.6698 35.89,40.1185 34.14,40.3072 L34.14,41.9344 C34.14,42.8069 33.44,43.5143 32.56,43.5143 C31.69,43.5143 30.98,42.8069 30.98,41.9344 L30.98,40.4097 L27.82,40.4097 L27.82,41.9344 C27.82,42.8069 27.11,43.5143 26.24,43.5143 C25.37,43.5143 24.66,42.8069 24.66,41.9344 L24.66,40.4097 L21.5,40.4097 L21.5,40.4094 L20.95,40.4094 C20.09,40.4094 19.39,39.7138 19.39,38.8558 C19.39,37.9978 20.09,37.3022 20.95,37.3022 L21.5,37.3022 L21.5,22.8182 L20.95,22.8182 C20.09,22.8182 19.39,22.1227 19.39,21.2647 C19.39,20.4068 20.09,19.7112 20.95,19.7112 L21.5,19.7112 L21.5,19.7111 L24.66,19.7111 L24.66,18.1834 Z M25.46,22.7272 L25.46,28.4341 L31.07,28.4341 C32.45,28.4341 33.51,28.1975 34.24,27.7244 C34.99,27.2316 35.37,26.5219 35.37,25.5954 C35.37,24.6492 34.99,23.9396 34.24,23.4664 C33.51,22.9736 32.45,22.7272 31.07,22.7272 L25.46,22.7272 Z M31.86,37.3936 C34.93,37.3936 36.47,36.3981 36.47,34.4071 C36.47,32.4161 34.93,31.4206 31.86,31.4206 L25.46,31.4206 L25.46,37.3936 L31.86,37.3936 Z" id="Shape" fill="#FFFFFF"></path>
              </g>
            </g>
            <g id="rpl-1" opacity="0.4" transform="translate(608.000000, 118.000000)" fill-rule="nonzero">
              <g class="js-rellax" data-rellax-speed="0.75">
                <g id="Group" fill="#18DCA6">
                    <path d="M33,17.21 C33,26.323 25.613,33.71 16.5,33.71 C7.387,33.71 0,26.323 0,17.21 C0,8.097 7.387,0.71 16.5,0.71 C25.613,0.71 33,8.097 33,17.21 Z" id="Path"></path>
                </g>
                <path d="M20.523,17.011 C20.026,16.75 19.464,16.672 18.907,16.653 C18.444,16.641 17.748,16.362 17.748,15.586 C17.748,15.009 18.258,14.542 18.914,14.518 C19.47,14.5 20.033,14.421 20.53,14.16 C21.444,13.681 22,12.789 22,11.824 C22,10.859 21.437,9.968 20.53,9.488 C19.616,9.009 18.497,9.009 17.589,9.488 C16.675,9.968 16.119,10.859 16.119,11.824 C16.119,12.346 16.325,12.825 16.583,13.274 C16.801,13.65 16.907,14.348 16.166,14.742 C15.609,15.034 14.914,14.852 14.57,14.342 C14.278,13.911 13.927,13.511 13.43,13.25 C12.517,12.771 11.397,12.771 10.49,13.25 C9.563,13.729 9,14.621 9,15.586 C9,16.55 9.563,17.442 10.47,17.921 C11.384,18.401 12.503,18.401 13.411,17.921 C13.907,17.661 14.258,17.26 14.55,16.829 C14.788,16.477 15.391,16.029 16.146,16.429 C16.702,16.72 16.874,17.363 16.563,17.897 C16.305,18.34 16.099,18.825 16.099,19.347 C16.099,20.312 16.662,21.204 17.57,21.683 C18.483,22.162 19.603,22.162 20.51,21.683 C21.424,21.204 21.98,20.312 21.98,19.347 C21.993,18.382 21.43,17.491 20.523,17.011 Z" id="Path" fill="#FFFFFF"></path>
              </g>
            </g>
            <g id="eth-1" opacity="0.5" transform="translate(43.000000, 103.000000)">
              <g class="js-rellax" data-rellax-speed="-0.5">
                <g id="Group" fill="#18DCA6" fill-rule="nonzero">
                    <path d="M32,16.956 C32,25.793 24.8366,32.956 16,32.956 C7.1634,32.956 0,25.793 0,16.956 C0,8.119 7.1634,0.956 16,0.956 C24.8366,0.956 32,8.119 32,16.956 Z" id="Path"></path>
                </g>
                <path d="M16.2911,19.12 L10.3327,16.628 C10.1803,16.565 10.0655,16.435 10.0206,16.276 C9.9756,16.118 10.0052,15.947 10.101,15.813 L16.0594,7.469 C16.161,7.327 16.3306,7.242 16.5003,7.242 C16.6697,7.242 16.8391,7.327 16.9407,7.469 L22.899,15.813 C22.9948,15.947 23.0244,16.118 22.9794,16.276 C22.9345,16.435 22.8197,16.565 22.6673,16.628 L16.7089,19.12 C16.6423,19.149 16.5709,19.162 16.5000049,19.162 C16.4291,19.162 16.3577,19.149 16.2911,19.12 Z M17.0417,9.475 L17.0417,17.807 L21.6232,15.891 L17.0417,9.475 Z M15.9584,17.807 L15.9584,9.475 L11.3769,15.891 L15.9584,17.807 Z M22.2493,18.207 C22.4921,18.116 22.7741,18.196 22.9158,18.4 C23.057,18.606 23.0174,18.876 22.8211,19.039 L16.8628,24 C16.7597,24.086 16.6301,24.129 16.5000008,24.129 C16.3699,24.129 16.2403,24.086 16.1371,24 L10.1789,19.039 C9.9826,18.876 9.943,18.606 10.0842,18.4 C10.226,18.195 10.5074,18.114 10.7507,18.207 L16.5000008,20.423 L22.2493,18.207 Z M13.2564,20.256 L16.5,22.957 L19.7436,20.256 L16.709,21.426 C16.5757,21.477 16.4244,21.477 16.2911,21.426 L13.2564,20.256 Z" id="Shape" fill="#FAFBFD"></path>
              </g>
            </g>
            <g id="lc-1" opacity="0.3" transform="translate(0.000000, 86.000000)" fill-rule="nonzero">
              <g class="js-rellax" data-rellax-speed="0.5">
                <g id="Group" fill="#18DCA6">
                    <path d="M22,11 C22,17.075 17.0751,22 11,22 C4.9249,22 0,17.075 0,11 C0,4.925 4.9249,0 11,0 C17.0751,0 22,4.925 22,11 Z" id="Path"></path>
                </g>
                <polygon id="Path" fill="#FFFFFF" points="10.0509 13.183 10.55 10.996 11.7318 10.494 12.0257 9.209 12.0157 9.177 10.8524 9.671 11.6906 6 9.3136 6 8.2175 10.791 7.3024 11.18 7 12.505 7.9144 12.116 7.2685 14.94 13.5945 14.94 14 13.183"></polygon>
              </g>
            </g>
            <g id="lc-2" opacity="0.3" transform="translate(898.000000, 512.000000)" fill-rule="nonzero">
              <g class="js-rellax" data-rellax-speed="1.5">
                <g id="Group" fill="#18DCA6">
                    <path d="M33,16.5 C33,25.613 25.613,33 16.5,33 C7.387,33 0,25.613 0,16.5 C0,7.387 7.387,0 16.5,0 C25.613,0 33,7.387 33,16.5 Z" id="Path"></path>
                </g>
                <polygon id="Path" fill="#FFFFFF" points="15.076 19.774 15.825 16.494 17.598 15.741 18.039 13.813 18.024 13.766 16.279 14.507 17.536 9 13.97 9 12.326 16.187 10.954 16.77 10.5 18.757 11.872 18.175 10.903 22.41 20.392 22.41 21 19.774"></polygon>
              </g>
            </g>
            <g id="eth-2" opacity="0.5" transform="translate(802.000000, 272.000000)">
              <g class="js-rellax" data-rellax-speed="0.75">
                <g id="Group" fill="#18DCA6" fill-rule="nonzero">
                    <path d="M24,12 C24,18.627 18.627,24 12,24 C5.373,24 0,18.627 0,12 C0,5.373 5.373,0 12,0 C18.627,0 24,5.373 24,12 Z" id="Path"></path>
                </g>
                <path d="M12.218,13.624 L7.749,11.754 C7.635,11.707 7.549,11.61 7.515,11.491 C7.482,11.372 7.504,11.244 7.576,11.143 L12.045,4.885 C12.121,4.778 12.248,4.715 12.375,4.715 C12.502,4.715 12.629,4.778 12.705,4.885 L17.174,11.143 C17.246,11.244 17.268,11.372 17.235,11.491 C17.201,11.61 17.115,11.707 17,11.754 L12.532,13.624 C12.482,13.645 12.428,13.655 12.375,13.655 C12.322,13.655 12.268,13.645 12.218,13.624 Z M12.781,6.389 L12.781,12.638 L16.217,11.201 L12.781,6.389 Z M11.969,12.638 L11.969,6.389 L8.533,11.201 L11.969,12.638 Z M16.687,12.939 C16.869,12.87 17.081,12.93 17.187,13.083 C17.293,13.238 17.263,13.44 17.116,13.562 L12.647,17.283 C12.57,17.348 12.473,17.38 12.375,17.38 C12.277,17.38 12.18,17.348 12.103,17.283 L7.634,13.562 C7.487,13.44 7.457,13.238 7.563,13.083 C7.669,12.929 7.881,12.869 8.063,12.939 L12.375,14.601 L16.687,12.939 Z M9.942,14.475 L12.375,16.501 L14.808,14.475 L12.532,15.352 C12.432,15.391 12.318,15.391 12.218,15.352 L9.942,14.475 Z" id="Shape" fill="#FAFBFD"></path>
              </g>
            </g>
            <g id="btc-2" opacity="0.4" transform="translate(194.000000, 570.000000)">
              <g class="js-rellax" data-rellax-speed="1">
                <g id="Group" fill="#18DCA6" fill-rule="nonzero">
                    <path d="M17,8.5 C17,13.194 13.194,17 8.5,17 C3.806,17 0,13.194 0,8.5 C0,3.806 3.806,0 8.5,0 C13.194,0 17,3.806 17,8.5 Z" id="Path"></path>
                </g>
                <path d="M6.983,4.928 C6.983,4.676 7.187,4.473 7.438,4.473 C7.689,4.473 7.893,4.676 7.893,4.928 L7.893,5.368 L8.805,5.368 L8.805,4.928 C8.805,4.676 9.009,4.473 9.26,4.473 C9.512,4.473 9.715,4.676 9.715,4.928 L9.715,5.429 C10.084,5.495 10.389,5.614 10.631,5.785 C11.023,6.058 11.22,6.436 11.22,6.919 C11.22,7.214 11.149,7.475 11.009,7.702 C10.868,7.93 10.675,8.106 10.429,8.231 C10.769,8.339 11.038,8.52 11.237,8.776 C11.436,9.026 11.536,9.338 11.536,9.713 C11.536,10.23 11.331,10.63 10.921,10.914 C10.62,11.119 10.218,11.248 9.715,11.302 L9.715,11.771 C9.715,12.023 9.512,12.227 9.26,12.227 C9.009,12.227 8.805,12.023 8.805,11.771 L8.805,11.332 L7.893,11.332 L7.893,11.771 C7.893,12.023 7.689,12.227 7.438,12.227 C7.187,12.227 6.983,12.023 6.983,11.771 L6.983,11.332 L6.54,11.332 L6.535,11.332 L5.913,11.332 C5.665,11.332 5.465,11.132 5.465,10.884 C5.465,10.637 5.665,10.437 5.913,10.437 L6.072,10.437 L6.072,6.263 L5.913,6.263 C5.665,6.263 5.465,6.063 5.465,5.816 C5.465,5.568 5.665,5.368 5.913,5.368 L6.072,5.368 L6.072,5.368 L6.983,5.368 L6.983,4.928 Z M7.214,6.237 L7.214,7.881 L8.83,7.881 C9.228,7.881 9.533,7.813 9.744,7.677 C9.96,7.535 10.069,7.33 10.069,7.063 C10.069,6.791 9.96,6.586 9.744,6.45 C9.533,6.308 9.228,6.237 8.83,6.237 L7.214,6.237 Z M9.058,10.463 C9.943,10.463 10.385,10.176 10.385,9.602 C10.385,9.029 9.943,8.742 9.058,8.742 L7.214,8.742 L7.214,10.463 L9.058,10.463 Z" id="Shape" fill="#FFFFFF"></path>
                <path d="M7.106,5.239 C7.106,4.988 7.31,4.784 7.561,4.784 C7.812,4.784 8.016,4.988 8.016,5.239 L8.016,5.68 L8.928,5.68 L8.928,5.239 C8.928,4.988 9.132,4.784 9.383,4.784 C9.635,4.784 9.838,4.988 9.838,5.239 L9.838,5.741 C10.207,5.807 10.512,5.926 10.754,6.097 C11.146,6.37 11.343,6.747 11.343,7.23 C11.343,7.526 11.272,7.787 11.132,8.014 C10.991,8.241 10.798,8.417 10.552,8.542 C10.892,8.65 11.161,8.832 11.36,9.088 C11.559,9.338 11.659,9.65 11.659,10.025 C11.659,10.542 11.454,10.942 11.044,11.226 C10.743,11.43 10.341,11.56 9.838,11.614 L9.838,12.083 C9.838,12.334 9.635,12.538 9.383,12.538 C9.132,12.538 8.928,12.334 8.928,12.083 L8.928,11.644 L8.016,11.644 L8.016,12.083 C8.016,12.334 7.812,12.538 7.561,12.538 C7.31,12.538 7.106,12.334 7.106,12.083 L7.106,11.644 L6.195,11.644 L6.195,11.644 L6.036,11.644 C5.788,11.644 5.588,11.443 5.588,11.196 C5.588,10.949 5.788,10.748 6.036,10.748 L6.195,10.748 L6.195,6.575 L6.036,6.575 C5.788,6.575 5.588,6.374 5.588,6.127 C5.588,5.88 5.788,5.68 6.036,5.68 L6.195,5.68 L7.106,5.68 L7.106,5.239 Z M7.337,6.549 L7.337,8.193 L8.953,8.193 C9.351,8.193 9.656,8.125 9.867,7.989 C10.083,7.847 10.192,7.642 10.192,7.375 C10.192,7.102 10.083,6.898 9.867,6.762 C9.656,6.62 9.351,6.549 8.953,6.549 L7.337,6.549 Z M9.182,10.775 C10.066,10.775 10.508,10.488 10.508,9.914 C10.508,9.34 10.066,9.054 9.182,9.054 L7.337,9.054 L7.337,10.775 L9.182,10.775 Z" id="Shape" fill="#FFFFFF"></path>
              </g>
            </g>
        </g>
    </g>
</svg>
