<?xml version="1.0" encoding="UTF-8"?>
<svg width="1063px" height="152px" viewBox="0 0 1063 152" version="1.1" xmlns="http://www.w3.org/2000/svg" xmlns:xlink="http://www.w3.org/1999/xlink">
    <!-- Generator: Sketch 63.1 (92452) - https://sketch.com -->
    <title>coins-bg-page-title</title>
    <desc>Created with Sketch.</desc>
    <g id="Page-1" stroke="none" stroke-width="1" fill="none" fill-rule="evenodd">
        <g id="coins-bg-page-title">
            <g id="bbl-btc-1" opacity="0.6" transform="translate(1004.000000, 0.000000)">
              <g class="js-rellax" data-rellax-speed="-0.75">
                <g id="Group" fill="#18DCA6" fill-rule="nonzero">
                    <path d="M59,29.5 C59,45.7924 45.79,59 29.5,59 C13.21,59 0,45.7924 0,29.5 C0,13.2076 13.21,0 29.5,0 C45.79,0 59,13.2076 59,29.5 Z" id="Path"></path>
                </g>
                <path d="M24.24,17.1033 C24.24,16.2308 24.94,15.5234 25.82,15.5234 C26.69,15.5234 27.4,16.2308 27.4,17.1033 L27.4,18.6305 L30.56,18.6305 L30.56,17.1033 C30.56,16.2308 31.27,15.5234 32.14,15.5234 C33.01,15.5234 33.72,16.2308 33.72,17.1033 L33.72,18.8438 C35,19.0722 36.06,19.4841 36.9,20.0794 C38.26,21.0256 38.94,22.3365 38.94,24.0121 C38.94,25.0372 38.7,25.944 38.21,26.7325 C37.72,27.5211 37.05,28.1322 36.2,28.5659 C37.37,28.9404 38.31,29.5712 39,30.4583 C39.69,31.3257 40.04,32.4099 40.04,33.711 C40.04,35.5048 39.33,36.8946 37.9,37.8803 C36.86,38.5892 35.46,39.038 33.72,39.2266 L33.72,40.8545 C33.72,41.727 33.01,42.4344 32.14,42.4344 C31.27,42.4344 30.56,41.727 30.56,40.8545 L30.56,39.3292 L27.39,39.3292 L27.39,40.8545 C27.39,41.727 26.69,42.4344 25.81,42.4344 C24.94,42.4344 24.23,41.727 24.23,40.8545 L24.23,39.3292 L22.7,39.3292 L22.68,39.3293 L20.52,39.3293 C19.66,39.3293 18.97,38.6337 18.97,37.7756 C18.97,36.9176 19.66,36.222 20.52,36.222 L21.07,36.222 L21.07,21.7382 L20.52,21.7382 C19.66,21.7382 18.97,21.0426 18.97,20.1844 C18.97,19.3263 19.66,18.6306 20.52,18.6306 L21.07,18.6306 L21.07,18.6305 L24.24,18.6305 L24.24,17.1033 Z M25.04,21.6466 L25.04,27.3535 L30.65,27.3535 C32.03,27.3535 33.09,27.1169 33.82,26.6438 C34.57,26.151 34.95,25.4413 34.95,24.5148 C34.95,23.5686 34.57,22.8589 33.82,22.3858 C33.09,21.893 32.03,21.6466 30.65,21.6466 L25.04,21.6466 Z M31.44,36.3131 C34.51,36.3131 36.04,35.3176 36.04,33.3265 C36.04,31.3355 34.51,30.34 31.44,30.34 L25.04,30.34 L25.04,36.3131 L31.44,36.3131 Z" id="Shape" fill="#FFFFFF"></path>
                <path d="M24.66,18.1834 C24.66,17.3109 25.37,16.6035 26.24,16.6035 C27.11,16.6035 27.82,17.3109 27.82,18.1834 L27.82,19.7111 L30.98,19.7111 L30.98,18.1834 C30.98,17.3109 31.69,16.6035 32.56,16.6035 C33.44,16.6035 34.14,17.3109 34.14,18.1834 L34.14,19.9244 C35.42,20.1528 36.48,20.5647 37.32,21.16 C38.68,22.1062 39.36,23.4172 39.36,25.0928 C39.36,26.1178 39.12,27.0246 38.63,27.8131 C38.15,28.6017 37.47,29.2128 36.62,29.6465 C37.8,30.021 38.73,30.6518 39.43,31.5389 C40.12,32.4063 40.46,33.4905 40.46,34.7915 C40.46,36.5854 39.75,37.9752 38.33,38.9608 C37.28,39.6698 35.89,40.1185 34.14,40.3072 L34.14,41.9344 C34.14,42.8069 33.44,43.5143 32.56,43.5143 C31.69,43.5143 30.98,42.8069 30.98,41.9344 L30.98,40.4097 L27.82,40.4097 L27.82,41.9344 C27.82,42.8069 27.11,43.5143 26.24,43.5143 C25.37,43.5143 24.66,42.8069 24.66,41.9344 L24.66,40.4097 L21.5,40.4097 L21.5,40.4094 L20.95,40.4094 C20.09,40.4094 19.39,39.7138 19.39,38.8558 C19.39,37.9978 20.09,37.3022 20.95,37.3022 L21.5,37.3022 L21.5,22.8182 L20.95,22.8182 C20.09,22.8182 19.39,22.1227 19.39,21.2647 C19.39,20.4068 20.09,19.7112 20.95,19.7112 L21.5,19.7112 L21.5,19.7111 L24.66,19.7111 L24.66,18.1834 Z M25.46,22.7272 L25.46,28.4341 L31.07,28.4341 C32.45,28.4341 33.51,28.1975 34.24,27.7244 C34.99,27.2316 35.37,26.5219 35.37,25.5954 C35.37,24.6492 34.99,23.9396 34.24,23.4664 C33.51,22.9736 32.45,22.7272 31.07,22.7272 L25.46,22.7272 Z M31.86,37.3936 C34.93,37.3936 36.47,36.3981 36.47,34.4071 C36.47,32.4161 34.93,31.4206 31.86,31.4206 L25.46,31.4206 L25.46,37.3936 L31.86,37.3936 Z" id="Shape" fill="#FFFFFF"></path>
              </g>
            </g>
            <g id="bbl-rpl-1" opacity="0.4" transform="translate(608.000000, 118.000000)" fill-rule="nonzero">
              <g class="js-rellax" data-rellax-speed="0.75">
                <g id="Group" fill="#18DCA6">
                    <path d="M33,17.211 C33,26.324 25.613,33.711 16.5,33.711 C7.387,33.711 0,26.324 0,17.211 C0,8.098 7.387,0.711 16.5,0.711 C25.613,0.711 33,8.098 33,17.211 Z" id="Path"></path>
                </g>
                <path d="M20.523,17.013 C20.026,16.752 19.464,16.674 18.907,16.655 C18.444,16.643 17.748,16.364 17.748,15.588 C17.748,15.011 18.258,14.544 18.914,14.52 C19.47,14.502 20.033,14.423 20.53,14.162 C21.444,13.683 22,12.791 22,11.826 C22,10.861 21.437,9.97 20.53,9.49 C19.616,9.011 18.497,9.011 17.589,9.49 C16.675,9.97 16.119,10.861 16.119,11.826 C16.119,12.348 16.325,12.827 16.583,13.276 C16.801,13.652 16.907,14.35 16.166,14.744 C15.609,15.035 14.914,14.853 14.57,14.344 C14.278,13.913 13.927,13.513 13.43,13.252 C12.517,12.773 11.397,12.773 10.49,13.252 C9.563,13.731 9,14.623 9,15.588 C9,16.552 9.563,17.444 10.47,17.923 C11.384,18.403 12.503,18.403 13.411,17.923 C13.907,17.662 14.258,17.262 14.55,16.831 C14.788,16.479 15.391,16.03 16.146,16.431 C16.702,16.722 16.874,17.365 16.563,17.899 C16.305,18.342 16.099,18.827 16.099,19.349 C16.099,20.314 16.662,21.206 17.57,21.685 C18.483,22.164 19.603,22.164 20.51,21.685 C21.424,21.206 21.98,20.314 21.98,19.349 C21.993,18.384 21.43,17.493 20.523,17.013 Z" id="Path" fill="#FFFFFF"></path>
              </g>
            </g>
            <g id="bbl-et-1" opacity="0.5" transform="translate(43.000000, 103.000000)">
              <g class="js-rellax" data-rellax-speed="-0.5">
                <g id="Group" fill="#18DCA6" fill-rule="nonzero">
                    <path d="M32,16.957 C32,25.794 24.8366,32.957 16,32.957 C7.1634,32.957 0,25.794 0,16.957 C0,8.12 7.1634,0.957 16,0.957 C24.8366,0.957 32,8.12 32,16.957 Z" id="Path"></path>
                </g>
                <path d="M16.2911,19.122 L10.3327,16.63 C10.1803,16.567 10.0655,16.437 10.0206,16.278 C9.9756,16.12 10.0052,15.949 10.101,15.815 L16.0594,7.471 C16.161,7.329 16.3306,7.244 16.5003,7.244 C16.6697,7.244 16.8391,7.329 16.9407,7.471 L22.899,15.815 C22.9948,15.949 23.0244,16.12 22.9794,16.278 C22.9345,16.437 22.8197,16.567 22.6673,16.63 L16.7089,19.122 C16.6423,19.15 16.5709,19.164 16.5000049,19.164 C16.4291,19.164 16.3577,19.15 16.2911,19.122 Z M17.0417,9.477 L17.0417,17.809 L21.6232,15.893 L17.0417,9.477 Z M15.9584,17.809 L15.9584,9.477 L11.3769,15.893 L15.9584,17.809 Z M22.2493,18.209 C22.4921,18.118 22.7741,18.198 22.9158,18.402 C23.057,18.608 23.0174,18.878 22.8211,19.041 L16.8628,24.002 C16.7597,24.088 16.6301,24.131 16.5000008,24.131 C16.3699,24.131 16.2403,24.088 16.1371,24.002 L10.1789,19.041 C9.9826,18.878 9.943,18.608 10.0842,18.402 C10.226,18.197 10.5074,18.116 10.7507,18.209 L16.5000008,20.425 L22.2493,18.209 Z M13.2564,20.258 L16.5,22.959 L19.7436,20.258 L16.709,21.428 C16.5757,21.479 16.4244,21.479 16.2911,21.428 L13.2564,20.258 Z" id="Shape" fill="#FAFBFD"></path>
              </g>
            </g>
            <g id="bbl-lc-1" opacity="0.3" transform="translate(0.000000, 86.000000)" fill-rule="nonzero">
              <g class="js-rellax" data-rellax-speed="0.5">
                <g id="Group" fill="#18DCA6">
                    <path d="M22,11 C22,17.075 17.0751,22 11,22 C4.9249,22 0,17.075 0,11 C0,4.925 4.9249,0 11,0 C17.0751,0 22,4.925 22,11 Z" id="Path"></path>
                </g>
                <polygon id="Path" fill="#FFFFFF" points="10.0509 13.183 10.55 10.996 11.7318 10.494 12.0257 9.209 12.0157 9.177 10.8524 9.671 11.6906 6 9.3136 6 8.2175 10.791 7.3024 11.18 7 12.505 7.9144 12.116 7.2685 14.94 13.5945 14.94 14 13.183"></polygon>
              </g>
            </g>
        </g>
    </g>
</svg>
