<?xml version="1.0" encoding="UTF-8"?>
<svg width="128px" height="192px" viewBox="0 0 128 192" version="1.1" xmlns="http://www.w3.org/2000/svg" xmlns:xlink="http://www.w3.org/1999/xlink">
    <!-- Generator: Sketch 63.1 (92452) - https://sketch.com -->
    <title>easy-start-1</title>
    <desc>Created with Sketch.</desc>
    <defs>
        <rect id="path-1" x="0.9375" y="0.1318" width="26.125" height="23.2088"></rect>
        <rect id="path-3" x="0.078" y="0.4944" width="20.8421" height="25.3187"></rect>
    </defs>
    <g id="Page-1" stroke="none" stroke-width="1" fill="none" fill-rule="evenodd">
        <g id="easy-start-1">
            <path d="M113,48 L113,147.967 C113,150.728 110.761,152.967 108,152.967 L99,152.967" id="Path" stroke="#D1D7E4" stroke-width="2"></path>
            <path d="M14,60.1318 L14,147.967 C14,150.728 16.2386,152.967 19,152.967 L28,152.967" id="Path" stroke="#D1D7E4" stroke-width="2"></path>
            <rect id="Rectangle" fill="#D1D7E4" fill-rule="nonzero" x="26" y="117.099" width="76" height="74.9011" rx="8"></rect>
            <rect id="Rectangle" fill="#E7EBF4" fill-rule="nonzero" x="26" y="117.099" width="76" height="53.8022" rx="8"></rect>
            <path d="M71,5 C71,2.2386 73.2386,0 76,0 L123,0 C125.761,0 128,2.2386 128,5 L128,43.5275 C128,46.2889 125.761,48.5275 123,48.5275 L76,48.5275 C73.2386,48.5275 71,46.2889 71,43.5275 L71,5 Z" id="Path" fill="#FFFFFF" fill-rule="nonzero"></path>
            <rect id="Rectangle" fill="#FFFFFF" fill-rule="nonzero" x="0" y="44.3076" width="64" height="54.8571" rx="5"></rect>
            <g id="Clipped" transform="translate(19.000000, 60.000000)">
                <mask id="mask-2" fill="white">
                    <use xlink:href="#path-1"></use>
                </mask>
                <g id="Rectangle"></g>
                <rect id="Rectangle" fill="#18DCA6" fill-rule="nonzero" mask="url(#mask-2)" x="0.9375" y="-2.0439" width="27.5" height="25.3846"></rect>
            </g>
            <g id="Clipped" transform="translate(89.000000, 9.000000)">
                <mask id="mask-4" fill="white">
                    <use xlink:href="#path-3"></use>
                </mask>
                <g id="Rectangle"></g>
                <rect id="Rectangle" fill="#18DCA6" fill-rule="nonzero" mask="url(#mask-4)" x="1.342" y="5.1584" width="18.3158" height="19.3222"></rect>
            </g>
            <g transform="translate(15.000000, 4.000000)" fill="#FFFFFF" fill-rule="nonzero">
                <g id="ill-esb-1-1" class="js-rellax" data-rellax-speed="1">
                  <rect id="Rectangle" x="0" y="0.2197" width="26" height="22.1538" rx="5"></rect>
                </g>
            </g>
            <g transform="translate(75.000000, 64.000000)" fill="#FFFFFF" fill-rule="nonzero">
                <g id="ill-esb-1-2" class="js-rellax" data-rellax-speed="1">
                  <rect id="Rectangle" x="0" y="0.3516" width="31" height="26.3736" rx="5"></rect>
                </g>
            </g>
        </g>
    </g>
</svg>
