<svg width="160" height="200" viewBox="0 0 160 200" fill="none" xmlns="http://www.w3.org/2000/svg">
<path d="M113 47V72C113 74.7614 110.761 77 108 77H102" stroke="#D1D7E4" stroke-width="2"/>
<rect x="77" y="6" width="61" height="41" rx="4" fill="#E7EBF4"/>
<path d="M79 10C79 8.89543 79.8954 8 81 8H134C135.105 8 136 8.89543 136 10V41C136 41.5523 135.552 42 135 42H80C79.4477 42 79 41.5523 79 41V10Z" fill="white"/>
<path d="M79 29.9L82.6576 31.4086C83.5015 31.7567 84.474 31.4891 85.0212 30.7584L86.8914 28.2606C87.718 27.1566 89.3876 27.2008 90.1545 28.347L92.9329 32.4989C93.728 33.6871 95.4768 33.6815 96.2643 32.4884L97.9727 29.9L102.124 24.4819C102.763 23.6475 103.94 23.4504 104.816 24.0308L109.473 27.1151C109.558 27.1716 109.639 27.2346 109.715 27.3036L113.745 30.9725C113.838 31.0573 113.939 31.1331 114.047 31.1989L116.717 32.8351C117.788 33.4913 119.192 33.0095 119.634 31.834L121.072 28.0099C121.436 27.0442 122.657 26.747 123.423 27.4379V27.4379C124.133 28.0777 125.256 27.8773 125.7 27.0314L125.976 26.5072C126.723 25.0853 128.78 25.1504 129.436 26.6167L130.589 29.1949C131.266 30.7092 133.386 30.7883 134.174 29.3287L135 27.8" stroke="#18DCA6" stroke-width="2"/>
<path d="M74 45.5455C74 45.2442 74.2442 45 74.5455 45H140.455C140.756 45 141 45.2442 141 45.5455C141 46.3488 140.349 47 139.545 47H75.4545C74.6512 47 74 46.3488 74 45.5455Z" fill="#D1D7E4"/>
<rect x="52" y="54" width="51" height="49" rx="8" fill="#D1D7E4"/>
<path d="M79 92.5V114.5" stroke="#D1D7E4" stroke-width="2" stroke-linecap="round"/>
<path d="M58 77L33 77" stroke="#D1D7E4" stroke-width="2"/>
<rect x="52" y="54" width="51" height="35" rx="8" fill="#E7EBF4"/>
<rect x="20" y="63" width="18" height="30" rx="2" fill="#D1D7E4"/>
<rect x="22" y="65" width="14" height="26" rx="2" fill="white"/>
<path d="M36 79.725L35.3979 79.9899C35.0541 80.1411 34.6514 80.0287 34.4356 79.7213V79.7213C34.1118 79.2601 33.4226 79.2779 33.1231 79.7553L33.0704 79.8392C32.7346 80.3746 31.9537 80.3721 31.6212 79.8347L31.5533 79.725L31.2985 79.3703C30.7536 78.6118 29.699 78.4346 28.9362 78.9735V78.9735C28.8641 79.0244 28.7961 79.0809 28.7327 79.1424L27.8928 79.9579C27.8469 80.0025 27.7968 80.0426 27.7432 80.0777L27.4862 80.2456C27.0739 80.5151 26.5182 80.327 26.3544 79.8625L26.1343 79.2384C26.0537 79.0097 25.7636 78.9409 25.5888 79.1089V79.1089C25.4261 79.2654 25.1583 79.2184 25.0586 79.016L24.9907 78.8781C24.8217 78.535 24.3276 78.55 24.1797 78.9027L23.9242 79.5121C23.7262 79.9843 23.1226 80.1217 22.7397 79.7818L22 79.125" stroke="#18DCA6"/>
<rect x="25" y="63" width="8" height="3" rx="1.5" fill="#D1D7E4"/>
<rect x="70" y="181" width="24" height="10" fill="#D1D7E4"/>
<rect x="33" y="117" width="98" height="69" rx="8" fill="#E7EBF4"/>
<rect x="65" y="191" width="33" height="3" rx="1.5" fill="#E7EBF4"/>
<path d="M36 126C36 122.686 38.6863 120 42 120H122C125.314 120 128 122.686 128 126V175C128 175.552 127.552 176 127 176H37C36.4477 176 36 175.552 36 175V126Z" fill="white"/>
<path d="M36 155.5L42.8649 158.388C43.7177 158.747 44.7053 158.474 45.2527 157.728L49.9551 151.322C50.7805 150.198 52.4745 150.242 53.2396 151.408L59.8162 161.433C60.609 162.642 62.3824 162.636 63.1676 161.423L67 155.5L74.4958 145.521C75.1359 144.669 76.3315 144.468 77.2145 145.065L85.8719 150.913C85.9572 150.971 86.0379 151.035 86.1133 151.105L92.8605 157.37C92.9533 157.457 93.054 157.534 93.1614 157.601L98.9145 161.197C99.9902 161.869 101.412 161.383 101.851 160.193L104.946 151.801C105.438 150.465 107.128 150.057 108.176 151.021L108.942 151.725C109.913 152.618 111.469 152.342 112.073 151.168L113.843 147.734C114.614 146.237 116.776 146.304 117.452 147.846L121.338 156.709C122.01 158.241 124.154 158.32 124.937 156.841L127.5 152" stroke="#18DCA6" stroke-width="2"/>
<g filter="url(#fiilter_es30_d)">
<rect x="23" y="15" width="26" height="21" rx="5" fill="white"/>
</g>
<g filter="url(#fiilter_es31_d)">
<rect x="110" y="81" width="26" height="21" rx="5" fill="white"/>
</g>
<defs>
<filter id="filter_es30_d" x="11" y="5" width="50" height="45" filterUnits="userSpaceOnUse" color-interpolation-filters="sRGB">
<feFlood flood-opacity="0" result="BackgroundImageFix"/>
<feColorMatrix in="SourceAlpha" type="matrix" values="0 0 0 0 0 0 0 0 0 0 0 0 0 0 0 0 0 0 127 0"/>
<feOffset dy="2"/>
<feGaussianBlur stdDeviation="6"/>
<feColorMatrix type="matrix" values="0 0 0 0 0.0627451 0 0 0 0 0.152941 0 0 0 0 0.396078 0 0 0 0.11 0"/>
<feBlend mode="normal" in2="BackgroundImageFix" result="effect1_dropShadow"/>
<feBlend mode="normal" in="SourceGraphic" in2="effect1_dropShadow" result="shape"/>
</filter>
<filter id="filter_es31_d" x="98" y="71" width="50" height="45" filterUnits="userSpaceOnUse" color-interpolation-filters="sRGB">
<feFlood flood-opacity="0" result="BackgroundImageFix"/>
<feColorMatrix in="SourceAlpha" type="matrix" values="0 0 0 0 0 0 0 0 0 0 0 0 0 0 0 0 0 0 127 0"/>
<feOffset dy="2"/>
<feGaussianBlur stdDeviation="6"/>
<feColorMatrix type="matrix" values="0 0 0 0 0.0627451 0 0 0 0 0.152941 0 0 0 0 0.396078 0 0 0 0.11 0"/>
<feBlend mode="normal" in2="BackgroundImageFix" result="effect1_dropShadow"/>
<feBlend mode="normal" in="SourceGraphic" in2="effect1_dropShadow" result="shape"/>
</filter>
</defs>
</svg>
