<?xml version="1.0" encoding="UTF-8"?>
<svg width="440px" height="424px" viewBox="0 0 440 424" version="1.1" xmlns="http://www.w3.org/2000/svg" xmlns:xlink="http://www.w3.org/1999/xlink">
    <!-- Generator: Sketch 63.1 (92452) - https://sketch.com -->
    <title>illustration_traders-about-coins</title>
    <desc>Created with Sketch.</desc>
    <g id="Page-1" stroke="none" stroke-width="1" fill="none" fill-rule="evenodd">
        <g id="illustration_traders-about-coins">
            <g id="coin-l-1" opacity="0.6" transform="translate(381.000000, 0.000000)">
              <g class="js-rellax" data-rellax-speed="-0.5">
                <g id="Group" fill="#18DCA6" fill-rule="nonzero">
                    <path d="M59,29.5 C59,45.7924 45.792,59 29.5,59 C13.208,59 0,45.7924 0,29.5 C0,13.2076 13.208,0 29.5,0 C45.792,0 59,13.2076 59,29.5 Z" id="Path"></path>
                </g>
                <path d="M24.235,17.3836 C24.235,16.5111 24.943,15.8037 25.815,15.8037 C26.688,15.8037 27.395,16.5111 27.395,17.3836 L27.395,18.9685 L30.559,18.9685 L30.559,17.3836 C30.559,16.5111 31.266,15.8037 32.139,15.8037 C33.011,15.8037 33.718,16.5111 33.718,17.3836 L33.718,19.1857 C34.998,19.4182 36.057,19.8375 36.896,20.4435 C38.258,21.4068 38.939,22.7413 38.939,24.447 C38.939,25.4906 38.695,26.4137 38.207,27.2164 C37.72,28.0191 37.049,28.6412 36.195,29.0827 C37.374,29.464 38.309,30.1062 39,31.0093 C39.691,31.8923 40.037,32.996 40.037,34.3205 C40.037,36.1467 39.325,37.5614 37.903,38.5648 C36.858,39.2865 35.464,39.7434 33.719,39.9354 L33.719,41.6209 C33.719,42.4935 33.011,43.2008 32.139,43.2008 C31.266,43.2008 30.559,42.4935 30.559,41.6209 L30.559,40.0398 L27.394,40.0398 L27.394,41.6209 C27.394,42.4935 26.687,43.2008 25.815,43.2008 C24.942,43.2008 24.235,42.4935 24.235,41.6209 L24.235,40.0398 L21.073,40.0398 L21.073,40.0398 L20.549,40.0398 C19.675,40.0398 18.967,39.3313 18.967,38.4574 C18.967,37.5835 19.675,36.8751 20.549,36.8751 L21.073,36.8751 L21.073,22.1332 L20.549,22.1332 C19.675,22.1332 18.967,21.4247 18.967,20.5506 C18.967,19.6766 19.675,18.968 20.549,18.968 L22.652,18.968 C22.665,18.968 22.679,18.9682 22.692,18.9685 L24.235,18.9685 L24.235,17.3836 Z M25.036,22.0389 L25.036,27.8486 L30.646,27.8486 C32.028,27.8486 33.085,27.6077 33.817,27.1261 C34.569,26.6244 34.945,25.902 34.945,24.9588 C34.945,23.9955 34.569,23.2731 33.817,22.7914 C33.085,22.2897 32.028,22.0389 30.646,22.0389 L25.036,22.0389 Z M31.439,36.9694 C34.508,36.9694 36.043,35.956 36.043,33.9291 C36.043,31.9023 34.508,30.8889 31.439,30.8889 L25.036,30.8889 L25.036,36.9694 L31.439,36.9694 Z" id="Shape" fill="#FFFFFF"></path>
                <path d="M24.661,17.4637 C24.661,16.5911 25.369,15.8838 26.241,15.8838 C27.114,15.8838 27.821,16.5911 27.821,17.4637 L27.821,19.048 L30.984,19.048 L30.984,17.4637 C30.984,16.5911 31.692,15.8838 32.564,15.8838 C33.437,15.8838 34.144,16.5911 34.144,17.4637 L34.144,19.2652 C35.424,19.4977 36.483,19.917 37.322,20.523 C38.684,21.4862 39.365,22.8208 39.365,24.5265 C39.365,25.57 39.121,26.4932 38.633,27.2959 C38.145,28.0986 37.475,28.7207 36.621,29.1622 C37.8,29.5435 38.735,30.1856 39.426,31.0887 C40.117,31.9717 40.463,33.0754 40.463,34.3999 C40.463,36.2261 39.751,37.6408 38.328,38.6442 C37.284,39.3659 35.889,39.8228 34.144,40.0148 L34.144,41.701 C34.144,42.5736 33.437,43.2809 32.565,43.2809 C31.692,43.2809 30.985,42.5736 30.985,41.701 L30.985,40.1192 L27.82,40.1192 L27.82,41.701 C27.82,42.5736 27.113,43.2809 26.24,43.2809 C25.368,43.2809 24.66,42.5736 24.66,41.701 L24.66,40.1192 L23.129,40.1192 C23.112,40.1198 23.095,40.12 23.078,40.12 L20.975,40.12 C20.101,40.12 19.393,39.4116 19.393,38.5377 C19.393,37.6638 20.101,36.9553 20.975,36.9553 L21.498,36.9553 L21.498,22.2126 L20.975,22.2126 C20.101,22.2126 19.393,21.5042 19.393,20.6303 C19.393,19.7564 20.101,19.048 20.975,19.048 L21.498,19.048 L23.078,19.048 L24.661,19.048 L24.661,17.4637 Z M25.462,22.1184 L25.462,27.928 L31.072,27.928 C32.454,27.928 33.511,27.6872 34.243,27.2056 C34.995,26.7039 35.371,25.9814 35.371,25.0382 C35.371,24.075 34.995,23.3526 34.243,22.8709 C33.511,22.3692 32.454,22.1184 31.072,22.1184 L25.462,22.1184 Z M31.865,37.0488 C34.934,37.0488 36.468,36.0354 36.468,34.0086 C36.468,31.9817 34.934,30.9683 31.865,30.9683 L25.462,30.9683 L25.462,37.0488 L31.865,37.0488 Z" id="Shape" fill="#FFFFFF"></path>
              </g>
            </g>
            <g id="coin-m-2" opacity="0.4" transform="translate(0.000000, 118.000000)">
              <g class="js-rellax" data-rellax-speed="-0.35">
                <g id="Group" fill="#18DCA6" fill-rule="nonzero">
                    <path d="M32,16.98 C32,25.817 24.8366,32.98 16,32.98 C7.1634,32.98 0,25.817 0,16.98 C0,8.144 7.1634,0.98 16,0.98 C24.8366,0.98 32,8.144 32,16.98 Z" id="Path"></path>
                </g>
                <path d="M13.1425,10.409 C13.1425,9.935 13.5262,9.552 13.9994,9.552 C14.4727,9.552 14.8563,9.935 14.8563,10.409 L14.8563,11.268 L16.5706,11.268 L16.5706,10.409 C16.5706,9.935 16.9542,9.552 17.4275,9.552 C17.9007,9.552 18.2843,9.935 18.2843,10.409 L18.2843,11.386 C18.9793,11.512 19.5547,11.739 20.0104,12.068 C20.749,12.591 21.1184,13.314 21.1184,14.24 C21.1184,14.806 20.9861,15.306 20.7215,15.742 C20.4569,16.177 20.0931,16.514 19.6301,16.754 C20.2695,16.961 20.7766,17.309 21.1514,17.799 C21.5263,18.278 21.7137,18.876 21.7137,19.595 C21.7137,20.585 21.3278,21.352 20.5561,21.897 C19.9896,22.288 19.233,22.536 18.2862,22.64 L18.2862,23.556 C18.2862,24.029 17.9026,24.413 17.4293,24.413 C16.9561,24.413 16.5725,24.029 16.5725,23.556 L16.5725,22.697 L14.8585,22.697 L14.8585,23.556 C14.8585,24.029 14.4749,24.413 14.0016,24.413 C13.5284,24.413 13.1447,24.029 13.1447,23.556 L13.1447,22.697 L12.3135,22.697 C12.3045,22.697 12.2955,22.697 12.2864,22.697 L11.1459,22.697 C10.6719,22.697 10.2876,22.313 10.2876,21.839 C10.2876,21.365 10.6719,20.98 11.1459,20.98 L11.4279,20.98 L11.4279,12.984 L11.1455,12.984 C10.6717,12.984 10.2876,12.6 10.2876,12.126 C10.2876,11.653 10.6717,11.268 11.1455,11.268 L11.4279,11.268 L11.4279,11.268 L13.1425,11.268 L13.1425,10.409 Z M13.5777,12.934 L13.5777,16.084 L16.6204,16.084 C17.3701,16.084 17.9433,15.954 18.3402,15.693 C18.7481,15.421 18.9521,15.029 18.9521,14.517 C18.9521,13.995 18.7481,13.603 18.3402,13.342 C17.9433,13.07 17.3701,12.934 16.6204,12.934 L13.5777,12.934 Z M17.0504,21.031 C18.715,21.031 19.5474,20.482 19.5474,19.382 C19.5474,18.283 18.715,17.733 17.0504,17.733 L13.5777,17.733 L13.5777,21.031 L17.0504,21.031 Z" id="Shape" fill="#FFFFFF"></path>
              </g>
            </g>
            <g id="coin-m-1" opacity="0.5" transform="translate(383.000000, 392.000000)">
              <g class="js-rellax" data-rellax-speed="0.5">
                <g id="Group" fill="#18DCA6" fill-rule="nonzero">
                    <path d="M32,16 C32,24.837 24.837,32 16,32 C7.163,32 0,24.837 0,16 C0,7.163 7.163,0 16,0 C24.837,0 32,7.163 32,16 Z" id="Path"></path>
                </g>
                <path d="M13.141,9.428 C13.141,8.955 13.524,8.571 13.998,8.571 C14.471,8.571 14.854,8.955 14.854,9.428 L14.854,10.288 L16.571,10.288 L16.571,9.428 C16.571,8.955 16.954,8.571 17.427,8.571 C17.901,8.571 18.284,8.955 18.284,9.428 L18.284,10.405 C18.979,10.531 19.555,10.759 20.01,11.088 C20.749,11.61 21.118,12.334 21.118,13.259 C21.118,13.825 20.986,14.326 20.721,14.761 C20.457,15.197 20.093,15.534 19.63,15.774 C20.269,15.98 20.777,16.329 21.151,16.819 C21.526,17.298 21.714,17.896 21.714,18.615 C21.714,19.605 21.328,20.372 20.556,20.917 C19.99,21.308 19.233,21.556 18.286,21.66 L18.286,22.575 C18.286,23.049 17.903,23.432 17.429,23.432 C16.956,23.432 16.572,23.049 16.572,22.575 L16.572,21.717 L14.859,21.717 L14.859,22.575 C14.859,23.049 14.475,23.432 14.002,23.432 C13.528,23.432 13.145,23.049 13.145,22.575 L13.145,21.717 L11.428,21.717 L11.428,21.716 L11.146,21.716 C10.672,21.716 10.288,21.332 10.288,20.858 C10.288,20.384 10.672,20 11.146,20 L11.428,20 L11.428,12.004 L11.146,12.004 C10.672,12.004 10.288,11.62 10.288,11.146 C10.288,10.672 10.672,10.288 11.146,10.288 L12.287,10.288 L12.301,10.288 L13.141,10.288 L13.141,9.428 Z M13.578,11.953 L13.578,15.104 L16.62,15.104 C17.37,15.104 17.943,14.974 18.34,14.712 C18.748,14.44 18.952,14.048 18.952,13.537 C18.952,13.014 18.748,12.623 18.34,12.361 C17.943,12.089 17.37,11.953 16.62,11.953 L13.578,11.953 Z M17.05,20.051 C18.715,20.051 19.547,19.502 19.547,18.402 C19.547,17.303 18.715,16.753 17.05,16.753 L13.578,16.753 L13.578,20.051 L17.05,20.051 Z" id="Shape" fill="#FFFFFF"></path>
              </g>
            </g>
            <g id="coin-s-1" opacity="0.2" transform="translate(361.000000, 376.000000)">
              <g class="js-rellax" data-rellax-speed="0.75">
                <g id="Group" fill="#18DCA6" fill-rule="nonzero">
                    <path d="M22,11 C22,17.075 17.075,22 11,22 C4.925,22 0,17.075 0,11 C0,4.925 4.925,0 11,0 C17.075,0 22,4.925 22,11 Z" id="Path"></path>
                </g>
                <path d="M9.035,6.486 C9.035,6.16 9.299,5.896 9.624,5.896 C9.95,5.896 10.213,6.16 10.213,6.486 L10.213,7.074 L11.392,7.074 L11.392,6.486 C11.392,6.16 11.656,5.896 11.981,5.896 C12.306,5.896 12.57,6.16 12.57,6.486 L12.57,7.154 C13.048,7.241 13.444,7.397 13.758,7.624 C14.266,7.983 14.519,8.48 14.519,9.117 C14.519,9.506 14.428,9.85 14.247,10.149 C14.065,10.448 13.815,10.68 13.496,10.845 C13.936,10.987 14.284,11.227 14.542,11.563 C14.8,11.893 14.929,12.304 14.929,12.798 C14.929,13.479 14.663,14.007 14.133,14.381 C13.743,14.65 13.222,14.821 12.571,14.892 L12.571,15.521 C12.571,15.847 12.307,16.11 11.982,16.11 C11.656,16.11 11.392,15.847 11.392,15.521 L11.392,14.931 L10.215,14.931 L10.215,15.521 C10.215,15.847 9.951,16.11 9.626,16.11 C9.301,16.11 9.037,15.847 9.037,15.521 L9.037,14.931 L7.857,14.931 L7.857,14.931 L7.663,14.931 C7.337,14.931 7.073,14.667 7.073,14.341 C7.073,14.015 7.337,13.751 7.663,13.751 L7.857,13.751 L7.857,8.254 L7.663,8.254 C7.337,8.254 7.073,7.989 7.073,7.663 C7.073,7.337 7.337,7.073 7.663,7.073 L8.447,7.073 C8.458,7.073 8.47,7.073 8.481,7.074 L9.035,7.074 L9.035,6.486 Z M9.335,8.219 L9.335,10.385 L11.427,10.385 C11.942,10.385 12.337,10.295 12.609,10.116 C12.89,9.928 13.03,9.659 13.03,9.307 C13.03,8.948 12.89,8.679 12.609,8.499 C12.337,8.312 11.942,8.219 11.427,8.219 L9.335,8.219 Z M11.723,13.786 C12.867,13.786 13.439,13.408 13.439,12.652 C13.439,11.896 12.867,11.519 11.723,11.519 L9.335,11.519 L9.335,13.786 L11.723,13.786 Z" id="Shape" fill="#FFFFFF"></path>
              </g>
            </g>
        </g>
    </g>
</svg>
