<?xml version="1.0" encoding="UTF-8"?>
<svg viewBox="0 0 1126 399" version="1.1"
  xmlns="http://www.w3.org/2000/svg"
  xmlns:xlink="http://www.w3.org/1999/xlink">
  <!-- Generator: Sketch 63.1 (92452) - https://sketch.com -->
  <defs>
    <path d="M131.403,75.289 C131.869,76.295 132.651,77.113 133.583,77.714 L134.969,92.27 L134.969,93.445 C133.555,94.205 132.671,95.058 132.500002,96 L130.218,106.955 C130.103,106.983 129.99,107.011 129.879,107.039 L130.054,107.741 L130.000002,108 C129.529,108.11 129.028,108.23 128.500002,108.358 C117.157,111.105 93.155,117.819 84.968,122.866 C74.258,129.468 61.076,141.434 53.25,150.1 C49.501,154.25 44.384,160.875 39.968,166.823 C39.95,166.775 39.924,166.73 39.89,166.688 C39.888,166.685 39.886,166.682 39.884,166.679 L39.879,166.674 L40.651,161.977 C40.725,161.953 40.795,161.912 40.854,161.854 C41.049,161.658 41.049,161.342 40.854,161.146 C40.835,161.128 40.816,161.109 40.797,161.09 L42.127,152.988 C41.996,152.463 41.762,151.941 41.429,151.438 C41.675,149.658 41.963,147.892 42.252,146.76 C42.389,146.227 42.735,145.787 43.132,145.406 C45.081,143.529 48.772,138.826 49.865,137.369 C50.523,136.492 50.829,135.262 51.096,134.184 C51.328,133.251 51.531,132.432 51.911,132.052 C52.529,131.434 54.653,126.396 55.807,123.54 C55.937,123.218 56.127,122.927 56.331,122.646 C57.265,121.354 57.779,119.374 53.957,119.374 C49.418,119.374 47.858,123.544 46.736,126.546 C46.543,127.061 46.363,127.543 46.183,127.962 C44.956,130.825 42.501,130.007 40.864,128.371 C39.228,126.735 38.41,125.099 37.591,122.236 C36.773,119.374 36.271,115.272 36.0000018,112.012 C35.773,109.285 35.631,107.012 35.505,104.997 C35.353,102.571 35.224,100.519 35.0000018,98.5 C34.5000018,94 30.0000018,94.5 30.0000018,100 C30.0000018,101.47 30.078,104.233 30.143,106.51 L30.143,106.51 C30.188,108.105 30.227,109.462 30.227,109.967 L30.227,118.556 C30.227,120.601 28.59,119.783 27.772,118.556 C27.329,117.891 26.766,116.508 26.148,114.989 C25.625,113.703 25.062,112.319 24.499,111.194 C23.271,108.74 21.2257,104.65 19.18,102.196 C16.7252,99.333 14.6795,102.196 15.4977,104.65 C16.316,107.104 16.7252,108.331 17.9526,111.194 C18.9345,113.484 20.8166,118.692 21.6348,121.009 C22.8622,123.872 21.6348,124.69 19.18,121.827 C17.5434,120.191 16.316,118.556 15.4977,117.329 C14.8431,116.347 12.2246,113.375 10.9972,112.012 C8.5424,109.558 5.2693,111.603 7.7241,115.693 C9.3607,119.292 12.4974,123.463 13.8613,125.099 C17.1347,128.371 15.0886,131.643 10.5881,129.598 C8.7355,128.981 5.7664,127.587 4.2912,126.859 C4.1249,126.777 3.9469,126.707 3.7673,126.661 C-1.4836,125.313 -0.4795,130.133 2.1572,131.524 L2.1805,131.537 L2.1807,131.537 L2.1809,131.537 L2.181,131.537 C2.3351,131.618 2.4894,131.7 2.6362,131.794 C3.8354,132.561 5.3951,133.329 7.3153,134.097 C9.361,134.915 12.6342,137.369 13.4524,140.232 C14.0029,142.158 15.9422,145.183 17.2751,147.069 C17.7037,147.676 17.9157,148.412 17.8484,149.152 L17.4427,153.613 C17.4242,153.816 17.4264,154.016 17.4472,154.21 C17.267,154.63 17.1202,155.05 16.9996,155.464 C16.3085,157.475 15.4329,160.02 14.4827,162.777 C14.3619,162.905 14.2427,163.036 14.1251,163.169 C13.9577,163.359 13.9602,163.64 14.1211,163.826 C11.1743,172.375 7.6638,182.522 6.7013,185.174 C5.0535,189.713 2.9939,203.33 9.1729,210.757 C10.0228,211.779 10.8027,212.816 11.5595,213.823 C16.3045,220.135 20.1463,225.245 34.712,217.772 C51.601,209.106 83.32,190.125 86.616,185.174 C91.559,190.455 95.541,197.278 96.914,200.029 C100.387,212.203 103.553,291.881 103.051,306.431 C103.031,307.018 103.472,307.489 104.059,307.478 C117.305,307.223 151.955,307.326 182.791,307.417 L182.797,307.417 L182.803,307.417 C196.735,307.458 209.889,307.5 219.936,307.5 C220.521,307.5 220.959,307.001 220.911,306.418 L217.000002,259 L216.153,225.3 C216.027,220.275 216.59,215.246 218.057,210.439 C220.271,203.184 222.53,197.057 225.04,190.248 L225.04,190.247 L225.04,190.247 L225.500002,189 C227.711,183 235.173,176.151 243.000002,174.5 C249.813,173.063 275.809,161.162 285.417,156.198 L285.637,156.084 C287.654,155.044 289.728,153.973 291.092,152.165 C295.902,145.786 301.500002,128.598 301.500002,118.5 C301.500002,114.332 301.838,108.768 302.187,103.031 C302.414,99.301 302.645,95.497 302.791,91.955 C302.991,92.047 303.236,91.998 303.384,91.82 C303.561,91.608 303.532,91.293 303.32,91.116 C303.159,90.982 302.999,90.851 302.838,90.723 C302.948,87.644 302.983,84.801 302.88,82.427 C302.699,81.883 302.394,81.218 301.955,80.513 C303.075,79.227 304.18,77.716 304.869,76.037 C304.961,75.812 305.088,75.534 305.234,75.215 C306.08,73.36 307.551,70.133 306.500002,68 C305.688,66.351 305.218,65.824 304.000002,65 C303.309,64.532 303.272,63.96 303.22,63.176 C303.181,62.579 303.134,61.858 302.782,60.966 C302.259,59.638 301.254,59.434 300.28,59.237 C299.742,59.128 299.214,59.02 298.781,58.727 C298.27,58.381 298.088,57.898 297.885,57.359 C297.604,56.614 297.284,55.763 296.000002,55.018 C295.107,54.5 293.500002,54.5 293.000002,55 L293.099,52.545 L293.487,47.811 C293.499,47.67 293.52,47.531 293.551,47.393 C293.975,45.511 294.815,41.58 295.128,39.357 C295.534,36.472 295.128,34.411 293.505,34.411 C292.206,34.411 291.069,36.609 290.664,37.708 L288.634,43.066 C287.823,45.951 285.874,52.792 284.576,57.079 C283.815,59.589 282.794,61.593 281.833,62.989 C280.954,64.265 279.1,64.194 278.274,62.883 C277.723,62.009 277.27,60.907 277.27,59.552 C277.27,56.667 275.241,55.43 274.023,55.018 C272.805,54.606 271.588,55.018 271.994,56.667 C272.107,57.128 272.253,57.524 272.394,57.911 L272.394,57.911 C272.759,58.906 273.098,59.831 272.805,61.612 C272.518,63.361 272.637,64.079 272.875,65.515 L272.875,65.516 L272.876,65.518 L272.876,65.521 C272.974,66.115 273.093,66.831 273.211,67.794 C273.608,71.017 275.555,74.633 279.054,79.412 C279.189,79.598 279.299,79.802 279.409,80.005 L279.409,80.005 L279.445,80.073 L279.472,80.122 C279.718,80.573 280.083,80.978 280.544,81.342 C280.437,83.388 280.252,85.891 280.003,88.445 C280.003,88.45 280.002,88.454 280.002,88.459 C279.565,92.93 278.93,97.557 278.164,100.171 C277.335,103.001 276.649,105.488 276.044,107.68 L276.044,107.68 C272.518,120.458 271.77,123.168 261.687,124.929 C259.641,125.286 253.972,122.997 246.963,120.167 C238.615,116.796 228.367,112.658 220.082,111.312 C207.917,109.336 190.642,105.827 183.47,104.308 L183.548,103.502 C183.485,103.496 183.422,103.49 183.359,103.484 C183.299,103.479 183.239,103.473 183.179,103.467 L180.000002,92.5 C179.794,92.019 179.301,91.591 178.571,91.216 L178.571,87.787 C181.288,86.972 186.884,77.517 187.536,67.41 C187.759,63.956 187.86,61.142 187.889,58.776 C188.369,58.509 188.716,57.995 188.794,57.394 C189.789,49.696 189.789,43.972 189.789,39.1 C189.789,38.337 189.816,37.479 189.847,36.545 L189.847,36.545 L189.847,36.545 L189.847,36.544 L189.847,36.544 L189.847,36.544 C190.077,29.482 190.449,18.085 179.955,10.511 C168.072,1.934 158.647,-2.558 144.716,1.526 C142.47,2.184 140.502,2.726 138.758,3.205 L138.757,3.206 L138.757,3.206 C129.685,5.701 126.713,6.519 122.589,13.37 C118.936,19.439 118.902,20.999 118.789,26.089 C118.751,27.85 118.702,30.034 118.492,32.974 C117.836,42.123 120.95,52.306 122.589,56.254 L131.403,75.289 Z" id="path-1"></path>
    <linearGradient x1="32.5567245%" y1="75.1118691%" x2="92.2949554%" y2="21.2429605%" id="linearGradient-3">
      <stop stop-color="#0D1E4D" stop-opacity="0.86" offset="0%"></stop>
      <stop stop-color="#0E1F4F" stop-opacity="0.4" offset="100%"></stop>
    </linearGradient>
    <radialGradient cx="50%" cy="50%" fx="50%" fy="50%" r="55.9633028%" gradientTransform="translate(0.500000,0.500000),scale(1.000000,0.893443),rotate(90.000000),translate(-0.500000,-0.500000)" id="radialGradient-4">
      <stop stop-color="#00F6B2" offset="0%"></stop>
      <stop stop-color="#18DCA6" stop-opacity="0" offset="100%"></stop>
    </radialGradient>
    <radialGradient cx="50%" cy="50%" fx="50%" fy="50%" r="64.9377593%" gradientTransform="translate(0.500000,0.500000),scale(1.000000,0.769968),rotate(90.000000),translate(-0.500000,-0.500000)" id="radialGradient-5">
      <stop stop-color="#13265C" stop-opacity="0.21" offset="0%"></stop>
      <stop stop-color="#13265C" stop-opacity="0" offset="100%"></stop>
    </radialGradient>
    <radialGradient cx="50%" cy="50%" fx="50%" fy="50%" r="50%" gradientTransform="translate(0.500000,0.500000),scale(0.740741,1.000000),rotate(90.000000),translate(-0.500000,-0.500000)" id="radialGradient-6">
      <stop stop-color="#00F6B2" offset="0%"></stop>
      <stop stop-color="#18DCA6" stop-opacity="0" offset="100%"></stop>
    </radialGradient>
    <path d="M28.248,40.099 C28.021,41.094 27.796,42.349 27.636,43.76 L27.653,43.766 C29.678,44.522 31.927,47.923 32.788,49.935 C33.057,50.563 33.326,51.651 33.643,52.939 C34.377,55.913 35.373,59.947 37.236,61.812 C39.435,64.014 42.036,70.249 43.547,73.87 C43.87,74.643 44.143,75.298 44.352,75.768 C45.538,78.44 47.614,82.004 49.096,82.894 C50.135,83.518 52.765,85.402 54.399,86.592 C54.803,86.887 55.3,87.021 55.797,86.969 C60.55,86.474 68.954,85.783 69.852,86.458 C72.212,88.23 75.498,87.841 77.966,86.222 C78.32,85.989 78.682,85.768 79.044,85.567 C81.712,84.082 82.305,84.082 84.974,84.676 C86.406,84.995 87.24,85.57 87.981,86.08 C88.62,86.521 89.19,86.914 90.015,87.051 C90.963,87.21 91.721,86.386 92.627,85.403 C93.42,84.542 94.33,83.558 95.57,83.004 C98.24,81.816 105.36,80.925 107.43,81.519 C108.11,81.711 108.59,81.935 108.99,82.119 C109.83,82.503 110.29,82.715 111.29,82.113 C112.39,81.45 116.8,80.557 120.12,80.514 C120.59,80.507 121.06,80.359 121.41,80.044 C121.94,79.576 122.59,78.944 122.93,78.44 C123.21,78.015 124,77.78 124.78,77.66 C125.62,77.531 126.38,77.014 126.66,76.214 L127.73,73.173 C127.81,72.942 127.97,72.754 128.18,72.637 C128.07,72.179 127.98,71.817 127.93,71.57 C127.87,71.312 127.79,71.074 127.67,70.837 C121.32,57.994 117.14,46.935 122.37,27.217 C121.63,23.209 122.26,22.05 122.96,20.771 C123.35,20.052 123.77,19.296 123.97,17.975 C124.46,14.798 125.15,14.069 127.23,11.872 C127.64,11.437 128.11,10.944 128.64,10.364 C130.32,8.53 131.67,7.813 133.05,7.089 C134.3,6.425 135.57,5.755 137.11,4.216 C139.32,1.994 139.45,2.002 142.87,2.221 C144.4,2.319 146.6,2.46 149.95,2.46 C158.59,2.46 164.84,6.558 166.01,8.9 C167.46,9.388 170.97,12.12 173.3,19.146 C175.56,25.943 174.36,35.844 173.4,40.37 C173.6,41.816 173.38,43.732 173.01,45.596 C172.19,49.727 168.84,53.348 165.06,56.22 C164.49,56.651 164.07,57.251 163.93,57.949 C163.03,62.451 162.75,69.379 162.71,73.177 C163.21,72.714 164.12,72.758 164.48,73.523 L167.35,79.763 C167.58,80.247 167.98,80.621 168.48,80.805 C177.18,83.998 194.43,90.588 199.72,93.584 C213.04,101.12 215.84,127.08 217.53,142.681 L217.53,142.681 C217.63,143.573 217.72,144.431 217.81,145.25 C219.85,169.107 216.38,214.564 214.09,244.597 L214.09,244.608 C213.76,248.871 213.46,252.824 213.2,256.359 C213.12,257.405 212.25,258.198 211.21,258.198 L195.79,258.198 C194.69,258.198 193.79,257.31 193.79,256.205 C193.72,246.668 193.23,230.85 192.74,215.209 L192.74,215.207 L192.74,215.204 C192.22,198.816 191.72,182.623 191.72,174.053 C191.72,173.941 191.66,175.039 191.56,176.783 C191.3,181.592 190.76,191.318 190.47,194.198 C189.32,205.736 190.36,241.236 191.53,256.023 C191.62,257.198 190.7,258.198 189.52,258.198 L94.52,258.198 C93.26,258.198 92.312,257.053 92.528,255.814 C97.08,229.736 97.73,182.472 95.65,157.424 C95.56,156.399 95.49,155.32 95.41,154.202 C94.76,144.849 93.92,132.836 85.567,127.82 C77.327,122.868 55.055,118.695 42.68,116.376 C41.687,116.19 40.758,116.015 39.904,115.854 C30.64,114.099 27.835,109.127 24.42,103.075 C23.456,101.367 22.444,99.573 21.224,97.741 C19.445,95.069 18.556,93.584 17.666,90.318 C17.369,89.229 16.908,87.843 16.414,86.359 C15.426,83.389 14.306,80.024 14.108,77.846 C13.918,75.755 13.485,74.516 12.887,72.803 C12.551,71.842 12.162,70.731 11.736,69.235 C10.681,65.537 8.453,60.665 6.93,57.334 C6.741,56.921 6.562,56.531 6.399,56.17 C5.742,54.725 5.661,53.091 5.803,51.702 C5.867,51.071 6.237,50.644 6.732,50.436 C5.546,49.041 3.943,47.127 3.476,45.842 C3.181,45.028 2.73,44.218 2.246,43.347 C1.509,42.022 0.694,40.556 0.228,38.721 C-0.545,35.682 0.785,33.871 2.141,33.046 C2.996,32.527 3.259,31.827 3.55,31.053 C3.72,30.599 3.9,30.12 4.215,29.637 C4.918,28.559 6.51,28.064 7.538,27.745 C7.754,27.678 7.945,27.619 8.098,27.563 C8.486,27.422 8.687,26.763 8.901,26.062 C9.17,25.179 9.46,24.227 10.171,24.154 C10.562,24.114 11.069,24.002 11.59,23.864 C12.899,23.516 13.69,22.227 13.55,20.879 C13.531,20.702 13.498,20.531 13.448,20.36 C12.045,15.57 9.256,6.131 8.754,4.748 C8.115,2.988 8.088,2.002 10.322,0.858 C12.109,-0.056 13.852,3.893 14.5,5.981 C15.656,9.429 18.346,16.917 20.839,22.339 C21.21,23.145 23.051,23.314 23.938,23.277 C24.311,23.261 24.51,23.514 24.637,23.865 L24.881,24.537 C25.103,25.146 25.571,25.725 26.013,26.272 C26.179,26.478 26.343,26.68 26.488,26.878 C27.098,27.709 27.894,29.184 28.796,31.667 C30.016,35.029 29.713,37.147 29.153,38.257 C29.055,38.451 28.944,38.64 28.832,38.829 C28.592,39.236 28.351,39.644 28.248,40.099 Z M172.97,38.939 C172.84,38.567 172.66,38.198 172.43,37.882 C171.8,37.04 170.87,37.409 170.17,37.683 C169.91,37.79 169.67,37.882 169.51,37.882 C169.28,37.882 168.82,38.202 168.19,38.643 C167.22,39.319 165.84,40.278 164.25,40.81 C164.02,40.888 163.8,40.957 163.6,41.016 C164.24,41.067 164.9,40.935 165.51,40.581 C166.76,39.851 168.12,39.107 169.48,38.471 C171.33,37.599 172.41,37.931 172.97,38.939 Z M126.59,19.736 C125.59,20.594 125.22,21.103 124.8,22.121 L126.59,19.736 Z" id="path-7"></path>
    <radialGradient cx="50%" cy="50%" fx="50%" fy="50%" r="50%" gradientTransform="translate(0.500000,0.500000),scale(0.934545,1.000000),rotate(90.000000),translate(-0.500000,-0.500000)" id="radialGradient-9">
      <stop stop-color="#00F6B2" offset="0%"></stop>
      <stop stop-color="#18DCA6" stop-opacity="0" offset="100%"></stop>
    </radialGradient>
    <linearGradient x1="31.2626879%" y1="9.31192308%" x2="82.9038314%" y2="101.821923%" id="linearGradient-10">
      <stop stop-color="#13265C" stop-opacity="0" offset="0%"></stop>
      <stop stop-color="#13265C" offset="72.2603%"></stop>
    </linearGradient>
    <path d="M139.128,66.872 C135.977,70.85 125.956,71.131 123.914,70.227 C123.866,69.794 123.831,69.323 123.808,68.823 C123.701,74.824 124.95,79.247 125.984,81.295 L127.342,82.35 C127.632,81.438 128.751,80.889 129.851,81.422 C135.519,84.167 142.98,87.788 145.147,88.866 C148.59,90.577 150.311,91.433 156.336,97.851 C162.361,104.27 164.943,113.683 164.943,116.25 C164.943,118.818 164.943,134.65 163.652,141.068 C162.63,146.149 162.085,157.238 161.935,162.305 C161.932,162.412 161.937,162.515 161.952,162.621 C162.142,163.981 162.445,165.364 162.805,167.009 L162.805,167.009 C164.427,174.41 167.21,187.107 166.02,226.851 C166.844,229.127 167.4,231.063 167.466,232.342 L166.467,232.393 C166.437,231.807 166.284,231.034 166.028,230.107 C166.167,236.056 166.722,250.092 167.375,259.855 C167.452,261.015 166.535,262 165.372,262 L157.197,262 L66.078,262 C64.875,262 63.921,260.965 64.003,259.764 C64.756,248.709 65.963,208.532 65.963,206.962 C65.963,205.941 66.747,202.679 67.567,199.268 L67.567,199.268 C68.465,195.532 69.406,191.617 69.406,190.275 C69.406,188.248 70.802,178.277 71.529,173.354 C71.548,173.222 71.554,173.097 71.547,172.964 C71.251,167.453 70.426,155.555 69.406,150.481 C68.114,144.063 66.393,138.928 65.963,137.645 C65.649,136.708 61.73,132.14 59.302,129.396 C58.89,128.93 58.283,128.688 57.662,128.726 C55.632,128.85 52.636,128.949 51.761,128.659 C51.048,128.423 48.367,128.839 44.732,129.403 L44.732,129.403 L44.731,129.403 C41.783,129.861 38.209,130.415 34.547,130.799 C28.584,131.423 23.307,129.999 19.051,128.85 L19.051,128.85 C17.472,128.423 16.033,128.035 14.751,127.803 C10.017,126.948 5.714,119.246 4.423,113.683 C3.606,110.166 3.306,101.858 3.087,95.791 C2.96,92.264 2.86,89.495 2.701,88.866 C2.655,88.681 2.567,88.372 2.45,87.963 C1.487,84.587 -1.425,74.382 0.98,70.467 C1.445,69.71 2.975,67.662 4.562,66.973 C4.503,66.816 4.437,66.662 4.36,66.515 C3.577,65.005 3.316,61.48 3.316,60.977 C3.316,60.801 3.094,60.229 2.805,59.483 C2.264,58.087 1.488,56.083 1.488,54.935 C1.488,54.236 1.365,53.498 1.232,52.704 C1.031,51.496 0.808,50.16 0.965,48.641 C1.227,46.124 2.793,45.117 4.099,44.865 C4.922,44.706 5.33,44.248 5.781,43.741 C6.045,43.444 6.324,43.13 6.711,42.851 C7.574,42.227 8.971,42.29 9.873,42.331 C10.063,42.34 10.23,42.347 10.367,42.347 C10.713,42.347 11.06,41.903 11.43,41.43 C11.895,40.835 12.396,40.193 12.978,40.333 C13.316,40.415 13.78,40.472 14.259,40.51 C15.347,40.598 16.303,39.847 16.577,38.79 C16.615,38.644 16.639,38.499 16.649,38.349 C16.914,34.328 17.417,26.415 17.417,25.229 C17.417,23.718 17.678,22.963 19.768,22.711 C21.439,22.51 21.683,25.984 21.596,27.746 C21.52,30.67 21.497,37.057 21.906,41.85 C21.97,42.596 23.349,43.24 24.066,43.453 C24.377,43.545 24.468,43.812 24.468,44.135 L24.468,44.676 C24.468,45.201 24.672,45.768 24.864,46.303 C24.934,46.5 25.003,46.693 25.06,46.877 C25.305,47.674 25.513,49.015 25.513,51.159 C25.513,53.894 24.753,55.404 24.027,56.139 C23.85,56.318 23.654,56.482 23.457,56.645 C23.127,56.919 22.797,57.194 22.559,57.543 C21.104,59.683 19.16,63.272 18.847,67.41 C19.266,67.319 22.498,67.568 22.498,70.467 C22.498,71.75 22.928,90.149 23.789,94.856 C24.374,98.056 26.657,102.305 28.211,104.823 C28.646,105.529 29.485,105.859 30.29,105.664 C32.847,105.043 37.645,103.818 43.585,102.13 C48.912,100.617 51.697,98.955 54.144,97.494 C55.848,96.478 57.388,95.559 59.508,94.856 C63.312,93.595 69.843,92.479 73.317,91.976 C73.845,91.9 74.324,91.624 74.717,91.264 C75.707,90.358 77.899,88.677 81.886,86.298 C86.531,83.527 92.235,80.783 95.109,79.533 L95.109,69.668 C93.991,69.668 92.847,69.143 89.021,62.251 C81.519,48.742 81.313,25.647 92.088,13.672 C92.224,13.389 92.339,13.029 92.474,12.607 C93.159,10.46 94.358,6.701 101.55,3.134 C119.725,-5.879 141.124,7.235 142.364,27.735 C142.589,31.448 140.892,37.741 139.493,42.928 L139.493,42.929 C138.712,45.824 138.024,48.374 137.815,49.939 C141.315,55.816 143.065,61.9 139.128,66.872 Z M139.241,97.095 L138.098,98.429 C138.669,98.157 139.112,97.661 139.241,97.095 Z M5.52,73.086 C5.647,73.627 5.821,74.153 6.066,74.69 C5.856,74.164 5.675,73.622 5.52,73.086 Z M126.651,54.586 C126.556,54.613 126.464,54.659 126.373,54.721 L126.419,54.589 C126.497,54.589 126.574,54.588 126.651,54.586 Z M132.958,51.545 C132.287,52.34 131.339,53.148 130.145,53.732 C131.223,53.316 132.238,52.667 132.958,51.545 Z" id="path-11"></path>
    <linearGradient x1="51.9472537%" y1="7.89473684%" x2="100.454317%" y2="94.7874494%" id="linearGradient-13">
      <stop stop-color="#13265C" stop-opacity="0" offset="0%"></stop>
      <stop stop-color="#13265C" offset="72.2603%"></stop>
    </linearGradient>
  </defs>
  <g id="Page-1" stroke="none" stroke-width="1" fill="none" fill-rule="evenodd">
    <g id="illustration_trstart" transform="translate(10.000000, 0.000000)">
      <g id="bbl-btc-1" opacity="0.9" transform="translate(305.000000, 58.000000)">
        <g class="js-rellax" data-rellax-speed="0.5">
          <g id="Group" fill="#18DCA6" fill-rule="nonzero">
            <path d="M82,41 C82,63.644 63.644,82 41,82 C18.356,82 0,63.644 0,41 C0,18.3563 18.356,0 41,0 C63.644,0 82,18.3563 82,41 Z" id="Path"></path>
          </g>
          <path d="M33.684,24.16 C33.684,22.947 34.667,21.964 35.879,21.964 C37.092,21.964 38.075,22.947 38.075,24.16 L38.075,26.358 L42.468,26.358 L42.468,24.16 C42.468,22.947 43.451,21.964 44.664,21.964 C45.877,21.964 46.86,22.947 46.86,24.16 L46.86,26.659 C48.641,26.982 50.115,27.565 51.283,28.408 C53.175,29.747 54.122,31.601 54.122,33.972 C54.122,35.423 53.783,36.706 53.105,37.821 C52.427,38.937 51.494,39.801 50.308,40.415 C51.946,40.945 53.246,41.838 54.206,43.093 C55.167,44.32 55.647,45.854 55.647,47.695 C55.647,50.233 54.658,52.199 52.681,53.594 C51.228,54.598 49.288,55.233 46.86,55.499 L46.86,57.841 C46.86,59.054 45.877,60.037 44.664,60.037 C43.451,60.037 42.468,59.054 42.468,57.841 L42.468,55.644 L38.076,55.644 L38.076,57.841 C38.076,59.054 37.093,60.037 35.88,60.037 C34.668,60.037 33.685,59.054 33.685,57.841 L33.685,55.644 L29.29,55.644 L28.56,55.644 C27.347,55.644 26.363,54.66 26.363,53.447 C26.363,52.234 27.347,51.25 28.56,51.25 L29.29,51.25 L29.29,30.751 L28.56,30.751 C27.347,30.751 26.363,29.768 26.363,28.555 C26.363,27.341 27.347,26.358 28.56,26.358 L29.29,26.358 L31.488,26.358 L33.684,26.358 L33.684,24.16 Z M34.799,30.625 L34.799,38.7 L42.596,38.7 C44.517,38.7 45.986,38.365 47.003,37.696 C48.048,36.998 48.571,35.994 48.571,34.683 C48.571,33.345 48.048,32.341 47.003,31.671 C45.986,30.974 44.517,30.625 42.596,30.625 L34.799,30.625 Z M43.697,51.376 C47.963,51.376 50.096,49.968 50.096,47.151 C50.096,44.334 47.963,42.925 43.697,42.925 L34.799,42.925 L34.799,51.376 L43.697,51.376 Z" id="Shape" fill="#FFFFFF"></path>
          <path d="M34.273,24.272 C34.273,23.06 35.256,22.077 36.469,22.077 C37.682,22.077 38.665,23.06 38.665,24.272 L38.665,26.47 L43.058,26.47 L43.058,24.272 C43.058,23.06 44.041,22.077 45.254,22.077 C46.467,22.077 47.45,23.06 47.45,24.272 L47.45,26.771 C49.23,27.094 50.705,27.677 51.872,28.52 C53.765,29.859 54.711,31.714 54.711,34.085 C54.711,35.535 54.372,36.818 53.694,37.934 C53.016,39.049 52.084,39.914 50.898,40.528 C52.536,41.057 53.836,41.95 54.796,43.205 C55.757,44.432 56.237,45.966 56.237,47.807 C56.237,50.345 55.248,52.312 53.271,53.706 C51.818,54.71 49.878,55.345 47.45,55.612 L47.45,57.954 C47.45,59.166 46.467,60.149 45.254,60.149 C44.041,60.149 43.058,59.166 43.058,57.954 L43.058,55.756 L38.666,55.756 L38.666,57.954 C38.666,59.166 37.683,60.149 36.47,60.149 C35.258,60.149 34.275,59.166 34.275,57.954 L34.275,55.756 L29.88,55.756 L29.88,55.756 L29.15,55.756 C27.937,55.756 26.953,54.772 26.953,53.559 C26.953,52.346 27.937,51.362 29.15,51.362 L29.88,51.362 L29.88,30.864 L29.15,30.864 C27.937,30.864 26.953,29.88 26.953,28.667 C26.953,27.454 27.937,26.47 29.15,26.47 L29.88,26.47 L32.078,26.47 L34.273,26.47 L34.273,24.272 Z M35.389,30.738 L35.389,38.812 L43.186,38.812 C45.107,38.812 46.575,38.478 47.592,37.808 C48.638,37.111 49.16,36.107 49.16,34.796 C49.16,33.457 48.638,32.453 47.592,31.784 C46.575,31.086 45.107,30.738 43.186,30.738 L35.389,30.738 Z M44.287,51.489 C48.553,51.489 50.686,50.08 50.686,47.263 C50.686,44.446 48.553,43.038 44.287,43.038 L35.389,43.038 L35.389,51.489 L44.287,51.489 Z" id="Shape" fill="#FFFFFF"></path>
        </g>
      </g>
      <g id="bbl-wave-2" transform="translate(626.500000, 102.500000)">
        <g data-aos="fade" data-aos-delay="500">
          <path d="M54.311,36.107 C54.311,46.297 46.051,54.557 35.861,54.557 C25.671,54.557 17.41,46.297 17.41,36.107 C17.41,25.917 25.671,17.656 35.861,17.656 C46.051,17.656 54.311,25.917 54.311,36.107 Z" id="Path" fill="#18DCA6" fill-rule="nonzero"></path>
          <path d="M32.566,28.529 C32.566,27.983 33.008,27.541 33.554,27.541 C34.1,27.541 34.542,27.983 34.542,28.529 L34.542,29.518 L36.519,29.518 L36.519,28.529 C36.519,27.983 36.961,27.541 37.507,27.541 C38.053,27.541 38.495,27.983 38.495,28.529 L38.495,29.653 C39.297,29.798 39.961,30.061 40.486,30.44 C41.338,31.043 41.764,31.877 41.764,32.944 C41.764,33.597 41.611,34.174 41.306,34.676 C41.001,35.178 40.582,35.567 40.048,35.843 C40.785,36.082 41.37,36.484 41.802,37.048 C42.234,37.601 42.451,38.291 42.451,39.119 C42.451,40.261 42.006,41.146 41.116,41.774 C40.462,42.225 39.589,42.511 38.497,42.631 L38.497,43.686 C38.497,44.231 38.055,44.674 37.509,44.674 C36.964,44.674 36.521,44.231 36.521,43.686 L36.521,42.696 L34.544,42.696 L34.544,43.686 C34.544,44.231 34.102,44.674 33.556,44.674 C33.011,44.674 32.568,44.231 32.568,43.686 L32.568,42.696 L30.589,42.696 L30.589,42.696 L30.262,42.696 C29.716,42.696 29.273,42.254 29.273,41.708 C29.273,41.162 29.716,40.719 30.262,40.719 L30.589,40.719 L30.589,31.495 L30.262,31.495 C29.716,31.495 29.273,31.052 29.273,30.506 C29.273,29.96 29.716,29.518 30.262,29.518 L30.589,29.518 L30.589,29.518 L32.566,29.518 L32.566,28.529 Z M33.068,31.438 L33.068,35.072 L36.577,35.072 C37.442,35.072 38.103,34.921 38.56,34.62 C39.031,34.306 39.266,33.854 39.266,33.264 C39.266,32.662 39.031,32.21 38.56,31.909 C38.103,31.595 37.442,31.438 36.577,31.438 L33.068,31.438 Z M37.073,40.776 C38.993,40.776 39.952,40.142 39.952,38.875 C39.952,37.607 38.993,36.973 37.073,36.973 L33.068,36.973 L33.068,40.776 L37.073,40.776 Z" id="Shape" fill="#FFFFFF"></path>
          <circle id="Oval" stroke="#18DCA6" stroke-width="5" opacity="0.4" cx="36" cy="36" r="26"></circle>
          <circle id="Oval" stroke="#18DCA6" stroke-width="5" opacity="0.2" cx="36" cy="36" r="36"></circle>
        </g>
      </g>
      <g id="bbl-wave-1" transform="translate(863.500000, 71.500000)">
        <g data-aos="fade" data-aos-delay="1000">
          <path d="M73,36 C73,55.852 56.689,72 36.5,72 C16.311,72 0,55.852 0,36 C0,16.148 16.311,0 36.5,0 C56.689,0 73,16.148 73,36 Z" id="Path" stroke="#18DCA6" stroke-width="5" opacity="0.3"></path>
          <path d="M18.59,37.954 C18.59,30.367 24.741,24.216 32.328,24.216 L34.884,24.216 C42.471,24.216 48.622,30.367 48.622,37.954 C48.622,45.542 42.471,51.693 34.884,51.693 L32.328,51.693 C24.741,51.693 18.59,45.542 18.59,37.954 Z" id="Path" fill="#E7EBF4" fill-rule="nonzero"></path>
          <path d="M54.373,36.356 C54.373,46.237 46.362,54.248 36.481,54.248 C26.6,54.248 18.59,46.237 18.59,36.356 C18.59,26.475 26.6,18.465 36.481,18.465 C46.362,18.465 54.373,26.475 54.373,36.356 Z" id="Path" fill="#18DCA6" fill-rule="nonzero"></path>
          <path d="M33.286,29.008 C33.286,28.479 33.715,28.05 34.245,28.05 C34.774,28.05 35.203,28.479 35.203,29.008 L35.203,29.967 L37.119,29.967 L37.119,29.008 C37.119,28.479 37.548,28.05 38.077,28.05 C38.607,28.05 39.036,28.479 39.036,29.008 L39.036,30.098 C39.813,30.239 40.456,30.494 40.966,30.862 C41.792,31.446 42.205,32.255 42.205,33.29 C42.205,33.923 42.057,34.482 41.761,34.969 C41.465,35.456 41.058,35.833 40.541,36.101 C41.256,36.332 41.823,36.722 42.242,37.27 C42.661,37.805 42.87,38.475 42.87,39.278 C42.87,40.385 42.439,41.243 41.576,41.852 C40.943,42.29 40.097,42.567 39.038,42.683 L39.038,43.706 C39.038,44.235 38.609,44.664 38.08,44.664 C37.55,44.664 37.122,44.235 37.122,43.706 L37.122,42.747 L35.205,42.747 L35.205,43.706 C35.205,44.235 34.776,44.664 34.247,44.664 C33.718,44.664 33.289,44.235 33.289,43.706 L33.289,42.747 L31.369,42.747 L31.369,42.746 L31.052,42.746 C30.523,42.746 30.094,42.317 30.094,41.788 C30.094,41.258 30.523,40.829 31.052,40.829 L31.369,40.829 L31.369,31.884 L31.052,31.884 C30.523,31.884 30.094,31.455 30.094,30.926 C30.094,30.396 30.523,29.967 31.052,29.967 L31.369,29.967 L32.33,29.967 L33.286,29.967 L33.286,29.008 Z M33.773,31.829 L33.773,35.353 L37.175,35.353 C38.013,35.353 38.654,35.207 39.098,34.915 C39.554,34.61 39.782,34.172 39.782,33.6 C39.782,33.016 39.554,32.578 39.098,32.286 C38.654,31.981 38.013,31.829 37.175,31.829 L33.773,31.829 Z M37.656,40.884 C39.517,40.884 40.448,40.27 40.448,39.04 C40.448,37.811 39.517,37.197 37.656,37.197 L33.773,37.197 L33.773,40.884 L37.656,40.884 Z" id="Shape" fill="#FFFFFF"></path>
          <circle id="Oval" stroke="#18DCA6" stroke-width="5" opacity="0.5" cx="36.5" cy="36.5" r="26.5"></circle>
        </g>
      </g>
      <g id="bbl-rpl-3" opacity="0.4" transform="translate(223.000000, 56.000000)" fill-rule="nonzero">
        <g class="js-rellax" data-rellax-speed="0.5">
          <g id="Group" fill="#18DCA6">
            <path d="M60,30 C60,46.569 46.569,60 30,60 C13.431,60 0,46.569 0,30 C0,13.4315 13.431,0 30,0 C46.569,0 60,13.4315 60,30 Z" id="Path"></path>
          </g>
          <path d="M37.387,32.26 C36.508,31.755 35.512,31.602 34.528,31.567 C33.708,31.544 32.478,31.003 32.478,29.5 C32.478,28.384 33.38,27.48 34.54,27.433 C35.524,27.398 36.52,27.245 37.399,26.74 C39.016,25.812 40,24.085 40,22.218 C40,20.3504 39.004,18.6238 37.399,17.6959 C35.782,16.768 33.802,16.768 32.197,17.6959 C30.58,18.6238 29.596,20.3504 29.596,22.218 C29.596,23.228 29.959,24.156 30.416,25.025 C30.802,25.753 30.99,27.104 29.678,27.867 C28.693,28.431 27.463,28.079 26.854,27.092 C26.338,26.258 25.717,25.483 24.839,24.978 C23.222,24.05 21.241,24.05 19.636,24.978 C17.996,25.906 17,27.632 17,29.5 C17,31.368 17.996,33.094 19.601,34.022 C21.218,34.95 23.198,34.95 24.803,34.022 C25.682,33.517 26.303,32.742 26.819,31.908 C27.24,31.227 28.307,30.357 29.642,31.133 C30.627,31.696 30.931,32.941 30.381,33.975 C29.924,34.832 29.56,35.772 29.56,36.782 C29.56,38.65 30.556,40.376 32.161,41.304 C33.778,42.232 35.759,42.232 37.364,41.304 C38.981,40.376 39.965,38.65 39.965,36.782 C39.988,34.915 38.992,33.188 37.387,32.26 Z" id="Path" fill="#FFFFFF"></path>
        </g>
      </g>
      <g id="bbl-rpl-2" opacity="0.4" transform="translate(588.000000, 88.000000)" fill-rule="nonzero">
        <g class="js-rellax" data-rellax-speed="0.25">
          <g id="Group" fill="#18DCA6">
            <path d="M27.955,14.824 C27.955,22.544 21.697,28.802 13.978,28.802 C6.258,28.802 0,22.544 0,14.824 C0,7.105 6.258,0.847 13.978,0.847 C21.697,0.847 27.955,7.105 27.955,14.824 Z" id="Path"></path>
          </g>
          <path d="M17.419,15.877 C17.009,15.642 16.545,15.571 16.087,15.554 C15.705,15.544 15.131,15.292 15.131,14.591 C15.131,14.071 15.552,13.65 16.092,13.628 C16.551,13.612 17.015,13.541 17.424,13.305 C18.178,12.873 18.636,12.069 18.636,11.198 C18.636,10.328 18.172,9.524 17.424,9.092 C16.671,8.659 15.748,8.659 15,9.092 C14.247,9.524 13.788,10.328 13.788,11.198 C13.788,11.669 13.958,12.101 14.171,12.506 C14.351,12.846 14.438,13.475 13.827,13.831 C13.368,14.093 12.795,13.929 12.511,13.47 C12.271,13.081 11.981,12.72 11.572,12.484 C10.819,12.052 9.896,12.052 9.148,12.484 C8.384,12.917 7.92,13.721 7.92,14.591 C7.92,15.461 8.384,16.266 9.132,16.698 C9.885,17.131 10.808,17.131 11.556,16.698 C11.965,16.463 12.254,16.102 12.495,15.713 C12.691,15.396 13.188,14.991 13.81,15.352 C14.269,15.615 14.411,16.195 14.154,16.676 C13.941,17.076 13.772,17.514 13.772,17.984 C13.772,18.854 14.236,19.659 14.984,20.091 C15.737,20.523 16.66,20.523 17.408,20.091 C18.161,19.659 18.62,18.854 18.62,17.984 C18.631,17.114 18.167,16.31 17.419,15.877 Z" id="Path" fill="#FFFFFF"></path>
        </g>
      </g>
      <g id="bbl-rpl-1" opacity="0.4" transform="translate(939.000000, 113.000000)" fill-rule="nonzero">
        <g class="js-rellax" data-rellax-speed="-0.5">
          <g id="Group" fill="#18DCA6">
            <path d="M25.838,13.307 C25.838,20.409 20.081,26.166 12.979,26.166 C5.877,26.166 0.119,20.409 0.119,13.307 C0.119,6.205 5.877,0.447 12.979,0.447 C20.081,0.447 25.838,6.205 25.838,13.307 Z" id="Path"></path>
          </g>
          <path d="M16.143,14.275 C15.767,14.059 15.34,13.993 14.918,13.978 C14.566,13.968 14.039,13.737 14.039,13.092 C14.039,12.614 14.426,12.226 14.923,12.206 C15.345,12.191 15.772,12.126 16.148,11.909 C16.841,11.511 17.263,10.771 17.263,9.971 C17.263,9.17 16.836,8.43 16.148,8.032 C15.455,7.635 14.606,7.635 13.918,8.032 C13.225,8.43 12.803,9.17 12.803,9.971 C12.803,10.404 12.959,10.801 13.155,11.174 C13.321,11.486 13.401,12.065 12.838,12.392 C12.417,12.634 11.889,12.483 11.628,12.06 C11.407,11.703 11.141,11.37 10.764,11.154 C10.071,10.756 9.222,10.756 8.534,11.154 C7.831,11.552 7.404,12.292 7.404,13.092 C7.404,13.893 7.831,14.633 8.519,15.031 C9.212,15.428 10.061,15.428 10.749,15.031 C11.126,14.814 11.392,14.482 11.613,14.124 C11.794,13.832 12.251,13.46 12.823,13.792 C13.245,14.034 13.376,14.567 13.14,15.01 C12.944,15.378 12.788,15.781 12.788,16.214 C12.788,17.014 13.215,17.754 13.903,18.152 C14.596,18.55 15.445,18.55 16.133,18.152 C16.826,17.754 17.248,17.014 17.248,16.214 C17.258,15.413 16.831,14.673 16.143,14.275 Z" id="Path" fill="#FFFFFF"></path>
        </g>
      </g>
      <g id="bbl-et-1" opacity="0.4" transform="translate(395.000000, 0.000000)">
        <g class="js-rellax" data-rellax-speed="-0.5">
          <g id="Group" fill="#18DCA6" fill-rule="nonzero">
            <path d="M56,28 C56,43.464 43.464,56 28,56 C12.536,56 0,43.464 0,28 C0,12.536 12.536,0 28,0 C43.464,0 56,12.536 56,28 Z" id="Path"></path>
          </g>
          <path d="M27.253,33.2377 L16.597,28.7819 C16.325,28.6684 16.119,28.4366 16.039,28.1528 C15.959,27.8699 16.012,27.5643 16.183,27.325 L26.839,12.4059 C27.021,12.1513 27.324,12 27.628,12 C27.931,12 28.234,12.1515 28.415,12.4059 L39.071,27.325 C39.243,27.5643 39.296,27.8699 39.215,28.1528 C39.135,28.4366 38.929,28.6684 38.657,28.7819 L28.001,33.2377 C27.882,33.2879 27.754,33.3125 27.627,33.3125 C27.5,33.3125 27.373,33.2879 27.253,33.2377 Z M28.596,15.992 L28.596,30.8886 L36.79,27.4631 L28.596,15.992 Z M26.658,30.8886 L26.658,15.992 L18.465,27.4631 L26.658,30.8886 Z M37.908,31.5132 C38.342,31.3353 38.846,31.4905 39.1,31.8878 C39.352,32.287 39.281,32.8102 38.93,33.1262 L28.274,42.7503 C28.09,42.9168 27.858,43 27.625,43 C27.392,43 27.161,42.9168 26.976,42.7503 L16.32,33.1262 C15.969,32.8102 15.898,32.287 16.151,31.8878 C16.404,31.4895 16.907,31.3325 17.343,31.5132 L27.625,35.812 L37.908,31.5132 Z M21.824,35.4875 L27.625,40.7258 L33.426,35.4875 L27.999,37.7562 C27.761,37.8565 27.49,37.8565 27.252,37.7562 L21.824,35.4875 Z" id="Shape" fill="#FAFBFD"></path>
        </g>
      </g>
      <g id="bbl-et-2" opacity="0.4" transform="translate(687.000000, 72.000000)">
        <g class="js-rellax" data-rellax-speed="1">
          <g id="Group" fill="#18DCA6" fill-rule="nonzero">
            <path d="M31.831,15.728 C31.831,24.374 24.822,31.383 16.176,31.383 C7.53,31.383 0.521,24.374 0.521,15.728 C0.521,7.082 7.53,0.0735 16.176,0.0735 C24.822,0.0735 31.831,7.082 31.831,15.728 Z" id="Path"></path>
          </g>
          <path d="M15.759,18.657 L9.801,16.166 C9.649,16.102 9.534,15.973 9.489,15.814 C9.444,15.656 9.474,15.485 9.57,15.351 L15.528,7.01 C15.629,6.867 15.799,6.783 15.969,6.783 C16.138,6.783 16.307,6.867 16.409,7.01 L22.367,15.351 C22.463,15.485 22.492,15.656 22.447,15.814 C22.402,15.973 22.288,16.102 22.135,16.166 L16.177,18.657 C16.111,18.685 16.039,18.699 15.968,18.699 C15.898,18.699 15.826,18.685 15.759,18.657 Z M16.51,9.015 L16.51,17.343 L21.091,15.428 L16.51,9.015 Z M15.427,17.343 L15.427,9.015 L10.846,15.428 L15.427,17.343 Z M21.716,17.693 C21.958,17.593 22.24,17.68 22.382,17.902 C22.523,18.125 22.484,18.418 22.287,18.594 L16.329,23.975 C16.226,24.068 16.097,24.115 15.966,24.115 C15.836,24.115 15.707,24.068 15.604,23.975 L9.646,18.594 C9.449,18.418 9.41,18.125 9.551,17.902 C9.693,17.679 9.974,17.592 10.217,17.693 L15.967,20.096 L21.716,17.693 Z M12.723,19.915 L15.967,22.843 L19.21,19.915 L16.175,21.183 C16.042,21.239 15.891,21.239 15.758,21.183 L12.723,19.915 Z" id="Shape" fill="#FAFBFD"></path>
        </g>
      </g>
      <g id="bbl-et-3" opacity="0.4" transform="translate(949.000000, 43.000000)">
        <g class="js-rellax" data-rellax-speed="0.25">
          <g id="Group" fill="#18DCA6" fill-rule="nonzero">
            <path d="M31.492,15.655 C31.492,24.3009 24.483,31.3099 15.837,31.3099 C7.191,31.3099 0.182,24.3009 0.182,15.655 C0.182,7.009 7.191,0 15.837,0 C24.483,0 31.492,7.009 31.492,15.655 Z" id="Path"></path>
          </g>
          <path d="M15.421,18.5834 L9.463,16.0921 C9.31,16.0286 9.196,15.899 9.151,15.7403 C9.106,15.5822 9.135,15.4113 9.231,15.2775 L15.189,6.9362 C15.291,6.7938 15.46,6.7092 15.63,6.7092 C15.799,6.7092 15.969,6.7939 16.07,6.9362 L22.028,15.2775 C22.124,15.4113 22.153,15.5822 22.108,15.7403 C22.064,15.899 21.949,16.0286 21.796,16.0921 L15.838,18.5834 C15.772,18.6114 15.7,18.6252 15.63,18.6252 C15.559,18.6252 15.487,18.6114 15.421,18.5834 Z M16.171,8.9412 L16.171,17.27 L20.752,15.3547 L16.171,8.9412 Z M15.088,17.27 L15.088,8.9412 L10.507,15.3547 L15.088,17.27 Z M21.376,17.619 C21.619,17.5196 21.9,17.6063 22.042,17.8285 C22.183,18.0517 22.144,18.3442 21.947,18.5209 L15.989,23.9018 C15.886,23.9949 15.757,24.0414 15.627,24.0414 C15.497,24.0414 15.367,23.9949 15.264,23.9018 L9.306,18.5209 C9.11,18.3442 9.07,18.0517 9.211,17.8285 C9.353,17.6058 9.634,17.518 9.878,17.619 L15.627,20.0225 L21.376,17.619 Z M12.383,19.8411 L15.627,22.7698 L18.87,19.8411 L15.836,21.1095 C15.702,21.1656 15.551,21.1656 15.418,21.1095 L12.383,19.8411 Z" id="Shape" fill="#FAFBFD"></path>
        </g>
      </g>
      <g id="bbl-lc-1" opacity="0.4" transform="translate(387.000000, 151.000000)" fill-rule="nonzero">
        <g class="js-rellax" data-rellax-speed="0.5">
          <g id="Group" fill="#18DCA6">
            <path d="M43,21.5 C43,33.374 33.374,43 21.5,43 C9.626,43 0,33.374 0,21.5 C0,9.626 9.626,0 21.5,0 C33.374,0 43,9.626 43,21.5 Z" id="Path"></path>
          </g>
          <polygon id="Path" fill="#FFFFFF" points="20.538 25.658 21.607 21.5 24.14 20.545 24.769 18.102 24.748 18.041 22.255 18.981 24.051 12 18.958 12 16.609 21.111 14.648 21.85 14 24.37 15.96 23.631 14.575 29 28.131 29 29 25.658"></polygon>
        </g>
      </g>
      <g id="bbl-lc-2" opacity="0.4" transform="translate(603.000000, 163.000000)" fill-rule="nonzero">
        <g class="js-rellax" data-rellax-speed="-0.25">
          <g id="Group" fill="#18DCA6">
            <path d="M21,10.5 C21,16.299 16.299,21 10.5,21 C4.701,21 0,16.299 0,10.5 C0,4.701 4.701,0 10.5,0 C16.299,0 21,4.701 21,10.5 Z" id="Path"></path>
          </g>
          <polygon id="Path" fill="#FFFFFF" points="10.031 12.531 10.553 10.5 11.79 10.034 12.097 8.84 12.087 8.811 10.87 9.27 11.747 5.86 9.259 5.86 8.112 10.31 7.154 10.671 6.838 11.901 7.795 11.54 7.119 14.163 13.739 14.163 14.163 12.531"></polygon>
        </g>
      </g>
      <g id="bbl-lc-3" opacity="0.4" transform="translate(965.000000, 146.000000)" fill-rule="nonzero">
        <g class="js-rellax" data-rellax-speed="0.25">
          <g id="Group" fill="#18DCA6">
            <path d="M20,10 C20,15.523 15.523,20 10,20 C4.477,20 0,15.523 0,10 C0,4.477 4.477,0 10,0 C15.523,0 20,4.477 20,10 Z" id="Path"></path>
          </g>
          <polygon id="Path" fill="#FFFFFF" points="9.552 11.934 10.05 10 11.228 9.556 11.521 8.419 11.511 8.391 10.351 8.828 11.187 5.581 8.818 5.581 7.725 9.819 6.813 10.163 6.512 11.335 7.423 10.991 6.779 13.488 13.084 13.488 13.488 11.934"></polygon>
        </g>
      </g>
      <g id="bbl-wave-3" transform="translate(0.500000, 118.500000)" stroke="#18DCA6">
        <g data-aos="fade" data-aos-delay="1000">
          <circle id="Oval" stroke-width="16" opacity="0.2" cx="91" cy="97" r="62.5"></circle>
          <circle id="Oval" stroke-width="21" opacity="0.1" cx="93" cy="93" r="93"></circle>
          <circle id="Oval" stroke-width="12" opacity="0.4" cx="91" cy="97" r="32.5"></circle>
        </g>
      </g>
      <g id="people-" transform="translate(67.000000, 91.000000)">
        <g id="Clipped">
          <mask id="mask-2" fill="white">
            <use xlink:href="#path-1"></use>
          </mask>
          <g id="Path"></g>
          <g id="Group" mask="url(#mask-2)">
            <g transform="translate(-38.000000, -115.000000)">
              <path d="M55.8484,264.152 L55.4427,268.613 C55.2792,270.411 56.7294,271.945 58.5337,271.883 L76.244,271.272 C77.745,271.221 78.974,270.067 79.154,268.576 C79.44,266.2 79.845,263.353 80.252,261.76 C80.389,261.227 80.735,260.787 81.132,260.406 C83.081,258.529 86.772,253.826 87.865,252.369 C89.093,250.733 89.093,247.87 89.911,247.052 C90.529,246.434 92.653,241.396 93.807,238.54 C93.937,238.218 94.127,237.927 94.331,237.646 C95.265,236.354 95.779,234.374 91.957,234.374 C86.638,234.374 85.411,240.099 84.183,242.962 C82.956,245.825 80.501,245.007 78.864,243.371 C77.228,241.735 76.41,240.099 75.591,237.236 C74.773,234.374 74.271,230.272 74.0000018,227.012 C73.5000018,221 73.411,217.196 73.0000018,213.5 C72.5000018,209 68.0000018,209.5 68.0000018,215 C68.0000018,217.5 68.227,223.74 68.227,224.967 L68.227,233.556 C68.227,235.601 66.59,234.783 65.772,233.556 C64.954,232.329 63.726,228.648 62.499,226.194 C61.271,223.74 59.2257,219.65 57.18,217.196 C54.7252,214.333 52.6795,217.196 53.4977,219.65 C54.316,222.104 54.7252,223.331 55.9526,226.194 C56.9345,228.484 58.8166,233.692 59.6348,236.009 C60.8622,238.872 59.6348,239.69 57.18,236.827 C55.5434,235.191 54.316,233.556 53.4977,232.329 C52.8431,231.347 50.2246,228.375 48.9972,227.012 C46.5424,224.558 43.2693,226.603 45.7241,230.693 C47.3607,234.292 50.4974,238.463 51.8613,240.099 C55.1347,243.371 53.0886,246.643 48.5881,244.598 C46.7355,243.981 43.7664,242.587 42.2912,241.859 C42.1249,241.777 41.9469,241.707 41.7673,241.661 C36.5164,240.313 37.5205,245.133 40.1572,246.524 L40.1805,246.537 C40.3348,246.618 40.4893,246.7 40.6362,246.794 C41.8354,247.561 43.3951,248.329 45.3153,249.097 C47.361,249.915 50.6342,252.369 51.4524,255.232 C52.0029,257.158 53.9422,260.183 55.2751,262.069 C55.7037,262.676 55.9157,263.412 55.8484,264.152 Z" id="Path" stroke="none" fill="#ECAD9E" fill-rule="nonzero"></path>
              <path d="M216.571,202.787 L216.571,212.16 L172.969,212.16 L172.969,207.27 L171.301,189.746 C168.856,184.855 160.988,171.081 157.076,155.105 C159.45,133.506 161.966,130.245 172.969,121.687 C183.971,113.129 190.899,118.427 206.791,121.28 C219.505,123.562 224.585,134.728 225.536,140.841 L225.536,160.811 C225.536,165.701 226.351,169.777 225.536,182.41 C224.884,192.517 219.288,201.972 216.571,202.787 Z" id="Path" stroke="none" fill="#ECAD9E" fill-rule="nonzero"></path>
              <path d="M311.211,182.795 C311.608,186.017 313.555,189.633 317.054,194.412 C317.216,194.634 317.341,194.881 317.472,195.122 C319.459,198.761 329.192,199.452 335.012,199.327 C335.88,199.308 336.691,198.895 337.303,198.279 C338.884,196.687 341.591,194.151 342.869,191.037 C343.5,189.5 345.731,185.5 344.5,183 C343.688,181.351 343.218,180.824 342,180 C340.782,179.176 341.594,178.027 340.782,175.966 C339.971,173.906 337.999,174.552 336.781,173.727 C335.563,172.903 336.214,171.303 334,170.018 C333.107,169.5 331.5,169.5 331,170 L331.099,167.545 L331.487,162.812 C331.499,162.67 331.52,162.531 331.551,162.393 C331.976,160.511 332.815,156.58 333.128,154.357 C333.534,151.472 333.128,149.411 331.505,149.411 C330.206,149.411 329.069,151.609 328.664,152.708 L326.634,158.066 C325.823,160.951 323.874,167.793 322.576,172.079 C321.815,174.589 320.794,176.593 319.833,177.989 C318.954,179.265 317.101,179.194 316.274,177.883 C315.723,177.009 315.27,175.907 315.27,174.552 C315.27,171.667 313.241,170.43 312.023,170.018 C310.805,169.606 309.588,170.018 309.994,171.667 C310.4,173.315 311.211,174.14 310.805,176.612 C310.4,179.085 310.805,179.497 311.211,182.795 Z" id="Path" stroke="none" fill="#ECAD9E" fill-rule="nonzero"></path>
              <path d="M216.5,164 L214.213,173.251 C214.077,173.8 213.708,174.264 213.222,174.552 C203.571,180.282 207.793,188.917 203,192.5 C198.083,196.176 188.5,196 182.716,196.576 C180.096,196.837 175.822,194.616 172.708,193.305 C171.295,192.71 170.047,191.68 169.403,190.289 L160.589,171.254 C158.95,167.306 155.836,157.123 156.492,147.974 C157.311,136.538 155.672,136.538 160.589,128.37 C165.506,120.202 168.784,120.61 182.716,116.526 C196.647,112.442 206.072,116.934 217.955,125.511 C229.837,134.088 227.789,147.566 227.789,154.1 C227.789,158.972 227.789,164.696 226.794,172.394 C226.666,173.381 225.814,174.13 224.836,173.946 C223.243,173.645 221.5,172.887 221.5,171.254 C221.5,168.395 222.872,164.311 220.823,162.269 C219.184,160.635 216.773,162.639 216.5,164 Z" id="Path" stroke="none" fill="#36415C" fill-rule="nonzero"></path>
              <path d="M91.25,265.1 C99.076,256.434 112.258,244.468 122.968,237.866 C131.155,232.819 155.157,226.105 166.499997,223.358 C167.028,223.23 167.529,223.11 167.999997,223 L170.499997,211 C171.818,203.738 215.528,201.723 217.999997,207.5 L221.42,219.297 C228.56,220.81 245.889,224.331 258.082,226.312 C273.323,228.788 295.205,240.712 299.687,239.929 C311.499997,237.866 310.499997,234.5 316.164,215.171 C317.544,210.462 318.499,199.216 318.636,194.126 C319.46,192.751 322.837,190 329.758,190 C336.678,190 340.056,194.952 340.88,197.427 C341.292,206.918 339.499997,223.904 339.499997,233.5 C339.499997,243.598 333.902,260.786 329.092,267.165 C327.719,268.985 325.623,270.057 323.59,271.097 L323.409,271.189 C313.558,276.232 286.327,288.56 279.499997,290 C274.526,291.049 266.079,297 263.499997,304 C260.73,311.518 258.274,318.096 255.864,326.076 C254.537,330.469 253.962,335.048 253.962,339.636 L253.962,376.862 L257.864,419.91 C257.917,420.495 257.477,421 256.89,420.995037 C224.623,420.684 161.257,406.639 142.06,406.493 C141.472,406.488 141.032,406.009 141.053,405.422 C141.546,391.605 138.383,327.19 134.914,315.029 C133.541,312.278 129.559,305.455 124.616,300.174 C121.32,305.125 89.601,324.106 72.712,332.772 C55.823,341.437 53.3519,333.184 47.1729,325.757 C40.9939,318.33 43.0535,304.713 44.7013,300.174 C46.0195,296.542 52.1161,278.854 54.9996,270.464 C55.9608,267.163 58.5909,263.49 66.4999966,262.5 C74.409,261.51 79.304,264.687 80.127,267.988 L77.823,282.018 C82.272,276.02 87.46,269.295 91.25,265.1 Z" id="Path" stroke="none" fill="#FFFFFF" fill-rule="nonzero"></path>
              <path d="M91.25,265.1 C99.076,256.434 112.258,244.468 122.968,237.866 C131.155,232.819 155.157,226.105 166.499997,223.358 C167.028,223.23 167.529,223.11 167.999997,223 L170.499997,211 C171.818,203.738 215.528,201.723 217.999997,207.5 L221.42,219.297 C228.56,220.81 245.889,224.331 258.082,226.312 C273.323,228.788 295.205,240.712 299.687,239.929 C311.499997,237.866 310.499997,234.5 316.164,215.171 C317.544,210.462 318.499,199.216 318.636,194.126 C319.46,192.751 322.837,190 329.758,190 C336.678,190 340.056,194.952 340.88,197.427 C341.292,206.918 339.499997,223.904 339.499997,233.5 C339.499997,243.598 333.902,260.786 329.092,267.165 C327.719,268.985 325.623,270.057 323.59,271.097 L323.409,271.189 C313.558,276.232 286.327,288.56 279.499997,290 C274.526,291.049 266.079,297 263.499997,304 C260.73,311.518 258.274,318.096 255.864,326.076 C254.537,330.469 253.962,335.048 253.962,339.636 L253.962,376.862 L257.864,419.91 C257.917,420.495 257.477,421 256.89,420.995037 C224.623,420.684 161.257,406.639 142.06,406.493 C141.472,406.488 141.032,406.009 141.053,405.422 C141.546,391.605 138.383,327.19 134.914,315.029 C133.541,312.278 129.559,305.455 124.616,300.174 C121.32,305.125 89.601,324.106 72.712,332.772 C55.823,341.437 53.3519,333.184 47.1729,325.757 C40.9939,318.33 43.0535,304.713 44.7013,300.174 C46.0195,296.542 52.1161,278.854 54.9996,270.464 C55.9608,267.163 58.5909,263.49 66.4999966,262.5 C74.409,261.51 79.304,264.687 80.127,267.988 L77.823,282.018 C82.272,276.02 87.46,269.295 91.25,265.1 Z" id="Path" stroke="none" fill-opacity="0.2" fill="url(#linearGradient-3)" fill-rule="nonzero"></path>
              <path d="M52.5,278.5 C60,270 74.5,272.5 78.5,276.5" id="Path" stroke="#E7EBF4" stroke-width="1" fill="none" opacity="0.3" stroke-linecap="round"></path>
              <path d="M77.5,282 C74.167,284.667 67,291.1 65,295.5" id="Path" stroke="#E7EBF4" stroke-width="1" fill="none" opacity="0.3" stroke-linecap="round"></path>
              <path d="M168,222.524 C177.333,220.191 195.5,216.5 221.5,219" id="Path" stroke="#E7EBF4" stroke-width="1" fill="none" opacity="0.3"></path>
              <path d="M318.5,203.5 C323.333,201.167 332,199 341,206.5" id="Path" stroke="#E7EBF4" stroke-width="1" fill="none" stroke-linecap="round"></path>
              <rect id="Rectangle" stroke="none" fill="url(#radialGradient-4)" fill-rule="nonzero" opacity="0.4" x="185" y="0" width="218" height="244"></rect>
              <rect id="Rectangle" stroke="none" fill="url(#radialGradient-5)" fill-rule="nonzero" x="82" y="181" width="241" height="313"></rect>
              <rect id="Rectangle" stroke="none" fill="url(#radialGradient-6)" fill-rule="nonzero" opacity="0.3" transform="translate(65.353999, 233.957836) rotate(-23.063900) translate(-65.353999, -233.957836) " x="11.3539994" y="193.957836" width="108" height="80"></rect>
            </g>
          </g>
        </g>
        <g id="Clipped" transform="translate(830.000000, 34.000000)">
          <mask id="mask-8" fill="white">
            <use xlink:href="#path-7"></use>
          </mask>
          <g id="Shape"></g>
          <g id="Group" mask="url(#mask-8)">
            <g transform="translate(-83.000000, -137.000000)">
              <g id="Group" opacity="0.7" stroke-width="1" fill="none" fill-rule="evenodd" transform="translate(83.000000, 137.000000)">
                <path d="M163.94,57.949 C163,62.634 162.72,69.948 162.7,73.626 C162.7,73.936 162.66,74.23 162.56,74.523 C161.49,77.618 154.66,96.29 144.43,96.057 C133.62,95.812 128.61,74.661 127.93,71.57 C127.88,71.312 127.79,71.074 127.67,70.837 C121.06,57.466 116.8,46.03 123.06,24.744 C123.16,24.404 123.33,24.079 123.54,23.796 L129.68,15.625 C130.25,14.871 131.14,14.428 132.08,14.428 L141.58,14.428 C142.1,14.428 142.61,14.561 143.06,14.814 L158.33,23.422 C159.22,23.922 159.79,24.837 159.85,25.853 L160.6,38.089 C160.75,40.446 163.47,41.773 165.51,40.581 C166.76,39.851 168.13,39.108 169.48,38.472 C173.9,36.394 173.9,41.143 173.01,45.596 C172.19,49.727 168.84,53.348 165.06,56.22 C164.49,56.651 164.07,57.251 163.94,57.949 Z" id="Path" fill="#ECAD9E" fill-rule="nonzero"></path>
                <path d="M28.248,40.099 C27.454,43.58 26.697,50.223 28.578,55.683 C28.64,55.861 28.688,56.045 28.717,56.231 C29.877,63.908 27.293,68.731 22.852,70.016 C19.379,71.02 15.508,65.543 13.841,62.387 C13.726,62.171 13.647,61.94 13.578,61.705 C13.307,60.773 12.656,59.175 11.595,58.167 C10.078,56.726 8.294,52.725 8.081,52.139 C7.868,51.552 4.222,47.896 3.477,45.842 C2.731,43.789 1.001,41.761 0.228,38.722 C-0.544,35.682 0.785,33.871 2.142,33.047 C3.498,32.222 3.364,30.942 4.215,29.637 C5.066,28.332 7.22,27.882 8.098,27.563 C8.976,27.245 8.895,24.286 10.172,24.154 C10.563,24.114 11.07,24.002 11.59,23.864 C12.9,23.516 13.691,22.227 13.55,20.879 C13.531,20.702 13.498,20.531 13.448,20.36 C12.045,15.57 9.256,6.131 8.754,4.748 C8.115,2.988 8.088,2.002 10.322,0.858 C12.109,-0.056 13.853,3.893 14.501,5.981 C15.656,9.43 18.346,16.917 20.84,22.339 C21.211,23.146 23.051,23.314 23.938,23.277 C24.311,23.261 24.51,23.514 24.638,23.865 L24.882,24.537 C25.187,25.377 25.959,26.158 26.488,26.878 C27.098,27.709 27.894,29.184 28.796,31.668 C30.017,35.029 29.713,37.147 29.153,38.257 C28.846,38.867 28.4,39.433 28.248,40.099 Z" id="Path" fill="#ECAD9E" fill-rule="nonzero"></path>
                <path d="M16.031,49.044 C20.115,46.707 22.912,43.507 27.238,43.688 C27.379,43.693 27.521,43.716 27.653,43.766 C29.679,44.522 31.928,47.923 32.788,49.935 C33.678,52.013 34.568,59.14 37.236,61.812 C39.905,64.484 43.166,73.095 44.352,75.768 C45.538,78.44 47.614,82.003 49.097,82.894 C50.135,83.518 52.766,85.402 54.399,86.592 C54.803,86.887 55.3,87.021 55.798,86.969 C60.55,86.474 68.954,85.783 69.852,86.457 C72.212,88.23 75.499,87.841 77.966,86.222 C78.321,85.989 78.682,85.768 79.044,85.567 C81.713,84.082 82.306,84.082 84.974,84.676 C87.643,85.27 88.236,86.754 90.015,87.051 C91.794,87.348 92.905,84.191 95.57,83.003 C98.24,81.816 105.36,80.925 107.43,81.519 C109.51,82.113 109.81,83.003 111.29,82.113 C112.39,81.45 116.8,80.557 120.12,80.514 C120.59,80.507 121.06,80.358 121.41,80.044 C121.94,79.576 122.59,78.944 122.93,78.44 C123.21,78.015 124,77.78 124.78,77.66 C125.62,77.531 126.38,77.014 126.66,76.214 L127.73,73.173 C127.87,72.771 128.25,72.502 128.68,72.502 C128.98,72.502 129.26,72.634 129.46,72.865 C131.46,75.282 135.43,79.973 137.46,82.003 C138.89,83.436 141.85,85.467 144.52,86.951 C145.26,87.359 145.69,88.162 145.59,88.996 L145.18,92.441 L146.98,88.568 C147.25,87.967 147.81,87.542 148.46,87.434 L150.78,87.051 C156.37,85.732 162.36,75.174 162.36,73.986 C162.36,72.799 163.98,72.444 164.48,73.523 L167.35,79.763 C167.58,80.247 167.98,80.621 168.48,80.805 C177.18,83.998 194.43,90.588 199.72,93.584 C213.8,101.551 216.13,130.108 217.81,145.25 C220.14,172.496 215.28,227.918 213.2,256.359 C213.12,257.405 212.25,258.198 211.21,258.198 L195.79,258.198 C194.69,258.198 193.79,257.31 193.79,256.205 C193.65,236.674 191.72,190.803 191.72,174.053 C191.72,173.635 190.86,190.273 190.47,194.198 C189.32,205.736 190.36,241.236 191.53,256.023 C191.62,257.198 190.7,258.198 189.52,258.198 L94.52,258.198 C93.26,258.198 92.313,257.053 92.529,255.814 C97.08,229.736 97.73,182.472 95.65,157.424 C94.85,147.819 94.91,133.435 85.567,127.819 C76.666,122.471 51.391,118.03 39.905,115.854 C28.027,113.603 26.766,106.066 21.225,97.741 C19.445,95.069 18.556,93.584 17.666,90.318 C16.777,87.051 14.405,81.113 14.108,77.846 C13.812,74.58 12.922,73.392 11.736,69.235 C10.55,65.078 7.882,59.437 6.399,56.17 C5.74381057,54.725 5.661,53.091 5.803,51.702 C5.941,50.357 7.464,49.936 8.641,50.602 C12.105,52.565 13.238,50.642 16.031,49.044 Z" id="Path" fill="#75809F" fill-rule="nonzero"></path>
                <path d="M140.61,21.781 C137.11,21.488 135.65,21.196 130.98,17.975 C130.2,17.975 128.23,18.327 126.6,19.732 C124.55,21.488 125.14,21.781 122.51,27.929 C121.05,20.903 123.39,21.781 123.97,17.975 C124.55,14.17 125.43,13.877 128.64,10.364 C131.85,6.851 133.89,7.436 137.11,4.216 C140.32,0.996 139.15,2.46 149.95,2.46 C158.59,2.46 164.84,6.558 166.01,8.9 C167.47,9.388 170.97,12.12 173.3,19.146 C175.64,26.172 174.28,36.516 173.3,40.81 C173.3,40.224 173.13,38.819 172.43,37.882 C171.55,36.711 170.09,37.882 169.51,37.882 C168.92,37.882 166.88,39.931 164.25,40.81 C161.63,41.688 161.04,41.395 159.29,39.053 C157.89,37.18 157.93,30.466 158.12,27.343 C157.05,26.953 152.17,26.289 148.2,24.416 C143.24,22.074 144.11,22.074 140.61,21.781 Z" id="Path" fill="#36415C" fill-rule="nonzero"></path>
              </g>
              <rect id="Rectangle" fill="url(#radialGradient-9)" fill-rule="nonzero" opacity="0.4" x="0.039" y="0" width="275" height="257"></rect>
              <rect id="Rectangle" fill="url(#linearGradient-10)" fill-rule="nonzero" opacity="0.56" x="92" y="138" width="231" height="260"></rect>
            </g>
          </g>
        </g>
        <g id="Clipped" transform="translate(576.000000, 40.000000)">
          <mask id="mask-12" fill="white">
            <use xlink:href="#path-11"></use>
          </mask>
          <g id="Shape"></g>
          <g id="Group" mask="url(#mask-12)">
            <g transform="translate(-89.000000, -106.000000)">
              <g id="Group" opacity="0.7" stroke-width="1" fill="none" fill-rule="evenodd" transform="translate(89.000000, 106.000000)">
                <path d="M95.109,69.668 C93.991,69.668 92.847,69.143 89.021,62.251 C81.14,48.06 81.31,23.29 93.804,11.946 C104.676,9.362 114.243,19.269 116.417,22.284 C118.156,24.696 123.52,32.478 125.984,36.068 L126.854,41.667 C127.288,41.811 128.68,42.184 130.767,42.529 C133.376,42.959 134.681,48.559 133.811,50.282 C132.942,52.005 130.332,54.589 126.419,54.589 C121.896,67.684 124.244,77.849 125.984,81.295 L142.074,93.786 L112.938,127.815 C104.096,115.61 86.411,90.857 86.411,89.479 C86.411,88.101 92.209,84.009 95.109,80.85 L95.109,69.668 Z" id="Path" fill="#ECAD9E" fill-rule="nonzero"></path>
                <path d="M139.128,66.872 C135.977,70.85 125.956,71.131 123.914,70.227 C123.355,65.195 124.522,55.024 126.709,54.572 C128.897,54.12 132.106,53.822 133.419,50.658 C134.731,47.494 133.419,44.872 131.69,44.515 C129.502,44.063 128.144,43.735 127.269,42.831 C126.394,41.927 126.782,40.428 125.032,35.003 C121.969,30.935 117.982,23.761 112.732,18.789 C107.481,13.817 100.188,12.421 97.562,11.968 C95.462,11.607 93.795,11.648 92.045,13.757 C92.92,12.1 92.799,7.474 101.55,3.134 C119.725,-5.879 141.124,7.235 142.364,27.735 C142.714,33.521 138.398,45.57 137.815,49.939 C141.315,55.816 143.065,61.9 139.128,66.872 Z" id="Path" fill="#36415C" fill-rule="nonzero"></path>
                <path d="M22.559,57.543 C21.006,59.828 18.896,63.762 18.806,68.255 C18.803,68.451 18.785,68.648 18.744,68.839 C17.441,74.966 13.701,78.847 9.844,78.599 C6.847,78.406 5.363,73.286 4.935,70.417 C4.897,70.166 4.902,69.912 4.916,69.658 C4.959,68.864 4.889,67.534 4.36,66.515 C3.577,65.005 3.316,61.48 3.316,60.977 C3.316,60.473 1.488,56.697 1.488,54.935 C1.488,53.173 0.704,51.159 0.965,48.641 C1.227,46.124 2.793,45.117 4.099,44.865 C5.405,44.613 5.666,43.606 6.711,42.851 C7.755,42.096 9.583,42.347 10.367,42.347 C11.15,42.347 11.933,40.082 12.978,40.333 C13.316,40.415 13.78,40.472 14.259,40.51 C15.347,40.599 16.303,39.847 16.577,38.79 C16.615,38.644 16.639,38.499 16.649,38.349 C16.914,34.328 17.417,26.415 17.417,25.229 C17.417,23.718 17.678,22.963 19.768,22.711 C21.439,22.51 21.683,25.984 21.596,27.746 C21.52,30.67 21.497,37.057 21.906,41.85 C21.97,42.596 23.349,43.24 24.066,43.453 C24.377,43.545 24.468,43.812 24.468,44.135 L24.468,44.676 C24.468,45.394 24.849,46.192 25.06,46.877 C25.305,47.674 25.513,49.015 25.513,51.159 C25.513,53.894 24.753,55.404 24.027,56.139 C23.553,56.619 22.938,56.986 22.559,57.543 Z" id="Path" fill="#ECAD9E" fill-rule="nonzero"></path>
                <path d="M0.98,70.466 C1.471,69.668 3.148,67.431 4.825,66.872 C5.384,71.345 4.91,73.382 7.061,76.377 C9.213,79.372 17.112,73.345 18.803,67.431 C18.841,67.297 22.498,67.384 22.498,70.466 C22.498,71.75 22.928,90.149 23.789,94.856 C24.374,98.056 26.657,102.305 28.211,104.823 C28.646,105.529 29.485,105.859 30.29,105.664 C32.847,105.043 37.645,103.818 43.585,102.13 C52.622,99.563 54.343,96.568 59.508,94.856 C63.312,93.595 69.843,92.479 73.317,91.976 C73.845,91.9 74.324,91.624 74.717,91.264 C75.707,90.358 77.899,88.677 81.886,86.298 C87.05,83.217 93.521,80.171 95.96,79.173 L95.96,80.343 C95.96,80.676 95.877,81.001 95.719,81.294 C94.593,83.373 92.312,87.608 91.353,90.149 C90.062,93.572 91.353,96.568 93.935,97.851 C96.517,99.135 104.264,103.842 108.998,108.976 C110.807,110.939 112.099,114.022 112.987,117.142 C113.573,119.205 117.309,119.683 118.247,117.755 C119.093,116.016 120.038,114.183 121.047,112.399 C124.497,106.302 133.408,100.544 138.053,98.45 C138.914,98.062 139.502,97.167 139.198,96.273 C138.142,93.172 135.133,90.703 131.806,88.866 C130.036,87.888 128.556,85.746 127.479,83.638 C126.689,82.091 128.288,80.665 129.851,81.422 C135.519,84.167 142.98,87.788 145.147,88.866 C148.59,90.577 150.311,91.433 156.336,97.851 C162.361,104.27 164.943,113.683 164.943,116.25 C164.943,118.818 164.943,134.65 163.652,141.068 C162.63,146.149 162.085,157.237 161.935,162.305 C161.932,162.412 161.937,162.512 161.952,162.618 C162.997,170.214 167.515,184.304 166,228.5 C165.923,230.753 166.579,248.074 167.374,259.855 C167.452,261.014 166.535,262 165.372,262 L157.197,262 L66.078,262 C64.875,262 63.921,260.965 64.003,259.764 C64.756,248.708 65.963,208.532 65.963,206.962 C65.963,204.823 69.406,192.842 69.406,190.275 C69.406,188.248 70.802,178.277 71.529,173.354 C71.548,173.222 71.554,173.097 71.547,172.964 C71.251,167.453 70.426,155.555 69.406,150.481 C68.114,144.063 66.393,138.928 65.963,137.645 C65.649,136.708 61.73,132.14 59.302,129.396 C58.89,128.93 58.283,128.688 57.662,128.726 C55.632,128.85 52.636,128.949 51.761,128.659 C50.47,128.231 42.724,129.943 34.547,130.799 C26.371,131.654 19.485,128.659 14.751,127.803 C10.017,126.948 5.714,119.246 4.423,113.683 C3.132,108.12 3.132,90.577 2.701,88.866 C2.271,87.154 -1.717,74.857 0.98,70.466 Z" id="Path" fill="#75809F" fill-rule="nonzero"></path>
                <path d="M166.966,232.367 C166.693,227.008 157.025,208.226 154.079,200.578 C150.397,191.017 145.896,184.064 146.305,171.897 C146.633,162.162 147.669,154.224 147.533,150.168 C150.124,146.547 154.079,136.262 154.079,134.524" id="Path" stroke="#0B1A45"></path>
              </g>
              <rect id="Rectangle" fill="url(#radialGradient-4)" fill-rule="nonzero" opacity="0.4" x="0" y="0" width="218" height="244"></rect>
              <polygon id="Path" fill="url(#linearGradient-13)" fill-rule="nonzero" opacity="0.56" points="70 130.5 268 130.5 268 377.5 70 377.5"></polygon>
            </g>
          </g>
        </g>
      </g>
    </g>
  </g>
</svg>
