<?xml version="1.0" encoding="UTF-8"?>
<svg viewBox="0 0 450 336" version="1.1" xmlns="http://www.w3.org/2000/svg" xmlns:xlink="http://www.w3.org/1999/xlink">
    <!-- Generator: Sketch 63.1 (92452) - https://sketch.com -->
    <title>illustration_traders-about</title>
    <desc>Created with Sketch.</desc>
    <defs>
        <path d="M138.942,66.716 C135.795,70.691 125.783,70.972 123.743,70.068 C123.695,69.634 123.659,69.16 123.637,68.658 C123.529,74.659 124.777,79.082 125.811,81.13 L127.17,82.186 C127.46,81.275 128.578,80.726 129.678,81.259 C135.34,84.003 142.791,87.62 144.956,88.696 C148.395,90.407 150.115,91.262 156.134,97.677 C162.153,104.091 164.733,113.499 164.733,116.065 C164.733,118.631 164.733,134.453 163.443,140.868 C162.422,145.946 161.878,157.028 161.728,162.093 C161.725,162.2 161.73,162.299 161.744,162.405 C162.754,170.018 164.733,185.529 164.733,187.908 C164.733,189.235 165.261,208.177 165.878,226.79 C166.665,228.983 167.191,230.846 167.254,232.088 L166.256,232.139 C166.234,231.716 166.148,231.195 166.006,230.588 C166.411,242.515 166.84,253.796 167.176,259.611 C167.243,260.771 166.322,261.729 165.16,261.729 L156.994,261.729 L65.964,261.729 C64.761,261.729 63.808,260.694 63.889,259.493 C64.642,248.442 65.847,208.292 65.847,206.724 C65.847,205.703 66.63,202.443 67.449,199.034 C68.347,195.3 69.287,191.387 69.287,190.046 C69.287,188.02 70.682,178.055 71.408,173.135 C71.427,173.003 71.433,172.878 71.426,172.745 C71.13,167.237 70.306,155.347 69.287,150.276 C67.997,143.861 66.277,138.73 65.847,137.447 C65.533,136.511 61.62,131.946 59.194,129.204 C58.781,128.738 58.174,128.496 57.553,128.534 C55.525,128.657 52.533,128.756 51.659,128.466 C50.947,128.23 48.268,128.646 44.637,129.21 L44.636,129.21 C41.691,129.667 38.12,130.222 34.462,130.605 C28.504,131.228 23.232,129.805 18.9805,128.657 C17.4024,128.231 15.9647,127.843 14.6845,127.611 C9.9552,126.756 5.6558,119.058 4.366,113.499 C3.5504,109.984 3.2505,101.681 3.0315,95.618 C2.9042,92.093 2.8043,89.325 2.6462,88.696 C2.5997,88.511 2.5117,88.203 2.395,87.794 C1.4328,84.42 -1.4765,74.222 0.9265,70.308 C1.391,69.552 2.9202,67.504 4.5053,66.817 C4.4471,66.659 4.3804,66.506 4.3042,66.359 C3.5215,64.849 3.2607,61.327 3.2607,60.824 C3.2607,60.648 3.0391,60.076 2.7503,59.331 L2.7503,59.331 C2.21,57.936 1.4344,55.933 1.4344,54.785 C1.4344,54.087 1.3114,53.349 1.1791,52.556 C0.9778,51.349 0.7552,50.014 0.9126,48.495 C1.1735,45.979 2.7389,44.973 4.0433,44.721 C4.8654,44.563 5.273,44.105 5.7232,43.598 C5.9874,43.301 6.2663,42.988 6.6523,42.709 C7.5144,42.085 8.9108,42.148 9.8116,42.189 C10.0011,42.198 10.1687,42.205 10.3048,42.205 C10.6513,42.205 10.9978,41.762 11.367,41.289 C11.8316,40.694 12.3321,40.052 12.9137,40.193 C13.2515,40.274 13.7146,40.331 14.1924,40.37 C15.2804,40.458 16.2357,39.706 16.5096,38.65 C16.5473,38.505 16.571,38.359 16.5809,38.21 C16.8461,34.191 17.3489,26.282 17.3489,25.097 C17.3489,23.587 17.6098,22.832 19.6969,22.581 C21.367,22.38 21.61,25.852 21.523,27.613 C21.447,30.535 21.424,36.918 21.834,41.709 C21.897,42.454 23.275,43.098 23.992,43.311 C24.301,43.403 24.393,43.669 24.393,43.992 L24.393,44.533 C24.393,45.057 24.596,45.624 24.788,46.159 C24.859,46.356 24.928,46.548 24.984,46.733 C25.229,47.529 25.437,48.869 25.437,51.011 C25.437,53.744 24.678,55.253 23.953,55.988 C23.776,56.168 23.579,56.331 23.383,56.495 C23.053,56.769 22.723,57.044 22.486,57.393 C21.032,59.532 19.0901,63.118 18.7771,67.253 C19.199,67.162 22.423,67.414 22.423,70.308 C22.423,71.591 22.853,89.979 23.713,94.683 C24.298,97.88 26.578,102.127 28.13,104.643 C28.566,105.349 29.404,105.68 30.21,105.484 C32.765,104.864 37.557,103.639 43.49,101.953 C48.813,100.441 51.595,98.779 54.04,97.32 C55.742,96.304 57.28,95.385 59.398,94.683 C63.199,93.423 69.722,92.308 73.193,91.805 C73.721,91.729 74.2,91.453 74.594,91.092 C75.583,90.187 77.773,88.507 81.755,86.131 C86.396,83.361 92.094,80.619 94.965,79.37 L94.965,69.51 C93.848,69.51 92.706,68.985 88.883,62.098 C81.388,48.596 81.182,25.513 91.948,13.546 C92.084,13.263 92.198,12.904 92.333,12.483 L92.333,12.483 L92.333,12.482 L92.333,12.482 C93.017,10.337 94.216,6.58 101.4,3.015 C119.559,-5.993 140.937,7.114 142.176,27.601 C142.4,31.313 140.705,37.602 139.307,42.786 L139.307,42.786 C138.527,45.679 137.84,48.228 137.631,49.793 C141.128,55.666 142.876,61.746 138.942,66.716 Z M139.055,96.921 L137.913,98.255 C138.483,97.982 138.926,97.487 139.055,96.921 Z M5.4582,72.911 C5.5872,73.461 5.763,73.996 6.0143,74.543 C5.8002,74.008 5.6154,73.456 5.4582,72.911 Z M126.478,54.437 C126.383,54.464 126.29,54.51 126.2,54.573 L126.245,54.44 C126.323,54.44 126.401,54.439 126.478,54.437 Z M132.78,51.396 C132.109,52.191 131.161,53 129.967,53.584 C131.045,53.168 132.061,52.519 132.78,51.396 Z" id="path-1"></path>
        <radialGradient cx="50%" cy="50.000283%" fx="50%" fy="50.000283%" r="55.9836909%" gradientTransform="translate(0.500000,0.500003),scale(1.000000,0.893117),rotate(90.000000),translate(-0.500000,-0.500003)" id="radialGradient-3">
            <stop stop-color="#00F6B2" offset="0%"></stop>
            <stop stop-color="#18DCA6" stop-opacity="0" offset="100%"></stop>
        </radialGradient>
        <radialGradient cx="50%" cy="50.000033%" fx="50%" fy="50.000033%" r="69.520919%" gradientTransform="translate(0.500000,0.500000),scale(1.000000,0.719208),rotate(90.000000),translate(-0.500000,-0.500000)" id="radialGradient-4">
            <stop stop-color="#00F6B2" offset="0%"></stop>
            <stop stop-color="#18DCA6" stop-opacity="0" offset="100%"></stop>
        </radialGradient>
        <linearGradient x1="34.7576106%" y1="9.31194426%" x2="83.2529204%" y2="96.1835896%" id="linearGradient-5">
            <stop stop-color="#13265C" stop-opacity="0" offset="0%"></stop>
            <stop stop-color="#13265C" offset="72.2603%"></stop>
        </linearGradient>
        <path d="M28.998,40.03 C28.771,41.025 28.547,42.278 28.387,43.688 L28.404,43.694 C30.428,44.45 32.674,47.849 33.534,49.859 C33.803,50.487 34.071,51.575 34.389,52.862 C35.122,55.834 36.117,59.866 37.978,61.73 C40.175,63.931 42.774,70.161 44.283,73.781 L44.284,73.781 C44.606,74.554 44.879,75.207 45.087,75.677 C46.272,78.348 48.346,81.909 49.827,82.8 C50.864,83.423 53.492,85.306 55.123,86.495 C55.528,86.79 56.025,86.924 56.523,86.872 C61.271,86.377 69.666,85.687 70.563,86.361 C72.92,88.132 76.204,87.743 78.669,86.125 C79.023,85.893 79.384,85.672 79.746,85.47 C82.412,83.987 83.004,83.987 85.67,84.58 C87.101,84.899 87.934,85.473 88.674,85.983 C89.313,86.424 89.883,86.817 90.706,86.954 C91.654,87.112 92.411,86.29 93.316,85.307 C94.109,84.446 95.014,83.463 96.259,82.909 C98.925,81.722 106.035,80.831 108.108,81.425 C108.78,81.617 109.266,81.841 109.665,82.025 C110.498,82.408 110.958,82.62 111.959,82.018 C113.06,81.357 117.467,80.464 120.779,80.42 C121.254,80.414 121.72,80.265 122.075,79.95 C122.602,79.483 123.253,78.851 123.588,78.348 C123.87,77.924 124.658,77.689 125.436,77.569 C126.274,77.439 127.035,76.923 127.317,76.122 L128.387,73.084 C128.469,72.853 128.629,72.665 128.831,72.548 C128.722,72.091 128.64,71.729 128.586,71.482 C128.53,71.224 128.447,70.986 128.33,70.749 C121.984,57.913 117.803,46.861 123.03,27.155 C122.289,23.15 122.922,21.992 123.62,20.713 C124.012,19.995 124.425,19.239 124.628,17.919 C125.115,14.744 125.805,14.016 127.886,11.819 C128.298,11.385 128.764,10.892 129.294,10.312 C130.969,8.48 132.325,7.763 133.696,7.039 C134.951,6.376 136.218,5.707 137.752,4.168 C139.966,1.947 140.096,1.956 143.511,2.174 C145.044,2.272 147.24,2.413 150.584,2.413 C159.217,2.413 165.458,6.509 166.624,8.849 C168.082,9.337 171.582,12.068 173.915,19.09 C176.172,25.883 174.972,35.779 174.011,40.302 C174.21,41.746 173.995,43.66 173.626,45.523 C172.806,49.652 169.452,53.27 165.68,56.141 C165.114,56.571 164.695,57.172 164.555,57.869 C163.654,62.369 163.368,69.293 163.327,73.088 C163.829,72.625 164.745,72.669 165.097,73.434 L167.97,79.669 C168.193,80.153 168.598,80.528 169.099,80.711 C177.788,83.903 195.023,90.489 200.311,93.483 C213.612,101.015 216.416,126.959 218.101,142.551 L218.101,142.551 L218.101,142.557 C218.197,143.446 218.29,144.302 218.381,145.119 C220.421,168.961 216.952,214.392 214.661,244.408 C214.335,248.672 214.033,252.625 213.774,256.161 C213.698,257.207 212.828,258 211.779,258 L196.386,258 C195.281,258 194.386,257.112 194.379,256.008 C194.314,246.475 193.819,230.667 193.331,215.035 L193.331,215.034 L193.331,215.033 C192.818,198.654 192.312,182.47 192.312,173.904 C192.312,173.793 192.252,174.89 192.156,176.633 C191.891,181.439 191.354,191.16 191.067,194.038 C189.916,205.569 190.951,241.047 192.124,255.825 C192.218,257.001 191.293,258 190.114,258 L95.205,258 C93.948,258 93.002,256.855 93.218,255.617 C97.76,229.554 98.417,182.319 96.335,157.286 C96.249,156.261 96.174,155.183 96.096,154.066 L96.096,154.065 C95.443,144.717 94.604,132.712 86.263,127.698 C78.031,122.75 55.78,118.579 43.417,116.261 C42.425,116.075 41.496,115.901 40.644,115.74 C31.388,113.986 28.586,109.017 25.174,102.968 C24.211,101.261 23.2,99.468 21.981,97.637 C20.204,94.967 19.315,93.483 18.427,90.219 C18.13,89.13 17.67,87.746 17.176,86.262 C16.188,83.294 15.069,79.931 14.872,77.755 C14.682,75.664 14.25,74.426 13.652,72.715 C13.316,71.753 12.928,70.643 12.502,69.149 C11.448,65.453 9.222,60.583 7.701,57.255 L7.7,57.254 C7.512,56.841 7.334,56.452 7.17,56.091 C6.515,54.647 6.433,53.016 6.575,51.628 C6.639,50.997 7.009,50.569 7.504,50.362 C6.319,48.967 4.717,47.054 4.25,45.769 C3.955,44.956 3.505,44.146 3.021,43.276 C2.285,41.951 1.471,40.486 1.005,38.653 C0.233,35.615 1.561,33.805 2.916,32.981 C3.77,32.462 4.033,31.762 4.324,30.989 C4.494,30.535 4.674,30.056 4.988,29.574 C5.69,28.496 7.282,28.002 8.308,27.683 L8.308,27.683 C8.524,27.616 8.715,27.556 8.867,27.501 C9.256,27.36 9.456,26.702 9.67,26.001 C9.939,25.118 10.228,24.167 10.939,24.094 C11.329,24.054 11.835,23.942 12.356,23.804 C13.664,23.456 14.454,22.168 14.314,20.821 C14.295,20.644 14.262,20.473 14.212,20.302 C12.811,15.515 10.025,6.082 9.523,4.699 C8.884,2.94 8.857,1.955 11.089,0.812 C12.875,-0.102 14.616,3.844 15.264,5.932 C16.418,9.378 19.106,16.861 21.597,22.28 C21.967,23.086 23.807,23.254 24.693,23.217 C25.065,23.201 25.264,23.454 25.391,23.804 L25.635,24.476 C25.856,25.086 26.323,25.664 26.765,26.21 C26.932,26.417 27.095,26.619 27.24,26.816 C27.849,27.647 28.645,29.121 29.545,31.603 C30.765,34.962 30.462,37.078 29.903,38.188 C29.805,38.382 29.694,38.571 29.582,38.761 C29.342,39.168 29.101,39.576 28.998,40.03 Z M173.582,38.871 C173.452,38.498 173.276,38.13 173.04,37.815 C172.411,36.973 171.48,37.342 170.79,37.615 C170.52,37.722 170.288,37.815 170.124,37.815 C169.893,37.815 169.435,38.134 168.804,38.575 C167.836,39.25 166.462,40.209 164.874,40.74 C164.644,40.817 164.43,40.885 164.229,40.944 C164.867,40.993 165.53,40.861 166.133,40.508 C167.38,39.779 168.743,39.038 170.093,38.403 C171.948,37.53 173.024,37.862 173.582,38.871 Z M127.245,19.681 C126.251,20.537 125.882,21.046 125.457,22.06 L127.245,19.681 Z" id="path-6"></path>
        <radialGradient cx="49.999636%" cy="49.9999611%" fx="49.999636%" fy="49.9999611%" r="49.9998053%" gradientTransform="translate(0.499996,0.500000),scale(0.934887,1.000000),rotate(90.000000),translate(-0.499996,-0.500000)" id="radialGradient-8">
            <stop stop-color="#00F6B2" offset="0%"></stop>
            <stop stop-color="#18DCA6" stop-opacity="0" offset="100%"></stop>
        </radialGradient>
        <linearGradient x1="29.4055297%" y1="9.31169355%" x2="82.4009951%" y2="104.244758%" id="linearGradient-9">
            <stop stop-color="#13265C" stop-opacity="0" offset="0%"></stop>
            <stop stop-color="#13265C" offset="72.2603%"></stop>
        </linearGradient>
    </defs>
    <g id="Page-1" stroke="none" stroke-width="1" fill="none" fill-rule="evenodd">
        <g id="illustration_traders-about">
            <g id="bbl-rpl-2" opacity="0.4" transform="translate(275.000000, 70.000000)" fill-rule="nonzero">
              <g class="js-rellax" data-rellax-speed="-0.25">
                <g id="Group" fill="#18DCA6">
                    <path d="M26.55,13.258 C26.55,20.356 20.798,26.11 13.703,26.11 C6.607,26.11 0.855,20.356 0.855,13.258 C0.855,6.1602 6.607,0.4062 13.703,0.4062 C20.798,0.4062 26.55,6.1602 26.55,13.258 Z" id="Path"></path>
                </g>
                <path d="M16.865,14.226 C16.489,14.009 16.063,13.944 15.641,13.929 C15.29,13.919 14.763,13.687 14.763,13.043 C14.763,12.565 15.149,12.178 15.646,12.158 C16.068,12.143 16.494,12.077 16.87,11.861 C17.563,11.463 17.984,10.724 17.984,9.924 C17.984,9.124 17.558,8.384 16.87,7.987 C16.178,7.589 15.33,7.589 14.643,7.987 C13.95,8.384 13.529,9.124 13.529,9.924 C13.529,10.357 13.684,10.754 13.88,11.126 C14.045,11.438 14.126,12.017 13.564,12.344 C13.142,12.586 12.615,12.435 12.355,12.012 C12.134,11.655 11.868,11.323 11.492,11.106 C10.799,10.709 9.951,10.709 9.264,11.106 C8.561,11.504 8.135,12.243 8.135,13.043 C8.135,13.843 8.561,14.583 9.249,14.981 C9.941,15.378 10.789,15.378 11.476,14.981 C11.853,14.764 12.119,14.432 12.339,14.075 C12.52,13.783 12.977,13.411 13.549,13.743 C13.97,13.984 14.101,14.518 13.865,14.96 C13.669,15.328 13.514,15.73 13.514,16.163 C13.514,16.963 13.94,17.703 14.627,18.1 C15.32,18.498 16.168,18.498 16.855,18.1 C17.548,17.703 17.969,16.963 17.969,16.163 C17.979,15.363 17.553,14.623 16.865,14.226 Z" id="Path" fill="#FFFFFF"></path>
              </g>
            </g>
            <g id="bbl-et-2" opacity="0.4" transform="translate(285.000000, 0.000000)">
              <g class="js-rellax" data-rellax-speed="0.25">
                <g id="Group" fill="#18DCA6" fill-rule="nonzero">
                    <path d="M32.189,15.6457 C32.189,24.2866 25.186,31.2915 16.549,31.2915 C7.911,31.2915 0.909,24.2866 0.909,15.6457 C0.909,7.0048 7.911,0 16.549,0 C25.186,0 32.189,7.0048 32.189,15.6457 Z" id="Path"></path>
                </g>
                <path d="M16.134,18.5722 L10.182,16.0824 C10.029,16.019 9.915,15.8895 9.87,15.7309 C9.825,15.5728 9.854,15.4021 9.95,15.2683 L15.902,6.9319 C16.004,6.7896 16.173,6.70509991 16.343,6.70509991 C16.512,6.70509991 16.681,6.7897 16.783,6.9319 L22.735,15.2683 C22.831,15.4021 22.86,15.5728 22.815,15.7309 C22.77,15.8895 22.656,16.019 22.504,16.0824 L16.551,18.5722 C16.485,18.6003 16.413,18.614 16.343,18.614 C16.272,18.614 16.2,18.6003 16.134,18.5722 Z M16.884,8.9357 L16.884,17.2596 L21.46,15.3455 L16.884,8.9357 Z M15.801,17.2596 L15.801,8.9357 L11.225,15.3455 L15.801,17.2596 Z M22.083,17.6084 C22.326,17.509 22.607,17.5957 22.749,17.8177 C22.89,18.0408 22.851,18.3331 22.654,18.5097 L16.702,23.8874 C16.599,23.9805 16.47,24.027 16.34,24.027 C16.21,24.027 16.08,23.9805 15.977,23.8874 L10.025,18.5097 C9.829,18.3331 9.789,18.0408 9.93,17.8177 C10.072,17.5951 10.353,17.5074 10.596,17.6084 L16.34,20.0105 L22.083,17.6084 Z M13.099,19.8292 L16.34,22.7562 L19.58,19.8292 L16.548,21.0968 C16.415,21.1529 16.264,21.1529 16.131,21.0968 L13.099,19.8292 Z" id="Shape" fill="#FAFBFD"></path>
              </g>
            </g>
            <g id="bbl-lc-2" opacity="0.4" transform="translate(301.000000, 102.000000)" fill-rule="nonzero">
              <g class="js-rellax" data-rellax-speed="0.5">
                <g id="Group" fill="#18DCA6">
                    <path d="M20.692,10.934 C20.692,16.453 16.219,20.928 10.701,20.928 C5.184,20.928 0.711,16.453 0.711,10.934 C0.711,5.414 5.184,0.939 10.701,0.939 C16.219,0.939 20.692,5.414 20.692,10.934 Z" id="Path"></path>
                </g>
                <polygon id="Path" fill="#FFFFFF" points="10.255 12.866 10.752 10.934 11.928 10.49 12.221 9.354 12.211 9.326 11.053 9.763 11.887 6.518 9.521 6.518 8.429 10.753 7.518 11.096 7.217 12.267 8.127 11.924 7.484 14.42 13.783 14.42 14.187 12.866"></polygon>
              </g>
            </g>
            <g id="bbl-wave-2" transform="translate(38.464800, 45.401400)">
              <g data-aos="fade" data-aos-delay="500">
                <path d="M54.2582,36.0846 C54.2582,46.2676 46.0052,54.5236 35.8255,54.5236 C25.6453,54.5236 17.3926,46.2676 17.3926,36.0846 C17.3926,25.9002 25.6453,17.6445 35.8255,17.6445 C46.0052,17.6445 54.2582,25.9002 54.2582,36.0846 Z" id="Path" fill="#18DCA6" fill-rule="nonzero"></path>
                <path d="M32.5338,28.5096 C32.5338,27.9644 32.9758,27.5224 33.521,27.5224 C34.0662,27.5224 34.5082,27.9644 34.5082,28.5096 L34.5082,29.4983 L36.4832,29.4983 L36.4832,28.5096 C36.4832,27.9644 36.9252,27.5224 37.4702,27.5224 C38.0152,27.5224 38.4572,27.9644 38.4572,28.5096 L38.4572,29.6335 C39.2582,29.7788 39.9212,30.041 40.4462,30.4203 C41.2972,31.0224 41.7222,31.8566 41.7222,32.9226 C41.7222,33.5746 41.5702,34.1526 41.2652,34.6536 C40.9602,35.1556 40.5412,35.5446 40.0082,35.8206 C40.7442,36.0586 41.3292,36.4606 41.7612,37.0246 C42.1922,37.5766 42.4082,38.2666 42.4082,39.0946 C42.4082,40.2356 41.9642,41.1206 41.0752,41.7476 C40.4222,42.1986 39.5502,42.4846 38.4592,42.6046 L38.4592,43.6586 C38.4592,44.2036 38.0172,44.6456 37.4712,44.6456 C36.9262,44.6456 36.4845,44.2036 36.4845,43.6586 L36.4845,42.6696 L34.5096,42.6696 L34.5096,43.6586 C34.5096,44.2036 34.0677,44.6456 33.5224,44.6456 C32.9772,44.6456 32.5353,44.2036 32.5353,43.6586 L32.5353,42.6696 L30.5587,42.6696 L30.5587,42.6696 L30.2317,42.6696 C29.686,42.6696 29.2437,42.2266 29.2437,41.6816 C29.2437,41.1356 29.686,40.6936 30.2317,40.6936 L30.5587,40.6936 L30.5587,31.4744 L30.2316,31.4744 C29.686,31.4744 29.2437,31.0321 29.2437,30.4865 C29.2437,29.9409 29.686,29.4986 30.2316,29.4986 L30.5587,29.4986 L30.5587,29.4983 L32.5338,29.4983 L32.5338,28.5096 Z M33.0353,31.4175 L33.0353,35.0486 L36.5412,35.0486 C37.4042,35.0486 38.0652,34.8986 38.5222,34.5976 C38.9922,34.2836 39.2272,33.8326 39.2272,33.2426 C39.2272,32.6406 38.9922,32.1886 38.5222,31.8876 C38.0652,31.5743 37.4042,31.4175 36.5412,31.4175 L33.0353,31.4175 Z M37.0362,40.7506 C38.9542,40.7506 39.9132,40.1166 39.9132,38.8496 C39.9132,37.5826 38.9542,36.9496 37.0362,36.9496 L33.0353,36.9496 L33.0353,40.7506 L37.0362,40.7506 Z" id="Shape" fill="#FFFFFF"></path>
                <path d="M61.9382,35.9776 C61.9382,50.3286 50.3082,61.9606 35.965,61.9606 C21.6215,61.9606 9.9922,50.3286 9.9922,35.9776 C9.9922,21.6263 21.6215,9.9941 35.965,9.9941 C50.3082,9.9941 61.9382,21.6263 61.9382,35.9776 Z" id="Path" stroke="#18DCA6" stroke-width="5" opacity="0.4"></path>
                <path d="M71.9262,35.9776 C71.9262,55.8476 55.8242,71.9546 35.9633,71.9546 C16.1022,71.9546 0,55.8476 0,35.9776 C0,16.1067 16.1022,0 35.9633,0 C55.8242,0 71.9262,16.1067 71.9262,35.9776 Z" id="Path" stroke="#18DCA6" stroke-width="5" opacity="0.2"></path>
              </g>
            </g>
            <g id="bbl-rpl-1" opacity="0.4" transform="translate(0.000000, 31.000000)" fill-rule="nonzero">
              <g class="js-rellax" data-rellax-speed="-0.5">
                <g id="Group" fill="#18DCA6">
                    <path d="M27.9286,14.7243 C27.9286,22.4394 21.6766,28.6937 13.9643,28.6937 C6.252,28.6937 0,22.4394 0,14.7243 C0,7.0092 6.252,0.7549 13.9643,0.7549 C21.6766,0.7549 27.9286,7.0092 27.9286,14.7243 Z" id="Path"></path>
                </g>
                <path d="M17.4019,15.7767 C16.9928,15.5416 16.5292,15.4705 16.0711,15.4541 C15.6893,15.4431 15.1167,15.1915 15.1167,14.4915 C15.1167,13.9719 15.5366,13.5508 16.0766,13.5289 C16.5347,13.5125 16.9983,13.4414 17.4073,13.2062 C18.1599,12.7742 18.6181,11.9702 18.6181,11.1006 C18.6181,10.231 18.1545,9.427 17.4073,8.9949 C16.6547,8.5629 15.733,8.5629 14.9858,8.9949 C14.2332,9.427 13.775,10.231 13.775,11.1006 C13.775,11.5709 13.9441,12.003 14.1568,12.4077 C14.3368,12.7468 14.424,13.3758 13.8132,13.7313 C13.3551,13.9938 12.7824,13.8297 12.4988,13.3703 C12.2588,12.982 11.9698,12.621 11.5608,12.3858 C10.8081,11.9538 9.8864,11.9538 9.1392,12.3858 C8.3757,12.8179 7.9121,13.6219 7.9121,14.4915 C7.9121,15.3611 8.3757,16.1651 9.1229,16.5971 C9.8755,17.0292 10.7972,17.0292 11.5444,16.5971 C11.9534,16.3619 12.2425,16.001 12.4825,15.6127 C12.6788,15.2955 13.1751,14.8907 13.7968,15.2517 C14.255,15.5142 14.3968,16.094 14.1404,16.5752 C13.9277,16.9745 13.7587,17.412 13.7587,17.8824 C13.7587,18.752 14.2222,19.556 14.9694,19.988 C15.7221,20.4201 16.6438,20.4201 17.3909,19.988 C18.1436,19.556 18.6017,18.752 18.6017,17.8824 C18.6126,17.0128 18.149,16.2088 17.4019,15.7767 Z" id="Path" fill="#FFFFFF"></path>
              </g>
            </g>
            <g id="bbl-et-1" opacity="0.4" transform="translate(99.000000, 14.000000)">
              <g class="js-rellax" data-rellax-speed="0.5">
                <g id="Group" fill="#18DCA6" fill-rule="nonzero">
                    <path d="M31.707,16.637 C31.707,25.2779 24.705,32.2827 16.067,32.2827 C7.429,32.2827 0.427,25.2779 0.427,16.637 C0.427,7.996 7.429,0.9912 16.067,0.9912 C24.705,0.9912 31.707,7.996 31.707,16.637 Z" id="Path"></path>
                </g>
                <path d="M15.651,19.5634 L9.699,17.0736 C9.546,17.0102 9.432,16.8807 9.387,16.7221 C9.342,16.564 9.372,16.3933 9.467,16.2595 L15.419,7.9231 C15.521,7.7808 15.69,7.69629991 15.86,7.69629991 C16.029,7.69629991 16.198,7.781 16.3,7.9231 L22.252,16.2595 C22.348,16.3933 22.377,16.564 22.332,16.7221 C22.287,16.8807 22.173,17.0102 22.021,17.0736 L16.068,19.5634 C16.002,19.5915 15.93,19.6052 15.86,19.6052 C15.789,19.6052 15.718,19.5915 15.651,19.5634 Z M16.401,9.9269 L16.401,18.2508 L20.978,16.3367 L16.401,9.9269 Z M15.319,18.2508 L15.319,9.9269 L10.742,16.3367 L15.319,18.2508 Z M21.601,18.5996 C21.844,18.5002 22.126,18.5869 22.267,18.8089 C22.408,19.032 22.369,19.3243 22.173,19.5009 L16.22,24.8786 C16.117,24.9717 15.988,25.0182 15.858,25.0182 C15.728,25.0182 15.598,24.9717 15.495,24.8786 L9.543,19.5009 C9.347,19.3243 9.307,19.032 9.448,18.8089 C9.59,18.5864 9.871,18.4986 10.114,18.5996 L15.858,21.0017 L21.601,18.5996 Z M12.617,20.8204 L15.858,23.7474 L19.098,20.8204 L16.067,22.088 C15.933,22.1441 15.782,22.1441 15.649,22.088 L12.617,20.8204 Z" id="Shape" fill="#FAFBFD"></path>
              </g>
            </g>
            <g id="bbl-lc-1" opacity="0.4" transform="translate(14.000000, 105.000000)" fill-rule="nonzero">
              <g class="js-rellax" data-rellax-speed="0.25">
                <g id="Group" fill="#18DCA6">
                    <path d="M21.9663,11.358 C21.9663,17.154 17.2698,21.852 11.4763,21.852 C5.6829,21.852 0.9863,17.154 0.9863,11.358 C0.9863,5.563 5.6829,0.864 11.4763,0.864 C17.2698,0.864 21.9663,5.563 21.9663,11.358 Z" id="Path"></path>
                </g>
                <polygon id="Path" fill="#FFFFFF" points="11.0062 13.387 11.528 11.358 12.7635 10.892 13.0708 9.699 13.0604 9.669 11.8442 10.128 12.7204 6.721 10.2353 6.721 9.0894 11.168 8.1326 11.529 7.8164 12.758 8.7725 12.397 8.0971 15.018 14.711 15.018 15.135 13.387"></polygon>
              </g>
            </g>
            <g id="person-2" transform="translate(55.000000, 74.000000)">
                <mask id="mask-2" fill="white">
                    <use xlink:href="#path-1"></use>
                </mask>
                <g id="Shape"></g>
                <g id="Group" mask="url(#mask-2)">
                    <g transform="translate(-89.000000, -107.000000)">
                        <g id="Group" opacity="0.7" stroke-width="1" fill="none" fill-rule="evenodd" transform="translate(89.000000, 107.000000)">
                            <path d="M94.965,69.51 C93.848,69.51 92.706,68.986 88.883,62.098 C81.01,47.915 81.18,23.16 93.662,11.823 C104.523,9.24 114.081,19.141 116.253,22.154 C117.991,24.565 123.349,32.343 125.811,35.93 L126.679,41.526 C127.114,41.67 128.504,42.043 130.59,42.387 C133.196,42.818 134.5,48.414 133.631,50.136 C132.762,51.858 130.155,54.441 126.245,54.441 C121.727,67.527 124.073,77.687 125.811,81.131 L141.885,93.615 L112.777,127.623 C103.943,115.426 86.276,90.687 86.276,89.31 C86.276,87.932 92.069,83.843 94.965,80.686 L94.965,69.51 Z" id="Path" fill="#ECAD9E" fill-rule="nonzero"></path>
                            <path d="M138.943,66.716 C135.795,70.691 125.783,70.972 123.743,70.068 C123.185,65.039 124.351,54.874 126.536,54.423 C128.722,53.971 131.928,53.674 133.239,50.511 C134.55,47.349 133.239,44.729 131.512,44.372 C129.326,43.92 127.969,43.592 127.095,42.688 C126.221,41.785 126.609,40.287 124.861,34.866 C121.801,30.8 117.817,23.63 112.572,18.661 C107.327,13.692 100.04,12.296 97.417,11.844 C95.319,11.483 93.653,11.524 91.905,13.632 C92.779,11.976 92.658,7.352 101.401,3.015 C119.559,-5.993 140.937,7.114 142.176,27.601 C142.526,33.384 138.214,45.426 137.631,49.793 C141.128,55.666 142.877,61.746 138.943,66.716 Z" id="Path" fill="#36415C" fill-rule="nonzero"></path>
                            <path d="M22.486,57.393 C20.934,59.676 18.8258,63.608 18.7366,68.098 C18.7327,68.293 18.715,68.49 18.6743,68.681 C17.3722,74.804 13.6361,78.683 9.783,78.435 C6.7888,78.243 5.306,73.126 4.878,70.259 C4.8405,70.007 4.8458,69.754 4.8595,69.5 C4.9026,68.706 4.8323,67.377 4.3042,66.359 C3.5215,64.849 3.2607,61.327 3.2607,60.824 C3.2607,60.32 1.4344,56.546 1.4344,54.785 C1.4344,53.024 0.6517,51.011 0.9126,48.495 C1.1735,45.979 2.7389,44.973 4.0433,44.721 C5.3478,44.47 5.6087,43.463 6.6523,42.708 C7.6958,41.954 9.5221,42.205 10.3048,42.205 C11.0874,42.205 11.8701,39.941 12.9137,40.192 C13.2515,40.274 13.7146,40.331 14.1924,40.369 C15.2804,40.457 16.2357,39.706 16.5096,38.649 C16.5473,38.504 16.571,38.359 16.5809,38.209 C16.8461,34.191 17.3489,26.282 17.3489,25.097 C17.3489,23.587 17.6098,22.832 19.6969,22.581 C21.367,22.379 21.61,25.851 21.523,27.613 C21.447,30.535 21.424,36.918 21.834,41.708 C21.897,42.453 23.275,43.098 23.992,43.311 C24.301,43.403 24.393,43.669 24.393,43.992 L24.393,44.533 C24.393,45.25 24.774,46.047 24.984,46.733 C25.229,47.529 25.437,48.869 25.437,51.011 C25.437,53.744 24.678,55.253 23.953,55.988 C23.479,56.468 22.865,56.836 22.486,57.393 Z" id="Path" fill="#ECAD9E" fill-rule="nonzero"></path>
                            <path d="M0.9265,70.308 C1.4166,69.51 3.092,67.275 4.7677,66.716 C5.3263,71.186 4.8523,73.222 7.002,76.215 C9.1517,79.208 17.0434,73.184 18.732,67.275 C18.7703,67.141 22.423,67.227 22.423,70.308 C22.423,71.591 22.853,89.979 23.713,94.683 C24.298,97.88 26.578,102.127 28.13,104.643 C28.566,105.349 29.404,105.68 30.21,105.484 C32.765,104.864 37.557,103.639 43.49,101.953 C52.519,99.387 54.239,96.394 59.398,94.683 C63.199,93.423 69.722,92.308 73.193,91.805 C73.721,91.729 74.2,91.452 74.594,91.092 C75.583,90.187 77.773,88.507 81.755,86.13 C86.914,83.052 93.379,80.007 95.815,79.009 L95.815,80.179 C95.815,80.511 95.733,80.837 95.575,81.129 C94.45,83.207 92.171,87.44 91.213,89.979 C89.924,93.4 91.213,96.394 93.793,97.677 C96.373,98.96 104.112,103.664 108.841,108.795 C110.647,110.755 111.937,113.833 112.824,116.948 C113.411,119.011 117.148,119.489 118.085,117.56 C118.929,115.825 119.872,113.996 120.879,112.216 C124.325,106.123 133.227,100.369 137.867,98.276 C138.728,97.888 139.316,96.993 139.012,96.099 C137.957,93 134.951,90.533 131.628,88.696 C129.86,87.72 128.382,85.581 127.306,83.474 C126.516,81.928 128.115,80.502 129.678,81.259 C135.34,84.002 142.791,87.62 144.956,88.696 C148.395,90.407 150.115,91.262 156.134,97.677 C162.153,104.091 164.733,113.499 164.733,116.065 C164.733,118.631 164.733,134.453 163.443,140.868 C162.422,145.946 161.878,157.028 161.728,162.093 C161.725,162.2 161.73,162.299 161.744,162.405 C162.754,170.018 164.733,185.529 164.733,187.908 C164.733,189.047 165.942,212.988 163.832,220.009 C163.499,221.118 163.313,222.656 163.705,223.746 C166.486,231.473 166.888,251.861 167.202,259.583 C167.25,260.744 166.322,261.729 165.16,261.729 L156.994,261.729 L65.964,261.729 C64.761,261.729 63.808,260.694 63.889,259.493 C64.642,248.442 65.847,208.292 65.847,206.724 C65.847,204.585 69.287,192.612 69.287,190.046 C69.287,188.02 70.682,178.055 71.408,173.135 C71.427,173.003 71.433,172.878 71.426,172.745 C71.13,167.237 70.306,155.347 69.287,150.276 C67.997,143.861 66.277,138.73 65.847,137.447 C65.533,136.511 61.62,131.946 59.194,129.204 C58.781,128.737 58.174,128.496 57.553,128.534 C55.525,128.657 52.533,128.756 51.659,128.466 C50.369,128.039 42.63,129.749 34.462,130.605 C26.293,131.46 19.4138,128.466 14.6845,127.611 C9.9552,126.756 5.6558,119.058 4.366,113.499 C3.0761,107.94 3.0761,90.407 2.6462,88.696 C2.2163,86.986 -1.7678,74.696 0.9265,70.308 Z" id="Path" fill="#75809F" fill-rule="nonzero"></path>
                            <path d="M166.755,232.114 C166.483,226.758 156.823,207.987 153.88,200.343 C150.201,190.788 145.705,183.839 146.114,171.679 C146.441,161.95 147.476,154.017 147.34,149.963 C149.929,146.344 153.88,136.065 153.88,134.328" id="Path" stroke="#0B1A45"></path>
                        </g>
                        <rect id="Rectangle" fill="url(#radialGradient-3)" fill-rule="nonzero" opacity="0.4" x="0.0332" y="0.94531" width="217.792" height="243.856"></rect>
                        <rect id="Rectangle" fill="url(#radialGradient-4)" fill-rule="nonzero" opacity="0.3" x="132.906" y="27.0039" width="217.792" height="302.822"></rect>
                        <rect id="Rectangle" fill="url(#linearGradient-5)" fill-rule="nonzero" opacity="0.56" x="78.957" y="122.947" width="197.811" height="246.855"></rect>
                    </g>
                </g>
            </g>
            <g id="bbl-wave-1" transform="translate(200.311000, 28.484400)">
              <g data-aos="fade" data-aos-delay="1000">
                <path d="M62.934,36.4771 C62.934,51.1036 51.082,62.9596 36.462,62.9596 C21.843,62.9596 9.99,51.1036 9.99,36.4771 C9.99,21.8501 21.843,9.9941 36.462,9.9941 C51.082,9.9941 62.934,21.8501 62.934,36.4771 Z" id="Path" stroke="#18DCA6" stroke-width="5" opacity="0.5"></path>
                <path d="M72.925,35.9773 C72.925,55.8176 56.63,71.9546 36.462,71.9546 C16.295,71.9546 -1.42108547e-14,55.8176 -1.42108547e-14,35.9773 C-1.42108547e-14,16.137 16.295,0 36.462,0 C56.63,0 72.925,16.137 72.925,35.9773 Z" id="Path" stroke="#18DCA6" stroke-width="5" opacity="0.3"></path>
                <path d="M54.318,36.3339 C54.318,46.2093 46.316,54.2146 36.444,54.2146 C26.572,54.2146 18.57,46.2093 18.57,36.3339 C18.57,26.4586 26.572,18.4531 36.444,18.4531 C46.316,18.4531 54.318,26.4586 54.318,36.3339 Z" id="Path" fill="#18DCA6" fill-rule="nonzero"></path>
                <path d="M33.254,28.9895 C33.254,28.4608 33.682,28.0322 34.211,28.0322 C34.74,28.0322 35.168,28.4608 35.168,28.9895 L35.168,29.9482 L37.082,29.9482 L37.082,28.9895 C37.082,28.4608 37.511,28.0322 38.039,28.0322 C38.568,28.0322 38.997,28.4608 38.997,28.9895 L38.997,30.0793 C39.773,30.2201 40.416,30.4745 40.925,30.8423 C41.75,31.4261 42.163,32.235 42.163,33.2689 C42.163,33.9014 42.015,34.461 41.72,34.9475 C41.424,35.4341 41.018,35.8111 40.5,36.0787 C41.215,36.3099 41.781,36.6991 42.2,37.2465 C42.619,37.7817 42.828,38.4507 42.828,39.2535 C42.828,40.3604 42.397,41.2179 41.535,41.8261 C40.902,42.2638 40.056,42.5408 38.998,42.6571 L38.998,43.6791 C38.998,44.2078 38.569,44.6363 38.041,44.6363 C37.512,44.6363 37.083,44.2078 37.083,43.6791 L37.083,42.7202 L35.17,42.7202 L35.17,43.6791 C35.17,44.2078 34.741,44.6363 34.213,44.6363 C33.684,44.6363 33.255,44.2078 33.255,43.6791 L33.255,42.7202 L31.337,42.7202 L31.337,42.72 L31.022,42.72 C30.492,42.72 30.064,42.2911 30.064,41.7619 C30.064,41.2328 30.492,40.8039 31.022,40.8039 L31.337,40.8039 L31.337,31.8642 L31.022,31.8642 C30.492,31.8642 30.064,31.4353 30.064,30.9062 C30.064,30.3771 30.492,29.9482 31.022,29.9482 L31.337,29.9482 L33.254,29.9482 L33.254,28.9895 Z M33.739,31.8093 L33.739,35.3307 L37.138,35.3307 C37.976,35.3307 38.616,35.1847 39.059,34.8928 C39.515,34.5887 39.743,34.1508 39.743,33.5791 C39.743,32.9952 39.515,32.5573 39.059,32.2654 C38.616,31.9613 37.976,31.8093 37.138,31.8093 L33.739,31.8093 Z M37.618,40.8591 C39.478,40.8591 40.408,40.2448 40.408,39.0163 C40.408,37.7878 39.478,37.1735 37.618,37.1735 L33.739,37.1735 L33.739,40.8591 L37.618,40.8591 Z" id="Shape" fill="#FFFFFF"></path>
              </g>
            </g>
            <g id="person-1" transform="translate(231.000000, 78.000000)">
                <mask id="mask-7" fill="white">
                    <use xlink:href="#path-6"></use>
                </mask>
                <g id="Shape"></g>
                <g id="Group" mask="url(#mask-7)" fill-rule="nonzero">
                    <g transform="translate(-83.000000, -137.000000)">
                        <path d="M247.555,194.87 C246.618,199.552 246.345,206.861 246.324,210.537 C246.322,210.847 246.278,211.141 246.178,211.434 C245.117,214.527 238.292,233.187 228.071,232.955 C217.267,232.71 212.26,211.572 211.586,208.483 C211.53,208.225 211.446,207.986 211.329,207.75 C204.723,194.387 200.463,182.957 206.721,161.684 C206.821,161.344 206.985,161.019 207.197,160.736 L213.335,152.571 C213.902,151.818 214.79,151.374 215.733,151.374 L225.223,151.374 C225.739,151.374 226.246,151.507 226.696,151.761 L241.957,160.362 C242.843,160.862 243.416,161.777 243.478,162.793 L244.224,175.016 C244.368,177.374 247.093,178.701 249.132,177.509 C250.379,176.78 251.743,176.038 253.093,175.403 C257.509,173.327 257.509,178.073 256.625,182.523 C255.806,186.653 252.452,190.271 248.679,193.141 C248.114,193.572 247.695,194.172 247.555,194.87 Z" id="Path" fill="#ECAD9E"></path>
                        <path d="M112.013,177.034 C111.22,180.512 110.465,187.148 112.347,192.605 C112.408,192.782 112.457,192.967 112.485,193.153 C113.647,200.823 111.066,205.642 106.628,206.925 C103.158,207.928 99.289,202.454 97.622,199.301 C97.507,199.084 97.428,198.853 97.359,198.618 C97.088,197.687 96.438,196.09 95.377,195.083 C93.861,193.642 92.077,189.644 91.864,189.058 C91.651,188.472 88.007,184.818 87.262,182.766 C86.516,180.714 84.787,178.687 84.014,175.65 C83.242,172.613 84.569,170.803 85.925,169.98 C87.28,169.156 87.146,167.878 87.996,166.574 C88.846,165.27 90.998,164.821 91.875,164.502 C92.752,164.184 92.671,161.228 93.947,161.096 C94.337,161.056 94.843,160.945 95.363,160.807 C96.672,160.459 97.462,159.171 97.321,157.825 C97.303,157.648 97.27,157.477 97.22,157.306 C95.817,152.52 93.028,143.087 92.526,141.705 C91.887,139.946 91.859,138.961 94.091,137.819 C95.877,136.905 97.62,140.852 98.268,142.939 C99.424,146.385 102.113,153.867 104.606,159.285 C104.977,160.091 106.817,160.26 107.703,160.223 C108.075,160.207 108.274,160.46 108.401,160.81 L108.646,161.482 C108.951,162.321 109.723,163.102 110.251,163.822 C110.861,164.652 111.657,166.127 112.558,168.608 C113.779,171.967 113.477,174.082 112.918,175.192 C112.61,175.802 112.165,176.368 112.013,177.034 Z" id="Path" fill="#ECAD9E"></path>
                        <path d="M99.792,185.969 C103.873,183.633 106.667,180.436 110.988,180.616 C111.13,180.622 111.272,180.645 111.404,180.694 C113.427,181.45 115.674,184.849 116.534,186.859 C117.423,188.936 118.312,196.059 120.978,198.729 C123.644,201.4 126.902,210.006 128.087,212.677 C129.272,215.348 131.346,218.909 132.827,219.799 C133.864,220.423 136.491,222.305 138.123,223.495 C138.528,223.789 139.025,223.924 139.523,223.872 C144.271,223.377 152.666,222.686 153.563,223.36 C155.92,225.131 159.204,224.743 161.669,223.125 C162.023,222.893 162.384,222.671 162.746,222.47 C165.412,220.986 166.004,220.986 168.67,221.58 C171.336,222.173 171.929,223.657 173.706,223.954 C175.483,224.251 176.593,221.095 179.259,219.908 C181.925,218.721 189.034,217.831 191.108,218.425 C193.182,219.018 193.478,219.908 194.959,219.018 C196.06,218.356 200.467,217.464 203.779,217.42 C204.254,217.414 204.719,217.265 205.075,216.95 C205.602,216.483 206.253,215.851 206.587,215.348 C206.87,214.923 207.657,214.689 208.436,214.568 C209.274,214.439 210.035,213.922 210.316,213.122 L211.387,210.084 C211.529,209.682 211.908,209.413 212.335,209.413 C212.634,209.413 212.917,209.545 213.109,209.776 C215.109,212.191 219.077,216.88 221.103,218.909 C222.532,220.341 225.494,222.37 228.163,223.853 C228.897,224.261 229.331,225.064 229.232,225.898 L228.823,229.34 L230.613,225.47 C230.891,224.869 231.448,224.445 232.101,224.336 L234.408,223.954 C239.994,222.635 245.986,212.084 245.986,210.897 C245.986,209.71 247.6,209.356 248.097,210.434 L250.97,216.669 C251.192,217.153 251.598,217.527 252.098,217.711 C260.788,220.902 278.023,227.489 283.31,230.483 C297.373,238.445 299.702,266.986 301.38,282.118 C303.71,309.348 298.855,364.736 296.774,393.161 C296.698,394.207 295.828,395 294.779,395 L279.386,395 C278.281,395 277.386,394.112 277.379,393.007 C277.245,373.487 275.312,327.645 275.312,310.904 C275.312,310.486 274.458,327.115 274.067,331.038 C272.916,342.568 273.951,378.046 275.124,392.825 C275.218,394 274.293,395 273.113,395 L178.205,395 C176.947,395 176.002,393.855 176.218,392.616 C180.76,366.553 181.417,319.318 179.334,294.286 C178.536,284.686 178.6,270.311 169.263,264.698 C160.37,259.353 135.119,254.914 123.644,252.739 C111.777,250.49 110.518,242.957 104.981,234.637 C103.204,231.966 102.315,230.483 101.427,227.218 C100.538,223.954 98.168,218.019 97.872,214.754 C97.576,211.49 96.687,210.303 95.502,206.148 C94.317,201.994 91.651,196.355 90.17,193.091 C89.5157924,191.647 89.433,190.016 89.575,188.628 C89.712,187.282 91.235,186.861 92.413,187.528 C95.871,189.487 97.003,187.566 99.792,185.969 Z" id="Path" fill="#75809F"></path>
                        <path d="M224.251,158.722 C220.751,158.429 219.293,158.137 214.627,154.918 C213.849,154.918 211.885,155.269 210.252,156.674 C208.211,158.429 208.794,158.722 206.169,164.866 C204.711,157.844 207.044,158.722 207.627,154.918 C208.211,151.115 209.086,150.822 212.294,147.311 C215.502,143.8 217.543,144.386 220.751,141.167 C223.959,137.949 222.793,139.412 233.583,139.412 C242.216,139.412 248.457,143.508 249.624,145.848 C251.082,146.336 254.582,149.067 256.915,156.089 C259.248,163.11 257.887,173.448 256.915,177.739 C256.915,177.154 256.74,175.75 256.04,174.814 C255.165,173.643 253.707,174.814 253.123,174.814 C252.54,174.814 250.499,176.862 247.874,177.739 C245.249,178.617 244.666,178.324 242.916,175.984 C241.516,174.111 241.555,167.402 241.749,164.281 C240.68,163.891 235.8,163.228 231.834,161.355 C226.876,159.014 227.751,159.014 224.251,158.722 Z" id="Path" fill="#36415C"></path>
                        <rect id="Rectangle" fill="url(#radialGradient-8)" opacity="0.4" x="0.895" y="0.0342" width="274.738" height="256.849"></rect>
                        <rect id="Rectangle" fill="url(#linearGradient-9)" opacity="0.56" x="93" y="147" width="231" height="248"></rect>
                    </g>
                </g>
            </g>
        </g>
    </g>
</svg>
