<?xml version="1.0" encoding="UTF-8"?>
<svg width="574px" height="441px" viewBox="0 0 574 441" version="1.1" xmlns="http://www.w3.org/2000/svg" xmlns:xlink="http://www.w3.org/1999/xlink">
    <!-- Generator: Sketch 63.1 (92452) - https://sketch.com -->
    <title>illustration_main</title>
    <desc>Created with Sketch.</desc>
    <defs>
        <linearGradient x1="88.323411%" y1="10.3334961%" x2="144.723022%" y2="117.138871%" id="linearGradient-1">
            <stop stop-color="#FFFFFF" offset="0%"></stop>
            <stop stop-color="#F7F8FB" offset="100%"></stop>
        </linearGradient>
        <linearGradient x1="36.2688903%" y1="15.9073235%" x2="62.842188%" y2="58.9885092%" id="linearGradient-2">
            <stop stop-color="#FFFFFF" offset="0%"></stop>
            <stop stop-color="#F7F8FB" offset="100%"></stop>
        </linearGradient>
        <linearGradient x1="-50.0747036%" y1="-131.844555%" x2="41.0386204%" y2="17.6084854%" id="linearGradient-3">
            <stop stop-color="#FFFFFF" offset="0%"></stop>
            <stop stop-color="#F7F8FB" offset="100%"></stop>
        </linearGradient>
        <path d="M25.046,3.148 C28.888,4.017 32.79,7.364 34.76,9.295 C34.261,10.792 30.587,16.181 26.524,16.181 C22.461,16.181 16.262,13.799 11.01,16.181 C9.684,16.782 8.665,17.418 7.188,17.78 C2.3659,18.961 0.1978,16.782 0.6971,14.785 C2.0154,10.909 2.307,11.597 6.3012,8.297 C-1.1801,5.801 2.307,1.309 12.118,3.148 C12.733,2.665 14.408,1.555 16.181,0.976 C18.397,0.252 20.244,2.062 25.046,3.148 Z" id="path-4"></path>
        <linearGradient x1="71.5938929%" y1="26.0918959%" x2="47.3484819%" y2="44.5683411%" id="linearGradient-6">
            <stop stop-color="#FFFFFF" offset="0%"></stop>
            <stop stop-color="#F7F8FB" offset="100%"></stop>
        </linearGradient>
        <linearGradient x1="40.6368324%" y1="15.907464%" x2="92.9731549%" y2="52.2315883%" id="linearGradient-7">
            <stop stop-color="#FFFFFF" offset="0%"></stop>
            <stop stop-color="#F7F8FB" offset="100%"></stop>
        </linearGradient>
        <linearGradient x1="36.0378097%" y1="18.7676948%" x2="94.2030006%" y2="47.503265%" id="linearGradient-8">
            <stop stop-color="#FFFFFF" offset="0%"></stop>
            <stop stop-color="#F7F8FB" offset="100%"></stop>
        </linearGradient>
    </defs>
    <g id="Page-1" stroke="none" stroke-width="1" fill="none" fill-rule="evenodd">
        <g id="illustration_main">
            <g id="main" transform="translate(-0.000000, 0.000000)">
                <path d="M196.547,323.435 C196.547,291.458 222.477,265.536 254.463,265.536 L338.341,265.536 C370.328,265.536 396.257,291.458 396.257,323.435 C396.257,355.412 370.328,381.334 338.341,381.334 L254.463,381.334 C222.477,381.334 196.547,355.412 196.547,323.435 Z" id="Path" fill="#CFD5E4" fill-rule="nonzero"></path>
                <path d="M371.461,124.782 C371.461,92.8050999 397.391,66.8827999 429.377,66.8827999 L504.268,66.8827999 C536.255,66.8827999 562.185,92.8050999 562.185,124.782 C562.185,156.759 536.255,182.681 504.268,182.681 L429.377,182.681 C397.391,182.681 371.461,156.759 371.461,124.782 Z" id="Path" fill="#E7EBF4" fill-rule="nonzero"></path>
                <path d="M511.092,236.088 C511.092,224.234 520.704,214.625 532.561,214.625 L536.555,214.625 C548.412,214.625 558.024,224.234 558.024,236.088 C558.024,247.941 548.412,257.55 536.555,257.55 L532.561,257.55 C520.704,257.55 511.092,247.941 511.092,236.088 Z" id="Path" fill="#E7EBF4" fill-rule="nonzero"></path>
                <path d="M358.48,97.8288999 C358.48,80.7377999 372.34,66.8827999 389.436,66.8827999 L426.382,66.8827999 C443.478,66.8827999 457.337,80.7377999 457.337,97.8288999 C457.337,114.92 443.478,128.775 426.382,128.775 L389.436,128.775 C372.34,128.775 358.48,114.92 358.48,97.8288999 Z" id="Path" fill="#E7EBF4" fill-rule="nonzero"></path>
                <path d="M61.7422,178.188 C61.7422,166.335 71.3541,156.726 83.2111,156.726 L116.163,156.726 C128.02,156.726 137.632,166.335 137.632,178.188 C137.632,190.042 128.02,199.651 116.163,199.651 L83.2111,199.651 C71.3541,199.651 61.7422,190.042 61.7422,178.188 Z" id="Path" fill="#E7EBF4" fill-rule="nonzero"></path>
                <path d="M339.34,304.967 C339.34,293.114 348.952,283.505 360.809,283.505 L393.761,283.505 C405.618,283.505 415.23,293.114 415.23,304.967 C415.23,316.821 405.618,326.43 393.761,326.43 L360.809,326.43 C348.952,326.43 339.34,316.821 339.34,304.967 Z" id="Path" fill="#E7EBF4" fill-rule="nonzero"></path>
                <path d="M487.125,253.058 C487.125,241.205 496.737,231.596 508.594,231.596 L552.53,231.596 C564.387,231.596 573.999,241.205 573.999,253.058 C573.999,264.912 564.387,274.521 552.53,274.521 L508.594,274.521 C496.737,274.521 487.125,264.912 487.125,253.058 Z" id="Path" fill="#E7EBF4" fill-rule="nonzero"></path>
                <path d="M374.289,247.069 C374.289,235.215 383.901,225.606 395.758,225.606 L439.694,225.606 C451.551,225.606 461.163,235.215 461.163,247.069 C461.163,258.922 451.551,268.531 439.694,268.531 L395.758,268.531 C383.901,268.531 374.289,258.922 374.289,247.069 Z" id="Path" fill="#CFD5E4" fill-rule="nonzero"></path>
                <path d="M169.586,327.927 C169.586,316.074 179.198,306.465 191.055,306.465 L234.991,306.465 C246.848,306.465 256.46,316.074 256.46,327.927 C256.46,339.781 246.848,349.39 234.991,349.39 L191.055,349.39 C179.198,349.39 169.586,339.781 169.586,327.927 Z" id="Path" fill="#E7EBF4" fill-rule="nonzero"></path>
                <path d="M274.434,125.281 C274.434,113.427 284.046,103.818 295.902,103.818 L339.839,103.818 C351.696,103.818 361.308,113.427 361.308,125.281 C361.308,137.134 351.696,146.744 339.839,146.744 L295.902,146.744 C284.046,146.744 274.434,137.134 274.434,125.281 Z" id="Path" fill="#CFD5E4" fill-rule="nonzero"></path>
                <path d="M91.8672,67.3814999 C91.8672,55.5280999 101.479,45.9188999 113.336,45.9188999 L277.099,45.9188999 C288.956,45.9188999 298.568,55.5280999 298.568,67.3814999 C298.568,79.2349999 288.956,88.8440999 277.099,88.8440999 L113.336,88.8440999 C101.479,88.8440999 91.8672,79.2349999 91.8672,67.3814999 Z" id="Path" fill="#E7EBF4" fill-rule="nonzero"></path>
                <path d="M124.65,261.543 C124.65,229.566 150.58,203.644 182.566,203.644 L383.276,203.644 C415.262,203.644 441.192,229.566 441.192,261.543 C441.192,293.52 415.262,319.442 383.276,319.442 L182.566,319.442 C150.58,319.442 124.65,293.52 124.65,261.543 Z" id="Path" fill="#E7EBF4" fill-rule="nonzero"></path>
                <path d="M82.7129,183.679 C82.7129,151.702 108.643,125.78 140.629,125.78 L430.209,125.78 C462.195,125.78 488.125,151.702 488.125,183.679 C488.125,215.656 462.195,241.578 430.209,241.578 L140.629,241.578 C108.643,241.578 82.7129,215.656 82.7129,183.679 Z" id="Path" fill="#E7EBF4" fill-rule="nonzero"></path>
                <path d="M372.362,300.902 C369.947,299.742 363.348,299.212 360.35,299.092 L335.992753,274.01 C335.977,273.012 336.733,270.205 339.878,266.962 C343.024,263.718 348.49,264.166 350.83,264.795 C358.539,268.17 374.963,275.403 378.987,277.338 C384.018,279.756 386.584,284.209 390.171,290.143 C393.759,296.078 392.393,304.585 386.925,306.168 C381.456,307.75 375.381,302.353 372.362,300.902 Z" id="Path" fill="#FFFFFF" fill-rule="nonzero"></path>
                <path d="M15.8086,119.79 C15.8086,87.8133999 41.7385,61.8910999 73.7247,61.8910999 L274.434,61.8910999 C306.42,61.8910999 332.35,87.8133999 332.35,119.79 C332.35,151.767 306.42,177.689 274.434,177.689 L73.7247,177.689 C41.7385,177.689 15.8086,151.767 15.8086,119.79 Z" id="Path" fill="#E7EBF4" fill-rule="nonzero"></path>
                <g id="Group" transform="translate(120.000000, 116.000000)" fill="#18DCA6" fill-rule="nonzero">
                    <path d="M29.665,18.638 C23.538,10.128 13.904,4.005 8.757,1.433 C7.878,0.994 6.9,0.767 5.924,0.873 C3.757,1.106 2.189,1.846 1.076,2.78 C-1.237,4.723 1.069,8.067 2.672,10.627 C4.496,13.54 20.911,43.399 22.735,48.861 C24.559,54.322 29.665,63.79 38.785,71.801 C44.096,76.466 48.827,79.871 51.852,81.846 C53.49,82.916 55.527,83.086 57.375,82.444 C60.543,81.344 62.552,78.099 62.652,74.748 C62.749,71.483 63.132,67.163 64.065,62.188 C65.563,54.202 68.558,48.213 69.557,46.216 C65.423,45.002 54.981,41.724 49.728,40.85 C43.162,39.757 38.055,30.29 29.665,18.638 Z" id="Path"></path>
                    <path d="M78.91,66.703 C77.743,60.294 78.424,52.138 78.91,48.861 L119.644,47.773 C125.373,47.62 129.003,54.198 126.818,59.495 C117.824,81.304 123.507,104.669 141.453,122.583 C147.185,128.305 151.567,133.321 154.701,136.05 C156.269,137.417 157.363,139.594 156.911,141.624 C156.514,143.406 154.994,144.716 153.173,144.845 L117.127,147.416 C115.985,147.497 114.84,147.297 113.794,146.833 L105.033,142.946 C103.262,142.16 101.896,140.674 101.263,138.842 L81.338,81.23 C81.179,80.771 81.069,80.299 81.005,79.817 C80.689,77.441 79.955,72.442 78.91,66.703 Z" id="Path"></path>
                    <path d="M173.382,132.478 C164.189,123.8 149.632,106.89 146.445,102.119 C136.305,86.935 139.132,66.222 151.418,53.913 C152.605,52.724 154.256,52.147 155.935,52.105 C190.08,51.242 211.363,33.547 241.235,18.638 C243.268,17.623 247.041,18.933 250.609,20.757 C254.324,22.656 254.833,27.541 252.05,30.649 C230.787,54.394 212.708,75.282 182.658,88.965 C179.213,90.534 177.422,94.484 179.113,97.869 C182.298,104.246 185.905,109.033 187.248,111.491 C188.342,113.492 190.346,118.534 192.141,123.279 C193.64,127.239 191.219,131.569 187.075,132.444 L179.321,134.081 C177.19,134.531 174.966,133.973 173.382,132.478 Z" id="Path"></path>
                </g>
                <path d="M183.58,188.094 C183.296,175.355 187.482,165.565 189.61,162.262 L195.549,152.234 L199.897,162.262 L199.897,175.709 C199.897,185.051 201.788,193.756 202.734,196.94 L183.735,196.94 C183.751,199.619 183.656,198.448 183.58,196.94 L183.735,196.94 C183.726,195.428 183.683,192.69 183.58,188.094 Z" id="Path" fill="url(#linearGradient-1)" fill-rule="nonzero"></path>
                <path d="M241.982,186.674 C244.252,175.35 247.921,170.519 251.468,167.216 C247.566,160.139 243.1,140.606 259.842,138.908 C280.769,136.785 294.248,157.662 296.376,167.216 C291.836,169.764 284.553,169.222 281.479,168.632 C281.479,168.632 276.931,167.707 272.438,169.703 C267.944,171.7 262.292,180.272 261.953,193.163 C261.454,212.129 268.342,216.434 276.432,227.603 C286.917,242.077 288.928,245.419 296.376,250.726 L280.06,253.557 C278.996,253.203 274.952,251.646 267.291,248.249 C257.714,244.003 254.003,232.955 247.973,224.109 C241.943,215.262 239.144,200.828 241.982,186.674 Z" id="Path" fill="url(#linearGradient-2)" fill-rule="nonzero"></path>
                <path d="M307.372,233.741 L297.727,210.844 C296.953,209.006 297.643,206.864 299.343,205.821 C302.882,203.651 307.907,200.649 309.384,200.649 C319.027,200.649 307.491,224.423 307.372,233.741 Z" id="Path" fill="url(#linearGradient-3)" fill-rule="nonzero"></path>
                <path d="M218.827,207.356 C218.431,196.825 218.931,185.649 219.515,178.646 L220.51,178.729 C219.929,185.702 219.431,196.837 219.825,207.319 C220.022,212.56 220.442,217.627 221.183,221.924 C221.928,226.238 222.985,229.71 224.419,231.813 L223.594,232.376 C222.033,230.086 220.948,226.433 220.199,222.094 C219.448,217.737 219.025,212.621 218.827,207.356 Z" id="Path" fill="#0DBB8B"></path>
                <g id="Clipped" transform="translate(93.000000, 108.000000)">
                    <mask id="mask-5" fill="white">
                        <use xlink:href="#path-4"></use>
                    </mask>
                    <g id="Path"></g>
                    <path d="M25.046,3.148 C28.888,4.017 32.79,7.364 34.76,9.295 C34.261,10.792 30.587,16.181 26.524,16.181 C22.461,16.181 16.262,13.799 11.01,16.181 C9.684,16.782 8.665,17.418 7.188,17.78 C2.3659,18.961 0.1978,16.782 0.6971,14.785 C2.0154,10.909 2.307,11.597 6.3012,8.297 C-1.1801,5.801 2.307,1.309 12.118,3.148 C12.733,2.665 14.408,1.555 16.181,0.976 C18.397,0.252 20.244,2.062 25.046,3.148 Z" id="Path" fill="#ECAD9E" fill-rule="nonzero" mask="url(#mask-5)"></path>
                </g>
                <path d="M376.078,124.008 C372.976,125.988 366.67,132.913 363.621,136.453 C363.421,136.684 363.183,136.878 362.914,137.025 C361.265,137.927 361.15,140.253 362.702,141.315 L364.129,142.29 C364.572,142.593 365.078,142.793 365.609,142.874 L366.569,143.02 C369.494,143.467 372.419,142.227 374.08,139.778 C374.682,138.891 375.354,137.892 376.078,136.803 C378.994,132.416 378.994,134.61 383.732,133.513 C388.471,132.416 386.648,133.147 395.032,130.954 C401.738,129.199 402.2,127.542 401.593,126.933 L408.154,125.471 C411.313,126.202 418.214,127.225 420.547,125.471 C422.879,123.716 418.603,121.815 416.173,121.084 C410.948,119.987 398.968,117.794 392.845,117.794 C385.19,117.794 380.087,121.45 376.078,124.008 Z" id="Path" fill="#ECAD9E" fill-rule="nonzero"></path>
                <path d="M231.899,129.36 C233.973,133.486 239.29,142.541 243.973,145.745 C243.973,137.734 239.583,129.36 231.899,129.36 Z" id="Path" fill="#041133" fill-rule="nonzero"></path>
                <path d="M196.112,144.923 C197.868,143.466 200.259,135.577 201.234,131.815 C197.722,132.98 194.648,135.941 193.551,137.276 C193.673,140.432 194.356,146.379 196.112,144.923 Z" id="Path" fill="#041133" fill-rule="nonzero"></path>
                <path d="M255.461,112.303 C256.632,114.342 258.83,118.828 259.439,120.891 C262.732,115.43 263.464,102.686 262.732,97.9522999 C262.001,93.2188999 261.635,88.4854999 265.659,75.3774999 C269.684,62.2694999 265.659,51.4623999 265.659,48.9135999 C265.659,46.3647999 266.025,48.7973999 265.659,39.6946999 C265.468,34.9380999 267.943,32.4424999 270.416,26.9507999 C273.343,19.6685999 274.441,14.8563999 275.931,11.9779999 C277.421,9.09973995 279.563,-0.284655054 278.099,0.00663322587 C276.27,0.370743946 270.416,12.3863999 268.952,15.6633999 C267.489,18.9403999 262.732,25.4943999 256.147,32.0482999 C249.561,38.6022999 242.975,45.1562999 238.219,62.2694999 C233.462,79.3826999 248.829,92.4906999 251.756,96.1317999 C254.683,99.7728999 255.461,104.657 255.461,112.303 Z" id="Path" fill="#041133" fill-rule="nonzero"></path>
                <path d="M196.048,145.246 C198.08,143.813 200.95,132.857 202.039,129.274 C213.654,127.482 225.372,126.049 232.994,129.274 C233.72,132.857 236.31,138.373 242.481,143.749 C244.223,147.475 246.429,157.493 244.977,162.869 C244.13,164.183 239.142,172.258 235.077,175.412 C229.995,179.354 219.47,178.637 214.388,178.637 C210.323,178.637 202.289,168.125 198.781,162.869 C196.724,157.255 194.015,146.679 196.048,145.246 Z" id="Path" fill="#ECAD9E" fill-rule="nonzero"></path>
                <path d="M249.418,270.211 C248.039,255.599 249.624,240.949 254.413,234.351 C255.054,233.468 255.927,232.813 256.877,232.276 C286.46,215.554 335.763,207.637 368.191,207.637 C391.384,207.637 395.838,224.6 389.723,243.643 C386.803,252.736 375.554,269.773 370.794,273.023 C368.625,274.504 366.213,275.844 363.63,277.055 C365.015,279.099 366.11,281.478 367.105,284.011 C369.601,290.362 364.644,297.028 361.854,299.568 L355.863,299.66 C353.145,306.858 346.723,322.066 342.779,325.322 C337.849,329.392 321.874,329.639 309.347,326.838 C305.864,326.06 300.292,324.089 294.144,321.68 C292.481,324.745 290.863,327.215 289.529,328.317 C284.598,332.387 268.623,332.634 256.097,329.833 C247.768,327.971 227.487,319.293 215.965,314.102 C215.172,313.961 214.358,313.8 213.522,313.619 C193.789,309.344 170.247,284.077 170.619,264.648 C170.67,261.968 172.194,259.616 174.416,258.117 C177.298,256.175 181.236,253.748 185.487,251.13 C196.839,244.136 210.417,235.771 212.024,231.595 C217.017,231.096 227.321,232.137 229.998,233.592 C220.588,254.976 222.385,273.799 228.563,288.732 L245.644,267.596 C246.619,268.176 247.914,269.082 249.418,270.211 Z M139.365,222.112 C143.574,223.681 146.978,225.208 149.606,226.558 C151.769,227.668 153.401,229.556 154.395,231.774 L159.984,244.238 C160.348,245.052 160.621,245.903 160.797,246.776 L168.587,285.502 C165.565,285.166 155.866,279.427 148.173,274.874 C144.428,272.658 141.158,270.723 139.365,269.83 C136.942,268.623 131.143,264.05 126.877,260.687 C124.716,258.983 122.948,257.589 122.212,257.1 C121.422,256.575 120.014,255.387 118.468,254.083 L118.468,254.082 C115.73,251.773 112.562,249.099 111.629,249.099 L94.4758,249.099 C92.8946,249.099 90.8567,248.978 88.5468,248.84 C82.8594,248.501 75.523,248.064 69.294,249.099 C65.4131,249.744 61.2169,250.429 57.7363,250.743 C53.6881,251.108 50.6435,248.187 49.6278,244.252 L48.3831,239.43 C47.6605,236.631 48.3854,233.884 51.1492,233.034 C51.9897,232.775 52.91,232.523 53.8562,232.263 L53.8568,232.263 C56.0458,231.662 58.3732,231.022 60.1702,230.187 C65.6445,227.641 78.6483,223.504 87.2046,221.114 C97.6893,218.184 104.679,218.184 107.979,218.184 L120.387,218.184 C125.611,218.184 134.061,220.135 139.365,222.112 Z" id="Shape" fill="#0E1F50"></path>
                <path d="M350.114,233.186 C350.339,233.346 350.39,233.658 350.23,233.882 C348.951,235.672 347.172,237.448 345.323,239.203 C344.894,239.61 344.462,240.015 344.03,240.421 C342.588,241.774 341.154,243.119 339.892,244.476 C338.251,246.241 336.949,247.975 336.321,249.696 C335.703,251.389 335.735,253.07 336.772,254.798 C336.913,255.034 336.837,255.341 336.6,255.483 C336.364,255.624 336.057,255.548 335.915,255.311 C334.705,253.295 334.675,251.295 335.383,249.354 C336.081,247.441 337.494,245.588 339.161,243.796 C340.448,242.412 341.916,241.035 343.363,239.677 C343.791,239.276 344.217,238.876 344.636,238.479 C346.485,236.724 348.2,235.006 349.418,233.302 C349.578,233.078 349.89,233.026 350.114,233.186 Z" id="Path" fill="#48567B"></path>
                <path d="M112.668,235.089 C112.944,235.089 113.167,235.313 113.167,235.588 C113.167,238.029 112.161,245.823 111.664,249.139 L110.672,249.096 C110.59,247.79 110.319,245.549 109.774,243.345 C109.222,241.113 108.415,239.031 107.322,237.938 C107.127,237.743 107.127,237.427 107.322,237.232 C107.517,237.037 107.833,237.037 108.028,237.232 C109.332,238.535 110.189,240.861 110.743,243.105 C110.922,243.827 111.072,244.552 111.196,245.248 C111.666,241.653 112.169,237.262 112.169,235.588 C112.169,235.313 112.392,235.089 112.668,235.089 Z" id="Path" fill="#48567B"></path>
                <path d="M152.61,238.084 L173.08,260.545 C181.568,312.927 219.513,317.622 244.622,312.927 C229.998,304.967 210.526,266.035 228.001,234.59 C233.209,229.383 254.272,225.544 261.452,229.598 C237.192,241.775 249.969,314.95 279.926,306.464 C266.944,317.944 242.979,326.43 211.525,316.946 C182.067,310.457 148.116,273.522 152.61,238.084 Z" id="Path" fill="url(#linearGradient-6)" fill-rule="nonzero"></path>
                <path d="M152.44,206.896 C172.011,199.587 188.588,206.287 194.43,210.55 C195.598,213.474 196.377,232.476 196.621,241.612 C196.377,244.17 204.11,240.444 207.031,243.075 C180.569,266.035 171.062,263.172 165.22,259.152 C150.615,242.342 150.615,209.454 152.44,206.896 Z" id="Path" fill="#ECAD9E" fill-rule="nonzero"></path>
                <path d="M157.889,207.369 C173.904,202.627 185.972,207.029 192.129,210.862 C193.244,211.556 194.049,212.631 194.289,213.922 C195.18,218.71 195.774,229.29 195.981,237.063 C195.738,239.622 195.981,244.573 200.042,246.07 C203.082,246.07 209.04,244.886 213.125,232.311 C218.232,216.593 223.339,206.499 214.949,190.049 C206.559,173.6 180.872,168.042 163.096,177.689 C145.621,187.173 147.013,209.504 147.013,213.589 C147.013,217.067 151.364,242.077 156.106,242.077 C152.801,226.799 152.683,219.036 153.497,212.571 C153.806,210.12 155.52,208.07 157.889,207.369 Z" id="Path" fill="url(#linearGradient-7)" fill-rule="nonzero"></path>
                <path d="M199.841,133.442 C215.287,126.484 229.324,128.997 236.204,131.915 C237.413,132.428 238.356,133.383 238.773,134.629 C240.316,139.248 242.365,149.645 243.643,157.315 C243.755,159.883 242.977,167.006 247.206,167.929 C250.217,167.509 255.954,165.514 258.265,152.496 C261.153,136.224 264.817,125.522 254.237,110.387 C243.657,95.2527999 217.448,93.2917999 201.174,105.299 C185.175,117.103 189.637,139.029 190.201,143.075 C190.589,145.863 195.749,162.231 200.192,168.02 C201.356,169.538 202.514,168.336 201.892,166.528 C197.503,153.785 196.349,145.626 196.226,139.193 C196.178,136.724 197.589,134.457 199.841,133.442 Z" id="Path" fill="url(#linearGradient-8)" fill-rule="nonzero"></path>
                <path d="M25.791,269.039 C22.8759,269.039 23.4464,265.614 24.2966,264.039 L25.791,260.545 L20.8991,261.642 C19.1995,262.023 17.6344,262.852 16.5377,264.205 C15.2084,265.845 13.5736,268.025 11.8357,269.952 C8.55622003,273.588 6.72029003,274.229 3.80522003,275.32 C3.31359003,275.504 2.87810003,275.551 2.49465003,275.499 C0.0578376308,275.172 -0.422178969,271.439 0.319582031,269.096 C0.651177031,268.048 1.17919003,266.744 1.98337003,265.139 C5.26283003,258.594 9.75805003,250.496 17.4101,245.406 C24.0888,240.963 39.6501,236.797 46.4081,235.809 C47.9395,235.585 49.5197,236.003 50.1865,237.399 C50.9798,239.06 51.5924,241.564 52.03,244.009 C52.6277,247.351 51.1331,250.66 48.4651,252.76 C46.329,254.441 43.9587,256.322 42.1882,257.768 C38.18,261.04 29.4348,269.039 25.791,269.039 Z" id="Path" fill="#ECAD9E" fill-rule="nonzero"></path>
                <path d="M310.381,274.52 C305.174,272.989 309.866,270.669 311.256,269.92 C319.205,265.639 323.751,260.643 330.764,256.736 C336.649,253.457 347.739,252.989 352.163,257.62 C366.247,275.465 347.827,285.003 332.762,293.987 C325.582,298.269 317.371,299.976 318.869,295.484 C312.379,297.98 311.879,293.987 313.377,292.489 C310.382,294.486 308.384,294.186 307.386,293.987 C304.873,293.484 305.888,290.493 308.384,288.496 C292.407,288.496 317.371,277.016 319.867,273.023 C318.421,273.023 316.372,274.521 310.381,274.52 Z" id="Path" fill="#ECAD9E" fill-rule="nonzero"></path>
            </g>
            <g transform="translate(485.143000, 17.000000)">
              <g id="ill-main-coin-3" class="js-rellax" data-rellax-speed="1">
                <path d="M44.934,22.4609 C44.934,34.8656 34.875,44.9217 22.467,44.9217 C10.059,44.9217 -2.84217094e-14,34.8656 -2.84217094e-14,22.4609 C-2.84217094e-14,10.0561 10.059,0 22.467,0 C34.875,0 44.934,10.0561 44.934,22.4609 Z" id="Path" fill="#18DCA6" fill-rule="nonzero"></path>
                <path d="M18.455,13.2365 C18.455,12.5719 18.994,12.0332 19.658,12.0332 C20.323,12.0332 20.862,12.5719 20.862,13.2365 L20.862,14.4396 L23.269,14.4396 L23.269,13.2365 C23.269,12.5719 23.808,12.0332 24.473,12.0332 C25.137,12.0332 25.676,12.5719 25.676,13.2365 L25.676,14.6044 C26.651,14.7814 27.459,15.1008 28.099,15.5626 C29.136,16.296 29.655,17.3121 29.655,18.6109 C29.655,19.4054 29.469,20.1082 29.097,20.7194 C28.726,21.3306 28.215,21.8043 27.565,22.1404 C28.463,22.4307 29.175,22.9197 29.701,23.6073 C30.227,24.2796 30.491,25.1199 30.491,26.1284 C30.491,27.5188 29.949,28.596 28.865,29.36 C28.069,29.9099 27.006,30.2578 25.676,30.4038 L25.676,31.6863 C25.676,32.3508 25.137,32.8895 24.473,32.8895 C23.808,32.8895 23.269,32.3508 23.269,31.6863 L23.269,30.483 L20.862,30.483 L20.862,31.6863 C20.862,32.3508 20.323,32.8895 19.658,32.8895 C18.994,32.8895 18.455,32.3508 18.455,31.6863 L18.455,30.483 L17.271,30.483 L17.252,30.4832 L15.646,30.4832 C14.982,30.4832 14.443,29.9445 14.443,29.2799 C14.443,28.6154 14.982,28.0767 15.646,28.0767 L16.047,28.0767 L16.047,16.846 L15.646,16.846 C14.982,16.846 14.443,16.3073 14.443,15.6427 C14.443,14.9782 14.982,14.4395 15.646,14.4395 L17.252,14.4395 L17.268,14.4396 L18.455,14.4396 L18.455,13.2365 Z M19.066,16.7773 L19.066,21.2007 L23.339,21.2007 C24.391,21.2007 25.196,21.0174 25.754,20.6507 C26.326,20.2687 26.613,19.7186 26.613,19.0005 C26.613,18.2671 26.326,17.717 25.754,17.3503 C25.196,16.9683 24.391,16.7773 23.339,16.7773 L19.066,16.7773 Z M23.942,28.1453 C26.28,28.1453 27.449,27.3736 27.449,25.8304 C27.449,24.2872 26.28,23.5156 23.942,23.5156 L19.066,23.5156 L19.066,28.1453 L23.942,28.1453 Z" id="Shape" fill="#FFFFFF"></path>
              </g>
            </g>
            <g transform="translate(403.117000, 407.000000)">
              <g id="ill-main-coin-2" class="js-rellax" data-rellax-speed="1.75">
                <path d="M34.01,17 C34.01,26.389 26.397,34 17.005,34 C7.614,34 0,26.389 0,17 C0,7.611 7.614,0 17.005,0 C26.397,0 34.01,7.611 34.01,17 Z" id="Path" fill="#18DCA6" fill-rule="nonzero"></path>
                <path d="M14.074,10.29 C14.074,9.788 14.481,9.381 14.983,9.381 C15.485,9.381 15.892,9.788 15.892,10.29 L15.892,11.199 L17.712,11.199 L17.712,10.29 C17.712,9.788 18.119,9.381 18.621,9.381 C19.123,9.381 19.53,9.788 19.53,10.29 L19.53,11.324 C20.267,11.457 20.878,11.699 21.361,12.048 C22.145,12.602 22.536,13.37 22.536,14.351 C22.536,14.951 22.396,15.482 22.115,15.944 C21.835,16.406 21.449,16.764 20.957,17.018 C21.636,17.237 22.174,17.606 22.572,18.126 C22.969,18.634 23.168,19.269 23.168,20.031 C23.168,21.081 22.759,21.895 21.94,22.472 C21.339,22.888 20.535,23.151 19.53,23.261 L19.53,24.23 C19.53,24.732 19.123,25.139 18.621,25.139 C18.119,25.139 17.712,24.732 17.712,24.23 L17.712,23.321 L15.892,23.321 L15.892,24.23 C15.892,24.732 15.485,25.139 14.983,25.139 C14.481,25.139 14.074,24.732 14.074,24.23 L14.074,23.321 L12.255,23.321 L12.255,23.321 L11.952,23.321 C11.45,23.321 11.043,22.914 11.043,22.412 C11.043,21.91 11.45,21.503 11.952,21.503 L12.255,21.503 L12.255,13.017 L11.952,13.017 C11.45,13.017 11.043,12.61 11.043,12.108 C11.043,11.606 11.45,11.199 11.952,11.199 L12.255,11.199 L13.164,11.199 L14.074,11.199 L14.074,10.29 Z M14.536,12.966 L14.536,16.308 L17.764,16.308 C18.56,16.308 19.168,16.169 19.589,15.892 C20.022,15.603 20.238,15.188 20.238,14.645 C20.238,14.091 20.022,13.676 19.589,13.398 C19.168,13.11 18.56,12.966 17.764,12.966 L14.536,12.966 Z M18.221,21.555 C19.987,21.555 20.87,20.972 20.87,19.806 C20.87,18.64 19.987,18.057 18.221,18.057 L14.536,18.057 L14.536,21.555 L18.221,21.555 Z" id="Shape" fill="#FFFFFF"></path>
              </g>
            </g>
            <g transform="translate(47.000000, 309.000000)">
              <g id="ill-main-coin-1" class="js-rellax" data-rellax-speed="1">
                <path d="M56.681,28.411 C56.681,43.848 44.1628,56.363 28.7212,56.363 C13.2796,56.363 0.7617,43.848 0.7617,28.411 C0.7617,12.974 13.2796,0.46 28.7212,0.46 C44.1628,0.46 56.681,12.974 56.681,28.411 Z" id="Path" fill="#18DCA6" fill-rule="nonzero"></path>
                <path d="M23.7291,16.931 C23.7291,16.104 24.3995,15.434 25.2265,15.434 C26.0535,15.434 26.7239,16.104 26.7239,16.931 L26.7239,18.428 L29.7206,18.428 L29.7206,16.931 C29.7206,16.104 30.391,15.434 31.218,15.434 C32.045,15.434 32.7154,16.104 32.7154,16.931 L32.7154,18.634 C33.9293,18.854 34.9344,19.251 35.7305,19.826 C37.0212,20.739 37.6666,22.003 37.6666,23.619 C37.6666,24.608 37.4354,25.483 36.9731,26.243 C36.5107,27.004 35.875,27.593 35.0659,28.012 C36.1832,28.373 37.0694,28.981 37.7244,29.837 C38.3794,30.674 38.7069,31.72 38.7069,32.975 C38.7069,34.705 38.0326,36.045 36.6841,36.996 C35.6937,37.68 34.3708,38.113 32.7154,38.295 L32.7154,39.891 C32.7154,40.718 32.045,41.389 31.218,41.389 C30.391,41.389 29.7206,40.718 29.7206,39.891 L29.7206,38.394 L26.7239,38.394 L26.7239,39.891 C26.7239,40.718 26.0535,41.389 25.2265,41.389 C24.3995,41.389 23.7291,40.718 23.7291,39.891 L23.7291,38.394 L22.247,38.394 L22.2317,38.394 L20.2337,38.394 C19.4067,38.394 18.7363,37.723 18.7363,36.896 C18.7363,36.069 19.4067,35.399 20.2337,35.399 L20.7329,35.399 L20.7329,21.423 L20.2337,21.423 C19.4067,21.423 18.7363,20.753 18.7363,19.926 C18.7363,19.099 19.4067,18.428 20.2337,18.428 L20.7329,18.428 L20.7329,18.428 L23.7291,18.428 L23.7291,16.931 Z M24.4896,21.338 L24.4896,26.842 L29.8066,26.842 C31.1166,26.842 32.1184,26.614 32.8119,26.158 C33.5247,25.682 33.8811,24.998 33.8811,24.104 C33.8811,23.192 33.5247,22.507 32.8119,22.051 C32.1184,21.575 31.1166,21.338 29.8066,21.338 L24.4896,21.338 Z M30.5579,35.484 C33.4669,35.484 34.9214,34.524 34.9214,32.604 C34.9214,30.683 33.4669,29.723 30.5579,29.723 L24.4896,29.723 L24.4896,35.484 L30.5579,35.484 Z" id="Shape" fill="#FFFFFF"></path>
              </g>
            </g>
        </g>
    </g>
</svg>
