<?xml version="1.0" encoding="UTF-8"?>
<svg width="450px" height="336px" viewBox="0 0 450 336" version="1.1"
  xmlns="http://www.w3.org/2000/svg"
  xmlns:xlink="http://www.w3.org/1999/xlink">
  <!-- Generator: Sketch 63.1 (92452) - https://sketch.com -->
  <defs>
    <path d="M128.407,74.272 C128.869,75.269 129.64,76.081 130.559,76.681 L131.912,90.901 L131.912,92.049 C130.532,92.79 129.669,93.623 129.503,94.543 L127.278,105.223 C127.206,105.241 127.134,105.259 127.063,105.277 C127.023,105.287 126.982,105.297 126.941,105.307 L127.115,106.003 L127.062,106.257 C126.603,106.364 126.114,106.481 125.598,106.606 C114.525,109.287 91.097,115.842 83.105,120.768 C72.651,127.213 59.783,138.894 52.143,147.353 C48.486,151.401 43.496,157.863 39.186,163.666 C39.168,163.621 39.144,163.578 39.112,163.538 C39.106,163.531 39.1,163.524 39.094,163.517 L39.843,158.96 C39.919,158.937 39.991,158.895 40.052,158.835 C40.247,158.639 40.247,158.323 40.052,158.128 C40.031,158.107 40.011,158.087 39.99,158.067 L41.286,150.172 C41.158,149.659 40.93,149.15 40.605,148.659 C40.843,146.931 41.122,145.217 41.403,144.112 C41.539,143.578 41.885,143.139 42.281,142.756 C44.188,140.915 47.775,136.344 48.84,134.925 C49.482,134.069 49.78,132.869 50.041,131.817 C50.267,130.906 50.466,130.106 50.837,129.735 C51.439,129.133 53.507,124.228 54.635,121.438 C54.765,121.116 54.955,120.825 55.158,120.543 C56.066,119.281 56.554,117.359 52.833,117.359 C48.403,117.359 46.88,121.43 45.785,124.36 L45.785,124.36 C45.596,124.864 45.421,125.333 45.245,125.743 C44.047,128.538 41.651,127.739 40.053,126.142 C38.456,124.545 37.657,122.948 36.858,120.154 C36.06,117.359 35.57,113.356 35.305,110.173 C35.084,107.511 34.945,105.292 34.822,103.325 L34.822,103.325 C34.673,100.957 34.548,98.954 34.329,96.983 C33.841,92.59 29.448,93.078 29.448,98.447 C29.448,99.882 29.525,102.58 29.588,104.802 C29.632,106.359 29.67,107.683 29.67,108.177 L29.67,116.56 C29.67,118.557 28.072,117.758 27.273,116.56 C26.841,115.912 26.291,114.562 25.688,113.079 L25.688,113.079 C25.177,111.823 24.6278,110.473 24.0783,109.374 C22.8802,106.979 20.8833,102.987 18.8864,100.591 C16.4901,97.797 14.4933,100.591 15.292,102.987 C16.0908,105.382 16.4901,106.58 17.6883,109.374 C18.6468,111.61 20.4839,116.693 21.2827,118.956 C22.4808,121.75 21.2827,122.549 18.8864,119.754 C17.2889,118.157 16.0908,116.56 15.292,115.363 C14.653,114.405 12.097,111.503 10.8989,110.173 C8.5026,107.777 5.3076,109.773 7.7039,113.766 C9.3014,117.279 12.3633,121.351 13.6946,122.948 C16.8899,126.142 14.8926,129.336 10.4996,127.34 C8.6937,126.738 5.801,125.38 4.3589,124.669 C4.1926,124.587 4.0147,124.517 3.835,124.471 C-1.2795,123.162 -0.3044,127.855 2.264,129.217 L2.2981,129.235 L2.2987,129.235 C2.4491,129.315 2.5996,129.395 2.7429,129.486 C3.9128,130.235 5.4334,130.983 7.3049,131.731 C9.3017,132.53 12.4967,134.925 13.2955,137.72 C13.8307,139.592 15.7107,142.529 17.0113,144.372 C17.4396,144.979 17.6514,145.715 17.5841,146.454 L17.1979,150.701 C17.1782,150.918 17.1819,151.131 17.2069,151.338 C17.0256,151.757 16.8785,152.176 16.7582,152.589 C16.0859,154.545 15.2346,157.019 14.3107,159.701 C14.1866,159.832 14.0641,159.966 13.9434,160.102 C13.7745,160.294 13.7787,160.578 13.944,160.765 C11.0684,169.107 7.6447,179.003 6.7056,181.59 C5.0972,186.021 3.0867,199.314 9.1182,206.564 C9.9477,207.561 10.7088,208.573 11.4474,209.556 L11.4476,209.556 L11.4477,209.556 L11.4478,209.556 L11.4479,209.557 C16.0797,215.718 19.8298,220.707 34.048,213.411 C50.534,204.953 81.496,186.424 84.713,181.59 C89.538,186.746 93.425,193.406 94.766,196.091 C98.149,207.954 101.235,270.39 100.759,283.919 C100.738,284.506 101.183,284.99 101.77,284.978 C114.509,284.732 145.67,284.829 174.142,284.918 L174.148,284.918 L174.154,284.918 L174.158,284.918 L174.161,284.918 C187.358,284.959 199.975,285.000002 209.912,285.000002 C210.463,285.000002 210.892,284.555 210.894,284.004 L210.986,253.657 L210.976,220.285 C210.974,215.691 211.548,211.107 212.879,206.711 C215.085,199.427 217.332,193.332 219.835,186.542 L220.284,185.326 C222.441,179.469 229.726,172.782 237.366,171.171 C243.999,169.772 269.262,158.21 278.698,153.342 L278.892,153.243 C280.918,152.199 282.999,151.126 284.359,149.303 C289.043,143.025 294.47,126.329 294.47,116.506 C294.47,112.438 294.8,107.009 295.141,101.409 L295.141,101.409 L295.141,101.408 L295.141,101.408 L295.141,101.406 L295.141,101.406 L295.141,101.405 L295.141,101.404 C295.362,97.768 295.587,94.06 295.729,90.607 C295.929,90.696 296.171,90.646 296.318,90.47 C296.495,90.258 296.466,89.943 296.254,89.766 C296.095,89.633 295.936,89.504 295.777,89.377 C295.884,86.377 295.918,83.607 295.817,81.294 C295.64,80.762 295.343,80.113 294.914,79.424 C296.007,78.169 297.086,76.694 297.759,75.055 C297.849,74.835 297.973,74.563 298.114,74.252 C298.94,72.441 300.376,69.292 299.351,67.209 C298.558,65.6 298.099,65.085 296.91,64.281 C296.236,63.824 296.199,63.266 296.149,62.501 C296.111,61.917 296.065,61.213 295.722,60.343 C295.211,59.047 294.23,58.848 293.279,58.655 C292.754,58.548 292.238,58.444 291.816,58.158 C291.317,57.82 291.139,57.348 290.941,56.822 C290.667,56.095 290.354,55.264 289.101,54.537 C288.23,54.031 286.661,54.031 286.173,54.519 L286.269,52.123 L286.648,47.507 C286.66,47.366 286.681,47.227 286.712,47.089 C287.126,45.249 287.945,41.417 288.25,39.249 C288.646,36.432 288.25,34.421 286.665,34.421 C285.398,34.421 284.288,36.567 283.892,37.639 L281.911,42.87 C281.119,45.686 279.217,52.364 277.949,56.548 C277.217,58.967 276.236,60.904 275.309,62.264 C274.436,63.544 272.579,63.477 271.764,62.159 C271.242,61.315 270.818,60.257 270.818,58.962 C270.818,56.146 268.837,54.939 267.649,54.537 C266.46,54.134 265.271,54.537 265.668,56.146 C265.779,56.596 265.92,56.984 266.059,57.361 C266.414,58.332 266.745,59.235 266.46,60.974 C266.18,62.681 266.296,63.382 266.528,64.784 C266.624,65.365 266.74,66.066 266.856,67.009 C267.243,70.152 269.142,73.68 272.553,78.342 C272.686,78.524 272.795,78.723 272.902,78.922 L272.902,78.922 C272.926,78.965 272.949,79.008 272.973,79.051 C273.213,79.488 273.567,79.881 274.015,80.234 C273.911,82.203 273.734,84.606 273.496,87.064 C273.473,87.134 273.465,87.21 273.475,87.285 C273.049,91.617 272.433,96.083 271.691,98.614 C270.882,101.377 270.211,103.805 269.621,105.945 C266.18,118.417 265.45,121.063 255.607,122.782 C253.61,123.131 248.076,120.896 241.235,118.133 C233.086,114.843 223.082,110.803 214.995,109.489 C203.12,107.561 186.257,104.135 179.257,102.652 L179.334,101.854 C179.212,101.842 179.09,101.831 178.969,101.819 L175.869,91.126 C175.668,90.656 175.187,90.239 174.474,89.873 L174.474,86.525 C177.126,85.73 182.589,76.5 183.225,66.634 C183.443,63.254 183.542,60.501 183.57,58.188 C184.042,57.919 184.382,57.41 184.458,56.816 C185.424,49.322 185.424,43.747 185.424,38.999 C185.424,38.254 185.451,37.416 185.481,36.504 C185.706,29.611 186.068,18.4854 175.825,11.0915 C164.225,2.7192 155.026,-1.6664 141.427,2.3205 C139.234,2.9633 137.312,3.4921 135.61,3.9603 C126.754,6.3964 123.854,7.1942 119.828,13.8823 C116.262,19.8062 116.229,21.3291 116.119,26.298 C116.081,28.017 116.034,30.149 115.828,33.019 C115.188,41.95 118.228,51.89 119.828,55.744 L128.407,74.272 Z" id="path-1"></path>
    <linearGradient x1="32.5566094%" y1="75.3048458%" x2="92.2965791%" y2="24.8148366%" id="linearGradient-3">
      <stop stop-color="#0D1E4D" stop-opacity="0.86" offset="0%"></stop>
      <stop stop-color="#0E1F4F" stop-opacity="0.4" offset="100%"></stop>
    </linearGradient>
    <radialGradient cx="50%" cy="50.000042%" fx="50%" fy="50.000042%" r="55.9648117%" gradientTransform="translate(0.500000,0.500000),scale(1.000000,0.893422),rotate(90.000000),translate(-0.500000,-0.500000)" id="radialGradient-4">
      <stop stop-color="#00F6B2" offset="0%"></stop>
      <stop stop-color="#18DCA6" stop-opacity="0" offset="100%"></stop>
    </radialGradient>
    <radialGradient cx="50%" cy="50%" fx="50%" fy="50%" r="64.9390011%" gradientTransform="translate(0.500000,0.500000),scale(1.000000,0.769953),rotate(90.000000),translate(-0.500000,-0.500000)" id="radialGradient-5">
      <stop stop-color="#13265C" stop-opacity="0.21" offset="0%"></stop>
      <stop stop-color="#13265C" stop-opacity="0" offset="100%"></stop>
    </radialGradient>
    <radialGradient cx="50.0001897%" cy="50%" fx="50.0001897%" fy="50%" r="50%" gradientTransform="translate(0.500002,0.500000),scale(0.740755,1.000000),rotate(90.000000),translate(-0.500002,-0.500000)" id="radialGradient-6">
      <stop stop-color="#00F6B2" offset="0%"></stop>
      <stop stop-color="#18DCA6" stop-opacity="0" offset="100%"></stop>
    </radialGradient>
  </defs>
  <g id="Page-1" stroke="none" stroke-width="1" fill="none" fill-rule="evenodd">
    <g id="illustration_traders-about-2" transform="translate(10.000000, 0.000000)">
      <g id="bbl-btc-1" opacity="0.9" transform="translate(336.000000, 35.000000)">
        <g class="js-rellax" data-rellax-speed="0.25">
          <g id="Group" fill="#18DCA6" fill-rule="nonzero">
            <path d="M58.661,29.3312 C58.661,45.53 45.529,58.662 29.331,58.662 C13.132,58.662 0,45.53 0,29.3312 C0,13.132 13.132,0 29.331,0 C45.529,0 58.661,13.132 58.661,29.3312 Z" id="Path"></path>
          </g>
          <path d="M24.095,17.2837 C24.095,16.4162 24.798,15.7129 25.666,15.7129 C26.533,15.7129 27.237,16.4162 27.237,17.2837 L27.237,18.8563 L30.381,18.8563 L30.381,17.2837 C30.381,16.4162 31.085,15.7129 31.952,15.7129 C32.82,15.7129 33.523,16.4162 33.523,17.2837 L33.523,19.0716 C34.796,19.3027 35.851,19.7198 36.686,20.3228 C38.04,21.2805 38.717,22.6074 38.717,24.3034 C38.717,25.3409 38.474,26.2588 37.989,27.0569 C37.504,27.855 36.837,28.4735 35.988,28.9125 C37.161,29.2916 38.09,29.9301 38.777,30.8279 C39.464,31.7059 39.808,32.8033 39.808,34.1202 C39.808,35.9359 39.101,37.3425 37.686,38.3402 C36.647,39.0582 35.259,39.5125 33.523,39.7032 L33.523,41.3795 C33.523,42.247 32.82,42.95 31.952,42.95 C31.085,42.95 30.381,42.247 30.381,41.3795 L30.381,39.8067 L27.238,39.8067 L27.238,41.3795 C27.238,42.247 26.535,42.95 25.667,42.95 C24.8,42.95 24.097,42.247 24.097,41.3795 L24.097,39.8067 L22.571,39.8067 C22.556,39.8071 22.54,39.8074 22.525,39.8074 L20.431,39.8074 C19.563,39.8074 18.859,39.1038 18.859,38.2359 C18.859,37.368 19.563,36.6644 20.431,36.6644 L20.953,36.6644 L20.953,21.9993 L20.431,21.9993 C19.563,21.9993 18.859,21.2957 18.859,20.4278 C18.859,19.5599 19.563,18.8563 20.431,18.8563 L20.953,18.8563 L22.525,18.8563 L24.095,18.8563 L24.095,17.2837 Z M24.894,21.909 L24.894,27.6854 L30.471,27.6854 C31.846,27.6854 32.896,27.4459 33.624,26.9671 C34.372,26.4683 34.746,25.75 34.746,24.8122 C34.746,23.8544 34.372,23.1361 33.624,22.6573 C32.896,22.1585 31.846,21.909 30.471,21.909 L24.894,21.909 Z M31.259,36.7539 C34.311,36.7539 35.837,35.7463 35.837,33.7311 C35.837,31.7158 34.311,30.7082 31.259,30.7082 L24.894,30.7082 L24.894,36.7539 L31.259,36.7539 Z" id="Shape" fill="#FFFFFF"></path>
          <path d="M24.517,17.3638 C24.517,16.4962 25.22,15.793 26.088,15.793 C26.955,15.793 27.659,16.4962 27.659,17.3638 L27.659,18.9363 L30.803,18.9363 L30.803,17.3638 C30.803,16.4962 31.507,15.793 32.374,15.793 C33.242,15.793 33.945,16.4962 33.945,17.3638 L33.945,19.1517 C35.218,19.3828 36.272,19.7999 37.108,20.4029 C38.462,21.3606 39.139,22.6874 39.139,24.3834 C39.139,25.421 38.896,26.3388 38.411,27.1369 C37.926,27.935 37.259,28.5535 36.41,28.9925 C37.583,29.3716 38.512,30.0101 39.199,30.908 C39.886,31.7859 40.23,32.8833 40.23,34.2001 C40.23,36.0158 39.523,37.4225 38.108,38.4201 C37.069,39.1381 35.681,39.5925 33.945,39.7832 L33.945,41.4595 C33.945,42.327 33.242,43.03 32.374,43.03 C31.507,43.03 30.803,42.327 30.803,41.4595 L30.803,39.8867 L27.66,39.8867 L27.66,41.4595 C27.66,42.327 26.957,43.03 26.089,43.03 C25.222,43.03 24.519,42.327 24.519,41.4595 L24.519,39.8867 L22.993,39.8867 C22.978,39.8871 22.962,39.8873 22.947,39.8873 L20.853,39.8873 C19.985,39.8873 19.281,39.1837 19.281,38.3158 C19.281,37.4478 19.985,36.7442 20.853,36.7442 L21.375,36.7442 L21.375,22.0793 L20.852,22.0793 C19.985,22.0793 19.281,21.3757 19.281,20.5078 C19.281,19.6399 19.985,18.9363 20.852,18.9363 L21.375,18.9363 L22.947,18.9363 L24.517,18.9363 L24.517,17.3638 Z M25.315,21.9891 L25.315,27.7654 L30.893,27.7654 C32.267,27.7654 33.318,27.526 34.046,27.0471 C34.794,26.5483 35.168,25.83 35.168,24.8922 C35.168,23.9345 34.794,23.2162 34.046,22.7373 C33.318,22.2385 32.267,21.9891 30.893,21.9891 L25.315,21.9891 Z M31.681,36.8339 C34.733,36.8339 36.259,35.8263 36.259,33.8111 C36.259,31.7958 34.733,30.7882 31.681,30.7882 L25.315,30.7882 L25.315,36.8339 L31.681,36.8339 Z" id="Shape" fill="#FFFFFF"></path>
        </g>
      </g>
      <g id="bbl-rpl-1" opacity="0.4" transform="translate(274.000000, 17.000000)" fill-rule="nonzero">
        <g class="js-rellax" data-rellax-speed="-0.5">
          <g id="Group" fill="#18DCA6">
            <path d="M46.999,23.5 C46.999,36.4787 36.478,47 23.499,47 C10.521,47 0,36.4787 0,23.5 C0,10.5213 10.521,0 23.499,0 C36.478,0 46.999,10.5213 46.999,23.5 Z" id="Path"></path>
          </g>
          <path d="M29.287,25.2702 C28.599,24.8746 27.819,24.755 27.048,24.7274 C26.406,24.709 25.442,24.2857 25.442,23.1081 C25.442,22.234 26.149,21.5256 27.057,21.4888 C27.828,21.4612 28.608,21.3416 29.297,20.9459 C30.563,20.2191 31.334,18.8666 31.334,17.4037 C31.334,15.9409 30.554,14.5884 29.297,13.8615 C28.03,13.1347 26.479,13.1347 25.222,13.8615 C23.955,14.5884 23.184,15.9409 23.184,17.4037 C23.184,18.195 23.469,18.9218 23.826,19.6027 C24.129,20.1731 24.276,21.2312 23.248,21.8292 C22.477,22.2708 21.514,21.9948 21.036,21.222 C20.632,20.5687 20.146,19.9615 19.458,19.5659 C18.191,18.839 16.64,18.839 15.383,19.5659 C14.098,20.2927 13.318,21.6452 13.318,23.1081 C13.318,24.571 14.098,25.9234 15.355,26.6503 C16.622,27.3771 18.173,27.3771 19.43,26.6503 C20.118,26.2547 20.605,25.6474 21.009,24.9942 C21.339,24.4606 22.174,23.7797 23.221,24.3869 C23.992,24.8286 24.23,25.8038 23.799,26.6135 C23.441,27.2851 23.156,28.0212 23.156,28.8124 C23.156,30.2753 23.937,31.6278 25.194,32.3546 C26.461,33.0815 28.012,33.0815 29.269,32.3546 C30.536,31.6278 31.307,30.2753 31.307,28.8124 C31.325,27.3495 30.545,25.997 29.287,25.2702 Z" id="Path" fill="#FFFFFF"></path>
        </g>
      </g>
      <g id="bbl-et-1" opacity="0.4" transform="translate(400.000000, 0.000000)">
        <g class="js-rellax" data-rellax-speed="-0.25">
          <g id="Group" fill="#18DCA6" fill-rule="nonzero">
            <path d="M40,20.0005 C40,31.0464 31.046,40.0009 20,40.0009 C8.954,40.0009 0,31.0464 0,20.0005 C0,8.9545 8.954,0 20,0 C31.046,0 40,8.9545 40,20.0005 Z" id="Path"></path>
          </g>
          <path d="M19.467,23.7411 L11.856,20.5584 C11.661,20.4773 11.514,20.3117 11.457,20.109 C11.399,19.9069 11.437,19.6887 11.56,19.5177 L19.171,8.8612 C19.301,8.6793 19.518,8.57129993 19.734,8.57129993 C19.951,8.57129993 20.167,8.6795 20.297,8.8612 L27.909,19.5177 C28.031,19.6887 28.069,19.9069 28.011,20.109 C27.954,20.3117 27.807,20.4773 27.613,20.5584 L20.001,23.7411 C19.916,23.7769 19.825,23.7945 19.734,23.7945 C19.644,23.7945 19.552,23.7769 19.467,23.7411 Z M20.426,11.4227 L20.426,22.0632 L26.279,19.6164 L20.426,11.4227 Z M19.042,22.0632 L19.042,11.4227 L13.19,19.6164 L19.042,22.0632 Z M27.077,22.5092 C27.387,22.3821 27.747,22.4929 27.928,22.7768 C28.109,23.0619 28.058,23.4356 27.807,23.6613 L20.196,30.5357 C20.064,30.6546 19.898,30.7141 19.732,30.7141 C19.566,30.7141 19.4,30.6546 19.269,30.5357 L11.657,23.6613 C11.406,23.4356 11.356,23.0619 11.536,22.7768 C11.717,22.4922 12.077,22.3801 12.388,22.5092 L19.732,25.5798 L27.077,22.5092 Z M15.589,25.348 L19.732,29.0896 L23.876,25.348 L19.999,26.9684 C19.829,27.0401 19.636,27.0401 19.465,26.9684 L15.589,25.348 Z" id="Shape" fill="#FAFBFD"></path>
        </g>
      </g>
      <g id="bbl-lc-1" opacity="0.4" transform="translate(375.000000, 105.000000)" fill-rule="nonzero">
        <g class="js-rellax" data-rellax-speed="0.5">
          <g id="Group" fill="#18DCA6">
            <path d="M41.974,20.987 C41.974,32.578 32.578,41.974 20.987,41.974 C9.396,41.974 0,32.578 0,20.987 C0,9.396 9.396,0 20.987,0 C32.578,0 41.974,9.396 41.974,20.987 Z" id="Path"></path>
          </g>
          <polygon id="Path" fill="#FFFFFF" points="20.047 25.046 21.091 20.988 23.563 20.055 24.178 17.67 24.157 17.611 21.724 18.529 23.477 11.714 18.505 11.714 16.212 20.607 14.298 21.329 13.666 23.788 15.578 23.067 14.227 28.308 27.459 28.308 28.308 25.046"></polygon>
        </g>
      </g>
      <g id="bbl-wave" transform="translate(0.500000, 78.926000)" stroke="#18DCA6">
        <g data-aos="fade" data-aos-delay="500">
          <path d="M149.395,94.436 C149.395,128.026 122.166,155.256 88.5776,155.256 C54.989,155.256 27.7598,128.026 27.7598,94.436 C27.7598,60.847 54.989,33.617 88.5776,33.617 C122.166,33.617 149.395,60.847 149.395,94.436 Z" id="Path" stroke-width="16" opacity="0.2"></path>
          <path d="M181.061,90.532 C181.061,140.532 140.529,181.065 90.53,181.065 C40.532,181.065 0,140.532 0,90.532 C0,40.532 40.532,0 90.53,0 C140.529,0 181.061,40.532 181.061,90.532 Z" id="Path" stroke-width="21" opacity="0.1"></path>
          <path d="M120.159,94.436 C120.159,111.879 106.019,126.019 88.5774,126.019 C71.1357,126.019 56.9961,111.879 56.9961,94.436 C56.9961,76.994 71.1357,62.854 88.5774,62.854 C106.019,62.854 120.159,76.994 120.159,94.436 Z" id="Path" stroke-width="12" opacity="0.4"></path>
        </g>
      </g>
      <g id="person" transform="translate(65.000000, 51.000000)">
        <mask id="mask-2" fill="white">
          <use xlink:href="#path-1"></use>
        </mask>
        <g id="Path"></g>
        <g id="Group" mask="url(#mask-2)">
          <g transform="translate(-37.000000, -112.000000)">
            <path d="M54.5841,258.454 L54.1979,262.701 C54.0344,264.499 55.4846,266.033 57.2889,265.971 L74.433,265.38 C75.934,265.328 77.163,264.175 77.343,262.684 C77.622,260.387 78.011,257.656 78.403,256.112 C78.539,255.578 78.885,255.139 79.281,254.756 C81.188,252.915 84.775,248.344 85.84,246.925 C87.038,245.328 87.038,242.533 87.837,241.735 C88.439,241.133 90.507,236.228 91.635,233.437 C91.765,233.116 91.955,232.824 92.158,232.543 C93.066,231.281 93.554,229.359 89.833,229.359 C84.642,229.359 83.443,234.948 82.245,237.743 C81.047,240.537 78.651,239.739 77.053,238.142 C75.456,236.545 74.657,234.948 73.858,232.153 C73.06,229.359 72.57,225.355 72.305,222.172 C71.817,216.304 71.73,212.591 71.329,208.983 C70.841,204.59 66.448,205.078 66.448,210.447 C66.448,212.887 66.67,218.979 66.67,220.176 L66.67,228.56 C66.67,230.556 65.072,229.758 64.273,228.56 C63.475,227.363 62.276,223.769 61.0783,221.374 C59.8802,218.979 57.8833,214.986 55.8864,212.591 C53.4901,209.796 51.4933,212.591 52.292,214.986 C53.0908,217.382 53.4901,218.579 54.6883,221.374 C55.6468,223.61 57.4839,228.693 58.2827,230.956 C59.4808,233.75 58.2827,234.549 55.8864,231.754 C54.2889,230.157 53.0908,228.56 52.292,227.362 C51.653,226.404 49.097,223.503 47.8989,222.172 C45.5026,219.777 42.3076,221.773 44.7039,225.766 C46.3014,229.279 49.3633,233.351 50.6946,234.948 C53.8899,238.142 51.8926,241.336 47.4996,239.339 C45.6937,238.738 42.801,237.38 41.3589,236.669 C41.1926,236.587 41.0147,236.516 40.835,236.47 C35.7205,235.162 36.6956,239.855 39.264,241.217 L39.2981,241.235 C39.4487,241.315 39.5994,241.394 39.7429,241.486 C40.9128,242.235 42.4334,242.983 44.3049,243.731 C46.3017,244.53 49.4967,246.925 50.2955,249.72 C50.8307,251.592 52.7107,254.529 54.0113,256.372 C54.4396,256.979 54.6514,257.714 54.5841,258.454 Z" id="Path" stroke="none" fill="#ECAD9E" fill-rule="nonzero"></path>
            <path d="M211.474,198.525 L211.474,207.675 L168.912,207.675 L168.912,202.901 L167.284,185.795 C164.898,181.021 157.218,167.574 153.399,151.98 C155.716,130.8953 158.172,127.7127 168.912,119.3584 C179.652,111.0041 186.414,116.1758 201.927,118.9606 C214.338,121.1884 219.297,132.0887 220.225,138.056 L220.225,157.549 C220.225,162.323 221.021,166.301 220.225,178.634 C219.589,188.5 214.126,197.729 211.474,198.525 Z" id="Path" stroke="none" fill="#ECAD9E" fill-rule="nonzero"></path>
            <path d="M303.856,179.009 C304.243,182.152 306.142,185.68 309.553,190.342 C309.715,190.563 309.84,190.811 309.973,191.051 C311.919,194.589 321.377,195.267 327.057,195.148 C327.925,195.13 328.735,194.716 329.348,194.101 C330.894,192.546 333.517,190.079 334.759,187.055 C335.375,185.554 337.552,181.65 336.351,179.209 C335.558,177.6 335.099,177.085 333.91,176.281 C332.722,175.476 333.514,174.355 332.722,172.343 C331.929,170.332 330.004,170.962 328.816,170.158 C327.627,169.353 328.262,167.791 326.101,166.537 C325.23,166.031 323.661,166.031 323.173,166.519 L323.269,164.123 L323.648,159.507 C323.66,159.366 323.681,159.227 323.712,159.089 C324.126,157.249 324.945,153.417 325.25,151.249 C325.646,148.432 325.25,146.421 323.665,146.421 C322.398,146.421 321.288,148.567 320.892,149.639 L318.911,154.87 C318.119,157.686 316.217,164.364 314.949,168.548 C314.217,170.967 313.236,172.904 312.309,174.264 C311.436,175.544 309.579,175.477 308.764,174.159 C308.242,173.315 307.818,172.257 307.818,170.962 C307.818,168.146 305.837,166.939 304.649,166.537 C303.46,166.134 302.271,166.537 302.668,168.146 C303.064,169.755 303.856,170.56 303.46,172.974 C303.064,175.388 303.46,175.79 303.856,179.009 Z" id="Path" stroke="none" fill="#ECAD9E" fill-rule="nonzero"></path>
            <path d="M211.405,160.663 L209.178,169.673 C209.042,170.222 208.673,170.685 208.187,170.974 C198.79,176.567 202.903,184.988 198.227,188.484 C193.427,192.072 184.073,191.9 178.427,192.463 C175.884,192.716 171.745,190.574 168.711,189.292 C167.299,188.695 166.051,187.664 165.407,186.272 L156.828,167.744 C155.228,163.89 152.188,153.95 152.828,145.019 C153.628,133.856 152.028,133.856 156.828,125.8823 C161.628,117.9086 164.828,118.3073 178.427,114.3205 C192.026,110.3336 201.225,114.7192 212.825,123.0915 C224.424,131.4639 222.424,144.62 222.424,150.999 C222.424,155.747 222.424,161.322 221.458,168.816 C221.331,169.803 220.478,170.553 219.502,170.364 C217.957,170.065 216.286,169.324 216.286,167.744 C216.286,164.953 217.624,160.967 215.625,158.973 C214.025,157.378 211.672,159.334 211.405,160.663 Z" id="Path" stroke="none" fill="#36415C" fill-rule="nonzero"></path>
            <path d="M89.143,259.352 C96.783,250.894 109.651,239.212 120.105,232.768 C128.097,227.841 151.525,221.287 162.598,218.605 C163.114,218.48 163.603,218.364 164.062,218.256 L166.503,206.542 C167.789,199.453 210.457,197.487 212.869,203.126 L216.207,214.642 C223.177,216.119 240.092,219.556 251.995,221.489 C266.872,223.906 288.232,235.546 292.607,234.782 C304.138,232.768 303.162,229.482 308.691,210.614 C310.038,206.017 310.97,195.039 311.104,190.071 C311.908,188.728 315.205,186.043 321.961,186.043 C328.716,186.043 332.013,190.877 332.817,193.293 C333.219,202.558 331.47,219.139 331.47,228.506 C331.47,238.329 326.043,255.024 321.359,261.303 C319.99,263.138 317.888,264.212 315.846,265.255 L315.691,265.333 C306.015,270.279 279.549,282.257 272.902,283.659 C268.047,284.683 259.801,290.492 257.284,297.325 C254.598,304.615 252.214,310.999 249.877,318.718 C248.547,323.11 247.974,327.688 247.974,332.276 L247.974,368.45 L247.974,396.382 C247.974,396.934 247.544,397.382 246.992,397.382 C215.61,397.374 157.419,396.999 138.77,397.359 C138.183,397.371 137.738,396.887 137.759,396.3 C138.235,382.753 135.149,319.954 131.766,308.091 C130.425,305.406 126.538,298.746 121.713,293.59 C118.496,298.424 87.534,316.952 71.048,325.411 C54.562,333.87 52.1498,325.814 46.1182,318.564 C40.0867,311.313 42.0972,298.021 43.7056,293.59 C44.9923,290.046 50.9435,272.779 53.7582,264.589 C54.6964,261.366 57.2638,257.781 64.984,256.815 C72.705,255.848 77.482,258.949 78.286,262.172 L76.037,275.867 C80.38,270.013 85.444,263.448 89.143,259.352 Z" id="Path" stroke="none" fill="#FFFFFF" fill-rule="nonzero"></path>
            <path d="M89.143,259.352 C96.783,250.894 109.651,239.212 120.105,232.768 C128.097,227.841 151.525,221.287 162.598,218.605 C163.114,218.48 163.603,218.364 164.062,218.256 L166.503,206.542 C167.789,199.453 210.457,197.487 212.869,203.126 L216.207,214.642 C223.177,216.119 240.092,219.556 251.995,221.489 C266.872,223.906 288.232,235.546 292.607,234.782 C304.138,232.768 303.162,229.482 308.691,210.614 C310.038,206.017 310.97,195.039 311.104,190.071 C311.908,188.728 315.205,186.043 321.961,186.043 C328.716,186.043 332.013,190.877 332.817,193.293 C333.219,202.558 331.47,219.139 331.47,228.506 C331.47,238.329 326.043,255.024 321.359,261.303 C319.99,263.138 317.888,264.212 315.846,265.255 L315.691,265.333 C306.015,270.279 279.549,282.257 272.902,283.659 C268.047,284.683 259.801,290.492 257.284,297.325 C254.598,304.615 252.214,310.999 249.877,318.718 C248.547,323.11 247.974,327.688 247.974,332.276 L247.974,368.45 L247.974,396.382 C247.974,396.934 247.544,397.382 246.992,397.382 C215.61,397.374 157.419,396.999 138.77,397.359 C138.183,397.371 137.738,396.887 137.759,396.3 C138.235,382.753 135.149,319.954 131.766,308.091 C130.425,305.406 126.538,298.746 121.713,293.59 C118.496,298.424 87.534,316.952 71.048,325.411 C54.562,333.87 52.1498,325.814 46.1182,318.564 C40.0867,311.313 42.0972,298.021 43.7056,293.59 C44.9923,290.046 50.9435,272.779 53.7582,264.589 C54.6964,261.366 57.2638,257.781 64.984,256.815 C72.705,255.848 77.482,258.949 78.286,262.172 L76.037,275.867 C80.38,270.013 85.444,263.448 89.143,259.352 Z" id="Path" stroke="none" fill-opacity="0.2" fill="url(#linearGradient-3)" fill-rule="nonzero"></path>
            <path d="M51.3184,272.432 C58.6394,264.135 72.793,266.576 76.698,270.48" id="Path" stroke="#E7EBF4" stroke-width="1" fill="none" opacity="0.3" stroke-linecap="round"></path>
            <path d="M75.721,275.85 C72.467,278.453 65.472,284.732 63.52,289.027" id="Path" stroke="#E7EBF4" stroke-width="1" fill="none" opacity="0.3" stroke-linecap="round"></path>
            <path d="M164.063,217.791 C173.173,215.514 190.907,211.911 216.286,214.351" id="Path" stroke="#E7EBF4" stroke-width="1" fill="none" opacity="0.3"></path>
            <path d="M310.972,199.221 C315.69,196.943 324.149,194.828 332.935,202.15" id="Path" stroke="#E7EBF4" stroke-width="1" fill="none" stroke-linecap="round"></path>
            <rect id="Rectangle" stroke="none" fill="url(#radialGradient-4)" fill-rule="nonzero" opacity="0.4" x="180.656" y="0.5723" width="212.798" height="238.183"></rect>
            <polygon id="Path" stroke="none" fill="url(#radialGradient-5)" fill-rule="nonzero" points="80.113 177.258 315.363 177.258 315.363 482.796 80.113 482.796"></polygon>
            <rect id="Rectangle" stroke="none" fill="url(#radialGradient-6)" fill-rule="nonzero" opacity="0.3" transform="translate(63.864708, 228.952939) rotate(-23.063516) translate(-63.864708, -228.952939) " x="11.1531954" y="189.906644" width="105.423025" height="78.0925908"></rect>
          </g>
        </g>
      </g>
    </g>
  </g>
</svg>
