<?xml version="1.0" encoding="UTF-8"?>
<svg width="165px" height="129px" viewBox="0 0 165 129" version="1.1"
  xmlns="http://www.w3.org/2000/svg"
  xmlns:xlink="http://www.w3.org/1999/xlink">
  <!-- Generator: Sketch 63.1 (92452) - https://sketch.com -->
  <g id="Page-1" stroke="none" stroke-width="1" fill="none" fill-rule="evenodd">
    <g id="illustration_reg-cta">
      <rect id="Rectangle" fill="#FFFFFF" fill-rule="nonzero" x="58.0879" y="115" width="17.5266" height="14" rx="5.25"></rect>
      <rect id="Rectangle" fill="#FFFFFF" fill-rule="nonzero" x="0" y="3" width="28.0425" height="21" rx="5.25"></rect>
      <rect id="Rectangle" fill="#FFFFFF" fill-rule="nonzero" x="143.968" y="57.25" width="21.0319" height="15.75" rx="5.25"></rect>
      <rect id="Rectangle" fill="#D1D7E4" fill-rule="nonzero" x="66.4775" y="87" width="21.0319" height="8.75"></rect>
      <rect id="Rectangle" fill="#E7EBF4" fill-rule="nonzero" x="34.0518" y="31" width="85.8801" height="60.375" rx="8.47368"></rect>
      <rect id="Rectangle" fill="#E7EBF4" fill-rule="nonzero" x="62.0947" y="95.75" width="28.9188" height="2.625" rx="1.3125"></rect>
      <path d="M37.0557,39.9803 C37.0557,36.4703 39.901,33.625 43.4109,33.625 L111.323,33.625 C114.832,33.625 117.678,36.4703 117.678,39.9803 L117.678,81.5658 C117.678,82.1508 117.204,82.625 116.619,82.625 L38.1149,82.625 C37.5299,82.625 37.0557,82.1508 37.0557,81.5658 L37.0557,39.9803 Z" id="Path" fill="#FFFFFF" fill-rule="nonzero"></path>
      <path d="M37.0557,57.5625 L38.032,57.5625 C38.3774,57.5625 38.7175,57.6469 39.0228,57.8085 L42.7308,59.7704 C43.6588,60.2614 44.8065,59.9986 45.4283,59.1527 L48.9741,54.3295 C49.8485,53.1401 51.6408,53.1873 52.4514,54.4211 L57.6193,62.2867 C58.4593,63.5651 60.3357,63.5592 61.1676,62.2755 L64.2218,57.5625 L70.5823,49.1078 C71.2601,48.2067 72.525,47.9946 73.4598,48.6251 L80.736,53.5335 C80.827,53.5944 80.912,53.6622 80.992,53.7363 L86.859,59.1755 C86.957,59.2666 87.064,59.3482 87.177,59.4192 L91.81,62.31 C92.949,63.0209 94.453,62.5063 94.918,61.2468 L97.306,54.7821 C97.818,53.3953 99.574,52.9711 100.663,53.971 L100.663,53.971 C101.673,54.8983 103.288,54.6113 103.917,53.3928 L104.92,51.4475 C105.737,49.8636 108.026,49.9352 108.743,51.5671 L111.527,57.9079 C112.24,59.5333 114.517,59.6127 115.342,58.041 L116.211,56.3867 C116.497,55.8415 117.062,55.5 117.678,55.5 L117.678,55.5" id="Path" stroke="#18DCA6" stroke-width="2.11842"></path>
      <ellipse id="Oval" fill="#18DCA6" fill-rule="nonzero" cx="77.8676" cy="59.75" rx="15.7739" ry="15.75"></ellipse>
      <ellipse id="Oval" fill="#18DCA6" fill-rule="nonzero" cx="132.141" cy="11.9414" rx="11.9595" ry="11.9414"></ellipse>
      <path d="M135.182,13.1041 C134.838,12.902 134.447,12.841 134.062,12.8269 C133.74,12.8175 133.258,12.6014 133.258,12 C133.258,11.5537 133.612,11.1919 134.066,11.1731 C134.452,11.159 134.842,11.098 135.187,10.8959 C135.82,10.5248 136.206,9.8342 136.206,9.0872 C136.206,8.3401 135.816,7.6495 135.187,7.2784 C134.553,6.9072 133.777,6.9072 133.148,7.2784 C132.514,7.6495 132.129,8.3401 132.129,9.0872 C132.129,9.4912 132.271,9.8623 132.45,10.21 C132.601,10.5013 132.675,11.0416 132.161,11.347 C131.775,11.5725 131.293,11.4315 131.054,11.0369 C130.852,10.7033 130.609,10.3932 130.264,10.1912 C129.631,9.8201 128.855,9.8201 128.226,10.1912 C127.583,10.5624 127.192,11.253 127.192,12 C127.192,12.747 127.583,13.4376 128.212,13.8088 C128.845,14.1799 129.621,14.1799 130.251,13.8088 C130.595,13.6068 130.838,13.2967 131.04,12.9631 C131.206,12.6906 131.623,12.343 132.147,12.653 C132.533,12.8786 132.652,13.3766 132.436,13.79 C132.257,14.133 132.115,14.5088 132.115,14.9128 C132.115,15.6599 132.505,16.3505 133.134,16.7216 C133.768,17.0928 134.544,17.0928 135.173,16.7216 C135.807,16.3505 136.192,15.6599 136.192,14.9128 C136.201,14.1658 135.811,13.4752 135.182,13.1041 Z" id="Path" fill="#FFFFFF" fill-rule="nonzero"></path>
      <ellipse id="Oval" fill="#18DCA6" fill-rule="nonzero" cx="9.0137" cy="92" rx="9.01366" ry="9"></ellipse>
      <polygon id="Path" fill="#FFFFFF" fill-rule="nonzero" points="8.6278 93.624 9.0563 91.912 10.0707 91.519 10.3231 90.513 10.3145 90.488 9.3159 90.875 10.0354 88 7.9949 88 7.054 91.752 6.2684 92.056 6.0088 93.093 6.7938 92.789 6.2392 95 11.6698 95 12.0179 93.624"></polygon>
      <ellipse id="Oval" fill="#18DCA6" fill-rule="nonzero" cx="144.719" cy="103.5" rx="5.50835" ry="5.5"></ellipse>
      <path d="M143.66,101.285 C143.66,101.125 143.79,100.996 143.949,100.996 C144.109,100.996 144.238,101.125 144.238,101.285 L144.238,101.575 L144.817,101.575 L144.817,101.285 C144.817,101.125 144.946,100.996 145.106,100.996 C145.265,100.996 145.395,101.125 145.395,101.285 L145.395,101.614 C145.63,101.657 145.824,101.734 145.978,101.845 C146.227,102.021 146.352,102.265 146.352,102.577 C146.352,102.768 146.308,102.936 146.218,103.083 C146.129,103.23 146.006,103.344 145.85,103.424 C146.066,103.494 146.237,103.612 146.363,103.777 C146.49,103.938 146.553,104.14 146.553,104.382 C146.553,104.716 146.423,104.975 146.162,105.158 C145.971,105.291 145.715,105.374 145.395,105.409 L145.395,105.716 C145.395,105.876 145.265,106.005 145.106,106.005 C144.946,106.005 144.817,105.876 144.817,105.716 L144.817,105.428 L144.238,105.428 L144.238,105.716 C144.238,105.876 144.109,106.005 143.949,106.005 C143.79,106.005 143.66,105.876 143.66,105.716 L143.66,105.428 L143.08,105.428 L143.08,105.428 L142.984,105.428 C142.825,105.428 142.695,105.298 142.695,105.139 C142.695,104.979 142.825,104.85 142.984,104.85 L143.08,104.85 L143.08,102.153 L142.984,102.153 C142.825,102.153 142.695,102.023 142.695,101.864 C142.695,101.704 142.825,101.575 142.984,101.575 L143.08,101.575 L143.371,101.575 L143.66,101.575 L143.66,101.285 Z M143.806,102.136 L143.806,103.199 L144.833,103.199 C145.086,103.199 145.28,103.155 145.414,103.067 C145.552,102.975 145.621,102.843 145.621,102.67 C145.621,102.494 145.552,102.362 145.414,102.274 C145.28,102.182 145.086,102.136 144.833,102.136 L143.806,102.136 Z M144.978,104.867 C145.541,104.867 145.822,104.681 145.822,104.311 C145.822,103.94 145.541,103.755 144.978,103.755 L143.806,103.755 L143.806,104.867 L144.978,104.867 Z" id="Shape" fill="#FFFFFF"></path>
      <path d="M74.8722,53.4089 C74.8722,52.9512 75.2433,52.5801 75.7011,52.5801 C76.1588,52.5801 76.5299,52.9512 76.5299,53.4089 L76.5299,54.2344 L78.1858,54.2344 L78.1858,53.4089 C78.1858,52.9512 78.5569,52.5801 79.015,52.5801 C79.472,52.5801 79.844,52.9512 79.844,53.4089 L79.844,54.3476 C80.516,54.4693 81.072,54.689 81.513,55.0068 C82.227,55.5112 82.584,56.2101 82.584,57.1034 C82.584,57.6499 82.456,58.1333 82.2,58.5536 C81.945,58.974 81.593,59.2998 81.145,59.531 C81.763,59.7307 82.254,60.067 82.616,60.5399 C82.979,61.0023 83.16,61.5803 83.16,62.2739 C83.16,63.2302 82.787,63.9711 82.041,64.4966 C81.492,64.8749 80.76,65.1142 79.844,65.2146 L79.844,66.0968 C79.844,66.5546 79.472,66.9257 79.015,66.9257 C78.5569,66.9257 78.1858,66.5546 78.1858,66.0968 L78.1858,65.269 L76.5299,65.269 L76.5299,66.0968 C76.5299,66.5546 76.1588,66.9257 75.7011,66.9257 C75.2433,66.9257 74.8722,66.5546 74.8722,66.0968 L74.8722,65.269 L74.1143,65.269 C74.0913,65.2709 74.0681,65.2719 74.0446,65.2719 L72.937,65.2719 C72.4799,65.2719 72.1094,64.9014 72.1094,64.4443 C72.1094,63.9872 72.4799,63.6167 72.937,63.6167 L73.2137,63.6167 L73.2137,55.8896 L72.937,55.8896 C72.4799,55.8896 72.1094,55.519 72.1094,55.062 C72.1094,54.6049 72.4799,54.2344 72.937,54.2344 L73.2137,54.2344 L74.0446,54.2344 L74.8722,54.2344 L74.8722,53.4089 Z M75.2925,55.8423 L75.2925,58.8847 L78.2348,58.8847 C78.9597,58.8847 79.514,58.7586 79.898,58.5064 C80.292,58.2436 80.489,57.8653 80.489,57.3714 C80.489,56.8669 80.292,56.4886 79.898,56.2364 C79.514,55.9736 78.9597,55.8423 78.2348,55.8423 L75.2925,55.8423 Z M78.6506,63.6611 C80.26,63.6611 81.065,63.1304 81.065,62.069 C81.065,61.0075 80.26,60.4768 78.6506,60.4768 L75.2925,60.4768 L75.2925,63.6611 L78.6506,63.6611 Z" id="Shape" fill="#FFFFFF"></path>
    </g>
  </g>
</svg>
