<svg width="277" height="224" viewBox="0 0 277 224" fill="none" xmlns="http://www.w3.org/2000/svg">
<g clip-path="url(#clip0)">
<rect x="54.3242" y="153.103" width="75.8131" height="51.8441" rx="3.38897" fill="#E7EBF4"/>
<path d="M56.7422 157.228C56.7422 156.292 57.5008 155.533 58.4367 155.533H126.022C126.957 155.533 127.716 156.292 127.716 157.228V197.619C127.716 198.087 127.337 198.467 126.869 198.467H57.5894C57.1215 198.467 56.7422 198.087 56.7422 197.619V157.228Z" fill="white"/>
<path d="M50.291 203.098C50.291 202.719 50.5981 202.412 50.9769 202.412H133.483C133.862 202.412 134.169 202.719 134.169 203.098C134.169 204.108 133.35 204.927 132.34 204.927H52.12C51.1099 204.927 50.291 204.108 50.291 203.098Z" fill="#D1D7E4"/>
<rect x="195.707" width="51.4007" height="34.6998" rx="3.38897" fill="#E7EBF4"/>
<path d="M197.393 3.38687C197.393 2.45103 198.151 1.69238 199.087 1.69238H243.728C244.664 1.69238 245.423 2.45103 245.423 3.38687V29.6205C245.423 30.0884 245.043 30.4678 244.575 30.4678H198.24C197.772 30.4678 197.393 30.0884 197.393 29.6205V3.38687Z" fill="white"/>
<path fill-rule="evenodd" clip-rule="evenodd" d="M212.644 13.0847C212.158 12.5925 211.334 12.6763 210.96 13.256L206.378 20.3544C205.571 21.6045 203.843 21.8851 202.673 20.9561L200.257 19.0376C200.065 18.8853 199.826 18.8022 199.58 18.8022H198.973V17.3804H199.58C200.155 17.3804 200.712 17.5742 201.16 17.9297L203.576 19.8482C204.077 20.2464 204.818 20.1261 205.164 19.5903L209.745 12.4919C210.619 11.1392 212.541 10.9436 213.675 12.0921L218.244 16.7187C218.557 17.0353 219.035 17.1285 219.446 16.953L223.812 15.089C224.785 14.674 225.916 14.9034 226.644 15.6632L231.685 20.9262C232.168 21.43 233.001 21.3522 233.38 20.7679L237.739 14.0358C238.599 12.7082 240.476 12.4939 241.62 13.5927L245.249 17.0783C245.45 17.272 245.72 17.3804 246.002 17.3804H247.577V18.8022H246.002C245.345 18.8022 244.715 18.5493 244.244 18.0973L240.616 14.6117C240.126 14.1408 239.321 14.2326 238.953 14.8016L234.593 21.5337C233.71 22.8971 231.765 23.0788 230.639 21.9031L225.597 16.6401C225.285 16.3145 224.801 16.2161 224.384 16.394L220.018 18.258C219.059 18.6676 217.943 18.45 217.213 17.7112L212.644 13.0847Z" fill="#18DCA6"/>
<path d="M193.18 33.4685C193.18 33.2135 193.386 33.0068 193.641 33.0068H249.175C249.43 33.0068 249.636 33.2135 249.636 33.4685C249.636 34.1484 249.085 34.6995 248.405 34.6995H194.411C193.731 34.6995 193.18 34.1484 193.18 33.4685Z" fill="#D1D7E4"/>
<g filter="url(#filter0_d)">
<rect x="28" y="73" width="21.7945" height="16.4179" rx="5.25" fill="white"/>
</g>
<g filter="url(#filter1_d)">
<rect x="216" y="155" width="29.0593" height="21.8905" rx="5.25" fill="white"/>
</g>
<rect x="123.967" y="133.718" width="31.0042" height="5.36895" fill="#D1D7E4"/>
<path fill-rule="evenodd" clip-rule="evenodd" d="M88.6065 51.0342C83.9266 51.0342 80.1328 54.828 80.1328 59.5079V125.244C80.1328 129.924 83.9266 133.717 88.6065 133.717H189.411C194.091 133.717 197.885 129.924 197.885 125.244V59.5079C197.885 54.828 194.091 51.0342 189.411 51.0342H88.6065ZM120.818 139.086C119.632 139.086 118.67 140.048 118.67 141.234C118.67 142.42 119.632 143.382 120.818 143.382H158.271C159.457 143.382 160.419 142.42 160.419 141.234C160.419 140.048 159.457 139.086 158.271 139.086H120.818Z" fill="#E7EBF4"/>
<path d="M84.9727 61.4402C84.9727 57.9303 87.818 55.085 91.3279 55.085H187.498C191.008 55.085 193.853 57.9303 193.853 61.4402V122.071C193.853 122.656 193.379 123.13 192.794 123.13H86.0319C85.4469 123.13 84.9727 122.656 84.9727 122.071V61.4402Z" fill="white"/>
<path d="M193.179 91.5372H190.022C188.719 91.5372 187.468 91.029 186.535 90.1207L179.482 83.2585C177.213 81.0503 173.488 81.4809 171.783 84.1487L163.256 97.4855C161.505 100.225 157.645 100.59 155.411 98.2278L145.36 87.5997C143.916 86.0728 141.671 85.6118 139.743 86.4459L131.129 90.1705C129.226 90.9935 127.012 90.5564 125.565 89.0717L116.578 79.8542C114.328 77.5462 110.514 77.9393 108.781 80.6577L99.6862 94.93C98.0854 97.442 94.657 98.006 92.3359 96.1391L87.9866 92.641C87.0984 91.9267 85.9927 91.5372 84.8529 91.5372H83.8203" stroke="#18DCA6" stroke-width="4"/>
<path fill-rule="evenodd" clip-rule="evenodd" d="M77.9499 171.795C77.237 171.092 76.0286 171.212 75.4798 172.04L68.7598 182.18C67.5764 183.966 65.042 184.367 63.3261 183.04L59.7824 180.299C59.501 180.081 59.1507 179.963 58.7896 179.963H57.8984V177.932H58.7896C59.6322 177.932 60.4496 178.209 61.1062 178.716L64.6498 181.457C65.3852 182.026 66.4714 181.854 66.9786 181.089L73.6985 170.948C74.9792 169.016 77.7987 168.736 79.4623 170.377L86.1635 176.986C86.6221 177.439 87.3235 177.572 87.9265 177.321L94.33 174.658C95.7559 174.065 97.4152 174.393 98.4827 175.479L105.877 182.997C106.584 183.717 107.807 183.606 108.362 182.771L114.756 173.154C116.017 171.257 118.77 170.951 120.448 172.521L125.77 177.5C126.065 177.777 126.462 177.932 126.874 177.932H129.184V179.963H126.874C125.912 179.963 124.987 179.602 124.297 178.956L118.975 173.976C118.256 173.304 117.076 173.435 116.536 174.248L110.142 183.865C108.847 185.813 105.994 186.072 104.342 184.393L96.9481 176.874C96.4906 176.409 95.7794 176.268 95.1683 176.523L88.7648 179.185C87.3579 179.77 85.7213 179.46 84.6512 178.404L77.9499 171.795Z" fill="#18DCA6"/>
<path d="M182.648 133.66V155.854C182.648 170.851 170.425 182.975 155.428 182.853L132.424 182.666" stroke="#18DCA6" stroke-width="2" stroke-linecap="round" stroke-dasharray="3 6"/>
<path d="M105.693 50.2236L105.693 44.095C105.693 29.1506 117.833 17.0487 132.777 17.0952L193.99 17.2855" stroke="#18DCA6" stroke-width="2" stroke-linecap="round" stroke-dasharray="3 6"/>
<g filter="url(#filter2_d)">
<rect x="115" y="17" width="18.55" height="13.7711" rx="5.25" fill="white"/>
</g>
</g>
<defs>
<filter id="filter0_d" x="7" y="55.5" width="63.7945" height="58.4179" filterUnits="userSpaceOnUse" color-interpolation-filters="sRGB">
<feFlood flood-opacity="0" result="BackgroundImageFix"/>
<feColorMatrix in="SourceAlpha" type="matrix" values="0 0 0 0 0 0 0 0 0 0 0 0 0 0 0 0 0 0 127 0"/>
<feOffset dy="3.5"/>
<feGaussianBlur stdDeviation="10.5"/>
<feColorMatrix type="matrix" values="0 0 0 0 0.0627451 0 0 0 0 0.152941 0 0 0 0 0.396078 0 0 0 0.11 0"/>
<feBlend mode="normal" in2="BackgroundImageFix" result="effect1_dropShadow"/>
<feBlend mode="normal" in="SourceGraphic" in2="effect1_dropShadow" result="shape"/>
</filter>
<filter id="filter1_d" x="195" y="137.5" width="71.0593" height="63.8905" filterUnits="userSpaceOnUse" color-interpolation-filters="sRGB">
<feFlood flood-opacity="0" result="BackgroundImageFix"/>
<feColorMatrix in="SourceAlpha" type="matrix" values="0 0 0 0 0 0 0 0 0 0 0 0 0 0 0 0 0 0 127 0"/>
<feOffset dy="3.5"/>
<feGaussianBlur stdDeviation="10.5"/>
<feColorMatrix type="matrix" values="0 0 0 0 0.0627451 0 0 0 0 0.152941 0 0 0 0 0.396078 0 0 0 0.11 0"/>
<feBlend mode="normal" in2="BackgroundImageFix" result="effect1_dropShadow"/>
<feBlend mode="normal" in="SourceGraphic" in2="effect1_dropShadow" result="shape"/>
</filter>
<filter id="filter2_d" x="94" y="-0.5" width="60.55" height="55.7711" filterUnits="userSpaceOnUse" color-interpolation-filters="sRGB">
<feFlood flood-opacity="0" result="BackgroundImageFix"/>
<feColorMatrix in="SourceAlpha" type="matrix" values="0 0 0 0 0 0 0 0 0 0 0 0 0 0 0 0 0 0 127 0"/>
<feOffset dy="3.5"/>
<feGaussianBlur stdDeviation="10.5"/>
<feColorMatrix type="matrix" values="0 0 0 0 0.0627451 0 0 0 0 0.152941 0 0 0 0 0.396078 0 0 0 0.11 0"/>
<feBlend mode="normal" in2="BackgroundImageFix" result="effect1_dropShadow"/>
<feBlend mode="normal" in="SourceGraphic" in2="effect1_dropShadow" result="shape"/>
</filter>
<clipPath id="clip0">
<rect width="277" height="224" fill="white"/>
</clipPath>
</defs>
</svg>
