<svg width="136" height="130" viewBox="0 0 136 130" fill="none" xmlns="http://www.w3.org/2000/svg">
<g filter="url(#filter0_d)">
<rect x="15.0002" y="30.123" width="38" height="32.64" rx="5" fill="white"/>
</g>
<g filter="url(#filter1_d)">
<rect x="59.0002" y="72" width="55" height="44" rx="5" fill="white"/>
</g>
<g filter="url(#filter2_d)">
<path d="M89.0002 19C89.0002 16.2386 91.2388 14 94.0002 14H117C119.762 14 122 16.2386 122 19V37C122 39.7614 119.762 42 117 42H94.0002C91.2388 42 89.0002 39.7614 89.0002 37V19Z" fill="white"/>
</g>
<g filter="url(#filter3_d)">
<rect x="31.0002" y="10" width="15.4375" height="13.1815" rx="5" fill="white"/>
</g>
<g filter="url(#filter4_d)">
<rect x="36.0002" y="76" width="11" height="9" rx="2" fill="white"/>
</g>
<g filter="url(#filter5_d)">
<rect x="64.0002" y="40" width="18.4062" height="15.6923" rx="5" fill="white"/>
</g>
<path d="M29.3602 42.48C30.5122 42.48 31.4042 42.84 32.0362 43.56C32.6762 44.28 32.9962 45.312 32.9962 46.656C32.9962 47.6 32.8242 48.408 32.4802 49.08C32.1362 49.744 31.6522 50.252 31.0282 50.604C30.4122 50.948 29.6962 51.12 28.8802 51.12C28.4482 51.12 28.0402 51.076 27.6562 50.988C27.2802 50.892 26.9522 50.756 26.6722 50.58L27.2482 49.404C27.6642 49.676 28.1962 49.812 28.8442 49.812C29.6522 49.812 30.2842 49.564 30.7402 49.068C31.1962 48.572 31.4242 47.856 31.4242 46.92V46.908C31.1762 47.196 30.8602 47.416 30.4762 47.568C30.0922 47.712 29.6602 47.784 29.1802 47.784C28.6282 47.784 28.1322 47.68 27.6922 47.472C27.2522 47.256 26.9082 46.952 26.6602 46.56C26.4122 46.168 26.2882 45.716 26.2882 45.204C26.2882 44.66 26.4242 44.184 26.6962 43.776C26.9682 43.36 27.3362 43.04 27.8002 42.816C28.2642 42.592 28.7842 42.48 29.3602 42.48ZM29.4802 46.56C29.9842 46.56 30.3922 46.424 30.7042 46.152C31.0242 45.88 31.1842 45.536 31.1842 45.12C31.1842 44.712 31.0282 44.376 30.7162 44.112C30.4122 43.84 29.9882 43.704 29.4442 43.704C28.9562 43.704 28.5602 43.836 28.2562 44.1C27.9522 44.356 27.8002 44.7 27.8002 45.132C27.8002 45.572 27.9522 45.92 28.2562 46.176C28.5602 46.432 28.9682 46.56 29.4802 46.56ZM35.9237 47.124C35.3237 47.124 34.8397 46.912 34.4717 46.488C34.1037 46.064 33.9197 45.508 33.9197 44.82C33.9197 44.132 34.1037 43.576 34.4717 43.152C34.8397 42.728 35.3237 42.516 35.9237 42.516C36.5237 42.516 37.0077 42.728 37.3757 43.152C37.7517 43.568 37.9397 44.124 37.9397 44.82C37.9397 45.516 37.7517 46.076 37.3757 46.5C37.0077 46.916 36.5237 47.124 35.9237 47.124ZM40.9637 42.6H42.1397L36.4037 51H35.2277L40.9637 42.6ZM35.9237 46.284C36.2517 46.284 36.5037 46.156 36.6797 45.9C36.8637 45.644 36.9557 45.284 36.9557 44.82C36.9557 44.356 36.8637 43.996 36.6797 43.74C36.5037 43.484 36.2517 43.356 35.9237 43.356C35.6117 43.356 35.3597 43.488 35.1677 43.752C34.9837 44.008 34.8917 44.364 34.8917 44.82C34.8917 45.276 34.9837 45.636 35.1677 45.9C35.3597 46.156 35.6117 46.284 35.9237 46.284ZM41.4317 51.084C40.8317 51.084 40.3477 50.872 39.9797 50.448C39.6117 50.024 39.4277 49.468 39.4277 48.78C39.4277 48.092 39.6117 47.536 39.9797 47.112C40.3477 46.688 40.8317 46.476 41.4317 46.476C42.0317 46.476 42.5157 46.688 42.8837 47.112C43.2597 47.536 43.4477 48.092 43.4477 48.78C43.4477 49.468 43.2597 50.024 42.8837 50.448C42.5157 50.872 42.0317 51.084 41.4317 51.084ZM41.4317 50.244C41.7517 50.244 42.0037 50.116 42.1877 49.86C42.3717 49.596 42.4637 49.236 42.4637 48.78C42.4637 48.324 42.3717 47.968 42.1877 47.712C42.0037 47.448 41.7517 47.316 41.4317 47.316C41.1117 47.316 40.8597 47.444 40.6757 47.7C40.4917 47.956 40.3997 48.316 40.3997 48.78C40.3997 49.244 40.4917 49.604 40.6757 49.86C40.8597 50.116 41.1117 50.244 41.4317 50.244Z" fill="#D1D7E4"/>
<path d="M103.72 24V24.87L101 31H99.6102L102.24 25.1H99.4902V26.29H98.2802V24H103.72ZM106.133 27.77C105.633 27.77 105.23 27.5933 104.923 27.24C104.616 26.8867 104.463 26.4233 104.463 25.85C104.463 25.2767 104.616 24.8133 104.923 24.46C105.23 24.1067 105.633 23.93 106.133 23.93C106.633 23.93 107.036 24.1067 107.343 24.46C107.656 24.8067 107.813 25.27 107.813 25.85C107.813 26.43 107.656 26.8967 107.343 27.25C107.036 27.5967 106.633 27.77 106.133 27.77ZM110.333 24H111.313L106.533 31H105.553L110.333 24ZM106.133 27.07C106.406 27.07 106.616 26.9633 106.763 26.75C106.916 26.5367 106.993 26.2367 106.993 25.85C106.993 25.4633 106.916 25.1633 106.763 24.95C106.616 24.7367 106.406 24.63 106.133 24.63C105.873 24.63 105.663 24.74 105.503 24.96C105.35 25.1733 105.273 25.47 105.273 25.85C105.273 26.23 105.35 26.53 105.503 26.75C105.663 26.9633 105.873 27.07 106.133 27.07ZM110.723 31.07C110.223 31.07 109.82 30.8933 109.513 30.54C109.206 30.1867 109.053 29.7233 109.053 29.15C109.053 28.5767 109.206 28.1133 109.513 27.76C109.82 27.4067 110.223 27.23 110.723 27.23C111.223 27.23 111.626 27.4067 111.933 27.76C112.246 28.1133 112.403 28.5767 112.403 29.15C112.403 29.7233 112.246 30.1867 111.933 30.54C111.626 30.8933 111.223 31.07 110.723 31.07ZM110.723 30.37C110.99 30.37 111.2 30.2633 111.353 30.05C111.506 29.83 111.583 29.53 111.583 29.15C111.583 28.77 111.506 28.4733 111.353 28.26C111.2 28.04 110.99 27.93 110.723 27.93C110.456 27.93 110.246 28.0367 110.093 28.25C109.94 28.4633 109.863 28.7633 109.863 29.15C109.863 29.5367 109.94 29.8367 110.093 30.05C110.246 30.2633 110.456 30.37 110.723 30.37Z" fill="#D1D7E4"/>
<path d="M77.5762 87.8V99H75.4962V89.544H73.1282V87.8H77.5762ZM87.91 97.24V99H79.654V97.608L84.102 93.384C84.6033 92.904 84.9393 92.488 85.11 92.136C85.2913 91.7733 85.382 91.416 85.382 91.064C85.382 90.5413 85.206 90.1413 84.854 89.864C84.502 89.5867 83.9847 89.448 83.302 89.448C82.1607 89.448 81.286 89.8373 80.678 90.616L79.222 89.496C79.6593 88.9093 80.246 88.456 80.982 88.136C81.7287 87.8053 82.5607 87.64 83.478 87.64C84.694 87.64 85.6647 87.928 86.39 88.504C87.1153 89.08 87.478 89.864 87.478 90.856C87.478 91.464 87.35 92.0347 87.094 92.568C86.838 93.1013 86.3473 93.7093 85.622 94.392L82.63 97.24H87.91ZM91.7627 93.832C90.9627 93.832 90.3174 93.5493 89.8267 92.984C89.3361 92.4187 89.0907 91.6773 89.0907 90.76C89.0907 89.8427 89.3361 89.1013 89.8267 88.536C90.3174 87.9707 90.9627 87.688 91.7627 87.688C92.5627 87.688 93.2081 87.9707 93.6987 88.536C94.2001 89.0907 94.4507 89.832 94.4507 90.76C94.4507 91.688 94.2001 92.4347 93.6987 93C93.2081 93.5547 92.5627 93.832 91.7627 93.832ZM98.4827 87.8H100.051L92.4027 99H90.8347L98.4827 87.8ZM91.7627 92.712C92.2001 92.712 92.5361 92.5413 92.7707 92.2C93.0161 91.8587 93.1387 91.3787 93.1387 90.76C93.1387 90.1413 93.0161 89.6613 92.7707 89.32C92.5361 88.9787 92.2001 88.808 91.7627 88.808C91.3467 88.808 91.0107 88.984 90.7547 89.336C90.5094 89.6773 90.3867 90.152 90.3867 90.76C90.3867 91.368 90.5094 91.848 90.7547 92.2C91.0107 92.5413 91.3467 92.712 91.7627 92.712ZM99.1067 99.112C98.3067 99.112 97.6614 98.8293 97.1707 98.264C96.6801 97.6987 96.4347 96.9573 96.4347 96.04C96.4347 95.1227 96.6801 94.3813 97.1707 93.816C97.6614 93.2507 98.3067 92.968 99.1067 92.968C99.9067 92.968 100.552 93.2507 101.043 93.816C101.544 94.3813 101.795 95.1227 101.795 96.04C101.795 96.9573 101.544 97.6987 101.043 98.264C100.552 98.8293 99.9067 99.112 99.1067 99.112ZM99.1067 97.992C99.5334 97.992 99.8694 97.8213 100.115 97.48C100.36 97.128 100.483 96.648 100.483 96.04C100.483 95.432 100.36 94.9573 100.115 94.616C99.8694 94.264 99.5334 94.088 99.1067 94.088C98.6801 94.088 98.3441 94.2587 98.0987 94.6C97.8534 94.9413 97.7307 95.4213 97.7307 96.04C97.7307 96.6587 97.8534 97.1387 98.0987 97.48C98.3441 97.8213 98.6801 97.992 99.1067 97.992Z" fill="#18DCA6"/>
<defs>
<filter id="filter0_d" x="3.00024" y="20.123" width="62" height="56.64" filterUnits="userSpaceOnUse" color-interpolation-filters="sRGB">
<feFlood flood-opacity="0" result="BackgroundImageFix"/>
<feColorMatrix in="SourceAlpha" type="matrix" values="0 0 0 0 0 0 0 0 0 0 0 0 0 0 0 0 0 0 127 0"/>
<feOffset dy="2"/>
<feGaussianBlur stdDeviation="6"/>
<feColorMatrix type="matrix" values="0 0 0 0 0.0627451 0 0 0 0 0.152941 0 0 0 0 0.396078 0 0 0 0.11 0"/>
<feBlend mode="normal" in2="BackgroundImageFix" result="effect1_dropShadow"/>
<feBlend mode="normal" in="SourceGraphic" in2="effect1_dropShadow" result="shape"/>
</filter>
<filter id="filter1_d" x="47.0002" y="62" width="79" height="68" filterUnits="userSpaceOnUse" color-interpolation-filters="sRGB">
<feFlood flood-opacity="0" result="BackgroundImageFix"/>
<feColorMatrix in="SourceAlpha" type="matrix" values="0 0 0 0 0 0 0 0 0 0 0 0 0 0 0 0 0 0 127 0"/>
<feOffset dy="2"/>
<feGaussianBlur stdDeviation="6"/>
<feColorMatrix type="matrix" values="0 0 0 0 0.0627451 0 0 0 0 0.152941 0 0 0 0 0.396078 0 0 0 0.11 0"/>
<feBlend mode="normal" in2="BackgroundImageFix" result="effect1_dropShadow"/>
<feBlend mode="normal" in="SourceGraphic" in2="effect1_dropShadow" result="shape"/>
</filter>
<filter id="filter2_d" x="77.0002" y="4" width="57" height="52" filterUnits="userSpaceOnUse" color-interpolation-filters="sRGB">
<feFlood flood-opacity="0" result="BackgroundImageFix"/>
<feColorMatrix in="SourceAlpha" type="matrix" values="0 0 0 0 0 0 0 0 0 0 0 0 0 0 0 0 0 0 127 0"/>
<feOffset dy="2"/>
<feGaussianBlur stdDeviation="6"/>
<feColorMatrix type="matrix" values="0 0 0 0 0.0627451 0 0 0 0 0.152941 0 0 0 0 0.396078 0 0 0 0.11 0"/>
<feBlend mode="normal" in2="BackgroundImageFix" result="effect1_dropShadow"/>
<feBlend mode="normal" in="SourceGraphic" in2="effect1_dropShadow" result="shape"/>
</filter>
<filter id="filter3_d" x="19.0002" y="0" width="39.4375" height="37.1815" filterUnits="userSpaceOnUse" color-interpolation-filters="sRGB">
<feFlood flood-opacity="0" result="BackgroundImageFix"/>
<feColorMatrix in="SourceAlpha" type="matrix" values="0 0 0 0 0 0 0 0 0 0 0 0 0 0 0 0 0 0 127 0"/>
<feOffset dy="2"/>
<feGaussianBlur stdDeviation="6"/>
<feColorMatrix type="matrix" values="0 0 0 0 0.0627451 0 0 0 0 0.152941 0 0 0 0 0.396078 0 0 0 0.11 0"/>
<feBlend mode="normal" in2="BackgroundImageFix" result="effect1_dropShadow"/>
<feBlend mode="normal" in="SourceGraphic" in2="effect1_dropShadow" result="shape"/>
</filter>
<filter id="filter4_d" x="24.0002" y="66" width="35" height="33" filterUnits="userSpaceOnUse" color-interpolation-filters="sRGB">
<feFlood flood-opacity="0" result="BackgroundImageFix"/>
<feColorMatrix in="SourceAlpha" type="matrix" values="0 0 0 0 0 0 0 0 0 0 0 0 0 0 0 0 0 0 127 0"/>
<feOffset dy="2"/>
<feGaussianBlur stdDeviation="6"/>
<feColorMatrix type="matrix" values="0 0 0 0 0.0627451 0 0 0 0 0.152941 0 0 0 0 0.396078 0 0 0 0.11 0"/>
<feBlend mode="normal" in2="BackgroundImageFix" result="effect1_dropShadow"/>
<feBlend mode="normal" in="SourceGraphic" in2="effect1_dropShadow" result="shape"/>
</filter>
<filter id="filter5_d" x="52.0002" y="30" width="42.4062" height="39.6923" filterUnits="userSpaceOnUse" color-interpolation-filters="sRGB">
<feFlood flood-opacity="0" result="BackgroundImageFix"/>
<feColorMatrix in="SourceAlpha" type="matrix" values="0 0 0 0 0 0 0 0 0 0 0 0 0 0 0 0 0 0 127 0"/>
<feOffset dy="2"/>
<feGaussianBlur stdDeviation="6"/>
<feColorMatrix type="matrix" values="0 0 0 0 0.0627451 0 0 0 0 0.152941 0 0 0 0 0.396078 0 0 0 0.11 0"/>
<feBlend mode="normal" in2="BackgroundImageFix" result="effect1_dropShadow"/>
<feBlend mode="normal" in="SourceGraphic" in2="effect1_dropShadow" result="shape"/>
</filter>
</defs>
</svg>
