<svg viewBox="0 0 1366 133" preserveAspectRatio="none" fill="none" xmlns="http://www.w3.org/2000/svg">
  <path class="bg-waves__l-1" opacity="0.1" d="M0 132V28.3289C104.648 -1.85186 214.761 -8.01314 322.123 10.3047C522.435 44.4813 710.992 65.0395 911.172 26.5293C1111.35 -11.9808 1214.94 21.092 1366 33.3132V132H0Z">
    <animate attributeName="d" begin="0s" dur="6s" repeatCount="indefinite"
      from="M0 132V28.3289C104.648 -1.85186 214.761 -8.01314 322.123 10.3047C522.435 44.4813 710.992 65.0395 911.172 26.5293C1111.35 -11.9808 1214.94 21.092 1366 33.3132V132H0Z"
      to="M0 137V20C92.5 17 266.5 57 469 16C672.863 -25.276 777.82 66.5102 978 28C1178.18 -10.5102 1214.94 3.08348 1366 15.3047V137H0Z"
      values="M0 132V28.3289C104.648 -1.85186 214.761 -8.01314 322.123 10.3047C522.435 44.4813 710.992 65.0395 911.172 26.5293C1111.35 -11.9808 1214.94 21.092 1366 33.3132V132H0Z; M0 137V20C92.5 17 266.5 57 469 16C672.863 -25.276 777.82 66.5102 978 28C1178.18 -10.5102 1214.94 3.08348 1366 15.3047V137H0Z; M0 132V28.3289C104.648 -1.85186 214.761 -8.01314 322.123 10.3047C522.435 44.4813 710.992 65.0395 911.172 26.5293C1111.35 -11.9808 1214.94 21.092 1366 33.3132V132H0Z">
    </animate>
  </path>
  <path class="bg-waves__l-2" opacity="0.2" d="M1366 19.3571V46.2725V132H0V33.8117C56.2805 27.0462 115.191 27.7649 168.823 31.7539C298.647 41.4099 430.197 48.4265 558.013 23.7137C671.321 1.80589 780.73 -8.96395 893.131 28.4604C1045.75 79.2746 1210.87 39.9762 1366 19.3571Z">
    <animate attributeName="d" begin="0s" dur="9s" repeatCount="indefinite"
      from="M1366 19.3571V46.2725V132H0V33.8117C56.2805 27.0462 115.191 27.7649 168.823 31.7539C298.647 41.4099 430.197 48.4265 558.013 23.7137C671.321 1.80589 780.73 -8.96395 893.131 28.4604C1045.75 79.2746 1210.87 39.9762 1366 19.3571Z"
      to="M1366 39V51.2725V137H0V52.5C54.5 34 262.369 12.011 316 16C445.824 25.6559 608.494 51.1264 697 28.9999C831 -4.50006 985.833 -7.23359 1102 15.9999C1192 34 1244 39 1366 39Z"
      values="M1366 19.3571V46.2725V132H0V33.8117C56.2805 27.0462 115.191 27.7649 168.823 31.7539C298.647 41.4099 430.197 48.4265 558.013 23.7137C671.321 1.80589 780.73 -8.96395 893.131 28.4604C1045.75 79.2746 1210.87 39.9762 1366 19.3571Z; M1366 39V51.2725V137H0V52.5C54.5 34 262.369 12.011 316 16C445.824 25.6559 608.494 51.1264 697 28.9999C831 -4.50006 985.833 -7.23359 1102 15.9999C1192 34 1244 39 1366 39Z; M1366 19.3571V46.2725V132H0V33.8117C56.2805 27.0462 115.191 27.7649 168.823 31.7539C298.647 41.4099 430.197 48.4265 558.013 23.7137C671.321 1.80589 780.73 -8.96395 893.131 28.4604C1045.75 79.2746 1210.87 39.9762 1366 19.3571Z">
    </animate>
  </path>
  <!-- <path class="bg-waves__l-3" d="M1366 46.2725L1364.81 46.002C1329.05 37.9004 1292.5 33.8116 1255.83 33.8116C1130.98 33.8116 1035 84.5 891.437 56.5548C776 25.5 667.928 13.353 553 33.8116C449.185 52.292 358 71 243.388 51.2356C149.683 35.0765 82.3833 34.7723 0 44.2787V132.003H1366V46.2725Z">
    <animate attributeName="d" begin="0s" dur="10s" repeatCount="__indefinite"
      from="M1366 46.2725L1364.81 46.002C1329.05 37.9004 1292.5 33.8116 1255.83 33.8116C1130.98 33.8116 1035 84.5 891.437 56.5548C776 25.5 667.928 13.353 553 33.8116C449.185 52.292 358 71 243.388 51.2356C149.683 35.0765 82.3833 34.7723 0 44.2787V132.003H1366V46.2725Z"
      to="M1366 76.4999V71.4999C1366 63.9979 1366.17 47.1883 1366 43.9999C1341 43.9999 1222 62.987 1135 37C981.001 -9.00006 865.001 11 697.001 51.2724C564.912 82.9363 433.501 5.99998 249.001 37C169.83 50.3024 113.001 78 0.000732422 70V137.003H1366V76.4999Z"
      values="M1366 46.2725L1364.81 46.002C1329.05 37.9004 1292.5 33.8116 1255.83 33.8116C1130.98 33.8116 1035 84.5 891.437 56.5548C776 25.5 667.928 13.353 553 33.8116C449.185 52.292 358 71 243.388 51.2356C149.683 35.0765 82.3833 34.7723 0 44.2787V132.003H1366V46.2725Z; M1366 76.4999V71.4999C1366 63.9979 1366.17 47.1883 1366 43.9999C1341 43.9999 1222 62.987 1135 37C981.001 -9.00006 865.001 11 697.001 51.2724C564.912 82.9363 433.501 5.99998 249.001 37C169.83 50.3024 113.001 78 0.000732422 70V137.003H1366V76.4999Z; M1366 46.2725L1364.81 46.002C1329.05 37.9004 1292.5 33.8116 1255.83 33.8116C1130.98 33.8116 1035 84.5 891.437 56.5548C776 25.5 667.928 13.353 553 33.8116C449.185 52.292 358 71 243.388 51.2356C149.683 35.0765 82.3833 34.7723 0 44.2787V132.003H1366V46.2725Z">
    </animate>
  </path> -->
  <path class="bg-waves__l-3" d="M1366 46.2725L1364.81 46.002C1329.05 37.9004 1292.5 33.8116 1255.83 33.8116C1130.98 33.8116 1035 84.5 891.437 56.5548C776 25.5 667.928 13.353 553 33.8116C449.185 52.292 358 71 243.388 51.2356C149.683 35.0765 82.3833 34.7723 0 44.2787V132.003H1366V46.2725Z" />
</svg>
