<svg width="1366" height="133" viewBox="0 0 1366 133" fill="none" xmlns="http://www.w3.org/2000/svg">
<path opacity="0.1" fill-rule="evenodd" clip-rule="evenodd" d="M0 98.6897V85.7305L1.19373 86.0009C36.953 94.1026 73.5043 98.1913 110.17 98.1913C150.9 98.1913 191.473 93.1459 230.962 83.1705L236.839 81.6858C314.641 62.0321 395.838 59.9015 474.563 75.4481L526.955 85.7942C532.047 86.7997 537.146 87.7539 542.252 88.6567C541.731 88.7558 541.211 88.8554 540.691 88.9555L454.828 105.474C381.946 119.494 307.499 123.568 233.523 117.583L0 98.6897ZM831.542 85.4737L916.011 70.4372C984.772 58.197 1055.41 61.7291 1122.61 80.7674C1180.64 97.208 1241.33 102.11 1301.25 95.1964L1366 87.7242V103.674C1261.35 133.855 1151.24 140.016 1043.88 121.698L833.87 85.8674C833.094 85.735 832.318 85.6038 831.542 85.4737Z" fill="#0C2F8B"/>
<path opacity="0.2" fill-rule="evenodd" clip-rule="evenodd" d="M108.765 98.1894L0 112.646V85.7306L1.19373 86.001C36.4962 93.9992 72.5706 98.0863 108.765 98.1894ZM244.874 79.7214C321.648 70.993 399.458 79.1004 472.869 103.543C559.495 132.385 652.089 138.432 741.731 121.1L807.987 108.289C935.803 83.5766 1067.35 90.5932 1197.18 100.249C1250.81 104.238 1309.72 104.957 1366 98.1914V87.7243L1301.25 95.1966C1241.33 102.11 1180.64 97.2082 1122.61 80.7675C1055.41 61.7293 984.772 58.1971 916.011 70.4373L814.552 88.4982C719.349 105.446 621.823 104.529 526.955 85.7944L474.563 75.4482C398.544 60.436 320.22 61.9066 244.874 79.7214Z" fill="#17378C"/>
<path d="M0 85.7303L1.19367 86.0007C36.9531 94.1024 73.5043 98.1911 110.17 98.1911C150.9 98.1911 191.473 93.1457 230.962 83.1703L236.839 81.6856C314.642 62.0319 395.838 59.9013 474.563 75.4479L526.955 85.7941C621.823 104.528 719.349 105.445 814.552 88.4979L916.011 70.437C984.772 58.1968 1055.41 61.7289 1122.61 80.7672C1180.64 97.2078 1241.33 102.11 1301.25 95.1962L1366 87.724V-0.000167847H0V85.7303Z" fill="#041133"/>
</svg>
