<svg width="1366" height="133" viewBox="0 0 1366 133" fill="none" xmlns="http://www.w3.org/2000/svg">
<path opacity="0.1" fill-rule="evenodd" clip-rule="evenodd" d="M1366 34.3103V47.2695L1364.81 46.9991C1329.05 38.8974 1292.5 34.8087 1255.83 34.8087C1215.1 34.8087 1174.53 39.8541 1135.04 49.8295L1129.16 51.3142C1051.36 70.9679 970.162 73.0985 891.437 57.5519L839.045 47.2058C833.953 46.2003 828.854 45.2461 823.748 44.3433C824.269 44.2442 824.789 44.1446 825.309 44.0445L911.172 27.5264C984.054 13.5056 1058.5 9.43205 1132.48 15.4171L1366 34.3103ZM534.458 47.5263L449.989 62.5628C381.228 74.803 310.585 71.2709 243.388 52.2326C185.359 35.792 124.67 30.8898 64.7548 37.8036L0 45.2758V29.326C104.648 -0.854794 214.761 -7.01607 322.123 11.3018L532.13 47.1326C532.906 47.265 533.682 47.3962 534.458 47.5263Z" fill="#0C2F8B"/>
<path opacity="0.2" fill-rule="evenodd" clip-rule="evenodd" d="M1257.23 34.8106L1366 20.354V47.2694L1364.81 46.999C1329.5 39.0008 1293.43 34.9137 1257.23 34.8106ZM1121.13 53.2786C1044.35 62.007 966.542 53.8996 893.131 29.4573C806.505 0.614859 713.911 -5.43171 624.269 11.9002L558.013 24.7106C430.197 49.4234 298.647 42.4068 168.823 32.7508C115.191 28.7619 56.2805 28.0432 0 34.8086V45.2757L64.7548 37.8034C124.67 30.8897 185.359 35.7918 243.388 52.2325C310.585 71.2707 381.228 74.8029 449.989 62.5627L551.448 44.5018C646.651 27.5544 744.177 28.4713 839.045 47.2056L891.437 57.5518C967.456 72.564 1045.78 71.0934 1121.13 53.2786Z" fill="#17378C"/>
<path d="M1366 47.2697L1364.81 46.9993C1329.05 38.8976 1292.5 34.8089 1255.83 34.8089C1215.1 34.8089 1174.53 39.8543 1135.04 49.8297L1129.16 51.3144C1051.36 70.9681 970.162 73.0987 891.437 57.5521L839.045 47.2059C744.177 28.4717 646.651 27.5548 551.448 44.5021L449.989 62.563C381.228 74.8032 310.585 71.2711 243.388 52.2328C185.359 35.7922 124.67 30.89 64.7548 37.8038L0 45.276V133H1366V47.2697Z" fill="#0E1F50"/>
</svg>
