<svg  viewBox="0 0 1366 133" fill="none" xmlns="http://www.w3.org/2000/svg">
<path opacity="0.1" fill-rule="evenodd" clip-rule="evenodd" d="M1366 33.3132V46.2725L1364.81 46.002C1329.05 37.9004 1292.5 33.8116 1255.83 33.8116C1215.1 33.8116 1174.53 38.857 1135.04 48.8325L1129.16 50.3171C1051.36 69.9709 970.162 72.1014 891.437 56.5548L839.045 46.2087C833.953 45.2032 828.854 44.2491 823.748 43.3463C824.269 43.2472 824.789 43.1476 825.309 43.0474L911.172 26.5293C984.054 12.5085 1058.5 8.43498 1132.48 14.42L1366 33.3132ZM534.458 46.5292L449.989 61.5657C381.228 73.806 310.585 70.2738 243.388 51.2356C185.359 34.7949 124.67 29.8927 64.7548 36.8065L0 44.2787V28.3289C104.648 -1.85186 214.761 -8.01314 322.123 10.3047L532.13 46.1355C532.906 46.2679 533.682 46.3991 534.458 46.5292Z" fill="#0C2F8B"/>
<path opacity="0.2" fill-rule="evenodd" clip-rule="evenodd" d="M1257.23 33.8136L1366 19.3571V46.2725L1364.81 46.002C1329.5 38.0039 1293.43 33.9168 1257.23 33.8136ZM1121.13 52.2817C1044.35 61.01 966.542 52.9027 893.131 28.4604C806.505 -0.38209 713.911 -6.42866 624.269 10.9032L558.013 23.7137C430.197 48.4265 298.647 41.4098 168.823 31.7539C115.191 27.7649 56.2805 27.0462 0 33.8116V44.2787L64.7548 36.8065C124.67 29.8927 185.359 34.7949 243.388 51.2356C310.585 70.2738 381.228 73.806 449.989 61.5657L551.448 43.5048C646.651 26.5575 744.177 27.4744 839.045 46.2087L891.437 56.5548C967.456 71.567 1045.78 70.0965 1121.13 52.2817Z" fill="#17378C"/>
<path d="M1366 46.2725L1364.81 46.002C1329.05 37.9004 1292.5 33.8117 1255.83 33.8117V33.8117C1215.1 33.8117 1174.53 38.857 1135.04 48.8325L1129.16 50.3171C1051.36 69.9709 970.162 72.1014 891.437 56.5548L839.045 46.2087C744.177 27.4744 646.651 26.5575 551.448 43.5048L449.989 61.5657C381.228 73.806 310.585 70.2738 243.388 51.2356V51.2356C185.359 34.7949 124.67 29.8927 64.7548 36.8065L0 44.2787V132.003H1366V46.2725Z" fill="#041133"/>
</svg>
