<svg width="1428" height="474" viewBox="0 0 1428 474" fill="none" xmlns="http://www.w3.org/2000/svg">
<g opacity="0.2" filter="url(#filter0_d)">
<path d="M1398 250.5C1316 207 1230.5 183 1081.5 198C932.5 213 819.5 286.705 714 324.5C608.5 362.295 486.562 388.5 332.5 388.5C223.614 388.5 119 352 30.5 301" stroke="#18DCA6" stroke-width="2" stroke-linecap="round"/>
</g>
<g opacity="0.2" filter="url(#filter1_d)">
<path d="M31 322.339C121 264.5 278 219 389 210C500 201 633.5 204.5 769 280C904.5 355.5 988 380.339 1111 369C1234 357.66 1331 293.5 1398 208.5" stroke="#18DCA6" stroke-width="2" stroke-linecap="round"/>
</g>
<g opacity="0.1" filter="url(#filter2_d)">
<path d="M1397 181.5C1297.52 265.039 1233 330.5 1078.5 330.5C924 330.5 842.5 217 710 168C577.5 119 427 121 295 153C163 185 84.0005 236.5 30.5003 287.5" stroke="#18DCA6" stroke-width="2" stroke-linecap="round"/>
</g>
<defs>
<filter id="filter0_d" x="13.5" y="176.523" width="1401.5" height="228.977" filterUnits="userSpaceOnUse" color-interpolation-filters="sRGB">
<feFlood flood-opacity="0" result="BackgroundImageFix"/>
<feColorMatrix in="SourceAlpha" type="matrix" values="0 0 0 0 0 0 0 0 0 0 0 0 0 0 0 0 0 0 127 0"/>
<feOffset/>
<feGaussianBlur stdDeviation="8"/>
<feColorMatrix type="matrix" values="0 0 0 0 0.0934375 0 0 0 0 0.8625 0 0 0 0 0.649529 0 0 0 1 0"/>
<feBlend mode="normal" in2="BackgroundImageFix" result="effect1_dropShadow"/>
<feBlend mode="normal" in="SourceGraphic" in2="effect1_dropShadow" result="shape"/>
</filter>
<filter id="filter1_d" x="14" y="189.497" width="1401" height="199.115" filterUnits="userSpaceOnUse" color-interpolation-filters="sRGB">
<feFlood flood-opacity="0" result="BackgroundImageFix"/>
<feColorMatrix in="SourceAlpha" type="matrix" values="0 0 0 0 0 0 0 0 0 0 0 0 0 0 0 0 0 0 127 0"/>
<feOffset/>
<feGaussianBlur stdDeviation="8"/>
<feColorMatrix type="matrix" values="0 0 0 0 0.0934375 0 0 0 0 0.8625 0 0 0 0 0.649529 0 0 0 1 0"/>
<feBlend mode="normal" in2="BackgroundImageFix" result="effect1_dropShadow"/>
<feBlend mode="normal" in="SourceGraphic" in2="effect1_dropShadow" result="shape"/>
</filter>
<filter id="filter2_d" x="0.576172" y="0.702148" width="1427.01" height="473.146" filterUnits="userSpaceOnUse" color-interpolation-filters="sRGB">
<feFlood flood-opacity="0" result="BackgroundImageFix"/>
<feColorMatrix in="SourceAlpha" type="matrix" values="0 0 0 0 0 0 0 0 0 0 0 0 0 0 0 0 0 0 127 0"/>
<feOffset/>
<feGaussianBlur stdDeviation="8"/>
<feColorMatrix type="matrix" values="0 0 0 0 0.0934375 0 0 0 0 0.8625 0 0 0 0 0.649529 0 0 0 1 0"/>
<feBlend mode="normal" in2="BackgroundImageFix" result="effect1_dropShadow"/>
<feBlend mode="normal" in="SourceGraphic" in2="effect1_dropShadow" result="shape"/>
</filter>
</defs>
</svg>
