<svg width="1366" height="132" viewBox="0 0 1366 132" fill="none" xmlns="http://www.w3.org/2000/svg">
<path fill-rule="evenodd" clip-rule="evenodd" d="M1366 33.3147V46.2734L1364.81 46.0029C1329.05 37.9016 1292.5 33.8131 1255.83 33.8131C1215.1 33.8131 1174.53 38.8582 1135.04 48.8333L1129.16 50.3178C1051.36 69.9707 970.163 72.1012 891.437 56.5553L839.045 46.2095C833.953 45.2041 828.854 44.25 823.748 43.3473C824.267 43.2486 824.785 43.1494 825.303 43.0497L911.177 26.5302C984.056 12.5106 1058.5 8.43743 1132.47 14.422L1366 33.3147ZM534.457 46.5301L449.988 61.566C381.227 73.8056 310.585 70.2736 243.388 51.2362C185.359 34.7963 124.67 29.8943 64.755 36.8078L0 44.2797V28.3306C104.649 -1.84885 214.761 -8.00986 322.123 10.3072L532.136 46.1375C532.91 46.2695 533.684 46.4004 534.457 46.5301Z" fill="#F6F7FB"/>
<path fill-rule="evenodd" clip-rule="evenodd" d="M1257.24 33.815L1366 19.3592V46.2733L1364.81 46.0029C1329.5 38.0051 1293.43 33.9181 1257.24 33.815ZM1121.13 52.2823C1044.35 61.0102 966.542 52.9033 893.131 28.462C806.505 -0.379189 713.911 -6.42552 624.27 10.9056L558.013 23.7156C430.197 48.4272 298.647 41.411 168.823 31.7554C115.192 27.7666 56.2806 27.0479 0 33.8131V44.2796L64.755 36.8077C124.67 29.8942 185.359 34.7962 243.388 51.2362C310.585 70.2736 381.227 73.8056 449.988 61.5659L551.447 43.5058C646.651 26.5592 744.177 27.476 839.045 46.2095L891.437 56.5552C967.456 71.5667 1045.78 70.0962 1121.13 52.2823Z" fill="#EEF1F7"/>
<path d="M1366 46.2735L1364.81 46.0031C1329.05 37.9018 1292.5 33.8132 1255.83 33.8132C1215.1 33.8132 1174.53 38.8584 1135.04 48.8334L1129.16 50.318C1051.36 69.9709 970.163 72.1013 891.437 56.5554L839.045 46.2097C744.177 27.4762 646.651 26.5594 551.447 43.506L449.988 61.5661C381.227 73.8058 310.585 70.2738 243.388 51.2364C185.359 34.7964 124.67 29.8945 64.755 36.8079L0 44.2798V132H1366V46.2735Z" fill="#FAFBFD"/>
</svg>
