<svg viewBox="0 0 1366 70" preserveAspectRatio="none" fill="none" xmlns="http://www.w3.org/2000/svg">
<path d="M0 34L197.5 29L225 38H598L686.5 20L777.5 38H1192L1203 31L1366 28.5V70H0V34Z" fill="#0E1F50"/>
<path fill-rule="evenodd" clip-rule="evenodd" d="M1366 33.3118V46.2705L1364.81 46C1329.05 37.8987 1292.5 33.8101 1255.83 33.8101C1215.1 33.8101 1174.53 38.8553 1135.04 48.8303L1129.16 50.3149C1051.36 69.9678 970.163 72.0982 891.437 56.5523L839.045 46.2066C833.953 45.2012 828.854 44.2471 823.748 43.3443C824.267 43.2457 824.785 43.1465 825.303 43.0468L911.177 26.5273C984.056 12.5077 1058.5 8.4345 1132.47 14.419L1366 33.3118ZM534.457 46.5272L449.988 61.563C381.227 73.8027 310.585 70.2707 243.388 51.2333C185.359 34.7933 124.67 29.8914 64.755 36.8048L0 44.2768V28.3277C104.649 -1.85178 214.761 -8.01279 322.123 10.3042L532.136 46.1346C532.91 46.2666 533.684 46.3974 534.457 46.5272Z" fill="#13265C"/>
<path fill-rule="evenodd" clip-rule="evenodd" d="M1257.24 34.8119L1366 20.356V47.2702L1364.81 46.9998C1329.5 39.0019 1293.43 34.915 1257.24 34.8119ZM1121.13 53.2792C1044.35 62.0071 934.542 57.9001 861.131 33.4589C794 15.9028 662 4.99962 592.27 15.9024L526.013 28.7124C398.197 53.4241 298.647 42.4078 168.823 32.7523C115.192 28.7635 56.2806 28.0448 0 34.8099V45.2765L64.755 37.8046C124.67 30.8911 185.359 35.7931 243.388 52.233C310.585 71.2704 381.227 74.8025 449.988 62.5628L526.013 53.2792C621.216 36.3326 712.177 28.4729 807.045 47.2064L859.437 57.5521C935.456 72.5636 1045.78 71.0931 1121.13 53.2792Z" fill="#0E1F50"/>
</svg>
