<svg width="1366" height="133" viewBox="0 0 1366 133" fill="none" xmlns="http://www.w3.org/2000/svg">
<path opacity="0.1" d="M0 132V28.3289C104.648 -1.85186 214.761 -8.01314 322.123 10.3047C522.435 44.4813 710.992 65.0395 911.172 26.5293C1111.35 -11.9808 1214.94 21.092 1366 33.3132V132H0Z" fill="#0C2F8B"/>
<path opacity="0.2" d="M1366 19.3566V46.272V132H0V33.8112C56.2805 27.0457 115.191 27.7645 168.823 31.7534C298.647 41.4094 430.197 48.426 558.013 23.7132C671.321 1.80541 780.73 -8.96444 893.131 28.4599C1045.75 79.2741 1210.87 39.9757 1366 19.3566Z" fill="#17378C"/>
<path d="M1366 46.2353C1330.24 38.1336 1292.5 33.8119 1255.83 33.8119C1130.98 33.8119 1035 84.5002 891.437 56.5551C776 25.5002 667.928 13.3533 553 33.8119C449.185 52.2922 358 71.0002 243.388 51.2358C149.683 35.0768 82.3833 34.7725 0 44.279V132.003H1366V46.2353Z" fill="#0E1F50"/>
</svg>
