<svg width="1366" height="134" viewBox="0 0 1366 134" fill="none" xmlns="http://www.w3.org/2000/svg">
<path opacity="0.1" d="M0 133V16.0003C92.5 13.0003 266.5 53.0003 469 12.0003C672.863 -29.2758 847.32 68.5104 1047.5 30.0003C1247.68 -8.50992 1296.5 -2.99976 1366 11.305V133H0Z" fill="#0C2F8B"/>
<path opacity="0.2" d="M1366 133V66.0001C1148.5 -1.99999 1012 -17.0565 829.131 29.4604C640.5 77.4433 658 56.5 494.013 24.7138C398.5 2.5 284.177 5.74607 148 48.5C98.1774 64.1422 36.5 48.5 0 48.5V133H1366Z" fill="#17378C"/>
<path d="M1366 30.4996C1339 27.9996 1320.81 30.8273 1313.5 32.4996C1219.5 53.9996 1188.56 90.4448 1045 62.4996C929.563 31.4448 784.928 1.35261 670 21.8112C566.185 40.2916 512.551 62.1831 390.5 37.9996C229 5.99962 119 11.9996 0 68.9996V133.002H1366V30.4996Z" fill="#0E1F50"/>
</svg>
